<?xml version="1.0" encoding="UTF-8" ?>
<!DOCTYPE svg PUBLIC "-//W3C//DTD SVG 1.1//EN" "http://www.w3.org/Graphics/SVG/1.1/DTD/svg11.dtd">
<svg width="800pt" height="800pt" viewBox="0 0 800 800" version="1.1" xmlns="http://www.w3.org/2000/svg">
<g id="#ffffffff">
<path fill="#ffffff" opacity="1.00" d=" M 0.00 0.00 L 0.10 0.00 C 0.08 0.03 0.03 0.08 0.00 0.10 L 0.00 0.00 Z" />
<path fill="#ffffff" opacity="1.00" d=" M 397.67 306.62 C 399.59 305.54 402.00 306.76 404.12 306.73 C 406.69 307.26 410.46 306.39 411.66 309.47 C 412.12 311.84 412.19 314.27 412.40 316.68 C 407.08 314.73 401.39 314.85 395.81 314.89 C 396.12 312.08 396.44 309.20 397.67 306.62 Z" />
<path fill="#ffffff" opacity="1.00" d=" M 395.28 321.89 C 400.96 322.40 406.73 323.88 412.36 322.15 C 413.22 325.97 413.25 329.98 412.37 333.80 C 406.40 331.69 399.80 331.10 393.89 333.74 C 393.88 329.74 394.46 325.79 395.28 321.89 Z" />
<path fill="#ffffff" opacity="1.00" d=" M 393.66 338.13 C 400.01 339.84 406.53 338.73 412.90 337.86 C 412.99 342.17 412.99 346.50 413.00 350.82 C 406.38 348.96 399.59 350.64 392.99 351.64 C 392.99 347.13 392.77 342.57 393.66 338.13 Z" />
<path fill="#ffffff" opacity="1.00" d=" M 393.07 358.03 C 399.67 357.85 406.37 358.64 412.88 357.20 C 412.98 359.81 413.13 362.43 413.49 365.03 C 406.60 364.62 399.71 365.17 392.97 366.66 C 393.00 363.78 393.02 360.90 393.07 358.03 Z" />
<path fill="#ffffff" opacity="1.00" d=" M 392.99 374.49 C 399.59 375.50 406.30 374.87 412.96 375.04 C 412.98 378.68 412.98 382.32 412.96 385.96 C 406.30 386.12 399.56 385.39 393.00 386.84 C 393.02 382.72 393.02 378.60 392.99 374.49 Z" />
<path fill="#ffffff" opacity="1.00" d=" M 435.21 398.17 C 442.17 393.75 449.61 389.15 458.02 388.43 C 466.88 389.66 473.56 396.54 482.13 398.80 C 492.40 401.28 504.47 403.17 513.69 396.64 C 519.83 392.40 526.94 389.61 534.40 388.95 C 535.50 391.03 536.42 393.33 538.28 394.87 C 546.91 396.58 554.46 390.16 563.02 390.93 C 569.72 390.36 574.76 395.67 578.56 400.47 C 581.92 407.29 583.89 415.12 582.74 422.74 C 581.23 429.38 578.28 436.78 571.59 439.65 C 564.82 441.26 557.85 438.55 552.44 434.57 C 547.26 430.32 544.93 421.80 537.17 421.61 C 537.02 423.49 536.90 425.37 536.76 427.26 C 527.87 425.17 519.24 422.01 511.03 418.03 C 506.67 416.09 502.31 413.85 497.46 413.55 C 495.54 410.43 494.15 404.59 489.33 406.04 C 487.09 408.29 487.93 411.86 488.33 414.67 C 489.24 418.90 490.79 422.95 492.12 427.06 C 484.93 425.02 477.72 422.77 470.18 422.71 C 463.49 421.32 456.74 422.98 450.16 424.19 C 446.09 424.98 443.10 427.99 440.67 431.14 C 441.98 433.20 443.38 435.69 446.13 435.88 C 457.30 436.49 468.53 435.50 479.69 436.31 C 484.62 437.28 489.65 436.80 494.62 437.22 C 496.51 439.42 496.83 442.53 497.88 445.18 C 499.93 450.88 501.14 456.81 502.46 462.70 C 497.89 463.24 493.38 464.15 488.83 464.79 C 476.51 465.71 464.23 464.15 452.00 463.03 C 446.79 463.39 440.78 463.58 437.22 468.02 C 441.09 472.22 446.89 473.26 452.12 474.84 C 462.84 477.47 474.09 479.39 485.05 477.08 C 491.92 476.22 498.57 474.26 504.62 470.88 C 505.94 478.43 506.57 486.08 507.05 493.72 C 495.24 498.28 482.70 501.02 470.02 501.13 C 461.31 502.58 451.52 500.78 443.93 506.27 C 443.25 509.37 446.50 511.06 448.88 512.08 C 453.41 513.66 458.19 514.62 462.97 515.02 C 477.50 515.54 492.37 512.95 505.30 506.09 C 502.85 512.95 498.01 519.77 490.61 521.66 C 481.74 524.91 472.23 523.82 463.00 523.97 C 457.99 523.99 452.99 523.92 447.98 523.94 C 441.88 523.86 435.73 526.11 429.69 524.35 C 426.07 523.26 421.90 522.76 419.32 519.70 C 416.41 516.55 413.02 513.87 410.34 510.52 C 409.44 501.03 410.88 490.89 406.80 481.97 C 405.60 481.96 404.41 481.96 403.21 481.97 C 398.40 491.13 402.36 501.76 400.61 511.49 C 395.91 516.17 392.58 522.56 386.55 525.71 C 380.71 526.10 374.88 524.29 369.02 524.04 C 357.07 523.71 345.10 524.28 333.15 523.82 C 326.63 522.73 319.24 521.63 314.72 516.27 C 311.84 513.47 310.12 509.77 308.70 506.07 C 321.62 512.96 336.50 515.53 351.03 515.02 C 355.81 514.63 360.59 513.66 365.12 512.08 C 367.50 511.07 370.74 509.37 370.07 506.27 C 362.48 500.79 352.69 502.57 343.99 501.13 C 331.30 501.02 318.76 498.28 306.95 493.72 C 307.44 486.06 308.12 478.40 309.31 470.81 C 312.97 472.51 316.51 474.62 320.52 475.45 C 328.54 477.20 336.74 478.73 344.98 477.92 C 353.82 476.86 362.62 475.08 370.98 471.98 C 373.23 471.19 375.03 469.57 376.78 468.02 C 373.22 463.58 367.21 463.39 362.00 463.03 C 351.68 463.93 341.37 465.34 330.98 465.01 C 324.23 465.29 317.72 463.17 311.02 462.79 C 313.20 454.34 315.50 445.86 318.82 437.79 C 321.72 436.16 325.71 437.48 329.03 436.93 C 341.89 435.05 354.94 436.62 367.87 435.88 C 370.61 435.69 372.01 433.20 373.33 431.15 C 370.90 428.00 367.91 424.99 363.84 424.19 C 357.26 422.98 350.51 421.32 343.82 422.71 C 336.27 422.77 329.06 425.02 321.88 427.06 C 323.70 420.91 326.82 414.74 325.92 408.17 C 325.70 405.35 321.51 405.09 320.24 407.18 C 318.69 409.10 317.71 411.39 316.54 413.55 C 309.67 414.12 303.74 417.94 297.52 420.55 C 290.94 423.26 284.20 425.68 277.24 427.26 C 277.09 425.37 276.97 423.49 276.83 421.61 C 274.76 422.10 272.39 422.24 270.76 423.76 C 267.48 427.17 265.04 431.35 261.56 434.57 C 256.15 438.56 249.18 441.25 242.42 439.65 C 237.61 437.60 234.45 432.91 232.84 428.09 C 229.26 419.41 231.06 409.41 235.24 401.29 C 238.56 396.24 243.47 390.86 250.01 390.94 C 256.90 390.09 261.75 395.87 267.66 398.29 C 271.55 399.98 275.85 400.35 280.05 400.17 C 281.48 396.96 280.69 393.65 279.29 390.61 C 288.86 392.44 295.29 400.81 304.54 403.46 C 308.38 404.91 312.94 403.76 315.71 400.75 C 318.85 397.10 324.01 396.95 328.16 395.08 C 336.18 391.98 345.70 388.90 353.92 393.02 C 361.52 396.39 368.38 401.13 375.37 405.57 C 382.86 409.62 390.16 414.82 398.97 415.34 C 399.11 425.79 397.83 436.29 399.38 446.68 C 399.95 449.09 401.09 451.31 402.15 453.53 C 406.43 453.15 407.35 448.40 407.92 444.92 C 409.13 435.10 409.91 425.23 410.21 415.35 C 414.26 412.72 419.66 412.72 423.41 409.40 C 428.16 406.51 430.36 400.94 435.21 398.17 Z" />
<path fill="#ffffff" opacity="1.00" d=" M 392.19 391.98 C 399.01 393.64 406.05 392.88 412.98 393.04 C 412.95 395.60 412.98 398.15 412.95 400.71 C 408.95 401.81 405.02 403.28 400.91 403.86 C 397.47 403.89 394.23 402.44 391.14 401.10 C 391.78 398.10 392.08 395.03 392.19 391.98 Z" />
<path fill="#ffffff" opacity="1.00" d=" M 398.79 529.81 C 400.91 527.81 402.90 525.68 405.00 523.68 C 408.79 527.70 412.98 531.29 417.58 534.36 C 411.72 533.86 405.84 533.87 399.97 533.96 C 395.94 534.02 392.19 535.63 388.32 536.51 C 391.56 533.88 395.77 532.72 398.79 529.81 Z" />
<path fill="#ffffff" opacity="1.00" d=" M 389.08 543.04 C 396.04 544.80 403.28 543.36 410.30 544.68 C 412.55 545.10 414.83 544.69 417.06 544.31 C 416.93 548.42 417.14 552.55 416.56 556.63 C 407.47 555.54 398.01 555.20 389.13 557.83 C 388.96 552.90 388.99 547.97 389.08 543.04 Z" />
<path fill="#ffffff" opacity="1.00" d=" M 388.91 563.90 C 397.92 565.35 407.03 565.00 416.12 565.10 C 415.72 568.73 415.06 572.34 414.77 576.00 C 407.00 572.92 398.30 573.53 390.24 574.97 C 389.82 571.28 389.14 567.61 388.91 563.90 Z" />
<path fill="#ffffff" opacity="1.00" d=" M 391.02 582.02 C 398.55 583.63 406.39 583.42 413.91 581.89 C 413.49 583.89 413.08 585.91 412.73 587.93 C 405.49 587.99 398.26 588.00 391.03 587.94 C 391.02 585.96 391.02 583.99 391.02 582.02 Z" />
<path fill="#ffffff" opacity="1.00" d=" M 392.84 596.48 C 399.77 597.99 406.84 596.67 413.27 593.92 C 412.25 596.26 411.48 598.84 409.65 600.70 C 404.12 601.28 398.37 602.06 393.06 599.86 C 393.07 598.72 393.00 597.60 392.84 596.48 Z" />
<path fill="#ffffff" opacity="1.00" d=" M 338.95 616.05 C 340.99 612.01 346.13 610.36 350.32 611.63 C 357.98 613.51 365.36 616.35 372.67 619.28 C 377.01 620.60 381.84 621.96 386.26 620.22 C 390.46 618.79 393.62 615.49 397.54 613.55 C 400.54 612.85 403.67 612.94 406.71 612.41 C 411.86 618.47 420.45 619.56 427.93 618.90 C 434.91 617.45 441.98 616.17 448.68 613.66 C 453.60 612.08 459.32 609.66 464.16 612.79 C 466.76 614.67 469.72 619.10 466.78 621.87 C 463.75 621.64 460.87 620.59 457.87 620.23 C 453.40 620.20 448.81 622.20 446.95 626.49 C 447.32 627.06 448.06 628.20 448.43 628.76 C 454.14 630.45 460.75 631.34 464.74 636.27 C 467.60 639.11 467.91 644.18 465.19 647.21 C 460.66 650.42 454.69 650.44 449.41 649.63 C 447.49 649.10 444.79 649.13 444.17 646.79 C 441.35 640.14 436.09 634.91 430.42 630.59 C 426.13 626.87 420.77 624.33 415.07 623.86 C 408.64 623.09 402.20 619.54 395.69 621.74 C 389.86 623.75 383.59 624.92 378.39 628.42 C 372.19 633.07 365.88 638.21 362.52 645.38 C 361.76 646.63 361.48 648.59 359.74 648.85 C 353.79 650.56 346.92 650.83 341.40 647.66 C 337.99 644.94 338.26 639.23 341.26 636.27 C 345.25 631.34 351.86 630.46 357.56 628.76 C 357.94 628.20 358.68 627.06 359.06 626.49 C 357.56 623.76 355.37 621.29 352.12 620.84 C 347.82 619.17 343.54 621.63 339.23 621.87 C 337.33 620.48 337.88 617.77 338.95 616.05 Z" />
<path fill="#ffffff" opacity="1.00" d=" M 329.10 669.04 C 332.66 666.92 334.41 662.28 338.81 661.58 C 336.07 665.98 332.68 670.51 332.82 675.96 C 332.91 681.79 333.79 687.95 330.89 693.33 C 326.66 691.12 322.62 688.55 318.23 686.67 C 319.05 682.21 318.96 677.40 321.34 673.40 C 323.51 671.33 326.70 670.82 329.10 669.04 Z" />
<path fill="#ffffff" opacity="1.00" d=" M 467.19 661.58 C 471.58 662.28 473.33 666.91 476.90 669.04 C 479.29 670.81 482.49 671.33 484.66 673.40 C 487.05 677.39 486.92 682.21 487.79 686.66 C 483.39 688.55 479.34 691.11 475.10 693.33 C 471.89 687.34 473.42 680.48 472.97 674.03 C 472.58 669.31 469.56 665.47 467.19 661.58 Z" />
<path fill="#ffffff" opacity="1.00" d=" M 472.84 696.20 C 474.31 696.35 474.48 696.92 473.36 697.91 C 473.23 697.48 472.97 696.62 472.84 696.20 Z" />
<path fill="#ffffff" opacity="1.00" d=" M 305.22 702.26 C 308.27 699.95 312.88 697.78 316.30 700.65 C 319.88 702.64 320.42 707.00 319.74 710.68 C 314.11 711.79 307.93 710.10 304.20 705.61 C 303.77 704.37 304.03 702.95 305.22 702.26 Z" />
<path fill="#ffffff" opacity="1.00" d=" M 486.26 710.68 C 484.67 705.45 488.25 699.34 493.87 699.20 C 496.99 700.05 501.62 701.12 502.10 704.91 C 498.83 710.07 492.01 711.78 486.26 710.68 Z" />
<path fill="#ffffff" opacity="1.00" d=" M 302.93 721.15 C 305.64 722.33 308.41 723.38 311.19 724.42 C 309.85 730.31 306.12 735.75 306.92 742.01 C 307.27 748.18 311.91 752.92 313.19 758.83 C 313.68 760.84 313.95 762.91 314.17 764.99 C 309.83 763.66 305.40 762.61 300.89 762.08 C 296.89 761.60 292.98 762.72 289.04 763.14 C 289.12 759.35 288.11 754.32 291.92 751.95 C 296.29 749.43 300.82 746.14 301.86 740.85 C 302.56 734.30 301.17 727.59 302.93 721.15 Z" />
<path fill="#ffffff" opacity="1.00" d=" M 494.82 724.41 C 497.59 723.38 500.36 722.33 503.07 721.15 C 504.82 727.59 503.43 734.30 504.14 740.85 C 505.17 746.13 509.71 749.43 514.08 751.95 C 517.89 754.32 516.87 759.35 516.97 763.14 C 513.02 762.72 509.10 761.60 505.11 762.08 C 500.60 762.61 496.17 763.66 491.83 764.99 C 492.19 761.37 492.74 757.68 494.36 754.39 C 496.38 750.12 499.17 745.91 499.12 741.01 C 499.54 735.12 496.04 730.01 494.82 724.41 Z" />
<path fill="#ffffff" opacity="1.00" d=" M 273.72 787.06 C 279.81 779.68 289.40 775.24 299.01 775.94 C 305.99 775.36 312.98 778.36 317.26 783.91 C 310.17 784.12 303.07 783.80 295.97 784.02 C 288.51 784.66 281.08 785.67 273.72 787.06 Z" />
<path fill="#ffffff" opacity="1.00" d=" M 488.74 783.91 C 493.02 778.36 500.01 775.37 506.99 775.94 C 516.59 775.24 526.19 779.68 532.28 787.06 C 524.92 785.65 517.49 784.69 510.03 784.02 C 502.94 783.79 495.83 784.13 488.74 783.91 Z" />
</g>
<g id="#000000ff">
<path fill="#000000" opacity="1.00" d=" M 390.93 301.98 C 391.98 298.76 395.85 298.71 398.63 299.19 C 402.91 299.85 407.29 299.59 411.55 300.41 C 416.22 301.46 418.98 306.44 419.13 310.96 C 419.52 319.46 418.54 328.02 419.63 336.49 C 420.48 342.70 419.81 349.00 420.83 355.20 C 421.73 360.81 419.98 366.36 420.11 371.98 C 420.22 380.05 420.02 388.13 420.26 396.19 C 424.98 393.76 429.00 390.23 433.53 387.50 C 439.66 383.87 446.17 380.67 453.15 379.10 C 461.91 377.22 469.97 382.06 477.76 385.27 C 482.62 388.36 488.53 388.15 494.04 388.79 C 500.57 389.40 506.71 386.70 512.76 384.67 C 520.42 381.83 528.67 380.07 536.86 381.18 C 541.01 382.03 544.57 379.24 548.46 378.39 C 554.48 376.93 560.66 378.43 566.67 379.21 C 572.77 380.04 578.89 382.25 583.36 386.63 C 596.13 399.79 600.37 421.15 591.68 437.63 C 588.14 445.20 581.42 451.64 573.03 453.24 C 568.04 454.62 562.95 452.70 558.55 450.44 C 553.67 447.80 548.33 445.66 544.52 441.48 C 541.62 438.66 539.77 435.01 538.31 431.29 C 535.07 432.73 531.74 434.61 528.06 434.17 C 518.79 433.18 510.04 429.57 501.90 425.17 C 508.03 440.22 513.70 455.59 516.45 471.66 C 518.92 480.93 518.07 490.56 518.19 500.04 C 518.37 506.61 515.20 512.54 512.20 518.17 C 508.71 524.44 503.42 529.96 496.73 532.78 C 486.35 536.92 475.04 537.63 464.00 538.19 C 452.07 537.88 440.05 538.97 428.21 536.99 C 428.08 543.99 428.15 550.99 428.20 558.00 C 428.42 567.27 426.91 576.52 424.57 585.47 C 422.72 593.37 417.90 600.06 414.92 607.52 C 422.03 608.46 430.49 610.86 436.49 605.49 C 443.90 598.62 454.78 596.32 464.52 598.43 C 472.39 600.35 478.57 607.24 479.98 615.16 C 480.63 620.32 477.60 624.89 476.54 629.75 C 478.18 633.53 480.53 637.10 480.89 641.33 C 481.87 645.53 479.80 649.46 478.40 653.29 C 477.11 656.01 479.37 658.93 481.57 660.38 C 485.67 662.84 490.55 664.49 493.37 668.63 C 497.16 673.85 496.39 680.68 495.50 686.68 C 503.30 688.74 510.54 694.35 512.86 702.29 C 514.24 706.71 511.58 710.80 509.63 714.56 C 511.58 717.78 514.00 721.04 514.13 724.96 C 514.35 730.17 514.03 735.39 514.23 740.61 C 518.17 742.85 522.44 745.28 524.52 749.52 C 527.02 754.60 526.21 760.45 525.70 765.88 C 530.77 768.70 535.39 772.55 538.53 777.47 C 540.55 780.68 541.16 785.41 538.33 788.35 C 535.08 791.46 530.58 792.75 526.24 793.42 C 516.68 795.09 506.94 793.40 497.35 794.51 C 491.64 795.20 485.84 795.62 480.13 794.94 C 475.95 794.45 472.00 790.44 472.73 786.09 C 473.85 782.44 476.05 779.24 478.00 776.00 C 480.33 772.09 484.31 769.71 487.83 767.02 C 486.31 762.70 484.98 757.99 486.35 753.45 C 487.29 749.26 490.58 745.61 489.85 741.12 C 489.19 735.89 487.21 730.95 486.21 725.80 C 482.18 724.51 477.90 723.26 474.87 720.12 C 468.83 714.49 469.02 704.49 473.36 697.91 C 474.48 696.92 474.31 696.35 472.84 696.20 C 470.85 695.95 468.68 695.10 467.78 693.18 C 465.53 688.79 465.75 683.71 464.96 678.97 C 464.48 674.17 462.27 669.84 460.45 665.46 C 454.45 664.81 448.15 664.28 442.83 661.18 C 438.83 658.85 437.33 654.09 433.84 651.21 C 430.40 648.32 427.40 644.96 423.92 642.12 C 416.88 636.90 408.29 632.85 399.35 633.43 C 391.19 635.94 383.33 640.17 377.39 646.40 C 375.39 648.40 373.18 650.19 371.15 652.18 C 368.30 655.01 366.77 659.12 363.17 661.19 C 357.84 664.28 351.55 664.80 345.56 665.47 C 343.87 669.57 341.75 673.59 341.18 678.06 C 340.34 682.87 340.47 687.94 338.55 692.51 C 337.63 695.17 334.51 695.61 332.29 696.69 C 334.86 701.98 337.03 708.04 335.01 713.90 C 333.07 720.72 326.16 724.17 319.79 725.80 C 318.79 730.95 316.81 735.89 316.14 741.11 C 315.42 745.61 318.71 749.26 319.65 753.44 C 321.02 757.98 319.69 762.70 318.16 767.02 C 321.49 769.58 325.26 771.80 327.60 775.40 C 329.49 778.29 331.26 781.28 332.71 784.43 C 334.93 788.78 331.11 793.91 326.71 794.77 C 317.83 796.37 308.91 793.91 300.00 794.11 C 289.95 794.04 279.02 795.29 269.93 790.11 C 265.77 788.11 264.68 782.69 266.77 778.80 C 269.70 773.16 274.85 768.97 280.30 765.88 C 279.79 760.45 278.98 754.60 281.48 749.52 C 283.57 745.29 287.83 742.85 291.77 740.60 C 292.55 732.94 289.87 724.35 294.54 717.54 C 295.12 716.52 295.74 715.53 296.38 714.56 C 294.41 710.81 291.76 706.70 293.14 702.29 C 295.46 694.34 302.70 688.74 310.50 686.68 C 309.35 679.85 308.86 671.58 314.50 666.50 C 318.45 662.13 326.35 661.86 328.00 655.46 C 327.63 651.23 324.37 647.53 324.91 643.12 C 325.01 638.25 327.47 634.03 329.45 629.76 C 328.48 625.15 325.71 620.89 325.93 616.03 C 326.95 607.46 333.80 599.95 342.29 598.24 C 350.65 596.77 359.77 598.20 366.72 603.28 C 372.60 608.10 380.67 607.33 387.77 608.09 C 380.82 599.75 380.84 588.26 379.68 578.02 C 377.90 564.74 378.99 551.32 380.61 538.08 C 369.40 538.14 358.18 538.26 346.97 538.10 C 335.33 537.11 322.91 536.59 312.69 530.31 C 305.04 525.28 300.62 516.92 297.29 508.67 C 295.60 504.31 295.77 499.58 295.79 495.00 C 295.86 490.33 295.66 485.67 295.96 481.01 C 298.48 461.69 304.62 443.08 312.10 425.16 C 303.97 429.58 295.21 433.18 285.95 434.17 C 282.25 434.61 278.92 432.73 275.68 431.28 C 274.45 434.33 273.09 437.39 270.92 439.90 C 266.08 445.87 258.69 448.72 252.00 452.04 C 243.78 455.94 233.96 452.24 228.02 445.98 C 221.59 438.97 218.14 429.48 217.78 420.04 C 217.20 411.57 219.91 403.25 223.80 395.83 C 226.75 390.68 230.49 385.66 235.84 382.81 C 241.22 379.75 247.50 379.18 253.51 378.29 C 259.86 377.01 265.54 380.94 271.00 383.57 C 276.37 379.89 283.35 377.91 289.65 380.28 C 298.07 382.73 304.02 390.72 312.95 391.62 C 322.12 387.98 331.02 382.98 341.00 381.88 C 346.78 381.38 352.75 381.70 358.25 383.71 C 368.26 387.27 376.55 394.13 385.80 399.16 C 386.43 391.73 384.54 384.41 384.80 376.99 C 385.00 365.32 384.61 353.64 384.96 341.98 C 386.48 328.63 385.91 314.67 390.93 301.98 M 397.67 306.62 C 396.44 309.20 396.12 312.08 395.81 314.89 C 401.39 314.85 407.08 314.73 412.40 316.68 C 412.19 314.27 412.12 311.84 411.66 309.47 C 410.46 306.39 406.69 307.26 404.12 306.73 C 402.00 306.76 399.59 305.54 397.67 306.62 M 395.28 321.89 C 394.46 325.79 393.88 329.74 393.89 333.74 C 399.80 331.10 406.40 331.69 412.37 333.80 C 413.25 329.98 413.22 325.97 412.36 322.15 C 406.73 323.88 400.96 322.40 395.28 321.89 M 393.66 338.13 C 392.77 342.57 392.99 347.13 392.99 351.64 C 399.59 350.64 406.38 348.96 413.00 350.82 C 412.99 346.50 412.99 342.17 412.90 337.86 C 406.53 338.73 400.01 339.84 393.66 338.13 M 393.07 358.03 C 393.02 360.90 393.00 363.78 392.97 366.66 C 399.71 365.17 406.60 364.62 413.49 365.03 C 413.13 362.43 412.98 359.81 412.88 357.20 C 406.37 358.64 399.67 357.85 393.07 358.03 M 392.99 374.49 C 393.02 378.60 393.02 382.72 393.00 386.84 C 399.56 385.39 406.30 386.12 412.96 385.96 C 412.98 382.32 412.98 378.68 412.96 375.04 C 406.30 374.87 399.59 375.50 392.99 374.49 M 435.21 398.17 C 430.36 400.94 428.16 406.51 423.41 409.40 C 419.66 412.72 414.26 412.72 410.21 415.35 C 409.91 425.23 409.13 435.10 407.92 444.92 C 407.35 448.40 406.43 453.15 402.15 453.53 C 401.09 451.31 399.95 449.09 399.38 446.68 C 397.83 436.29 399.11 425.79 398.97 415.34 C 390.16 414.82 382.86 409.62 375.37 405.57 C 368.38 401.13 361.52 396.39 353.92 393.02 C 345.70 388.90 336.18 391.98 328.16 395.08 C 324.01 396.95 318.85 397.10 315.71 400.75 C 312.94 403.76 308.38 404.91 304.54 403.46 C 295.29 400.81 288.86 392.44 279.29 390.61 C 280.69 393.65 281.48 396.96 280.05 400.17 C 275.85 400.35 271.55 399.98 267.66 398.29 C 261.75 395.87 256.90 390.09 250.01 390.94 C 243.47 390.86 238.56 396.24 235.24 401.29 C 231.06 409.41 229.26 419.41 232.84 428.09 C 234.45 432.91 237.61 437.60 242.42 439.65 C 249.18 441.25 256.15 438.56 261.56 434.57 C 265.04 431.35 267.48 427.17 270.76 423.76 C 272.39 422.24 274.76 422.10 276.83 421.61 C 276.97 423.49 277.09 425.37 277.24 427.26 C 284.20 425.68 290.94 423.26 297.52 420.55 C 303.74 417.94 309.67 414.12 316.54 413.55 C 317.71 411.39 318.69 409.10 320.24 407.18 C 321.51 405.09 325.70 405.35 325.92 408.17 C 326.82 414.74 323.70 420.91 321.88 427.06 C 329.06 425.02 336.27 422.77 343.82 422.71 C 350.51 421.32 357.26 422.98 363.84 424.19 C 367.91 424.99 370.90 428.00 373.33 431.15 C 372.01 433.20 370.61 435.69 367.87 435.88 C 354.94 436.62 341.89 435.05 329.03 436.93 C 325.71 437.48 321.72 436.16 318.82 437.79 C 315.50 445.86 313.20 454.34 311.02 462.79 C 317.72 463.17 324.23 465.29 330.98 465.01 C 341.37 465.34 351.68 463.93 362.00 463.03 C 367.21 463.39 373.22 463.58 376.78 468.02 C 375.03 469.57 373.23 471.19 370.98 471.98 C 362.62 475.08 353.82 476.86 344.98 477.92 C 336.74 478.73 328.54 477.20 320.52 475.45 C 316.51 474.62 312.97 472.51 309.31 470.81 C 308.12 478.40 307.44 486.06 306.95 493.72 C 318.76 498.28 331.30 501.02 343.99 501.13 C 352.69 502.57 362.48 500.79 370.07 506.27 C 370.74 509.37 367.50 511.07 365.12 512.08 C 360.59 513.66 355.81 514.63 351.03 515.02 C 336.50 515.53 321.62 512.96 308.70 506.07 C 310.12 509.77 311.84 513.47 314.72 516.27 C 319.24 521.63 326.63 522.73 333.15 523.82 C 345.10 524.28 357.07 523.71 369.02 524.04 C 374.88 524.29 380.71 526.10 386.55 525.71 C 392.58 522.56 395.91 516.17 400.61 511.49 C 402.36 501.76 398.40 491.13 403.21 481.97 C 404.41 481.96 405.60 481.96 406.80 481.97 C 410.88 490.89 409.44 501.03 410.34 510.52 C 413.02 513.87 416.41 516.55 419.32 519.70 C 421.90 522.76 426.07 523.26 429.69 524.35 C 435.73 526.11 441.88 523.86 447.98 523.94 C 452.99 523.92 457.99 523.99 463.00 523.97 C 472.23 523.82 481.74 524.91 490.61 521.66 C 498.01 519.77 502.85 512.95 505.30 506.09 C 492.37 512.95 477.50 515.54 462.97 515.02 C 458.19 514.62 453.41 513.66 448.88 512.08 C 446.50 511.06 443.25 509.37 443.93 506.27 C 451.52 500.78 461.31 502.58 470.02 501.13 C 482.70 501.02 495.24 498.28 507.05 493.72 C 506.57 486.08 505.94 478.43 504.62 470.88 C 498.57 474.26 491.92 476.22 485.05 477.08 C 474.09 479.39 462.84 477.47 452.12 474.84 C 446.89 473.26 441.09 472.22 437.22 468.02 C 440.78 463.58 446.79 463.39 452.00 463.03 C 464.23 464.15 476.51 465.71 488.83 464.79 C 493.38 464.15 497.89 463.24 502.46 462.70 C 501.14 456.81 499.93 450.88 497.88 445.18 C 496.83 442.53 496.51 439.42 494.62 437.22 C 489.65 436.80 484.62 437.28 479.69 436.31 C 468.53 435.50 457.30 436.49 446.13 435.88 C 443.38 435.69 441.98 433.20 440.67 431.14 C 443.10 427.99 446.09 424.98 450.16 424.19 C 456.74 422.98 463.49 421.32 470.18 422.71 C 477.72 422.77 484.93 425.02 492.12 427.06 C 490.79 422.95 489.24 418.90 488.33 414.67 C 487.93 411.86 487.09 408.29 489.33 406.04 C 494.15 404.59 495.54 410.43 497.46 413.55 C 502.31 413.85 506.67 416.09 511.03 418.03 C 519.24 422.01 527.87 425.17 536.76 427.26 C 536.90 425.37 537.02 423.49 537.17 421.61 C 544.93 421.80 547.26 430.32 552.44 434.57 C 557.85 438.55 564.82 441.26 571.59 439.65 C 578.28 436.78 581.23 429.38 582.74 422.74 C 583.89 415.12 581.92 407.29 578.56 400.47 C 574.76 395.67 569.72 390.36 563.02 390.93 C 554.46 390.16 546.91 396.58 538.28 394.87 C 536.42 393.33 535.50 391.03 534.40 388.95 C 526.94 389.61 519.83 392.40 513.69 396.64 C 504.47 403.17 492.40 401.28 482.13 398.80 C 473.56 396.54 466.88 389.66 458.02 388.43 C 449.61 389.15 442.17 393.75 435.21 398.17 M 392.19 391.98 C 392.08 395.03 391.78 398.10 391.14 401.10 C 394.23 402.44 397.47 403.89 400.91 403.86 C 405.02 403.28 408.95 401.81 412.95 400.71 C 412.98 398.15 412.95 395.60 412.98 393.04 C 406.05 392.88 399.01 393.64 392.19 391.98 M 398.79 529.81 C 395.77 532.72 391.56 533.88 388.32 536.51 C 392.19 535.63 395.94 534.02 399.97 533.96 C 405.84 533.87 411.72 533.86 417.58 534.36 C 412.98 531.29 408.79 527.70 405.00 523.68 C 402.90 525.68 400.91 527.81 398.79 529.81 M 389.08 543.04 C 388.99 547.97 388.96 552.90 389.13 557.83 C 398.01 555.20 407.47 555.54 416.56 556.63 C 417.14 552.55 416.93 548.42 417.06 544.31 C 414.83 544.69 412.55 545.10 410.30 544.68 C 403.28 543.36 396.04 544.80 389.08 543.04 M 388.91 563.90 C 389.14 567.61 389.82 571.28 390.24 574.97 C 398.30 573.53 407.00 572.92 414.77 576.00 C 415.06 572.34 415.72 568.73 416.12 565.10 C 407.03 565.00 397.92 565.35 388.91 563.90 M 391.02 582.02 C 391.02 583.99 391.02 585.96 391.03 587.94 C 398.26 588.00 405.49 587.99 412.73 587.93 C 413.08 585.91 413.49 583.89 413.91 581.89 C 406.39 583.42 398.55 583.63 391.02 582.02 M 392.84 596.48 C 393.00 597.60 393.07 598.72 393.06 599.86 C 398.37 602.06 404.12 601.28 409.65 600.70 C 411.48 598.84 412.25 596.26 413.27 593.92 C 406.84 596.67 399.77 597.99 392.84 596.48 M 338.95 616.05 C 337.88 617.77 337.33 620.48 339.23 621.87 C 343.54 621.63 347.82 619.17 352.12 620.84 C 355.37 621.29 357.56 623.76 359.06 626.49 C 358.68 627.06 357.94 628.20 357.56 628.76 C 351.86 630.46 345.25 631.34 341.26 636.27 C 338.26 639.23 337.99 644.94 341.40 647.66 C 346.92 650.83 353.79 650.56 359.74 648.85 C 361.48 648.59 361.76 646.63 362.52 645.38 C 365.88 638.21 372.19 633.07 378.39 628.42 C 383.59 624.92 389.86 623.75 395.69 621.74 C 402.20 619.54 408.64 623.09 415.07 623.86 C 420.77 624.33 426.13 626.87 430.42 630.59 C 436.09 634.91 441.35 640.14 444.17 646.79 C 444.79 649.13 447.49 649.10 449.41 649.63 C 454.69 650.44 460.66 650.42 465.19 647.21 C 467.91 644.18 467.60 639.11 464.74 636.27 C 460.75 631.34 454.14 630.45 448.43 628.76 C 448.06 628.20 447.32 627.06 446.95 626.49 C 448.81 622.20 453.40 620.20 457.87 620.23 C 460.87 620.59 463.75 621.64 466.78 621.87 C 469.72 619.10 466.76 614.67 464.16 612.79 C 459.32 609.66 453.60 612.08 448.68 613.66 C 441.98 616.17 434.91 617.45 427.93 618.90 C 420.45 619.56 411.86 618.47 406.71 612.41 C 403.67 612.94 400.54 612.85 397.54 613.55 C 393.62 615.49 390.46 618.79 386.26 620.22 C 381.84 621.96 377.01 620.60 372.67 619.28 C 365.36 616.35 357.98 613.51 350.32 611.63 C 346.13 610.36 340.99 612.01 338.95 616.05 M 329.10 669.04 C 326.70 670.82 323.51 671.33 321.34 673.40 C 318.96 677.40 319.05 682.21 318.23 686.67 C 322.62 688.55 326.66 691.12 330.89 693.33 C 333.79 687.95 332.91 681.79 332.82 675.96 C 332.68 670.51 336.07 665.98 338.81 661.58 C 334.41 662.28 332.66 666.92 329.10 669.04 M 467.19 661.58 C 469.56 665.47 472.58 669.31 472.97 674.03 C 473.42 680.48 471.89 687.34 475.10 693.33 C 479.34 691.11 483.39 688.55 487.79 686.66 C 486.92 682.21 487.05 677.39 484.66 673.40 C 482.49 671.33 479.29 670.81 476.90 669.04 C 473.33 666.91 471.58 662.28 467.19 661.58 M 305.22 702.26 C 304.03 702.95 303.77 704.37 304.20 705.61 C 307.93 710.10 314.11 711.79 319.74 710.68 C 320.42 707.00 319.88 702.64 316.30 700.65 C 312.88 697.78 308.27 699.95 305.22 702.26 M 486.26 710.68 C 492.01 711.78 498.83 710.07 502.10 704.91 C 501.62 701.12 496.99 700.05 493.87 699.20 C 488.25 699.34 484.67 705.45 486.26 710.68 M 302.93 721.15 C 301.17 727.59 302.56 734.30 301.86 740.85 C 300.82 746.14 296.29 749.43 291.92 751.95 C 288.11 754.32 289.12 759.35 289.04 763.14 C 292.98 762.72 296.89 761.60 300.89 762.08 C 305.40 762.61 309.83 763.66 314.17 764.99 C 313.95 762.91 313.68 760.84 313.19 758.83 C 311.91 752.92 307.27 748.18 306.92 742.01 C 306.12 735.75 309.85 730.31 311.19 724.42 C 308.41 723.38 305.64 722.33 302.93 721.15 M 494.82 724.41 C 496.04 730.01 499.54 735.12 499.12 741.01 C 499.17 745.91 496.38 750.12 494.36 754.39 C 492.74 757.68 492.19 761.37 491.83 764.99 C 496.17 763.66 500.60 762.61 505.11 762.08 C 509.10 761.60 513.02 762.72 516.97 763.14 C 516.87 759.35 517.89 754.32 514.08 751.95 C 509.71 749.43 505.17 746.13 504.14 740.85 C 503.43 734.30 504.82 727.59 503.07 721.15 C 500.36 722.33 497.59 723.38 494.82 724.41 M 273.72 787.06 C 281.08 785.67 288.51 784.66 295.97 784.02 C 303.07 783.80 310.17 784.12 317.26 783.91 C 312.98 778.36 305.99 775.36 299.01 775.94 C 289.40 775.24 279.81 779.68 273.72 787.06 M 488.74 783.91 C 495.83 784.13 502.94 783.79 510.03 784.02 C 517.49 784.69 524.92 785.65 532.28 787.06 C 526.19 779.68 516.59 775.24 506.99 775.94 C 500.01 775.37 493.02 778.36 488.74 783.91 Z" />
</g>
</svg>
