<?xml version="1.0" encoding="UTF-8" ?>
<!DOCTYPE svg PUBLIC "-//W3C//DTD SVG 1.1//EN" "http://www.w3.org/Graphics/SVG/1.1/DTD/svg11.dtd">
<svg width="800pt" height="800pt" viewBox="0 0 800 800" version="1.1" xmlns="http://www.w3.org/2000/svg">
<g id="#000000ff">
<path fill="#000000" opacity="1.00" d=" M 387.66 35.65 C 388.66 33.57 390.65 31.96 393.03 31.87 C 398.01 31.47 402.96 32.43 407.92 32.63 C 412.15 33.02 416.55 32.93 420.55 34.52 C 426.11 37.02 429.44 43.04 429.75 48.99 C 430.48 61.37 429.11 73.81 430.43 86.18 C 431.56 95.46 431.02 104.84 432.05 114.12 C 433.37 122.73 431.67 131.33 431.34 139.94 C 431.30 152.66 431.23 165.39 431.48 178.12 C 438.13 174.83 443.87 170.09 450.09 166.12 C 459.62 160.29 469.76 155.05 480.75 152.65 C 490.25 150.40 499.89 153.77 508.57 157.46 C 515.95 160.49 522.92 164.97 530.99 165.95 C 539.75 167.05 548.84 168.06 557.44 165.45 C 568.41 162.15 579.01 157.37 590.43 155.72 C 596.59 154.79 602.83 155.41 609.02 155.58 C 616.06 155.86 622.06 151.35 628.94 150.70 C 636.34 149.92 643.71 151.46 651.02 152.38 C 660.79 153.70 670.80 156.92 677.84 164.15 C 689.79 176.45 696.30 193.37 697.29 210.37 C 702.03 211.65 707.10 212.77 710.86 216.14 C 717.19 221.79 720.12 230.65 719.39 239.00 C 718.56 248.21 715.56 257.12 711.34 265.31 C 708.17 271.93 703.91 278.24 702.84 285.64 C 701.29 296.76 702.91 308.11 706.29 318.75 C 708.74 326.33 709.90 334.36 713.45 341.56 C 716.75 348.40 720.80 355.00 722.52 362.48 C 723.59 366.18 723.72 370.22 725.47 373.70 C 728.36 376.78 732.36 378.63 735.08 381.92 C 739.31 386.49 740.70 392.89 740.82 398.96 C 741.19 407.99 739.82 417.35 735.24 425.27 C 732.64 429.92 728.56 433.70 726.79 438.82 C 725.34 442.86 724.35 447.05 723.26 451.20 C 720.21 463.82 717.04 476.48 715.71 489.43 C 714.48 498.26 714.55 507.19 713.72 516.05 C 712.83 528.12 709.85 539.97 709.65 552.09 C 709.58 557.57 712.86 562.22 714.78 567.15 C 718.02 574.67 719.50 583.14 717.52 591.21 C 715.30 603.83 705.50 613.46 695.10 620.06 C 687.35 624.36 677.62 627.46 669.01 623.88 C 661.34 620.50 654.91 614.67 650.04 607.91 C 645.81 601.78 642.43 594.67 642.30 587.09 C 642.05 579.83 642.04 572.19 645.49 565.58 C 649.05 557.95 655.23 551.58 662.76 547.82 C 667.31 545.55 672.37 544.71 677.30 543.66 C 678.59 534.80 678.70 525.84 679.46 516.94 C 679.68 512.10 680.32 507.19 679.40 502.39 C 678.11 497.76 675.51 493.63 673.82 489.14 C 670.08 480.38 667.92 471.08 665.90 461.81 C 661.89 444.50 663.62 426.50 666.56 409.17 C 668.25 400.04 670.67 390.76 676.09 383.07 C 677.98 380.23 680.64 377.15 679.48 373.48 C 676.87 362.97 673.22 352.75 669.51 342.59 C 667.17 336.20 665.47 329.32 661.11 323.93 C 657.70 319.68 653.74 315.91 650.21 311.76 C 641.77 301.95 634.49 291.20 627.80 280.14 C 623.34 272.82 620.12 264.57 619.62 255.96 C 619.29 252.15 619.70 247.94 617.29 244.69 C 614.38 240.48 611.68 236.12 609.59 231.44 C 604.60 233.39 599.52 235.97 594.00 235.51 C 580.23 234.29 567.62 228.23 555.21 222.59 C 558.32 232.05 562.67 241.04 565.53 250.58 C 571.47 267.24 575.81 284.46 578.40 301.96 C 579.90 312.59 579.43 323.35 579.42 334.05 C 579.27 345.40 574.20 355.91 568.37 365.39 C 562.60 374.57 553.98 382.12 543.60 385.56 C 519.62 393.67 493.94 392.40 469.00 392.55 C 460.44 392.72 451.96 391.39 443.42 391.17 C 443.32 402.78 443.42 414.38 443.44 425.99 C 443.49 439.89 440.95 453.70 437.08 467.01 C 434.07 477.65 427.47 486.74 423.63 497.05 C 431.21 498.42 438.99 499.82 446.68 498.61 C 452.68 497.67 456.87 492.95 461.70 489.74 C 472.02 483.01 484.99 480.78 497.03 483.09 C 505.20 484.79 512.47 490.01 516.97 497.01 C 519.82 501.45 522.10 506.59 521.73 511.99 C 521.53 518.03 517.99 523.26 517.09 529.16 C 516.88 533.21 519.44 536.68 520.83 540.33 C 523.81 546.68 524.20 554.21 521.39 560.69 C 520.18 564.53 517.29 569.08 520.15 572.87 C 523.98 578.06 530.55 579.82 535.66 583.39 C 541.63 587.17 545.57 593.91 545.95 600.97 C 546.25 606.07 545.66 611.18 545.45 616.28 C 556.68 620.12 567.61 627.90 571.12 639.75 C 572.90 645.42 570.10 650.93 567.97 656.05 C 566.11 659.46 569.14 662.62 570.41 665.64 C 575.70 675.18 572.32 686.39 573.61 696.67 C 573.67 697.88 574.95 698.47 575.75 699.22 C 580.16 702.39 585.30 705.05 588.04 709.99 C 592.71 717.79 591.51 727.26 590.75 735.89 C 598.32 740.84 606.08 746.31 610.49 754.45 C 612.87 758.94 613.53 765.03 610.20 769.24 C 606.75 773.27 601.49 775.09 596.54 776.53 C 581.30 780.45 565.45 777.67 549.96 779.02 C 540.46 779.74 530.83 781.33 521.34 779.66 C 516.36 778.82 511.73 775.01 510.86 769.90 C 510.35 766.00 512.28 762.35 514.02 759.02 C 516.89 754.08 519.63 748.86 524.04 745.09 C 526.97 742.55 530.08 740.23 533.10 737.80 C 532.10 733.22 530.75 728.69 530.47 724.01 C 529.76 714.47 538.22 706.68 536.22 697.02 C 534.83 689.98 533.59 682.74 530.85 676.10 C 525.79 673.00 519.46 672.19 515.02 667.98 C 506.16 660.82 504.98 647.45 509.66 637.60 C 510.24 635.81 511.59 633.99 511.08 632.04 C 508.14 629.68 503.89 628.46 502.45 624.64 C 499.81 618.11 500.10 610.91 498.89 604.07 C 497.88 597.27 495.03 590.95 492.24 584.73 C 482.66 583.24 472.19 582.85 464.08 576.90 C 459.09 572.83 456.33 566.75 451.51 562.50 C 444.26 556.03 437.63 548.64 428.97 543.98 C 420.02 538.97 409.70 535.00 399.28 536.63 C 393.15 538.04 387.46 540.94 382.00 543.99 C 373.22 548.86 366.33 556.30 359.04 563.05 C 353.32 568.31 350.15 576.42 342.60 579.54 C 335.42 583.05 327.22 582.69 319.69 584.82 C 316.63 587.79 315.54 592.18 314.09 596.07 C 310.91 605.03 311.95 614.85 308.85 623.82 C 307.49 628.19 302.87 629.90 299.31 632.09 C 302.50 640.19 306.05 649.21 302.83 657.90 C 300.09 667.03 291.12 671.98 282.65 674.78 C 279.21 675.62 279.08 679.55 278.21 682.34 C 276.93 688.24 274.63 693.98 274.34 700.06 C 274.14 706.32 278.34 711.46 279.72 717.37 C 281.65 724.19 279.32 731.15 277.93 737.84 C 282.89 741.92 288.51 745.47 292.09 750.95 C 295.07 755.49 298.02 760.16 299.88 765.30 C 302.13 771.63 296.59 778.27 290.46 779.45 C 277.71 782.01 264.81 778.57 251.99 778.65 C 237.75 778.31 222.83 780.31 209.30 774.75 C 205.04 773.03 200.46 770.47 199.01 765.79 C 197.26 760.77 199.56 755.53 202.47 751.46 C 206.93 744.83 213.68 740.33 220.19 735.94 C 219.88 727.08 218.19 717.24 223.36 709.38 C 226.61 703.88 232.93 701.66 237.37 697.43 C 238.98 688.29 236.18 678.76 238.81 669.71 C 239.91 665.82 242.62 662.66 243.88 658.86 C 243.08 653.40 238.66 648.84 239.26 643.08 C 239.87 636.82 243.59 631.28 247.84 626.84 C 252.66 621.67 259.41 619.13 265.66 616.17 C 264.83 606.76 263.61 595.93 270.09 588.09 C 275.34 581.16 284.98 580.01 290.47 573.42 C 294.31 568.40 289.82 562.52 288.65 557.36 C 285.66 549.02 290.03 540.74 293.25 533.21 C 295.13 529.54 293.02 525.66 291.85 522.13 C 289.83 517.01 288.53 511.32 290.00 505.87 C 292.84 495.18 301.70 486.30 312.40 483.44 C 325.57 480.34 340.00 483.04 351.04 490.93 C 359.91 497.54 371.41 497.41 381.95 497.74 C 378.89 492.73 375.95 487.56 374.42 481.86 C 371.71 471.95 371.41 461.61 370.27 451.45 C 368.98 440.69 369.33 429.83 369.45 419.02 C 369.47 410.11 371.01 401.32 371.73 392.46 C 355.47 392.37 339.21 392.69 322.96 392.38 C 311.25 391.50 299.45 390.68 287.97 388.10 C 278.99 385.89 270.01 382.26 263.28 375.73 C 255.81 368.69 250.91 359.47 246.88 350.15 C 242.51 340.37 243.99 329.40 243.70 319.00 C 243.27 304.67 246.53 290.61 249.70 276.73 C 252.84 265.17 256.18 253.63 260.38 242.40 C 262.67 235.71 265.67 229.30 267.91 222.60 C 261.22 225.23 254.96 228.88 248.10 231.08 C 241.88 233.08 235.55 235.02 228.99 235.52 C 223.63 235.93 218.67 233.48 213.80 231.61 C 211.52 235.67 209.37 239.84 206.49 243.53 C 204.84 245.82 202.62 248.01 202.38 250.99 C 201.71 255.88 201.90 260.91 200.42 265.67 C 197.74 274.42 192.76 282.20 187.77 289.78 C 182.02 298.52 175.80 306.98 168.73 314.72 C 163.84 320.25 157.98 325.36 155.66 332.62 C 150.85 346.15 145.45 359.55 142.22 373.57 C 141.00 377.29 143.83 380.42 145.65 383.36 C 149.65 389.01 151.91 395.64 153.63 402.28 C 156.97 415.58 157.85 429.34 158.13 443.00 C 157.58 458.28 153.64 473.24 148.47 487.56 C 146.00 494.63 140.80 501.13 141.62 509.01 C 142.75 520.54 142.79 532.16 144.40 543.65 C 149.84 544.82 155.47 545.79 160.35 548.62 C 170.57 554.39 178.38 565.07 179.15 576.97 C 179.66 584.24 179.82 591.91 176.71 598.69 C 172.15 609.29 163.90 618.46 153.43 623.45 C 144.79 627.61 134.65 624.80 126.77 620.21 C 117.75 614.51 109.33 606.81 105.46 596.62 C 102.55 588.24 102.37 578.80 105.50 570.46 C 107.72 563.78 112.74 557.70 111.95 550.30 C 110.84 536.15 107.95 522.19 107.37 508.00 C 106.24 490.38 104.08 472.75 99.42 455.69 C 97.21 447.63 96.34 438.80 90.98 432.02 C 84.24 423.57 80.54 412.82 80.56 402.01 C 80.57 395.57 81.23 388.62 85.37 383.40 C 88.17 379.51 92.51 377.23 95.80 373.85 C 97.54 371.34 97.60 368.11 98.34 365.23 C 100.38 353.74 108.09 344.41 111.32 333.33 C 114.20 323.75 116.86 314.07 118.56 304.21 C 120.07 295.41 120.19 285.96 116.32 277.72 C 110.44 264.66 101.95 251.86 102.27 237.00 C 101.92 229.38 104.74 221.61 110.44 216.44 C 114.50 212.45 120.34 211.44 125.69 210.33 C 126.67 202.61 127.53 194.73 130.64 187.51 C 134.90 177.09 140.74 166.69 150.13 160.08 C 155.62 156.11 162.25 154.20 168.82 152.92 C 175.10 151.64 181.56 150.69 187.98 151.42 C 194.32 152.20 199.43 156.48 205.40 158.36 C 207.78 158.59 209.89 156.95 212.05 156.15 C 218.29 153.07 225.58 151.61 232.38 153.63 C 244.72 156.54 253.40 166.98 265.41 170.60 C 270.00 172.07 274.38 169.34 278.49 167.67 C 290.09 162.40 302.12 157.42 314.96 156.50 C 325.67 155.70 336.48 158.13 346.07 162.87 C 357.77 168.61 368.24 176.45 379.58 182.83 C 380.22 170.50 377.63 158.31 378.07 145.98 C 378.50 128.13 377.49 110.24 378.66 92.41 C 380.13 79.21 380.00 65.82 382.71 52.77 C 383.90 46.96 384.92 40.98 387.66 35.65 M 397.46 42.79 C 396.22 46.86 395.42 51.04 394.83 55.25 C 403.05 55.27 411.32 55.61 419.34 57.54 C 418.69 53.32 420.13 46.86 415.44 44.64 C 409.55 43.38 403.47 43.04 397.46 42.79 M 394.01 66.58 C 392.83 72.01 392.17 77.54 392.38 83.11 C 401.21 80.56 410.74 80.71 419.43 83.77 C 420.70 78.27 420.67 72.55 419.44 67.05 C 411.01 68.88 402.47 67.16 394.01 66.58 M 391.49 90.96 C 390.56 97.48 390.33 104.06 390.61 110.63 C 400.42 109.20 410.40 107.15 420.29 109.21 C 420.38 103.01 420.35 96.80 420.27 90.60 C 410.71 91.63 401.00 93.37 391.49 90.96 M 390.69 120.83 C 390.61 124.91 390.56 129.00 390.50 133.09 C 400.50 131.67 410.57 130.39 420.70 130.91 C 420.50 127.24 420.35 123.56 420.26 119.88 C 410.46 121.25 400.55 120.80 390.69 120.83 M 390.55 146.25 C 390.54 152.06 390.49 157.86 390.61 163.66 C 400.43 162.00 410.39 162.46 420.30 162.42 C 420.35 157.15 420.35 151.87 420.30 146.60 C 410.39 146.46 400.46 146.77 390.55 146.25 M 455.57 180.55 C 446.49 185.94 441.81 196.54 432.09 201.08 C 426.97 203.23 421.56 204.66 416.61 207.23 C 416.39 220.81 414.94 234.33 413.56 247.84 C 412.85 252.78 412.76 258.33 409.35 262.33 C 408.02 264.02 405.80 264.42 403.90 265.14 C 398.66 254.93 398.37 243.21 398.62 231.99 C 398.35 223.78 399.48 215.61 399.28 207.41 C 386.77 206.41 376.02 199.46 365.37 193.51 C 353.49 186.33 342.15 178.08 329.26 172.73 C 323.09 170.29 316.24 170.16 309.81 171.58 C 301.02 172.91 293.10 177.13 284.59 179.42 C 279.71 180.67 275.56 183.61 271.88 186.94 C 267.26 191.03 260.38 190.86 254.90 188.81 C 242.36 184.06 232.84 173.45 219.66 170.11 C 221.06 174.78 221.64 179.71 220.42 184.51 C 214.41 184.32 208.18 184.40 202.50 182.15 C 196.62 179.83 191.65 175.82 186.08 172.92 C 178.37 168.92 168.26 169.90 161.63 175.59 C 151.42 183.79 146.78 197.15 146.15 209.88 C 156.74 207.02 168.72 205.74 178.70 211.28 C 186.28 215.71 192.64 221.96 198.81 228.15 C 201.10 225.33 203.27 222.39 205.92 219.90 C 208.42 217.58 211.98 217.18 215.13 216.30 C 215.43 219.13 215.69 221.96 215.91 224.81 C 230.83 221.41 245.13 215.68 258.85 208.99 C 263.89 206.40 269.59 205.69 274.85 203.77 C 277.66 200.42 278.67 195.60 282.48 193.10 C 285.09 191.29 289.07 193.24 289.50 196.31 C 290.99 206.07 285.99 215.03 283.75 224.24 C 288.01 223.36 292.18 222.11 296.38 220.96 C 304.08 218.82 312.09 218.16 320.04 217.61 C 328.79 216.92 337.51 218.53 346.06 220.17 C 352.42 221.40 357.29 226.09 361.12 231.03 C 358.85 234.14 356.41 238.23 352.05 238.25 C 336.70 238.92 321.30 237.70 305.96 238.67 C 299.00 239.65 291.97 239.80 284.95 239.77 C 282.42 239.99 278.88 240.08 278.02 243.04 C 273.25 254.41 270.28 266.44 267.07 278.32 C 276.72 279.39 286.21 282.13 295.99 281.81 C 300.66 281.78 305.33 281.82 310.01 281.77 C 322.73 281.55 335.29 278.69 348.05 279.29 C 354.82 279.34 361.81 281.59 366.48 286.69 C 361.78 290.80 356.24 293.85 350.11 295.18 C 340.15 298.08 330.02 300.38 319.69 301.49 C 309.48 303.38 299.17 301.21 289.06 299.73 C 280.34 298.55 272.14 295.20 264.34 291.25 C 262.45 302.52 261.41 313.96 261.07 325.38 C 278.62 331.97 297.22 336.18 316.03 336.34 C 325.73 337.74 335.67 336.84 345.20 339.39 C 349.25 340.50 353.66 341.75 356.46 345.10 C 356.00 348.75 353.02 351.42 349.74 352.68 C 343.96 354.98 337.84 356.39 331.71 357.35 C 315.02 358.95 298.13 356.74 282.08 352.06 C 275.96 350.16 270.19 347.34 264.16 345.20 C 267.19 354.47 273.82 363.04 283.15 366.55 C 295.13 371.47 308.32 370.83 321.01 371.13 C 333.98 370.78 346.97 370.73 359.94 371.40 C 366.89 371.85 373.84 374.52 380.82 373.15 C 387.93 369.82 392.19 362.88 397.27 357.23 C 399.23 354.75 402.05 352.45 402.16 349.04 C 402.70 338.44 401.66 327.79 402.44 317.20 C 403.06 313.80 403.74 309.92 406.41 307.50 C 408.08 307.24 409.79 307.27 411.48 307.25 C 416.55 320.19 416.25 334.31 416.65 347.97 C 416.61 352.03 420.39 354.45 422.85 357.15 C 427.62 361.34 431.43 367.11 437.73 369.14 C 444.52 371.36 451.70 373.12 458.88 372.08 C 469.84 370.38 480.96 370.95 492.00 370.86 C 508.00 371.03 524.71 372.46 539.96 366.57 C 549.68 363.03 555.96 353.88 559.44 344.54 C 539.09 354.88 515.84 359.02 493.14 357.54 C 486.38 356.66 479.66 355.11 473.29 352.66 C 469.81 351.34 465.80 347.99 467.61 343.85 C 476.77 337.68 488.38 337.60 499.02 337.17 C 504.34 336.51 509.69 336.13 515.06 336.03 C 531.07 334.89 547.00 331.35 561.85 325.24 C 561.98 313.91 560.21 302.73 558.82 291.52 C 550.35 295.39 541.55 298.79 532.28 300.07 C 523.61 301.31 514.83 303.10 506.06 301.71 C 492.88 300.62 479.92 297.67 467.41 293.40 C 463.47 292.03 460.09 289.51 456.90 286.89 C 463.56 278.43 475.36 278.99 485.04 279.39 C 498.33 280.62 511.61 282.29 524.99 281.80 C 535.16 282.42 545.06 279.80 555.02 278.26 C 552.79 265.36 549.26 252.65 544.18 240.57 C 534.63 240.31 525.11 239.50 515.62 238.53 C 500.74 237.86 485.83 238.86 470.96 238.23 C 466.57 238.28 464.24 234.16 462.09 231.00 C 466.44 225.48 472.10 220.38 479.41 219.68 C 499.53 215.10 520.45 218.35 539.83 224.61 C 536.91 216.31 533.43 207.89 533.53 198.94 C 533.48 196.57 534.31 194.14 536.17 192.58 C 540.42 191.52 543.53 195.37 545.24 198.73 C 546.63 200.79 547.32 204.00 550.18 204.45 C 555.62 205.80 561.04 207.34 566.08 209.85 C 579.30 216.18 593.05 221.51 607.33 224.94 C 607.39 222.03 607.48 219.12 607.65 216.23 C 610.71 216.90 614.02 217.40 616.53 219.47 C 619.31 221.68 621.53 224.49 623.82 227.19 C 628.97 221.84 634.48 216.78 640.63 212.59 C 651.34 205.58 665.27 206.40 676.85 210.69 C 676.44 201.55 674.51 192.24 669.68 184.36 C 666.82 180.30 663.19 176.77 659.13 173.93 C 653.31 169.90 645.83 170.13 639.13 171.08 C 629.26 172.69 619.84 178.67 609.57 176.36 C 606.74 173.99 605.22 170.52 603.35 167.42 C 593.73 168.71 584.25 171.75 576.03 176.97 C 571.35 179.87 566.73 183.12 561.26 184.32 C 550.54 186.88 539.35 185.46 528.68 183.32 C 520.36 181.76 512.96 177.48 505.69 173.35 C 499.05 169.91 491.91 165.72 484.12 167.34 C 473.72 169.43 464.46 175.00 455.57 180.55 M 389.31 172.29 C 389.01 176.80 388.62 181.30 388.16 185.80 C 392.90 187.66 397.79 189.98 403.02 189.43 C 408.99 188.79 414.57 186.43 420.32 184.84 C 420.32 181.10 420.32 177.36 420.31 173.63 C 409.97 173.56 399.55 174.10 389.31 172.29 M 119.70 226.72 C 117.27 229.13 116.59 232.72 116.46 236.01 C 116.33 244.39 119.03 252.97 124.83 259.16 C 132.08 266.99 134.71 277.75 136.15 288.03 C 137.32 298.68 135.28 309.39 132.42 319.62 C 129.80 329.12 123.00 336.72 120.00 346.06 C 116.68 355.50 112.99 364.80 109.22 374.07 C 115.05 376.48 119.85 380.61 124.35 384.93 C 125.08 372.97 127.76 361.20 131.94 349.99 C 137.18 335.45 141.35 320.16 150.39 307.40 C 153.53 302.95 157.83 299.46 160.86 294.92 C 169.98 281.67 179.77 268.30 183.97 252.53 C 184.80 248.89 185.81 244.70 183.66 241.31 C 179.61 234.49 172.64 229.48 164.92 227.70 C 157.35 226.65 149.76 229.51 143.44 233.48 C 136.81 237.55 133.28 244.75 127.88 250.10 C 125.28 248.50 122.21 246.72 121.79 243.36 C 119.95 236.36 124.12 229.98 126.74 223.81 C 124.33 224.56 121.62 224.94 119.70 226.72 M 695.39 224.20 C 697.60 230.60 702.05 237.37 699.44 244.34 C 698.79 247.15 696.10 248.57 693.96 250.13 C 691.09 247.28 688.49 244.17 686.06 240.95 C 681.48 234.76 674.60 230.46 667.19 228.53 C 654.75 224.35 640.57 233.09 636.45 245.00 C 637.76 259.31 645.29 272.11 653.15 283.83 C 657.44 289.84 661.11 296.37 666.39 301.61 C 674.00 309.41 678.62 319.49 682.37 329.58 C 689.03 347.35 696.06 365.38 697.33 384.51 C 701.99 380.62 706.62 376.57 712.19 374.00 C 710.76 370.08 709.29 366.18 707.70 362.34 C 703.67 352.94 701.38 342.77 695.88 334.04 C 690.28 325.05 687.06 314.76 685.86 304.28 C 684.62 292.00 685.42 279.08 690.94 267.84 C 694.12 260.66 701.27 255.88 703.31 248.09 C 704.94 241.83 706.11 234.81 703.40 228.69 C 701.98 225.56 698.37 224.89 695.39 224.20 M 399.59 379.61 C 395.32 383.65 389.81 385.95 384.90 389.06 C 390.58 387.98 396.14 386.12 401.94 385.74 C 410.12 385.39 418.31 385.64 426.45 386.56 C 420.29 381.64 414.08 376.75 408.70 370.96 C 405.59 373.77 402.63 376.73 399.59 379.61 M 99.50 389.41 C 96.09 392.18 94.78 396.78 94.50 401.01 C 93.82 409.87 101.65 415.97 104.08 423.97 C 107.36 434.52 110.35 445.18 113.57 455.76 C 118.29 476.00 121.26 496.64 122.92 517.35 C 123.56 527.65 126.57 537.55 128.73 547.59 C 130.78 546.93 132.84 546.30 134.90 545.66 C 133.07 539.55 131.28 533.40 130.51 527.05 C 128.18 513.28 130.78 499.32 133.61 485.84 C 137.14 462.80 139.70 439.43 137.95 416.11 C 137.63 411.47 136.89 406.86 135.76 402.35 C 135.14 402.33 133.89 402.28 133.27 402.25 C 133.11 408.22 134.90 414.04 134.69 420.02 C 134.78 424.70 133.83 429.30 132.70 433.82 C 131.52 433.84 130.34 433.83 129.16 433.79 C 120.86 422.59 119.47 408.19 112.71 396.23 C 110.20 391.57 105.03 387.64 99.50 389.41 M 710.25 394.22 C 702.28 405.85 701.54 420.88 693.36 432.40 C 692.42 434.07 690.28 433.56 688.72 433.96 C 686.55 425.67 686.01 416.96 687.92 408.56 C 688.72 405.94 687.87 403.36 686.80 400.96 C 684.73 406.73 683.62 412.84 683.46 418.96 C 683.29 430.01 682.83 441.10 684.21 452.10 C 684.57 461.82 686.00 471.45 687.14 481.11 C 687.84 487.47 689.94 493.57 690.84 499.90 C 692.99 515.12 692.14 530.94 686.57 545.38 C 688.65 546.15 690.78 546.80 692.94 547.35 C 694.52 539.26 697.24 531.40 698.05 523.16 C 698.75 515.65 699.19 508.10 700.27 500.63 C 703.06 481.24 705.63 461.74 710.67 442.77 C 713.95 433.60 716.68 424.11 721.68 415.67 C 723.22 412.88 725.17 410.29 726.30 407.29 C 727.74 403.03 727.19 398.29 725.61 394.15 C 724.62 391.75 722.95 388.81 719.93 389.10 C 715.97 388.62 712.35 391.03 710.25 394.22 M 384.63 400.19 C 384.55 407.40 384.57 414.62 384.71 421.83 C 398.22 417.87 412.40 419.43 426.26 419.65 C 426.38 413.90 426.38 408.14 426.44 402.39 C 422.11 402.48 417.76 402.66 413.46 402.10 C 403.91 400.64 394.15 402.04 384.63 400.19 M 384.43 431.58 C 384.91 436.92 385.46 442.27 386.70 447.50 C 393.79 446.72 400.91 445.45 408.07 446.06 C 413.20 446.41 418.20 447.65 423.20 448.76 C 423.86 443.68 424.31 438.58 425.02 433.50 C 411.47 433.41 397.86 433.43 384.43 431.58 M 387.75 458.99 C 387.70 461.82 387.69 464.66 387.69 467.50 C 398.48 467.58 409.27 467.60 420.05 467.49 C 420.48 464.63 421.05 461.81 421.59 458.98 C 410.37 460.61 398.94 461.15 387.75 458.99 M 390.45 480.96 C 390.49 482.43 390.53 483.90 390.57 485.38 C 398.51 488.23 407.27 487.73 415.45 486.46 C 418.12 484.02 419.06 480.36 420.44 477.14 C 410.98 481.03 400.59 482.48 390.45 480.96 M 308.12 518.42 C 315.19 518.20 322.21 514.66 329.27 516.96 C 334.19 517.91 337.21 522.22 339.84 526.09 C 338.07 527.79 336.28 529.67 333.80 530.26 C 326.48 532.42 318.27 533.96 313.03 540.05 C 309.30 543.55 308.08 549.26 309.98 553.99 C 312.14 558.42 317.50 559.90 321.99 560.59 C 328.45 560.77 335.42 561.53 341.41 558.57 C 344.58 554.84 346.07 549.97 349.16 546.15 C 354.52 539.21 361.33 533.51 368.44 528.44 C 375.62 523.40 384.37 521.80 392.48 518.88 C 399.95 515.80 408.09 517.64 415.52 519.85 C 419.85 521.04 424.32 521.57 428.73 522.37 C 435.40 523.61 441.37 527.17 446.60 531.37 C 453.22 536.67 459.72 542.41 464.26 549.66 C 466.11 552.53 467.17 555.93 469.55 558.44 C 473.80 561.21 479.18 560.60 484.02 560.77 C 489.60 560.99 495.79 560.00 499.91 555.92 C 503.31 550.60 501.91 542.92 497.02 538.96 C 491.03 532.93 482.18 532.23 474.65 529.26 C 472.40 528.52 471.39 525.66 472.63 523.67 C 475.44 519.51 480.18 516.81 485.15 516.25 C 490.97 515.75 496.57 517.89 502.28 518.64 C 502.67 517.06 503.18 515.52 503.47 513.93 C 502.32 509.10 498.67 504.47 493.56 503.57 C 486.66 502.20 479.83 504.71 473.39 506.91 C 464.28 510.38 454.59 511.81 445.16 514.12 C 435.96 515.61 426.06 514.76 417.84 510.12 C 415.31 508.70 413.28 506.57 410.72 505.21 C 404.91 504.87 398.55 505.24 393.59 508.62 C 388.31 511.89 383.40 516.33 377.03 517.24 C 368.61 518.46 360.33 515.51 352.70 512.27 C 343.20 508.74 333.68 505.06 323.71 503.09 C 315.17 501.36 305.48 509.34 308.12 518.42 M 137.36 562.18 C 130.71 563.79 123.06 566.58 119.96 573.19 C 119.69 580.74 122.14 588.39 126.20 594.75 C 128.89 598.68 132.22 602.53 136.72 604.40 C 141.01 606.15 146.23 605.84 150.00 603.01 C 156.87 597.93 161.61 589.65 161.46 580.99 C 161.53 573.98 157.58 567.10 151.62 563.46 C 147.36 560.83 142.06 561.00 137.36 562.18 M 671.52 562.62 C 666.19 564.83 662.82 570.17 661.06 575.46 C 658.23 585.94 663.30 597.78 672.40 603.52 C 676.38 606.13 681.65 606.01 685.82 603.90 C 691.50 601.07 695.58 595.71 697.94 589.92 C 700.17 584.43 702.62 578.50 701.44 572.47 C 699.44 568.55 695.29 566.38 691.50 564.54 C 685.30 561.90 678.05 560.07 671.52 562.62 M 292.30 591.14 C 288.40 593.42 283.12 594.59 281.22 599.18 C 279.09 604.16 278.68 609.68 278.17 615.02 C 277.86 616.45 279.48 616.97 280.41 617.59 C 285.87 620.49 291.38 623.30 296.82 626.23 C 301.08 617.34 299.19 607.41 299.67 597.95 C 300.10 590.93 304.80 585.33 307.52 579.12 C 301.35 581.68 298.23 588.21 292.30 591.14 M 503.58 579.10 C 505.86 584.82 510.22 589.71 511.08 595.96 C 512.44 605.45 509.85 615.47 513.54 624.60 C 513.80 625.86 515.49 625.84 516.35 625.22 C 521.82 622.33 527.16 619.19 532.77 616.58 C 532.64 610.47 531.90 604.25 529.52 598.59 C 527.73 594.51 522.91 593.53 519.40 591.49 C 513.19 588.57 509.92 581.83 503.58 579.10 M 267.34 635.85 C 263.81 636.73 260.32 638.21 257.60 640.66 C 256.46 641.74 255.48 643.80 256.90 645.07 C 261.31 650.87 269.00 653.12 276.05 652.73 C 277.46 652.54 279.92 652.86 280.09 650.85 C 280.72 645.92 278.90 640.14 274.34 637.62 C 272.25 636.42 269.81 635.12 267.34 635.85 M 533.13 641.11 C 530.56 644.36 531.34 648.71 531.22 652.55 C 538.25 653.03 546.17 652.79 551.60 647.62 C 552.89 646.13 555.36 644.45 554.21 642.22 C 552.44 638.48 548.09 637.25 544.48 636.08 C 540.12 634.48 535.60 637.69 533.13 641.11 M 254.72 668.87 C 252.68 677.44 253.93 686.29 253.55 694.99 C 253.34 701.76 249.12 707.88 243.57 711.53 C 240.62 713.82 236.72 715.30 234.92 718.78 C 233.10 722.81 233.65 727.34 233.56 731.64 C 238.70 731.11 243.79 730.01 248.95 729.83 C 256.39 730.53 263.67 732.35 270.95 733.99 C 270.98 726.36 267.96 719.24 264.42 712.64 C 261.09 706.59 259.40 699.47 260.72 692.60 C 261.90 686.07 265.06 680.14 266.79 673.76 C 262.78 672.10 258.77 670.42 254.72 668.87 M 544.30 673.75 C 546.45 682.17 551.41 690.07 550.72 699.03 C 550.61 706.18 546.54 712.37 543.65 718.67 C 541.20 723.46 540.55 728.85 539.74 734.10 C 545.77 732.68 551.80 731.23 557.93 730.34 C 564.38 728.98 570.83 731.09 577.25 731.63 C 577.13 726.25 578.46 719.25 573.44 715.59 C 567.19 711.38 559.62 706.89 558.15 698.83 C 557.03 688.87 558.86 678.71 556.53 668.84 C 552.39 670.32 548.33 671.99 544.30 673.75 M 211.94 767.16 C 221.02 766.35 229.97 764.50 239.04 763.54 C 251.23 762.93 263.45 763.68 275.65 763.12 C 272.26 758.86 267.89 755.38 262.74 753.53 C 255.94 750.60 248.36 751.08 241.14 751.48 C 230.00 752.99 218.97 758.18 211.94 767.16 M 535.35 763.09 C 547.53 763.73 559.74 762.91 571.93 763.54 C 581.16 764.48 590.28 766.29 599.51 767.30 C 590.47 756.40 576.04 750.53 561.97 751.22 C 551.93 750.78 541.54 755.03 535.35 763.09 Z" />
</g>
<g id="#ffffffff">
<path fill="#ffffff" opacity="1.00" d=" M 397.46 42.79 C 403.47 43.04 409.55 43.38 415.44 44.64 C 420.13 46.86 418.69 53.32 419.34 57.54 C 411.32 55.61 403.05 55.27 394.83 55.25 C 395.42 51.04 396.22 46.86 397.46 42.79 Z" />
<path fill="#ffffff" opacity="1.00" d=" M 394.01 66.58 C 402.47 67.16 411.01 68.88 419.44 67.05 C 420.67 72.55 420.70 78.27 419.43 83.77 C 410.74 80.71 401.21 80.56 392.38 83.11 C 392.17 77.54 392.83 72.01 394.01 66.58 Z" />
<path fill="#ffffff" opacity="1.00" d=" M 391.49 90.96 C 401.00 93.37 410.71 91.63 420.27 90.60 C 420.35 96.80 420.38 103.01 420.29 109.21 C 410.40 107.15 400.42 109.20 390.61 110.63 C 390.33 104.06 390.56 97.48 391.49 90.96 Z" />
<path fill="#ffffff" opacity="1.00" d=" M 390.69 120.83 C 400.55 120.80 410.46 121.25 420.26 119.88 C 420.35 123.56 420.50 127.24 420.70 130.91 C 410.57 130.39 400.50 131.67 390.50 133.09 C 390.56 129.00 390.61 124.91 390.69 120.83 Z" />
<path fill="#ffffff" opacity="1.00" d=" M 390.55 146.25 C 400.46 146.77 410.39 146.46 420.30 146.60 C 420.35 151.87 420.35 157.15 420.30 162.42 C 410.39 162.46 400.43 162.00 390.61 163.66 C 390.49 157.86 390.54 152.06 390.55 146.25 Z" />
<path fill="#ffffff" opacity="1.00" d=" M 455.57 180.55 C 464.46 175.00 473.72 169.43 484.12 167.34 C 491.91 165.72 499.05 169.91 505.69 173.35 C 512.96 177.48 520.36 181.76 528.68 183.32 C 539.35 185.46 550.54 186.88 561.26 184.32 C 566.73 183.12 571.35 179.87 576.03 176.97 C 584.25 171.75 593.73 168.71 603.35 167.42 C 605.22 170.52 606.74 173.99 609.57 176.36 C 619.84 178.67 629.26 172.69 639.13 171.08 C 645.83 170.13 653.31 169.90 659.13 173.93 C 663.19 176.77 666.82 180.30 669.68 184.36 C 674.51 192.24 676.44 201.55 676.85 210.69 C 665.27 206.40 651.34 205.58 640.63 212.59 C 634.48 216.78 628.97 221.84 623.82 227.19 C 621.53 224.49 619.31 221.68 616.53 219.47 C 614.02 217.40 610.71 216.90 607.65 216.23 C 607.48 219.12 607.39 222.03 607.33 224.94 C 593.05 221.51 579.30 216.18 566.08 209.85 C 561.04 207.34 555.62 205.80 550.18 204.45 C 547.32 204.00 546.63 200.79 545.24 198.73 C 543.53 195.37 540.42 191.52 536.17 192.58 C 534.31 194.14 533.48 196.57 533.53 198.94 C 533.43 207.89 536.91 216.31 539.83 224.61 C 520.45 218.35 499.53 215.10 479.41 219.68 C 472.10 220.38 466.44 225.48 462.09 231.00 C 464.24 234.16 466.57 238.28 470.96 238.23 C 485.83 238.86 500.74 237.86 515.62 238.53 C 525.11 239.50 534.63 240.31 544.18 240.57 C 549.26 252.65 552.79 265.36 555.02 278.26 C 545.06 279.80 535.16 282.42 524.99 281.80 C 511.61 282.29 498.33 280.62 485.04 279.39 C 475.36 278.99 463.56 278.43 456.90 286.89 C 460.09 289.51 463.47 292.03 467.41 293.40 C 479.92 297.67 492.88 300.62 506.06 301.71 C 514.83 303.10 523.61 301.31 532.28 300.07 C 541.55 298.79 550.35 295.39 558.82 291.52 C 560.21 302.73 561.98 313.91 561.85 325.24 C 547.00 331.35 531.07 334.89 515.06 336.03 C 509.69 336.13 504.34 336.51 499.02 337.17 C 488.38 337.60 476.77 337.68 467.61 343.85 C 465.80 347.99 469.81 351.34 473.29 352.66 C 479.66 355.11 486.38 356.66 493.14 357.54 C 515.84 359.02 539.09 354.88 559.44 344.54 C 555.96 353.88 549.68 363.03 539.96 366.57 C 524.71 372.46 508.00 371.03 492.00 370.86 C 480.96 370.95 469.84 370.38 458.88 372.08 C 451.70 373.12 444.52 371.36 437.73 369.14 C 431.43 367.11 427.62 361.34 422.85 357.15 C 420.39 354.45 416.61 352.03 416.65 347.97 C 416.25 334.31 416.55 320.19 411.48 307.25 C 409.79 307.27 408.08 307.24 406.41 307.50 C 403.74 309.92 403.06 313.80 402.44 317.20 C 401.66 327.79 402.70 338.44 402.16 349.04 C 402.05 352.45 399.23 354.75 397.27 357.23 C 392.19 362.88 387.93 369.82 380.82 373.15 C 373.84 374.52 366.89 371.85 359.94 371.40 C 346.97 370.73 333.98 370.78 321.01 371.13 C 308.32 370.83 295.13 371.47 283.15 366.55 C 273.82 363.04 267.19 354.47 264.16 345.20 C 270.19 347.34 275.96 350.16 282.08 352.06 C 298.13 356.74 315.02 358.95 331.71 357.35 C 337.84 356.39 343.96 354.98 349.74 352.68 C 353.02 351.42 356.00 348.75 356.46 345.10 C 353.66 341.75 349.25 340.50 345.20 339.39 C 335.67 336.84 325.73 337.74 316.03 336.34 C 297.22 336.18 278.62 331.97 261.07 325.38 C 261.41 313.96 262.45 302.52 264.34 291.25 C 272.14 295.20 280.34 298.55 289.06 299.73 C 299.17 301.21 309.48 303.38 319.69 301.49 C 330.02 300.38 340.15 298.08 350.11 295.18 C 356.24 293.85 361.78 290.80 366.48 286.69 C 361.81 281.59 354.82 279.34 348.05 279.29 C 335.29 278.69 322.73 281.55 310.01 281.77 C 305.33 281.82 300.66 281.78 295.99 281.81 C 286.21 282.13 276.72 279.39 267.07 278.32 C 270.28 266.44 273.25 254.41 278.02 243.04 C 278.88 240.08 282.42 239.99 284.95 239.77 C 291.97 239.80 299.00 239.65 305.96 238.67 C 321.30 237.70 336.70 238.92 352.05 238.25 C 356.41 238.23 358.85 234.14 361.12 231.03 C 357.29 226.09 352.42 221.40 346.06 220.17 C 337.51 218.53 328.79 216.92 320.04 217.61 C 312.09 218.16 304.08 218.82 296.38 220.96 C 292.18 222.11 288.01 223.36 283.75 224.24 C 285.99 215.03 290.99 206.07 289.50 196.31 C 289.07 193.24 285.09 191.29 282.48 193.10 C 278.67 195.60 277.66 200.42 274.85 203.77 C 269.59 205.69 263.89 206.40 258.85 208.99 C 245.13 215.68 230.83 221.41 215.91 224.81 C 215.69 221.96 215.43 219.13 215.13 216.30 C 211.98 217.18 208.42 217.58 205.92 219.90 C 203.27 222.39 201.10 225.33 198.81 228.15 C 192.64 221.96 186.28 215.71 178.70 211.28 C 168.72 205.74 156.74 207.02 146.15 209.88 C 146.78 197.15 151.42 183.79 161.63 175.59 C 168.26 169.90 178.37 168.92 186.08 172.92 C 191.65 175.82 196.62 179.83 202.50 182.15 C 208.18 184.40 214.41 184.32 220.42 184.51 C 221.64 179.71 221.06 174.78 219.66 170.11 C 232.84 173.45 242.36 184.06 254.90 188.81 C 260.38 190.86 267.26 191.03 271.88 186.94 C 275.56 183.61 279.71 180.67 284.59 179.42 C 293.10 177.13 301.02 172.91 309.81 171.58 C 316.24 170.16 323.09 170.29 329.26 172.73 C 342.15 178.08 353.49 186.33 365.37 193.51 C 376.02 199.46 386.77 206.41 399.28 207.41 C 399.48 215.61 398.35 223.78 398.62 231.99 C 398.37 243.21 398.66 254.93 403.90 265.14 C 405.80 264.42 408.02 264.02 409.35 262.33 C 412.76 258.33 412.85 252.78 413.56 247.84 C 414.94 234.33 416.39 220.81 416.61 207.23 C 421.56 204.66 426.97 203.23 432.09 201.08 C 441.81 196.54 446.49 185.94 455.57 180.55 Z" />
<path fill="#ffffff" opacity="1.00" d=" M 389.31 172.29 C 399.55 174.10 409.97 173.56 420.31 173.63 C 420.32 177.36 420.32 181.10 420.32 184.84 C 414.57 186.43 408.99 188.79 403.02 189.43 C 397.79 189.98 392.90 187.66 388.16 185.80 C 388.62 181.30 389.01 176.80 389.31 172.29 Z" />
<path fill="#ffffff" opacity="1.00" d=" M 119.70 226.72 C 121.62 224.94 124.33 224.56 126.74 223.81 C 124.12 229.98 119.95 236.36 121.79 243.36 C 122.21 246.72 125.28 248.50 127.88 250.10 C 133.28 244.75 136.81 237.55 143.44 233.48 C 149.76 229.51 157.35 226.65 164.92 227.70 C 172.64 229.48 179.61 234.49 183.66 241.31 C 185.81 244.70 184.80 248.89 183.97 252.53 C 179.77 268.30 169.98 281.67 160.86 294.92 C 157.83 299.46 153.53 302.95 150.39 307.40 C 141.35 320.16 137.18 335.45 131.94 349.99 C 127.76 361.20 125.08 372.97 124.35 384.93 C 119.85 380.61 115.05 376.48 109.22 374.07 C 112.99 364.80 116.68 355.50 120.00 346.06 C 123.00 336.72 129.80 329.12 132.42 319.62 C 135.28 309.39 137.32 298.68 136.15 288.03 C 134.71 277.75 132.08 266.99 124.83 259.16 C 119.03 252.97 116.33 244.39 116.46 236.01 C 116.59 232.72 117.27 229.13 119.70 226.72 Z" />
<path fill="#ffffff" opacity="1.00" d=" M 695.39 224.20 C 698.37 224.89 701.98 225.56 703.40 228.69 C 706.11 234.81 704.94 241.83 703.31 248.09 C 701.27 255.88 694.12 260.66 690.94 267.84 C 685.42 279.08 684.62 292.00 685.86 304.28 C 687.06 314.76 690.28 325.05 695.88 334.04 C 701.38 342.77 703.67 352.94 707.70 362.34 C 709.29 366.18 710.76 370.08 712.19 374.00 C 706.62 376.57 701.99 380.62 697.33 384.51 C 696.06 365.38 689.03 347.35 682.37 329.58 C 678.62 319.49 674.00 309.41 666.39 301.61 C 661.11 296.37 657.44 289.84 653.15 283.83 C 645.29 272.11 637.76 259.31 636.45 245.00 C 640.57 233.09 654.75 224.35 667.19 228.53 C 674.60 230.46 681.48 234.76 686.06 240.95 C 688.49 244.17 691.09 247.28 693.96 250.13 C 696.10 248.57 698.79 247.15 699.44 244.34 C 702.05 237.37 697.60 230.60 695.39 224.20 Z" />
<path fill="#ffffff" opacity="1.00" d=" M 399.59 379.61 C 402.63 376.73 405.59 373.77 408.70 370.96 C 414.08 376.75 420.29 381.64 426.45 386.56 C 418.31 385.64 410.12 385.39 401.94 385.74 C 396.14 386.12 390.58 387.98 384.90 389.06 C 389.81 385.95 395.32 383.65 399.59 379.61 Z" />
<path fill="#ffffff" opacity="1.00" d=" M 99.50 389.41 C 105.03 387.64 110.20 391.57 112.71 396.23 C 119.47 408.19 120.86 422.59 129.16 433.79 C 130.34 433.83 131.52 433.84 132.70 433.82 C 133.83 429.30 134.78 424.70 134.69 420.02 C 134.90 414.04 133.11 408.22 133.27 402.25 C 133.89 402.28 135.14 402.33 135.76 402.35 C 136.89 406.86 137.63 411.47 137.95 416.11 C 139.70 439.43 137.14 462.80 133.61 485.84 C 130.78 499.32 128.18 513.28 130.51 527.05 C 131.28 533.40 133.07 539.55 134.90 545.66 C 132.84 546.30 130.78 546.93 128.73 547.59 C 126.57 537.55 123.56 527.65 122.92 517.35 C 121.26 496.64 118.29 476.00 113.57 455.76 C 110.35 445.18 107.36 434.52 104.08 423.97 C 101.65 415.97 93.82 409.87 94.50 401.01 C 94.78 396.78 96.09 392.18 99.50 389.41 Z" />
<path fill="#ffffff" opacity="1.00" d=" M 710.25 394.22 C 712.35 391.03 715.97 388.62 719.93 389.10 C 722.95 388.81 724.62 391.75 725.61 394.15 C 727.19 398.29 727.74 403.03 726.30 407.29 C 725.17 410.29 723.22 412.88 721.68 415.67 C 716.68 424.11 713.95 433.60 710.67 442.77 C 705.63 461.74 703.06 481.24 700.27 500.63 C 699.19 508.10 698.75 515.65 698.05 523.16 C 697.24 531.40 694.52 539.26 692.94 547.35 C 690.78 546.80 688.65 546.15 686.57 545.38 C 692.14 530.94 692.99 515.12 690.84 499.90 C 689.94 493.57 687.84 487.47 687.14 481.11 C 686.00 471.45 684.57 461.82 684.21 452.10 C 682.83 441.10 683.29 430.01 683.46 418.96 C 683.62 412.84 684.73 406.73 686.80 400.96 C 687.87 403.36 688.72 405.94 687.92 408.56 C 686.01 416.96 686.55 425.67 688.72 433.96 C 690.28 433.56 692.42 434.07 693.36 432.40 C 701.54 420.88 702.28 405.85 710.25 394.22 Z" />
<path fill="#ffffff" opacity="1.00" d=" M 384.63 400.19 C 394.15 402.04 403.91 400.64 413.46 402.10 C 417.76 402.66 422.11 402.48 426.44 402.39 C 426.38 408.14 426.38 413.90 426.26 419.65 C 412.40 419.43 398.22 417.87 384.71 421.83 C 384.57 414.62 384.55 407.40 384.63 400.19 Z" />
<path fill="#ffffff" opacity="1.00" d=" M 384.43 431.58 C 397.86 433.43 411.47 433.41 425.02 433.50 C 424.31 438.58 423.86 443.68 423.20 448.76 C 418.20 447.65 413.20 446.41 408.07 446.06 C 400.91 445.45 393.79 446.72 386.70 447.50 C 385.46 442.27 384.91 436.92 384.43 431.58 Z" />
<path fill="#ffffff" opacity="1.00" d=" M 387.75 458.99 C 398.94 461.15 410.37 460.61 421.59 458.98 C 421.05 461.81 420.48 464.63 420.05 467.49 C 409.27 467.60 398.48 467.58 387.69 467.50 C 387.69 464.66 387.70 461.82 387.75 458.99 Z" />
<path fill="#ffffff" opacity="1.00" d=" M 390.45 480.96 C 400.59 482.48 410.98 481.03 420.44 477.14 C 419.06 480.36 418.12 484.02 415.45 486.46 C 407.27 487.73 398.51 488.23 390.57 485.38 C 390.53 483.90 390.49 482.43 390.45 480.96 Z" />
<path fill="#ffffff" opacity="1.00" d=" M 308.12 518.42 C 305.48 509.34 315.17 501.36 323.71 503.09 C 333.68 505.06 343.20 508.74 352.70 512.27 C 360.33 515.51 368.61 518.46 377.03 517.24 C 383.40 516.33 388.31 511.89 393.59 508.62 C 398.55 505.24 404.91 504.87 410.72 505.21 C 413.28 506.57 415.31 508.70 417.84 510.12 C 426.06 514.76 435.96 515.61 445.16 514.12 C 454.59 511.81 464.28 510.38 473.39 506.91 C 479.83 504.71 486.66 502.20 493.56 503.57 C 498.67 504.47 502.32 509.10 503.47 513.93 C 503.18 515.52 502.67 517.06 502.28 518.64 C 496.57 517.89 490.97 515.75 485.15 516.25 C 480.18 516.81 475.44 519.51 472.63 523.67 C 471.39 525.66 472.40 528.52 474.65 529.26 C 482.18 532.23 491.03 532.93 497.02 538.96 C 501.91 542.92 503.31 550.60 499.91 555.92 C 495.79 560.00 489.60 560.99 484.02 560.77 C 479.18 560.60 473.80 561.21 469.55 558.44 C 467.17 555.93 466.11 552.53 464.26 549.66 C 459.72 542.41 453.22 536.67 446.60 531.37 C 441.37 527.17 435.40 523.61 428.73 522.37 C 424.32 521.57 419.85 521.04 415.52 519.85 C 408.09 517.64 399.95 515.80 392.48 518.88 C 384.37 521.80 375.62 523.40 368.44 528.44 C 361.33 533.51 354.52 539.21 349.16 546.15 C 346.07 549.97 344.58 554.84 341.41 558.57 C 335.42 561.53 328.45 560.77 321.99 560.59 C 317.50 559.90 312.14 558.42 309.98 553.99 C 308.08 549.26 309.30 543.55 313.03 540.05 C 318.27 533.96 326.48 532.42 333.80 530.26 C 336.28 529.67 338.07 527.79 339.84 526.09 C 337.21 522.22 334.19 517.91 329.27 516.96 C 322.21 514.66 315.19 518.20 308.12 518.42 Z" />
<path fill="#ffffff" opacity="1.00" d=" M 137.36 562.18 C 142.06 561.00 147.36 560.83 151.62 563.46 C 157.58 567.10 161.53 573.98 161.46 580.99 C 161.61 589.65 156.87 597.93 150.00 603.01 C 146.23 605.84 141.01 606.15 136.72 604.40 C 132.22 602.53 128.89 598.68 126.20 594.75 C 122.14 588.39 119.69 580.74 119.96 573.19 C 123.06 566.58 130.71 563.79 137.36 562.18 Z" />
<path fill="#ffffff" opacity="1.00" d=" M 671.52 562.62 C 678.05 560.07 685.30 561.90 691.50 564.54 C 695.29 566.38 699.44 568.55 701.44 572.47 C 702.62 578.50 700.17 584.43 697.94 589.92 C 695.58 595.71 691.50 601.07 685.82 603.90 C 681.65 606.01 676.38 606.13 672.40 603.52 C 663.30 597.78 658.23 585.94 661.06 575.46 C 662.82 570.17 666.19 564.83 671.52 562.62 Z" />
<path fill="#ffffff" opacity="1.00" d=" M 292.30 591.14 C 298.23 588.21 301.35 581.68 307.52 579.12 C 304.80 585.33 300.10 590.93 299.67 597.95 C 299.19 607.41 301.08 617.34 296.82 626.23 C 291.38 623.30 285.87 620.49 280.41 617.59 C 279.48 616.97 277.86 616.45 278.17 615.02 C 278.68 609.68 279.09 604.16 281.22 599.18 C 283.12 594.59 288.40 593.42 292.30 591.14 Z" />
<path fill="#ffffff" opacity="1.00" d=" M 503.58 579.10 C 509.92 581.83 513.19 588.57 519.40 591.49 C 522.91 593.53 527.73 594.51 529.52 598.59 C 531.90 604.25 532.64 610.47 532.77 616.58 C 527.16 619.19 521.82 622.33 516.35 625.22 C 515.49 625.84 513.80 625.86 513.54 624.60 C 509.85 615.47 512.44 605.45 511.08 595.96 C 510.22 589.71 505.86 584.82 503.58 579.10 Z" />
<path fill="#ffffff" opacity="1.00" d=" M 267.34 635.85 C 269.81 635.12 272.25 636.42 274.34 637.62 C 278.90 640.14 280.72 645.92 280.09 650.85 C 279.92 652.86 277.46 652.54 276.05 652.73 C 269.00 653.12 261.31 650.87 256.90 645.07 C 255.48 643.80 256.46 641.74 257.60 640.66 C 260.32 638.21 263.81 636.73 267.34 635.85 Z" />
<path fill="#ffffff" opacity="1.00" d=" M 533.13 641.11 C 535.60 637.69 540.12 634.48 544.48 636.08 C 548.09 637.25 552.44 638.48 554.21 642.22 C 555.36 644.45 552.89 646.13 551.60 647.62 C 546.17 652.79 538.25 653.03 531.22 652.55 C 531.34 648.71 530.56 644.36 533.13 641.11 Z" />
<path fill="#ffffff" opacity="1.00" d=" M 254.72 668.87 C 258.77 670.42 262.78 672.10 266.79 673.76 C 265.06 680.14 261.90 686.07 260.72 692.60 C 259.40 699.47 261.09 706.59 264.42 712.64 C 267.96 719.24 270.98 726.36 270.95 733.99 C 263.67 732.35 256.39 730.53 248.95 729.83 C 243.79 730.01 238.70 731.11 233.56 731.64 C 233.65 727.34 233.10 722.81 234.92 718.78 C 236.72 715.30 240.62 713.82 243.57 711.53 C 249.12 707.88 253.34 701.76 253.55 694.99 C 253.93 686.29 252.68 677.44 254.72 668.87 Z" />
<path fill="#ffffff" opacity="1.00" d=" M 544.30 673.75 C 548.33 671.99 552.39 670.32 556.53 668.84 C 558.86 678.71 557.03 688.87 558.15 698.83 C 559.62 706.89 567.19 711.38 573.44 715.59 C 578.46 719.25 577.13 726.25 577.25 731.63 C 570.83 731.09 564.38 728.98 557.93 730.34 C 551.80 731.23 545.77 732.68 539.74 734.10 C 540.55 728.85 541.20 723.46 543.65 718.67 C 546.54 712.37 550.61 706.18 550.72 699.03 C 551.41 690.07 546.45 682.17 544.30 673.75 Z" />
<path fill="#ffffff" opacity="1.00" d=" M 211.94 767.16 C 218.97 758.18 230.00 752.99 241.14 751.48 C 248.36 751.08 255.94 750.60 262.74 753.53 C 267.89 755.38 272.26 758.86 275.65 763.12 C 263.45 763.68 251.23 762.93 239.04 763.54 C 229.97 764.50 221.02 766.35 211.94 767.16 Z" />
<path fill="#ffffff" opacity="1.00" d=" M 535.35 763.09 C 541.54 755.03 551.93 750.78 561.97 751.22 C 576.04 750.53 590.47 756.40 599.51 767.30 C 590.28 766.29 581.16 764.48 571.93 763.54 C 559.74 762.91 547.53 763.73 535.35 763.09 Z" />
</g>
</svg>
