<?xml version="1.0" encoding="UTF-8" ?>
<!DOCTYPE svg PUBLIC "-//W3C//DTD SVG 1.1//EN" "http://www.w3.org/Graphics/SVG/1.1/DTD/svg11.dtd">
<svg width="600pt" height="600pt" viewBox="0 0 600 600" version="1.1" xmlns="http://www.w3.org/2000/svg">
<g id="#000000ff">
<path fill="#000000" opacity="1.00" d=" M 146.02 298.03 C 152.62 293.23 158.80 287.15 167.04 285.39 C 168.61 285.08 170.19 285.43 171.64 286.04 C 167.83 295.68 159.66 302.39 153.14 310.11 C 145.23 317.95 138.25 326.66 131.37 335.40 C 128.83 338.81 125.91 342.43 125.88 346.91 C 138.79 346.59 151.04 341.71 163.81 340.26 C 165.38 340.68 166.56 341.91 167.89 342.80 C 167.65 344.39 167.63 346.19 166.36 347.38 C 155.72 358.31 140.45 365.47 125.01 364.21 C 119.60 364.07 114.56 360.90 111.46 356.57 C 109.26 353.47 109.85 349.50 110.00 345.94 C 110.46 338.97 115.17 333.43 118.82 327.82 C 127.00 317.13 135.92 306.95 146.02 298.03 Z" />
<path fill="#000000" opacity="1.00" d=" M 413.36 286.04 C 415.05 285.28 416.96 285.07 418.76 285.54 C 423.93 287.04 428.61 289.85 432.73 293.28 C 443.69 301.14 452.81 311.25 461.30 321.67 C 465.43 326.36 468.88 331.60 472.11 336.94 C 475.13 341.99 475.69 348.15 474.82 353.86 C 473.00 358.95 468.03 362.56 462.91 363.84 C 446.57 366.42 429.93 358.99 418.63 347.38 C 417.39 346.18 417.35 344.38 417.06 342.81 C 418.40 341.91 419.61 340.71 421.20 340.25 C 433.96 341.72 446.21 346.58 459.12 346.91 C 459.09 342.43 456.17 338.81 453.63 335.40 C 446.74 326.66 439.77 317.95 431.86 310.11 C 425.34 302.39 417.17 295.68 413.36 286.04 Z" />
</g>
<g id="#ffffffff">
<path fill="#ffffff" opacity="1.00" d=" M 171.64 286.04 C 174.28 286.85 177.13 288.07 178.12 290.90 C 179.45 293.13 178.44 295.67 178.13 298.03 C 177.91 304.03 183.69 309.41 180.54 315.43 C 180.71 319.94 180.02 324.50 177.17 328.17 C 177.60 330.90 180.24 333.58 178.48 336.45 C 177.14 341.07 171.98 342.07 167.89 342.80 C 166.56 341.91 165.38 340.68 163.81 340.26 C 151.04 341.71 138.79 346.59 125.88 346.91 C 125.91 342.43 128.83 338.81 131.37 335.40 C 138.25 326.66 145.23 317.95 153.14 310.11 C 159.66 302.39 167.83 295.68 171.64 286.04 Z" />
<path fill="#ffffff" opacity="1.00" d=" M 406.88 290.91 C 407.86 288.07 410.72 286.85 413.36 286.04 C 417.17 295.68 425.34 302.39 431.86 310.11 C 439.77 317.95 446.74 326.66 453.63 335.40 C 456.17 338.81 459.09 342.43 459.12 346.91 C 446.21 346.58 433.96 341.72 421.20 340.25 C 419.61 340.71 418.40 341.91 417.06 342.81 C 412.98 342.06 407.85 341.05 406.52 336.45 C 404.74 333.57 407.42 330.90 407.83 328.17 C 404.98 324.49 404.28 319.94 404.46 315.43 C 401.31 309.41 407.09 304.03 406.86 298.02 C 406.55 295.67 405.54 293.14 406.88 290.91 Z" />
</g>
</svg>
