<?xml version="1.0" encoding="UTF-8" ?>
<!DOCTYPE svg PUBLIC "-//W3C//DTD SVG 1.1//EN" "http://www.w3.org/Graphics/SVG/1.1/DTD/svg11.dtd">
<svg width="800pt" height="800pt" viewBox="0 0 800 800" version="1.1" xmlns="http://www.w3.org/2000/svg">
<g id="#000000ff">
<path fill="#000000" opacity="1.00" d=" M 236.00 24.99 C 242.05 19.27 250.08 15.92 258.24 14.63 C 264.40 14.39 270.59 14.33 276.74 14.68 C 291.18 17.18 304.41 24.99 314.53 35.46 C 328.75 48.91 337.13 67.19 343.34 85.45 C 349.46 102.37 351.70 120.31 354.71 137.95 C 355.41 140.80 355.85 144.07 358.13 146.15 C 365.39 147.81 372.68 145.08 379.99 145.47 C 387.22 145.60 394.48 145.27 401.71 145.66 C 411.27 146.90 420.91 147.79 430.32 150.00 C 433.55 150.82 436.91 150.57 440.21 150.50 C 443.49 143.23 443.32 135.08 443.69 127.28 C 445.24 117.59 446.53 107.79 449.68 98.45 C 453.28 87.72 456.65 76.83 461.98 66.80 C 465.34 60.33 468.88 53.93 473.02 47.92 C 476.07 43.41 480.24 39.87 483.99 35.97 C 490.41 29.21 499.02 25.02 507.71 21.96 C 513.30 20.16 519.04 18.30 524.99 18.45 C 533.08 18.07 540.89 20.86 548.25 23.91 C 554.72 26.59 559.17 32.20 564.03 36.99 C 575.21 48.94 578.18 66.22 577.52 82.04 C 576.75 99.26 573.24 116.37 567.29 132.55 C 560.94 150.64 551.48 167.42 541.65 183.80 C 540.31 185.90 540.02 188.51 540.58 190.92 C 542.45 194.95 545.54 198.26 547.53 202.23 C 551.65 210.32 553.63 219.25 555.61 228.05 C 558.87 242.41 558.77 257.21 558.39 271.86 C 557.89 275.80 557.45 279.75 557.31 283.72 C 555.69 296.22 552.56 308.53 548.10 320.32 C 543.23 332.13 535.27 342.28 528.93 353.28 C 526.94 357.13 530.22 360.65 532.57 363.40 C 545.01 377.02 556.24 392.47 561.30 410.45 C 563.53 418.60 566.45 426.51 569.33 434.45 C 571.63 440.62 572.14 447.98 577.26 452.68 C 582.21 457.16 588.10 460.48 593.00 465.04 C 607.65 478.78 621.41 493.68 632.19 510.70 C 635.69 516.36 638.22 522.99 637.41 529.75 C 636.65 535.82 632.37 541.30 626.63 543.44 C 618.74 546.56 609.91 545.92 601.87 543.76 C 598.62 542.83 595.27 542.27 591.88 542.58 C 590.19 547.51 590.22 552.79 590.74 557.92 C 591.62 562.91 590.97 568.65 594.90 572.54 C 602.49 573.04 610.95 570.77 617.66 575.46 C 624.22 580.08 630.07 586.27 632.78 593.96 C 634.77 599.53 636.59 605.24 637.39 611.12 C 637.62 618.37 637.62 625.63 637.40 632.88 C 636.44 639.43 634.34 645.83 631.59 651.84 C 628.52 658.57 623.47 664.13 618.07 669.07 C 614.29 672.57 609.18 674.80 603.98 674.56 C 599.07 674.69 594.27 672.63 589.36 673.59 C 586.56 677.17 586.55 681.93 585.86 686.23 C 584.88 695.88 583.50 705.49 581.64 715.02 C 580.12 722.97 579.72 731.26 576.54 738.80 C 573.75 745.31 566.46 748.35 563.58 754.79 C 560.79 760.82 559.50 767.48 556.15 773.26 C 552.89 779.08 547.68 783.43 542.40 787.34 C 538.22 790.29 533.29 792.78 528.03 792.52 C 524.18 792.50 520.60 790.59 517.62 788.29 C 506.47 778.09 499.91 764.19 490.47 752.60 C 486.44 747.26 479.28 745.77 472.96 746.60 C 464.43 748.02 455.75 747.51 447.15 747.38 C 440.16 746.10 433.02 746.89 426.04 745.65 C 419.65 745.75 413.38 744.25 406.99 744.48 C 394.59 744.11 382.35 746.69 369.96 746.64 C 363.08 747.76 356.09 747.67 349.15 747.38 C 342.26 746.42 335.18 745.94 328.29 747.00 C 322.18 748.07 318.11 753.14 314.87 758.00 C 308.09 768.02 301.67 778.45 293.06 787.06 C 288.76 791.38 282.05 793.81 276.12 791.63 C 267.55 789.44 261.32 782.74 255.55 776.47 C 248.75 768.79 249.30 757.27 242.34 749.72 C 238.94 745.54 233.99 742.39 232.25 737.06 C 230.00 730.62 229.45 723.77 228.28 717.09 C 223.94 694.68 221.64 671.93 220.09 649.20 C 219.10 643.12 219.86 636.91 218.67 630.85 C 218.80 623.52 217.18 616.32 217.48 609.00 C 217.55 595.66 217.40 582.31 217.54 568.98 C 218.35 560.55 219.54 551.88 217.84 543.49 C 209.76 542.53 202.07 546.10 194.00 545.53 C 185.50 545.76 176.44 540.81 173.79 532.40 C 172.87 527.05 173.63 521.49 175.77 516.52 C 180.53 505.19 188.82 495.92 196.77 486.75 C 201.85 480.53 208.10 475.43 213.53 469.54 C 217.05 465.72 220.85 462.18 225.07 459.15 C 229.03 456.09 233.82 453.40 235.63 448.44 C 238.02 442.30 239.71 435.91 241.94 429.71 C 245.82 418.87 248.20 407.49 253.34 397.14 C 257.20 388.54 262.52 380.70 268.51 373.46 C 271.23 370.30 273.99 366.24 272.45 361.88 C 269.66 356.78 264.75 353.34 261.26 348.78 C 249.48 335.35 241.59 318.64 238.20 301.13 C 236.60 293.52 235.00 285.82 235.48 278.00 C 235.91 267.22 234.34 256.23 237.03 245.66 C 240.20 230.84 244.89 216.25 252.08 202.86 C 254.47 197.53 257.72 192.55 259.51 186.98 C 260.74 182.63 257.27 179.29 254.48 176.53 C 244.93 167.84 239.23 155.98 233.73 144.52 C 226.46 127.96 220.55 110.69 217.58 92.81 C 215.73 84.33 216.75 75.60 216.47 67.00 C 215.99 58.54 218.31 50.16 221.73 42.50 C 224.89 35.51 230.56 30.21 236.00 24.99 M 250.32 40.26 C 241.63 47.99 235.80 59.26 235.60 70.99 C 236.04 82.25 238.11 93.39 240.70 104.34 C 244.26 117.50 248.66 130.57 255.55 142.38 C 259.67 152.37 266.12 161.14 272.12 170.06 C 277.00 168.16 283.35 169.28 285.91 174.27 C 286.87 179.20 284.60 183.93 281.72 187.78 C 267.72 207.50 258.16 230.70 256.15 254.91 C 255.87 267.08 255.26 279.40 257.75 291.40 C 260.27 306.64 266.78 320.95 275.24 333.77 C 277.84 337.60 280.15 341.60 282.34 345.67 C 284.13 349.16 288.08 350.54 290.66 353.31 C 303.31 367.02 322.21 372.42 340.16 374.63 C 358.47 376.69 376.56 381.08 395.05 381.13 C 403.09 381.47 411.17 382.23 419.20 381.30 C 424.50 380.65 429.89 381.35 435.15 380.27 C 447.13 378.19 459.12 376.03 470.85 372.79 C 483.52 368.97 495.58 362.39 504.79 352.78 C 509.18 348.49 512.89 343.56 517.29 339.27 C 522.16 334.68 523.22 327.74 525.77 321.83 C 537.23 291.52 542.97 257.35 533.06 225.81 C 531.51 220.90 530.15 215.87 527.84 211.24 C 521.86 199.85 508.16 194.97 502.92 183.04 C 500.64 179.36 503.45 174.69 506.96 173.00 C 511.36 170.69 516.37 172.76 520.80 173.94 C 530.92 158.58 539.02 141.99 546.02 125.01 C 549.72 115.92 551.82 106.27 553.43 96.61 C 554.49 88.46 555.53 80.17 554.25 71.97 C 553.52 62.77 549.85 53.43 542.53 47.52 C 536.62 43.33 529.26 40.95 521.98 41.80 C 511.51 42.43 501.67 48.06 495.46 56.47 C 476.70 78.53 467.76 106.87 461.95 134.77 C 460.68 142.08 460.32 149.52 459.66 156.91 C 466.05 160.31 472.74 164.52 475.87 171.34 C 476.74 175.53 473.15 179.83 469.02 180.36 C 460.31 180.97 452.00 177.82 443.83 175.28 C 422.31 168.56 399.67 164.85 377.11 166.21 C 361.80 168.65 346.53 171.58 330.98 172.01 C 329.35 165.93 333.44 160.79 337.63 156.96 C 336.82 152.89 335.84 148.86 335.14 144.77 C 333.53 131.16 330.41 117.80 327.44 104.45 C 322.56 88.67 316.51 72.88 306.25 59.75 C 298.03 49.10 286.99 39.92 273.80 36.40 C 265.93 35.15 256.86 34.99 250.32 40.26 M 478.92 391.01 C 470.51 394.41 461.45 395.61 452.60 397.36 C 442.24 398.85 431.74 400.14 421.25 399.46 C 413.16 399.10 405.06 399.03 396.96 398.98 C 376.40 397.35 356.04 393.98 335.61 391.23 C 323.16 389.48 310.80 386.27 299.61 380.45 C 295.71 378.38 291.86 376.25 288.00 374.11 C 277.62 386.14 268.23 399.16 261.65 413.68 C 259.14 420.24 255.41 426.22 252.53 432.60 C 250.63 437.73 250.41 443.31 249.84 448.68 C 245.13 460.12 235.35 468.29 227.42 477.44 C 216.62 488.07 207.10 499.88 197.82 511.83 C 194.81 515.66 192.28 520.06 191.85 525.01 C 207.99 525.03 223.14 518.60 239.04 516.91 C 241.87 516.32 244.00 518.69 246.12 520.16 C 245.89 526.46 239.32 528.80 236.10 533.22 C 234.72 543.41 233.91 553.68 233.17 563.94 C 233.00 575.30 232.27 586.64 231.93 597.99 C 232.85 613.65 231.80 629.38 233.15 645.03 C 233.20 659.07 234.89 673.03 235.88 687.02 C 236.29 693.06 236.94 699.16 238.91 704.92 C 240.95 710.80 241.79 717.28 245.59 722.40 C 249.91 728.34 255.01 733.77 260.96 738.11 C 265.04 740.73 269.90 742.60 272.41 747.04 C 270.56 751.65 265.04 750.46 261.13 750.53 C 263.23 759.41 267.53 768.50 275.60 773.40 C 277.64 774.61 280.20 776.58 282.47 774.64 C 289.06 769.08 293.53 761.55 298.87 754.88 C 300.55 752.83 301.74 750.45 302.77 748.03 C 299.16 746.76 295.52 745.38 292.59 742.83 C 293.02 741.64 293.49 740.30 294.74 739.77 C 299.07 737.50 303.68 735.76 308.39 734.45 C 320.82 732.45 333.43 731.89 346.02 731.74 C 358.36 731.23 370.71 731.71 383.02 732.45 C 394.35 732.55 405.67 732.48 417.00 732.48 C 427.35 732.47 437.64 730.98 448.00 731.24 C 465.35 731.04 482.73 731.87 499.92 734.27 C 503.73 735.14 507.49 736.30 511.07 737.88 C 513.39 739.02 516.16 740.10 516.90 742.87 C 514.02 745.64 510.26 747.04 506.58 748.36 C 507.42 750.67 508.61 752.86 510.29 754.68 C 515.56 760.76 519.44 768.05 525.57 773.37 C 527.00 774.55 528.82 776.26 530.79 775.13 C 540.56 771.10 545.89 760.81 548.20 751.03 C 546.70 748.51 543.31 747.54 541.36 745.29 C 550.72 737.52 558.05 727.73 564.85 717.75 C 570.56 707.10 573.27 695.04 573.93 683.03 C 575.98 660.07 577.31 637.03 577.13 613.98 C 577.48 602.31 577.62 590.61 576.74 578.96 C 576.51 563.20 575.47 547.39 573.14 531.80 C 569.74 528.28 565.04 525.40 564.76 519.96 C 566.93 518.50 569.16 516.41 572.00 516.75 C 578.57 517.31 584.93 519.20 591.31 520.77 C 600.46 522.73 609.64 524.91 619.04 525.03 C 618.21 518.16 613.77 512.63 609.62 507.39 C 603.27 499.75 597.26 491.79 590.29 484.68 C 583.01 476.96 575.55 469.39 568.75 461.24 C 565.01 456.84 561.82 451.90 559.81 446.47 C 558.73 441.74 558.47 436.82 556.84 432.22 C 549.63 414.00 540.04 396.63 527.50 381.52 C 523.68 377.09 520.39 372.19 516.09 368.20 C 504.78 377.40 492.25 385.10 478.92 391.01 M 594.04 590.59 C 593.89 601.72 594.87 612.91 593.46 624.00 C 593.10 634.02 591.59 643.96 591.61 653.99 C 593.81 655.75 595.99 658.12 599.02 658.20 C 602.91 658.05 606.65 656.11 609.23 653.22 C 613.29 648.82 615.76 643.21 617.72 637.62 C 621.94 624.63 620.13 610.33 615.07 597.85 C 613.31 594.03 611.00 589.61 606.59 588.49 C 602.27 586.99 598.15 589.66 594.04 590.59 Z" />
<path fill="#000000" opacity="1.00" d=" M 259.75 50.61 C 262.45 49.69 265.22 50.98 267.97 50.74 C 271.96 50.56 276.18 48.97 279.96 51.01 C 286.95 53.39 291.67 59.27 296.54 64.46 C 301.44 68.99 305.26 74.51 308.94 80.03 C 316.12 90.19 320.68 102.32 321.50 114.76 C 322.11 120.27 324.92 125.76 323.23 131.33 C 322.79 133.69 320.53 135.03 319.06 136.74 C 314.36 130.48 310.03 123.95 305.26 117.75 C 299.76 109.44 294.95 100.69 289.77 92.18 C 287.25 88.14 283.34 85.27 280.42 81.54 C 276.11 76.49 271.93 70.89 265.64 68.19 C 263.48 73.22 263.95 78.73 263.97 84.06 C 264.05 87.72 263.24 91.33 263.28 94.99 C 264.28 107.43 267.82 119.44 270.55 131.56 C 272.24 139.02 274.61 146.46 274.19 154.20 C 270.66 154.24 267.77 152.02 265.57 149.48 C 249.37 131.65 240.45 107.17 242.06 83.07 C 243.21 77.04 244.25 70.95 245.93 65.04 C 248.58 58.86 252.89 52.44 259.75 50.61 Z" />
<path fill="#000000" opacity="1.00" d=" M 496.67 67.66 C 501.99 60.46 509.17 54.00 518.01 51.75 C 525.92 50.91 534.00 54.98 538.77 61.25 C 544.21 66.69 546.94 74.32 547.04 81.94 C 547.79 101.48 541.75 120.94 531.49 137.47 C 528.70 142.24 524.24 145.77 521.59 150.63 C 519.44 154.39 517.44 158.52 513.69 160.95 C 510.43 162.66 506.57 160.32 506.06 156.82 C 505.25 150.75 510.17 146.05 511.31 140.37 C 513.70 129.86 516.84 119.54 520.27 109.33 C 522.42 101.68 524.01 93.85 525.04 85.97 C 525.70 81.73 523.68 77.90 521.57 74.41 C 505.02 89.61 497.53 111.44 486.51 130.44 C 480.86 139.74 480.10 151.09 474.45 160.38 C 473.46 162.32 471.22 162.02 469.42 161.87 C 466.30 154.31 467.79 145.91 467.40 137.96 C 467.05 124.16 471.83 110.95 477.51 98.60 C 482.72 87.62 489.24 77.26 496.67 67.66 Z" />
<path fill="#000000" opacity="1.00" d=" M 345.45 233.38 C 350.22 231.71 357.19 234.07 358.41 239.42 C 360.40 245.85 358.70 253.95 352.59 257.57 C 343.68 262.59 331.63 251.17 336.06 241.96 C 337.71 237.81 341.80 235.52 345.45 233.38 Z" />
<path fill="#000000" opacity="1.00" d=" M 456.46 234.45 C 464.80 232.31 473.56 241.56 471.06 249.82 C 468.78 256.22 460.87 259.62 454.55 257.54 C 450.72 255.62 445.99 252.81 445.88 247.99 C 444.99 241.49 450.66 236.12 456.46 234.45 Z" />
<path fill="#000000" opacity="1.00" d=" M 393.64 253.78 C 400.53 252.46 407.65 252.99 414.48 254.39 C 418.77 255.47 423.83 256.88 425.67 261.40 C 425.98 266.20 423.09 270.54 419.74 273.73 C 416.21 277.00 412.71 280.46 408.31 282.57 C 408.74 284.99 409.04 287.43 409.08 289.89 C 416.28 290.23 422.88 293.21 429.09 296.64 C 423.45 297.92 417.90 300.03 412.05 300.03 C 408.03 300.11 404.07 299.33 400.08 298.96 C 394.72 298.09 388.86 298.52 384.27 295.09 C 388.84 290.86 395.42 292.00 400.86 289.92 C 400.41 286.31 401.36 281.49 397.59 279.39 C 390.95 274.49 383.81 267.33 385.10 258.34 C 387.02 255.48 390.46 254.46 393.64 253.78 Z" />
<path fill="#000000" opacity="1.00" d=" M 392.38 431.21 C 409.11 429.11 426.28 431.76 441.76 438.39 C 458.64 444.52 473.63 455.15 485.63 468.43 C 489.43 473.27 493.75 477.69 497.11 482.86 C 505.66 495.55 512.36 509.50 516.93 524.10 C 521.25 539.00 523.49 554.48 523.67 569.99 C 522.37 583.60 521.59 597.39 517.81 610.61 C 510.07 641.56 492.72 670.76 466.58 689.58 C 459.81 694.71 452.06 698.37 444.00 700.98 C 436.78 703.23 429.64 706.38 421.95 706.43 C 414.36 706.72 406.83 709.21 399.21 707.94 C 391.78 706.42 384.24 705.42 376.96 703.22 C 360.06 697.87 344.53 688.47 331.56 676.43 C 313.62 660.26 299.70 639.79 290.43 617.54 C 283.60 601.17 278.37 583.86 277.99 566.01 C 278.08 556.68 277.59 547.27 279.24 538.04 C 281.99 520.02 289.25 502.75 300.17 488.17 C 307.37 478.20 315.53 468.80 325.36 461.34 C 339.90 448.02 357.93 438.64 377.12 434.14 C 382.16 432.95 387.26 432.04 392.38 431.21 M 389.44 443.63 C 368.40 446.29 348.62 455.92 332.44 469.45 C 314.69 486.10 299.36 506.55 293.50 530.55 C 291.29 538.19 290.88 546.16 289.85 554.01 C 289.45 556.66 289.62 559.34 289.92 561.99 C 291.19 577.71 293.67 593.59 299.78 608.22 C 311.89 638.26 331.93 666.25 360.43 682.56 C 369.36 688.58 379.77 691.63 389.75 695.37 C 400.24 699.73 411.47 695.33 422.12 694.06 C 432.58 691.69 444.15 691.68 453.20 685.23 C 480.29 667.46 498.12 638.01 506.01 607.00 C 509.86 589.97 512.51 572.39 510.55 554.92 C 508.75 538.84 504.78 522.88 497.71 508.28 C 486.99 483.83 467.74 463.01 443.56 451.47 C 434.17 447.15 423.86 445.60 413.73 444.06 C 405.73 442.44 397.51 443.11 389.44 443.63 Z" />
</g>
<g id="#ffffffff">
<path fill="#ffffff" opacity="1.00" d=" M 250.32 40.26 C 256.86 34.99 265.93 35.15 273.80 36.40 C 286.99 39.92 298.03 49.10 306.25 59.75 C 316.51 72.88 322.56 88.67 327.44 104.45 C 330.41 117.80 333.53 131.16 335.14 144.77 C 335.84 148.86 336.82 152.89 337.63 156.96 C 333.44 160.79 329.35 165.93 330.98 172.01 C 346.53 171.58 361.80 168.65 377.11 166.21 C 399.67 164.85 422.31 168.56 443.83 175.28 C 452.00 177.82 460.31 180.97 469.02 180.36 C 473.15 179.83 476.74 175.53 475.87 171.34 C 472.74 164.52 466.05 160.31 459.66 156.91 C 460.32 149.52 460.68 142.08 461.95 134.77 C 467.76 106.87 476.70 78.53 495.46 56.47 C 501.67 48.06 511.51 42.43 521.98 41.80 C 529.26 40.95 536.62 43.33 542.53 47.52 C 549.85 53.43 553.52 62.77 554.25 71.97 C 555.53 80.17 554.49 88.46 553.43 96.61 C 551.82 106.27 549.72 115.92 546.02 125.01 C 539.02 141.99 530.92 158.58 520.80 173.94 C 516.37 172.76 511.36 170.69 506.96 173.00 C 503.45 174.69 500.64 179.36 502.92 183.04 C 508.16 194.97 521.86 199.85 527.84 211.24 C 530.15 215.87 531.51 220.90 533.06 225.81 C 542.97 257.35 537.23 291.52 525.77 321.83 C 523.22 327.74 522.16 334.68 517.29 339.27 C 512.89 343.56 509.18 348.49 504.79 352.78 C 495.58 362.39 483.52 368.97 470.85 372.79 C 459.12 376.03 447.13 378.19 435.15 380.27 C 429.89 381.35 424.50 380.65 419.20 381.30 C 411.17 382.23 403.09 381.47 395.05 381.13 C 376.56 381.08 358.47 376.69 340.16 374.63 C 322.21 372.42 303.31 367.02 290.66 353.31 C 288.08 350.54 284.13 349.16 282.34 345.67 C 280.15 341.60 277.84 337.60 275.24 333.77 C 266.78 320.95 260.27 306.64 257.75 291.40 C 255.26 279.40 255.87 267.08 256.15 254.91 C 258.16 230.70 267.72 207.50 281.72 187.78 C 284.60 183.93 286.87 179.20 285.91 174.27 C 283.35 169.28 277.00 168.16 272.12 170.06 C 266.12 161.14 259.67 152.37 255.55 142.38 C 248.66 130.57 244.26 117.50 240.70 104.34 C 238.11 93.39 236.04 82.25 235.60 70.99 C 235.80 59.26 241.63 47.99 250.32 40.26 M 259.75 50.61 C 252.89 52.44 248.58 58.86 245.93 65.04 C 244.25 70.95 243.21 77.04 242.06 83.07 C 240.45 107.17 249.37 131.65 265.57 149.48 C 267.77 152.02 270.66 154.24 274.19 154.20 C 274.61 146.46 272.24 139.02 270.55 131.56 C 267.82 119.44 264.28 107.43 263.28 94.99 C 263.24 91.33 264.05 87.72 263.97 84.06 C 263.95 78.73 263.48 73.22 265.64 68.19 C 271.93 70.89 276.11 76.49 280.42 81.54 C 283.34 85.27 287.25 88.14 289.77 92.18 C 294.95 100.69 299.76 109.44 305.26 117.75 C 310.03 123.95 314.36 130.48 319.06 136.74 C 320.53 135.03 322.79 133.69 323.23 131.33 C 324.92 125.76 322.11 120.27 321.50 114.76 C 320.68 102.32 316.12 90.19 308.94 80.03 C 305.26 74.51 301.44 68.99 296.54 64.46 C 291.67 59.27 286.95 53.39 279.96 51.01 C 276.18 48.97 271.96 50.56 267.97 50.74 C 265.22 50.98 262.45 49.69 259.75 50.61 M 496.67 67.66 C 489.24 77.26 482.72 87.62 477.51 98.60 C 471.83 110.95 467.05 124.16 467.40 137.96 C 467.79 145.91 466.30 154.31 469.42 161.87 C 471.22 162.02 473.46 162.32 474.45 160.38 C 480.10 151.09 480.86 139.74 486.51 130.44 C 497.53 111.44 505.02 89.61 521.57 74.41 C 523.68 77.90 525.70 81.73 525.04 85.97 C 524.01 93.85 522.42 101.68 520.27 109.33 C 516.84 119.54 513.70 129.86 511.31 140.37 C 510.17 146.05 505.25 150.75 506.06 156.82 C 506.57 160.32 510.43 162.66 513.69 160.95 C 517.44 158.52 519.44 154.39 521.59 150.63 C 524.24 145.77 528.70 142.24 531.49 137.47 C 541.75 120.94 547.79 101.48 547.04 81.94 C 546.94 74.32 544.21 66.69 538.77 61.25 C 534.00 54.98 525.92 50.91 518.01 51.75 C 509.17 54.00 501.99 60.46 496.67 67.66 M 345.45 233.38 C 341.80 235.52 337.71 237.81 336.06 241.96 C 331.63 251.17 343.68 262.59 352.59 257.57 C 358.70 253.95 360.40 245.85 358.41 239.42 C 357.19 234.07 350.22 231.71 345.45 233.38 M 456.46 234.45 C 450.66 236.12 444.99 241.49 445.88 247.99 C 445.99 252.81 450.72 255.62 454.55 257.54 C 460.87 259.62 468.78 256.22 471.06 249.82 C 473.56 241.56 464.80 232.31 456.46 234.45 M 393.64 253.78 C 390.46 254.46 387.02 255.48 385.10 258.34 C 383.81 267.33 390.95 274.49 397.59 279.39 C 401.36 281.49 400.41 286.31 400.86 289.92 C 395.42 292.00 388.84 290.86 384.27 295.09 C 388.86 298.52 394.72 298.09 400.08 298.96 C 404.07 299.33 408.03 300.11 412.05 300.03 C 417.90 300.03 423.45 297.92 429.09 296.64 C 422.88 293.21 416.28 290.23 409.08 289.89 C 409.04 287.43 408.74 284.99 408.31 282.57 C 412.71 280.46 416.21 277.00 419.74 273.73 C 423.09 270.54 425.98 266.20 425.67 261.40 C 423.83 256.88 418.77 255.47 414.48 254.39 C 407.65 252.99 400.53 252.46 393.64 253.78 Z" />
<path fill="#ffffff" opacity="1.00" d=" M 478.92 391.01 C 492.25 385.10 504.78 377.40 516.09 368.20 C 520.39 372.19 523.68 377.09 527.50 381.52 C 540.04 396.63 549.63 414.00 556.84 432.22 C 558.47 436.82 558.73 441.74 559.81 446.47 C 561.82 451.90 565.01 456.84 568.75 461.24 C 575.55 469.39 583.01 476.96 590.29 484.68 C 597.26 491.79 603.27 499.75 609.62 507.39 C 613.77 512.63 618.21 518.16 619.04 525.03 C 609.64 524.91 600.46 522.73 591.31 520.77 C 584.93 519.20 578.57 517.31 572.00 516.75 C 569.16 516.41 566.93 518.50 564.76 519.96 C 565.04 525.40 569.74 528.28 573.14 531.80 C 575.47 547.39 576.51 563.20 576.74 578.96 C 577.62 590.61 577.48 602.31 577.13 613.98 C 577.31 637.03 575.98 660.07 573.93 683.03 C 573.27 695.04 570.56 707.10 564.85 717.75 C 558.05 727.73 550.72 737.52 541.36 745.29 C 543.31 747.54 546.70 748.51 548.20 751.03 C 545.89 760.81 540.56 771.10 530.79 775.13 C 528.82 776.26 527.00 774.55 525.57 773.37 C 519.44 768.05 515.56 760.76 510.29 754.68 C 508.61 752.86 507.42 750.67 506.58 748.36 C 510.26 747.04 514.02 745.64 516.90 742.87 C 516.16 740.10 513.39 739.02 511.07 737.88 C 507.49 736.30 503.73 735.14 499.92 734.27 C 482.73 731.87 465.35 731.04 448.00 731.24 C 437.64 730.98 427.35 732.47 417.00 732.48 C 405.67 732.48 394.35 732.55 383.02 732.45 C 370.71 731.71 358.36 731.23 346.02 731.74 C 333.43 731.89 320.82 732.45 308.39 734.45 C 303.68 735.76 299.07 737.50 294.74 739.77 C 293.49 740.30 293.02 741.64 292.59 742.83 C 295.52 745.38 299.16 746.76 302.77 748.03 C 301.74 750.45 300.55 752.83 298.87 754.88 C 293.53 761.55 289.06 769.08 282.47 774.64 C 280.20 776.58 277.64 774.61 275.60 773.40 C 267.53 768.50 263.23 759.41 261.13 750.53 C 265.04 750.46 270.56 751.65 272.41 747.04 C 269.90 742.60 265.04 740.73 260.96 738.11 C 255.01 733.77 249.91 728.34 245.59 722.40 C 241.79 717.28 240.95 710.80 238.91 704.92 C 236.94 699.16 236.29 693.06 235.88 687.02 C 234.89 673.03 233.20 659.07 233.15 645.03 C 231.80 629.38 232.85 613.65 231.93 597.99 C 232.27 586.64 233.00 575.30 233.17 563.94 C 233.91 553.68 234.72 543.41 236.10 533.22 C 239.32 528.80 245.89 526.46 246.12 520.16 C 244.00 518.69 241.87 516.32 239.04 516.91 C 223.14 518.60 207.99 525.03 191.85 525.01 C 192.28 520.06 194.81 515.66 197.82 511.83 C 207.10 499.88 216.62 488.07 227.42 477.44 C 235.35 468.29 245.13 460.12 249.84 448.68 C 250.41 443.31 250.63 437.73 252.53 432.60 C 255.41 426.22 259.14 420.24 261.65 413.68 C 268.23 399.16 277.62 386.14 288.00 374.11 C 291.86 376.25 295.71 378.38 299.61 380.45 C 310.80 386.27 323.16 389.48 335.61 391.23 C 356.04 393.98 376.40 397.35 396.96 398.98 C 405.06 399.03 413.16 399.10 421.25 399.46 C 431.74 400.14 442.24 398.85 452.60 397.36 C 461.45 395.61 470.51 394.41 478.92 391.01 M 392.38 431.21 C 387.26 432.04 382.16 432.95 377.12 434.14 C 357.93 438.64 339.90 448.02 325.36 461.34 C 315.53 468.80 307.37 478.20 300.17 488.17 C 289.25 502.75 281.99 520.02 279.24 538.04 C 277.59 547.27 278.08 556.68 277.99 566.01 C 278.37 583.86 283.60 601.17 290.43 617.54 C 299.70 639.79 313.62 660.26 331.56 676.43 C 344.53 688.47 360.06 697.87 376.96 703.22 C 384.24 705.42 391.78 706.42 399.21 707.94 C 406.83 709.21 414.36 706.72 421.95 706.43 C 429.64 706.38 436.78 703.23 444.00 700.98 C 452.06 698.37 459.81 694.71 466.58 689.58 C 492.72 670.76 510.07 641.56 517.81 610.61 C 521.59 597.39 522.37 583.60 523.67 569.99 C 523.49 554.48 521.25 539.00 516.93 524.10 C 512.36 509.50 505.66 495.55 497.11 482.86 C 493.75 477.69 489.43 473.27 485.63 468.43 C 473.63 455.15 458.64 444.52 441.76 438.39 C 426.28 431.76 409.11 429.11 392.38 431.21 Z" />
<path fill="#ffffff" opacity="1.00" d=" M 389.44 443.63 C 397.51 443.11 405.73 442.44 413.73 444.06 C 423.86 445.60 434.17 447.15 443.56 451.47 C 467.74 463.01 486.99 483.83 497.71 508.28 C 504.78 522.88 508.75 538.84 510.55 554.92 C 512.51 572.39 509.86 589.97 506.01 607.00 C 498.12 638.01 480.29 667.46 453.20 685.23 C 444.15 691.68 432.58 691.69 422.12 694.06 C 411.47 695.33 400.24 699.73 389.75 695.37 C 379.77 691.63 369.36 688.58 360.43 682.56 C 331.93 666.25 311.89 638.26 299.78 608.22 C 293.67 593.59 291.19 577.71 289.92 561.99 C 289.62 559.34 289.45 556.66 289.85 554.01 C 290.88 546.16 291.29 538.19 293.50 530.55 C 299.36 506.55 314.69 486.10 332.44 469.45 C 348.62 455.92 368.40 446.29 389.44 443.63 Z" />
<path fill="#ffffff" opacity="1.00" d=" M 594.04 590.59 C 598.15 589.66 602.27 586.99 606.59 588.49 C 611.00 589.61 613.31 594.03 615.07 597.85 C 620.13 610.33 621.94 624.63 617.72 637.62 C 615.76 643.21 613.29 648.82 609.23 653.22 C 606.65 656.11 602.91 658.05 599.02 658.20 C 595.99 658.12 593.81 655.75 591.61 653.99 C 591.59 643.96 593.10 634.02 593.46 624.00 C 594.87 612.91 593.89 601.72 594.04 590.59 Z" />
</g>
</svg>
