<?xml version="1.0" encoding="UTF-8" ?>
<!DOCTYPE svg PUBLIC "-//W3C//DTD SVG 1.1//EN" "http://www.w3.org/Graphics/SVG/1.1/DTD/svg11.dtd">
<svg width="800pt" height="800pt" viewBox="0 0 800 800" version="1.1" xmlns="http://www.w3.org/2000/svg">
<g id="#000000ff">
<path fill="#000000" opacity="1.00" d=" M 92.01 49.93 C 105.66 39.92 122.14 33.92 138.99 32.64 C 145.97 32.55 152.99 32.23 159.93 33.09 C 171.87 35.02 183.74 37.94 194.71 43.11 C 201.01 46.17 207.68 48.58 213.45 52.62 C 218.64 55.98 223.70 59.55 228.33 63.67 C 237.11 70.50 245.18 78.34 251.69 87.39 C 267.99 107.05 280.21 129.81 289.24 153.65 C 293.94 167.05 298.18 180.62 302.70 194.09 C 307.64 213.08 311.16 232.41 314.21 251.79 C 316.33 263.27 317.45 274.92 319.94 286.33 C 326.71 286.76 333.25 284.60 339.98 284.32 C 344.68 284.04 349.26 282.76 353.97 282.52 C 364.15 282.28 374.31 280.63 384.50 281.76 C 391.62 282.74 398.87 281.95 405.95 283.32 C 410.54 284.20 415.21 284.29 419.86 284.67 C 433.32 286.61 446.89 288.03 460.16 291.10 C 465.81 292.36 471.36 294.06 477.07 295.07 C 477.43 289.37 477.33 283.66 477.37 277.95 C 477.32 270.57 479.37 263.37 479.30 255.99 C 479.24 248.46 480.89 241.08 482.05 233.68 C 485.29 220.49 487.75 207.09 491.95 194.15 C 503.42 156.80 519.57 120.48 543.17 89.14 C 554.48 76.61 567.30 65.00 582.55 57.48 C 586.23 55.62 589.68 53.30 593.49 51.68 C 607.91 46.60 622.71 42.08 638.01 40.73 C 648.48 41.92 659.08 43.18 669.08 46.72 C 677.82 49.42 685.96 53.64 693.98 57.98 C 700.07 61.32 704.56 66.74 709.53 71.46 C 715.48 77.05 719.81 84.05 724.28 90.82 C 731.61 103.20 737.00 116.86 739.22 131.13 C 741.00 139.31 740.32 147.71 740.47 156.01 C 740.44 163.01 740.51 170.01 740.36 177.01 C 738.27 199.51 734.56 221.96 727.77 243.56 C 722.04 261.91 715.62 280.11 707.34 297.47 C 700.71 310.75 693.83 323.89 686.82 336.97 C 679.71 347.51 673.59 358.69 666.28 369.10 C 674.31 376.59 679.90 386.16 685.06 395.73 C 694.19 414.22 698.20 434.65 701.96 454.77 C 704.29 469.06 705.19 483.55 705.49 498.02 C 705.39 509.60 705.89 521.27 704.00 532.75 C 701.40 566.16 694.35 599.57 679.96 629.99 C 672.21 645.36 662.54 659.64 653.05 673.97 C 643.80 688.05 632.92 701.34 619.17 711.25 C 614.66 714.65 610.80 718.87 606.01 721.89 C 598.99 726.21 592.59 731.48 585.21 735.21 C 576.14 740.66 566.71 745.44 557.32 750.29 C 549.71 754.10 541.53 756.57 533.25 758.42 C 515.57 762.52 497.75 766.52 479.63 768.00 C 475.44 768.65 471.25 769.42 466.99 769.42 C 452.66 769.52 438.33 769.45 423.99 769.17 C 409.33 769.14 394.61 769.11 380.05 767.14 C 373.38 766.27 366.71 765.38 359.97 765.24 C 341.96 762.79 323.94 760.33 305.99 757.37 C 286.06 753.98 265.67 752.94 246.20 747.15 C 235.30 744.77 224.91 740.66 214.75 736.11 C 204.84 730.83 194.95 725.49 185.30 719.74 C 176.96 715.26 168.51 710.82 161.05 704.94 C 156.66 701.01 152.75 696.58 148.44 692.58 C 142.44 686.82 138.31 679.46 132.49 673.54 C 130.19 671.19 127.79 668.90 125.95 666.16 C 121.95 660.13 117.04 654.73 113.67 648.29 C 108.97 641.04 105.83 632.97 101.82 625.35 C 94.75 610.03 90.52 593.60 87.09 577.13 C 84.53 563.23 81.96 549.19 82.41 535.00 C 82.62 522.68 81.82 510.30 83.22 498.02 C 83.74 485.13 86.75 472.48 90.26 460.10 C 92.51 451.79 94.74 443.47 97.47 435.31 C 99.67 428.61 103.27 422.48 105.61 415.84 C 110.51 401.85 119.46 389.78 124.90 376.03 C 127.23 369.74 130.92 364.03 132.95 357.62 C 129.32 355.51 125.95 352.99 122.99 350.00 C 118.19 345.15 113.10 340.50 109.06 334.97 C 105.35 329.94 102.11 324.58 98.44 319.53 C 93.75 313.12 90.23 305.96 87.15 298.67 C 84.52 292.27 80.52 286.55 77.92 280.14 C 65.05 248.14 54.52 215.02 48.99 180.90 C 48.32 174.24 46.36 167.72 46.54 160.99 C 46.66 150.98 46.31 140.97 46.68 130.97 C 48.40 115.61 52.02 100.23 59.46 86.57 C 67.14 72.01 77.68 58.42 92.01 49.93 M 117.41 84.50 C 112.39 87.68 108.62 92.38 105.02 97.02 C 96.22 108.35 90.18 121.89 87.74 136.03 C 87.46 145.49 86.99 155.10 88.89 164.43 C 90.88 183.65 94.98 202.65 100.92 221.04 C 103.92 230.46 106.68 240.01 110.74 249.06 C 114.52 257.82 117.67 266.91 122.82 275.01 C 127.41 282.15 129.91 290.35 134.24 297.63 C 141.06 309.69 148.99 321.08 156.80 332.52 C 161.90 331.07 167.38 330.60 172.58 331.75 C 177.13 333.16 181.62 336.34 183.09 341.05 C 184.30 347.12 183.29 353.65 180.06 358.96 C 173.25 370.19 164.71 380.38 159.11 392.32 C 152.07 405.78 144.53 419.10 139.82 433.61 C 132.45 453.65 128.03 474.71 126.55 495.99 C 126.39 509.65 126.24 523.32 126.45 536.99 C 126.31 545.30 128.17 553.46 128.91 561.71 C 131.88 577.16 135.65 592.61 142.27 606.96 C 148.96 621.67 156.55 636.03 165.79 649.33 C 169.86 655.13 173.06 661.46 176.56 667.60 C 180.32 674.14 187.75 676.93 192.89 682.11 C 196.73 685.95 200.38 690.03 204.89 693.13 C 225.72 707.50 249.84 717.26 274.98 720.53 C 294.54 723.22 314.05 726.12 333.62 728.71 C 342.11 729.77 350.41 732.22 359.00 732.56 C 363.36 732.90 367.61 734.06 371.99 734.27 C 381.34 734.52 390.69 734.45 400.04 734.70 C 410.95 736.03 421.98 735.58 432.94 735.35 C 443.19 734.04 453.55 734.35 463.83 733.38 C 478.76 731.32 493.51 728.25 508.21 724.98 C 526.21 721.62 544.09 716.75 560.42 708.30 C 577.83 699.82 593.40 687.72 606.49 673.49 C 611.16 668.16 615.35 662.39 620.54 657.53 C 624.80 653.55 628.22 648.71 630.53 643.36 C 644.66 611.03 654.81 576.91 660.24 542.04 C 660.45 534.98 662.63 528.12 662.37 521.03 C 662.42 508.70 662.60 496.38 662.21 484.06 C 660.07 468.29 657.59 452.46 652.40 437.35 C 648.29 425.48 645.77 412.44 637.22 402.75 C 626.83 389.15 610.60 381.48 600.60 367.53 C 596.95 362.30 592.95 356.23 594.43 349.53 C 596.49 342.02 603.98 335.75 611.98 336.43 C 618.12 336.18 623.66 339.12 629.52 340.37 C 631.65 338.15 633.14 335.43 634.80 332.87 C 652.11 304.39 666.91 274.40 679.26 243.45 C 685.09 228.49 688.26 212.70 691.27 196.98 C 691.49 189.26 693.61 181.72 693.55 173.98 C 693.60 164.97 693.77 155.95 693.36 146.95 C 691.55 132.19 686.48 117.57 677.15 105.84 C 673.16 100.70 667.41 97.34 661.70 94.45 C 655.19 91.59 648.23 89.06 641.00 89.36 C 633.95 89.52 626.68 88.75 619.89 91.12 C 606.92 94.73 594.85 101.78 585.99 112.00 C 572.99 126.75 561.35 142.89 552.74 160.62 C 541.98 181.41 533.61 203.48 527.97 226.20 C 525.64 234.97 522.53 243.54 521.10 252.52 C 518.54 262.53 516.76 272.71 515.92 283.01 C 515.45 291.54 513.77 299.99 514.30 308.57 C 522.90 312.86 531.08 318.25 537.59 325.40 C 540.84 328.94 545.03 332.74 544.76 337.99 C 545.06 346.36 537.31 353.75 529.02 353.49 C 508.83 353.76 490.23 344.90 471.10 339.72 C 445.95 333.14 420.35 327.43 394.29 326.31 C 384.24 324.95 374.06 325.47 363.96 325.60 C 340.83 327.80 318.11 333.08 294.98 335.20 C 286.20 335.40 277.49 337.17 268.69 336.46 C 268.34 331.19 267.38 325.32 270.60 320.69 C 273.06 316.02 277.43 312.83 280.44 308.59 C 281.09 301.82 278.00 295.44 276.98 288.84 C 274.88 268.71 270.74 248.83 266.49 229.05 C 265.29 224.03 263.59 219.12 262.89 213.98 C 262.14 207.94 259.33 202.48 257.59 196.71 C 250.72 174.77 241.21 153.63 228.98 134.14 C 224.34 126.91 218.80 120.31 213.43 113.61 C 204.60 102.91 193.00 95.08 181.40 87.71 C 170.53 81.07 157.85 76.84 145.00 77.52 C 135.37 76.95 125.55 79.28 117.41 84.50 Z" />
<path fill="#000000" opacity="1.00" d=" M 127.11 107.32 C 132.55 104.21 139.05 105.16 145.02 105.43 C 153.52 106.12 162.22 102.81 170.53 105.77 C 181.62 109.81 190.44 118.10 198.36 126.58 C 202.97 131.60 208.42 135.84 212.57 141.29 C 216.66 146.69 220.68 152.15 224.31 157.86 C 228.75 164.81 233.81 171.42 237.26 178.95 C 244.11 192.62 248.85 207.44 250.45 222.68 C 250.89 227.88 251.61 233.05 252.81 238.13 C 254.08 244.74 256.61 251.59 254.58 258.32 C 253.40 263.05 249.94 266.75 246.11 269.56 C 240.30 263.28 235.36 256.28 230.89 249.00 C 227.12 242.70 221.46 237.82 217.68 231.52 C 214.29 225.83 210.45 220.40 207.51 214.46 C 205.68 210.76 203.49 207.26 201.14 203.87 C 196.96 197.83 193.57 191.31 189.99 184.92 C 186.09 177.78 179.30 173.00 174.09 166.92 C 166.93 158.49 160.56 149.00 151.13 142.88 C 149.09 141.62 146.93 140.14 144.42 140.30 C 142.91 142.58 142.38 145.31 142.01 147.97 C 140.45 158.55 142.30 169.30 140.69 179.87 C 139.05 195.38 142.25 210.82 146.15 225.76 C 150.58 244.22 154.95 262.70 159.31 281.18 C 160.79 287.82 162.19 294.65 161.24 301.47 C 159.56 304.65 155.46 302.99 152.96 301.85 C 145.66 298.21 141.14 291.05 136.02 284.99 C 125.76 270.98 116.86 255.91 110.30 239.81 C 105.46 227.51 102.41 214.62 99.96 201.67 C 99.11 196.48 99.58 191.20 99.11 185.99 C 98.06 175.42 99.26 164.73 101.66 154.42 C 103.66 145.80 103.77 136.42 108.51 128.67 C 113.26 120.49 118.83 112.29 127.11 107.32 Z" />
<path fill="#000000" opacity="1.00" d=" M 603.58 117.59 C 609.63 112.79 616.82 109.52 624.28 107.59 C 632.93 105.81 641.14 109.77 648.95 112.91 C 656.62 116.16 661.35 123.26 667.05 128.95 C 673.89 135.69 677.25 145.07 679.19 154.29 C 680.05 162.49 680.75 170.78 679.78 179.02 C 679.81 193.14 676.95 207.12 672.79 220.57 C 668.92 232.35 665.45 244.40 659.37 255.27 C 654.18 265.09 648.94 275.10 641.17 283.17 C 636.90 287.64 633.15 292.60 630.26 298.07 C 626.32 304.88 622.61 312.60 615.42 316.55 C 611.11 319.09 606.32 315.84 603.47 312.61 C 600.75 309.78 601.35 305.51 601.56 301.95 C 602.80 293.14 609.11 286.17 611.31 277.67 C 615.08 262.70 618.25 247.53 623.76 233.07 C 627.26 222.53 630.33 211.83 632.68 200.97 C 634.21 189.97 638.07 179.23 637.56 168.00 C 637.40 162.25 634.47 157.19 632.13 152.10 C 630.48 152.64 628.78 153.25 627.56 154.55 C 622.36 159.48 617.91 165.16 613.93 171.11 C 608.55 178.67 603.14 186.23 598.34 194.19 C 592.22 205.13 586.68 216.38 580.54 227.31 C 576.13 236.84 572.29 246.71 566.43 255.49 C 561.06 263.67 557.68 272.91 554.89 282.23 C 550.39 294.13 547.56 306.90 540.10 317.44 C 537.00 317.27 532.04 318.93 530.92 314.88 C 527.07 305.07 527.79 294.33 527.72 284.00 C 527.58 267.86 527.48 251.39 532.11 235.77 C 538.55 212.87 548.66 191.13 560.93 170.78 C 564.73 163.88 569.55 157.66 574.25 151.37 C 582.19 138.71 591.57 126.66 603.58 117.59 Z" />
<path fill="#000000" opacity="1.00" d=" M 296.52 452.80 C 302.93 450.30 310.08 452.96 315.62 456.41 C 320.27 458.99 321.54 464.58 322.32 469.42 C 323.03 476.25 322.79 483.49 319.60 489.72 C 316.20 496.80 308.69 501.43 301.01 502.28 C 292.70 501.66 284.69 497.05 279.90 490.23 C 276.11 484.92 275.63 477.95 277.01 471.75 C 279.81 462.59 288.48 457.00 296.52 452.80 Z" />
<path fill="#000000" opacity="1.00" d=" M 509.48 454.75 C 524.09 453.02 538.08 467.10 536.39 481.70 C 535.31 489.49 529.30 495.95 522.29 499.08 C 518.13 501.07 513.41 500.65 508.94 500.66 C 502.21 500.86 496.87 496.00 491.98 492.01 C 488.03 488.93 486.38 483.86 486.69 478.98 C 486.65 466.58 497.92 456.80 509.48 454.75 Z" />
<path fill="#000000" opacity="1.00" d=" M 374.58 497.50 C 381.96 492.50 391.24 491.08 400.01 491.30 C 412.60 491.01 425.54 491.60 437.37 496.33 C 442.06 498.01 446.79 501.12 448.42 506.07 C 449.69 512.27 447.00 518.42 443.57 523.45 C 439.06 530.22 432.35 534.99 426.48 540.47 C 423.48 543.34 419.45 544.92 416.66 548.00 C 416.35 552.25 417.05 556.50 417.41 560.73 C 430.67 561.84 443.30 566.86 454.48 573.93 C 446.86 576.83 438.82 578.47 430.85 580.07 C 422.21 580.93 413.42 580.64 404.84 579.27 C 396.68 577.95 388.27 578.20 380.27 575.91 C 376.92 574.76 373.74 573.20 370.52 571.75 C 373.76 566.00 380.87 564.81 386.85 564.22 C 391.37 563.34 396.22 563.42 400.42 561.36 C 401.10 557.02 400.75 552.57 400.41 548.21 C 399.77 542.78 393.82 540.88 390.23 537.67 C 381.61 530.59 372.83 521.70 371.59 510.03 C 371.22 505.75 370.32 500.22 374.58 497.50 Z" />
</g>
<g id="#ffffffff">
<path fill="#ffffff" opacity="1.00" d=" M 117.41 84.50 C 125.55 79.28 135.37 76.95 145.00 77.52 C 157.85 76.84 170.53 81.07 181.40 87.71 C 193.00 95.08 204.60 102.91 213.43 113.61 C 218.80 120.31 224.34 126.91 228.98 134.14 C 241.21 153.63 250.72 174.77 257.59 196.71 C 259.33 202.48 262.14 207.94 262.89 213.98 C 263.59 219.12 265.29 224.03 266.49 229.05 C 270.74 248.83 274.88 268.71 276.98 288.84 C 278.00 295.44 281.09 301.82 280.44 308.59 C 277.43 312.83 273.06 316.02 270.60 320.69 C 267.38 325.32 268.34 331.19 268.69 336.46 C 277.49 337.17 286.20 335.40 294.98 335.20 C 318.11 333.08 340.83 327.80 363.96 325.60 C 374.06 325.47 384.24 324.95 394.29 326.31 C 420.35 327.43 445.95 333.14 471.10 339.72 C 490.23 344.90 508.83 353.76 529.02 353.49 C 537.31 353.75 545.06 346.36 544.76 337.99 C 545.03 332.74 540.84 328.94 537.59 325.40 C 531.08 318.25 522.90 312.86 514.30 308.57 C 513.77 299.99 515.45 291.54 515.92 283.01 C 516.76 272.71 518.54 262.53 521.10 252.52 C 522.53 243.54 525.64 234.97 527.97 226.20 C 533.61 203.48 541.98 181.41 552.74 160.62 C 561.35 142.89 572.99 126.75 585.99 112.00 C 594.85 101.78 606.92 94.73 619.89 91.12 C 626.68 88.75 633.95 89.52 641.00 89.36 C 648.23 89.06 655.19 91.59 661.70 94.45 C 667.41 97.34 673.16 100.70 677.15 105.84 C 686.48 117.57 691.55 132.19 693.36 146.95 C 693.77 155.95 693.60 164.97 693.55 173.98 C 693.61 181.72 691.49 189.26 691.27 196.98 C 688.26 212.70 685.09 228.49 679.26 243.45 C 666.91 274.40 652.11 304.39 634.80 332.87 C 633.14 335.43 631.65 338.15 629.52 340.37 C 623.66 339.12 618.12 336.18 611.98 336.43 C 603.98 335.75 596.49 342.02 594.43 349.53 C 592.95 356.23 596.95 362.30 600.60 367.53 C 610.60 381.48 626.83 389.15 637.22 402.75 C 645.77 412.44 648.29 425.48 652.40 437.35 C 657.59 452.46 660.07 468.29 662.21 484.06 C 662.60 496.38 662.42 508.70 662.37 521.03 C 662.63 528.12 660.45 534.98 660.24 542.04 C 654.81 576.91 644.66 611.03 630.53 643.36 C 628.22 648.71 624.80 653.55 620.54 657.53 C 615.35 662.39 611.16 668.16 606.49 673.49 C 593.40 687.72 577.83 699.82 560.42 708.30 C 544.09 716.75 526.21 721.62 508.21 724.98 C 493.51 728.25 478.76 731.32 463.83 733.38 C 453.55 734.35 443.19 734.04 432.94 735.35 C 421.98 735.58 410.95 736.03 400.04 734.70 C 390.69 734.45 381.34 734.52 371.99 734.27 C 367.61 734.06 363.36 732.90 359.00 732.56 C 350.41 732.22 342.11 729.77 333.62 728.71 C 314.05 726.12 294.54 723.22 274.98 720.53 C 249.84 717.26 225.72 707.50 204.89 693.13 C 200.38 690.03 196.73 685.95 192.89 682.11 C 187.75 676.93 180.32 674.14 176.56 667.60 C 173.06 661.46 169.86 655.13 165.79 649.33 C 156.55 636.03 148.96 621.67 142.27 606.96 C 135.65 592.61 131.88 577.16 128.91 561.71 C 128.17 553.46 126.31 545.30 126.45 536.99 C 126.24 523.32 126.39 509.65 126.55 495.99 C 128.03 474.71 132.45 453.65 139.82 433.61 C 144.53 419.10 152.07 405.78 159.11 392.32 C 164.71 380.38 173.25 370.19 180.06 358.96 C 183.29 353.65 184.30 347.12 183.09 341.05 C 181.62 336.34 177.13 333.16 172.58 331.75 C 167.38 330.60 161.90 331.07 156.80 332.52 C 148.99 321.08 141.06 309.69 134.24 297.63 C 129.91 290.35 127.41 282.15 122.82 275.01 C 117.67 266.91 114.52 257.82 110.74 249.06 C 106.68 240.01 103.92 230.46 100.92 221.04 C 94.98 202.65 90.88 183.65 88.89 164.43 C 86.99 155.10 87.46 145.49 87.74 136.03 C 90.18 121.89 96.22 108.35 105.02 97.02 C 108.62 92.38 112.39 87.68 117.41 84.50 M 127.11 107.32 C 118.83 112.29 113.26 120.49 108.51 128.67 C 103.77 136.42 103.66 145.80 101.66 154.42 C 99.26 164.73 98.06 175.42 99.11 185.99 C 99.58 191.20 99.11 196.48 99.96 201.67 C 102.41 214.62 105.46 227.51 110.30 239.81 C 116.86 255.91 125.76 270.98 136.02 284.99 C 141.14 291.05 145.66 298.21 152.96 301.85 C 155.46 302.99 159.56 304.65 161.24 301.47 C 162.19 294.65 160.79 287.82 159.31 281.18 C 154.95 262.70 150.58 244.22 146.15 225.76 C 142.25 210.82 139.05 195.38 140.69 179.87 C 142.30 169.30 140.45 158.55 142.01 147.97 C 142.38 145.31 142.91 142.58 144.42 140.30 C 146.93 140.14 149.09 141.62 151.13 142.88 C 160.56 149.00 166.93 158.49 174.09 166.92 C 179.30 173.00 186.09 177.78 189.99 184.92 C 193.57 191.31 196.96 197.83 201.14 203.87 C 203.49 207.26 205.68 210.76 207.51 214.46 C 210.45 220.40 214.29 225.83 217.68 231.52 C 221.46 237.82 227.12 242.70 230.89 249.00 C 235.36 256.28 240.30 263.28 246.11 269.56 C 249.94 266.75 253.40 263.05 254.58 258.32 C 256.61 251.59 254.08 244.74 252.81 238.13 C 251.61 233.05 250.89 227.88 250.45 222.68 C 248.85 207.44 244.11 192.62 237.26 178.95 C 233.81 171.42 228.75 164.81 224.31 157.86 C 220.68 152.15 216.66 146.69 212.57 141.29 C 208.42 135.84 202.97 131.60 198.36 126.58 C 190.44 118.10 181.62 109.81 170.53 105.77 C 162.22 102.81 153.52 106.12 145.02 105.43 C 139.05 105.16 132.55 104.21 127.11 107.32 M 603.58 117.59 C 591.57 126.66 582.19 138.71 574.25 151.37 C 569.55 157.66 564.73 163.88 560.93 170.78 C 548.66 191.13 538.55 212.87 532.11 235.77 C 527.48 251.39 527.58 267.86 527.72 284.00 C 527.79 294.33 527.07 305.07 530.92 314.88 C 532.04 318.93 537.00 317.27 540.10 317.44 C 547.56 306.90 550.39 294.13 554.89 282.23 C 557.68 272.91 561.06 263.67 566.43 255.49 C 572.29 246.71 576.13 236.84 580.54 227.31 C 586.68 216.38 592.22 205.13 598.34 194.19 C 603.14 186.23 608.55 178.67 613.93 171.11 C 617.91 165.16 622.36 159.48 627.56 154.55 C 628.78 153.25 630.48 152.64 632.13 152.10 C 634.47 157.19 637.40 162.25 637.56 168.00 C 638.07 179.23 634.21 189.97 632.68 200.97 C 630.33 211.83 627.26 222.53 623.76 233.07 C 618.25 247.53 615.08 262.70 611.31 277.67 C 609.11 286.17 602.80 293.14 601.56 301.95 C 601.35 305.51 600.75 309.78 603.47 312.61 C 606.32 315.84 611.11 319.09 615.42 316.55 C 622.61 312.60 626.32 304.88 630.26 298.07 C 633.15 292.60 636.90 287.64 641.17 283.17 C 648.94 275.10 654.18 265.09 659.37 255.27 C 665.45 244.40 668.92 232.35 672.79 220.57 C 676.95 207.12 679.81 193.14 679.78 179.02 C 680.75 170.78 680.05 162.49 679.19 154.29 C 677.25 145.07 673.89 135.69 667.05 128.95 C 661.35 123.26 656.62 116.16 648.95 112.91 C 641.14 109.77 632.93 105.81 624.28 107.59 C 616.82 109.52 609.63 112.79 603.58 117.59 M 296.52 452.80 C 288.48 457.00 279.81 462.59 277.01 471.75 C 275.63 477.95 276.11 484.92 279.90 490.23 C 284.69 497.05 292.70 501.66 301.01 502.28 C 308.69 501.43 316.20 496.80 319.60 489.72 C 322.79 483.49 323.03 476.25 322.32 469.42 C 321.54 464.58 320.27 458.99 315.62 456.41 C 310.08 452.96 302.93 450.30 296.52 452.80 M 509.48 454.75 C 497.92 456.80 486.65 466.58 486.69 478.98 C 486.38 483.86 488.03 488.93 491.98 492.01 C 496.87 496.00 502.21 500.86 508.94 500.66 C 513.41 500.65 518.13 501.07 522.29 499.08 C 529.30 495.95 535.31 489.49 536.39 481.70 C 538.08 467.10 524.09 453.02 509.48 454.75 M 374.58 497.50 C 370.32 500.22 371.22 505.75 371.59 510.03 C 372.83 521.70 381.61 530.59 390.23 537.67 C 393.82 540.88 399.77 542.78 400.41 548.21 C 400.75 552.57 401.10 557.02 400.42 561.36 C 396.22 563.42 391.37 563.34 386.85 564.22 C 380.87 564.81 373.76 566.00 370.52 571.75 C 373.74 573.20 376.92 574.76 380.27 575.91 C 388.27 578.20 396.68 577.95 404.84 579.27 C 413.42 580.64 422.21 580.93 430.85 580.07 C 438.82 578.47 446.86 576.83 454.48 573.93 C 443.30 566.86 430.67 561.84 417.41 560.73 C 417.05 556.50 416.35 552.25 416.66 548.00 C 419.45 544.92 423.48 543.34 426.48 540.47 C 432.35 534.99 439.06 530.22 443.57 523.45 C 447.00 518.42 449.69 512.27 448.42 506.07 C 446.79 501.12 442.06 498.01 437.37 496.33 C 425.54 491.60 412.60 491.01 400.01 491.30 C 391.24 491.08 381.96 492.50 374.58 497.50 Z" />
</g>
</svg>
