<?xml version="1.0" encoding="UTF-8" ?>
<!DOCTYPE svg PUBLIC "-//W3C//DTD SVG 1.1//EN" "http://www.w3.org/Graphics/SVG/1.1/DTD/svg11.dtd">
<svg width="600pt" height="600pt" viewBox="0 0 600 600" version="1.1" xmlns="http://www.w3.org/2000/svg">
<g id="#000000ff">
<path fill="#000000" opacity="1.00" d=" M 0.00 0.00 L 0.10 0.00 C 0.08 0.03 0.03 0.08 0.00 0.10 L 0.00 0.00 Z" />
<path fill="#000000" opacity="1.00" d=" M 171.57 10.54 C 185.31 5.89 200.70 9.53 212.45 17.54 C 227.95 27.56 237.70 44.20 243.79 61.24 C 250.36 77.83 252.39 95.65 255.22 113.13 C 263.81 112.29 272.37 110.62 281.03 110.95 C 294.12 111.88 307.26 113.16 319.97 116.64 C 319.72 110.39 320.83 104.22 321.03 97.99 C 322.82 83.23 327.28 68.87 333.27 55.29 C 338.32 45.40 343.36 35.25 351.32 27.31 C 360.52 18.73 372.55 13.33 385.05 12.00 C 393.70 12.10 402.31 14.76 409.64 19.36 C 421.11 27.76 428.28 41.75 428.27 55.99 C 429.39 82.24 420.68 108.06 407.57 130.52 C 405.00 136.33 400.99 141.29 397.86 146.79 C 405.98 155.35 409.45 167.20 411.50 178.55 C 413.15 185.91 413.35 193.49 414.06 200.99 C 413.45 220.78 410.91 241.31 400.74 258.73 C 395.92 266.45 391.49 274.53 385.16 281.16 C 375.48 291.35 363.09 298.40 350.59 304.55 C 346.60 306.32 342.26 307.09 338.03 308.03 C 325.91 310.73 313.40 312.27 300.99 311.11 C 293.94 310.81 286.84 311.46 279.83 310.32 C 264.89 309.38 250.23 306.17 235.38 304.46 C 224.48 302.93 213.93 299.13 204.48 293.51 C 199.30 290.40 193.67 287.92 189.13 283.86 C 185.09 280.54 182.21 276.13 178.72 272.29 C 165.62 258.13 160.01 238.77 158.05 219.98 C 157.85 209.34 157.45 198.55 160.17 188.15 C 162.89 177.34 166.19 166.55 171.82 156.86 C 174.57 152.24 175.85 146.93 178.69 142.36 C 171.71 137.95 167.23 130.89 162.92 124.06 C 152.72 105.46 145.87 85.01 143.19 63.96 C 142.61 54.82 142.60 45.43 145.71 36.70 C 149.96 24.76 159.59 14.78 171.57 10.54 M 169.95 31.96 C 163.88 38.40 159.58 46.99 159.98 56.02 C 161.09 73.07 165.56 89.85 172.72 105.34 C 174.63 108.58 176.54 111.82 177.82 115.36 C 180.97 121.18 184.70 126.65 188.47 132.08 C 192.25 130.19 197.18 131.33 199.23 135.15 C 200.05 138.51 198.84 142.07 196.79 144.76 C 184.32 161.91 176.03 182.62 175.81 204.01 C 175.14 216.55 176.75 229.20 181.04 241.04 C 184.17 249.08 188.50 256.59 193.38 263.70 C 195.47 266.58 196.26 270.53 199.53 272.40 C 202.09 274.16 204.13 276.50 206.33 278.67 C 216.08 286.32 228.28 290.32 240.51 291.59 C 256.99 293.56 273.33 297.49 290.00 297.11 C 297.97 297.85 305.92 296.71 313.89 296.52 C 321.99 295.31 330.01 293.54 338.02 291.82 C 352.44 288.69 366.02 280.87 375.23 269.24 C 377.92 265.62 382.10 263.02 383.48 258.53 C 385.81 251.88 388.68 245.41 390.47 238.58 C 396.78 217.54 398.77 194.36 391.37 173.33 C 389.88 168.89 388.84 164.01 385.45 160.54 C 380.40 153.94 371.80 150.29 368.55 142.30 C 366.36 138.07 370.66 133.26 374.98 133.31 C 377.62 133.41 380.16 134.23 382.67 134.99 C 389.71 124.20 395.58 112.68 400.58 100.83 C 405.71 89.94 407.97 77.95 409.00 66.03 C 409.39 56.88 408.73 46.72 402.57 39.41 C 399.53 35.35 394.66 33.29 389.87 32.16 C 379.68 30.69 368.80 35.04 362.84 43.53 C 362.77 43.61 362.62 43.78 362.54 43.86 C 348.86 60.09 342.05 80.81 337.43 101.23 C 335.66 107.93 335.88 114.90 334.93 121.73 C 339.73 124.09 344.34 127.25 347.19 131.89 C 349.39 135.88 345.18 140.76 340.99 140.39 C 332.75 140.40 325.22 136.79 317.41 134.70 C 302.34 130.63 286.71 128.10 271.09 129.17 C 258.93 130.75 246.82 133.61 234.53 133.54 C 232.44 128.76 236.28 124.89 239.42 121.82 C 238.99 119.01 238.08 116.32 237.60 113.52 C 236.44 102.34 233.84 91.37 231.36 80.42 C 226.54 64.72 219.84 48.82 207.39 37.61 C 201.80 33.22 195.77 28.84 188.63 27.53 C 182.17 26.49 174.82 27.09 169.95 31.96 Z" />
<path fill="#000000" opacity="1.00" d=" M 167.72 49.74 C 170.41 43.93 175.79 36.86 183.06 38.61 C 186.24 39.25 189.40 37.48 192.57 38.36 C 198.51 39.46 202.64 44.24 206.50 48.50 C 212.34 53.49 216.40 60.12 220.50 66.52 C 223.96 73.19 226.58 80.45 227.00 88.01 C 227.14 92.56 229.81 96.91 228.58 101.53 C 228.22 103.61 226.48 104.90 225.07 106.29 C 221.24 101.28 217.90 95.92 213.94 91.00 C 209.70 84.49 205.97 77.66 201.94 71.02 C 199.97 67.84 196.74 65.73 194.53 62.74 C 194.46 62.64 194.31 62.43 194.23 62.33 C 191.18 58.63 188.03 54.48 183.42 52.69 C 180.92 58.19 182.55 64.29 181.81 70.07 C 180.99 74.77 182.64 79.41 183.05 84.08 C 185.06 92.95 187.37 101.75 189.35 110.63 C 190.00 113.50 190.24 116.45 190.19 119.39 C 187.72 120.34 185.63 118.66 183.99 117.02 C 170.71 102.99 163.34 83.34 164.74 64.01 C 165.82 59.27 166.39 54.41 167.72 49.74 Z" />
<path fill="#000000" opacity="1.00" d=" M 378.96 39.94 C 382.55 38.36 386.30 39.98 389.72 41.19 C 393.89 42.72 396.39 46.65 399.29 49.77 C 403.35 55.57 403.87 63.17 403.14 70.02 C 403.10 78.99 400.02 87.58 396.97 95.91 C 394.01 102.01 390.99 108.29 386.11 113.12 C 382.55 116.72 381.60 122.43 377.14 125.21 C 374.26 126.84 370.78 123.94 370.86 120.90 C 370.83 117.12 373.18 113.98 374.65 110.67 C 376.34 103.56 378.00 96.40 380.56 89.54 C 383.15 81.88 384.90 73.96 386.01 65.96 C 386.26 62.88 384.77 60.07 383.24 57.52 C 374.40 65.45 369.16 76.22 363.71 86.54 C 360.80 90.88 359.56 96.09 356.46 100.33 C 351.38 107.93 351.21 117.63 346.26 125.28 C 345.13 126.02 343.70 126.05 342.46 125.63 C 341.34 123.62 341.00 121.30 340.89 119.04 C 340.88 110.73 340.17 102.30 342.11 94.14 C 345.22 81.90 350.93 70.44 357.93 59.99 C 363.49 52.06 369.26 43.12 378.96 39.94 Z" />
<path fill="#000000" opacity="1.00" d=" M 245.45 181.39 C 248.65 180.01 251.98 181.66 254.65 183.44 C 258.09 188.93 256.93 197.99 250.64 200.88 C 243.83 203.76 235.73 196.21 237.81 189.19 C 238.86 185.46 242.30 183.23 245.45 181.39 Z" />
<path fill="#000000" opacity="1.00" d=" M 332.45 182.27 C 338.56 180.89 344.84 186.79 344.31 192.92 C 343.43 199.49 334.85 203.19 329.35 199.72 C 326.88 198.15 323.89 196.12 323.96 192.84 C 323.32 187.74 327.91 183.57 332.45 182.27 Z" />
<path fill="#000000" opacity="1.00" d=" M 276.45 203.57 C 275.22 199.08 281.05 197.91 284.22 197.09 C 290.26 196.95 296.52 196.48 302.31 198.55 C 304.86 199.12 307.25 200.81 308.43 203.16 C 308.98 207.23 306.26 210.83 303.49 213.50 C 300.70 215.73 298.44 218.75 294.92 219.92 C 295.28 221.87 295.42 223.85 295.43 225.83 C 301.22 225.66 306.37 228.33 311.28 231.09 C 307.51 232.00 303.80 233.23 299.94 233.69 C 293.93 234.05 288.02 232.73 282.07 232.27 C 279.79 232.11 277.78 230.92 275.81 229.89 C 279.01 226.13 284.49 227.36 288.74 225.81 C 288.36 223.59 288.97 221.03 287.96 219.01 C 282.89 215.05 276.89 210.59 276.45 203.57 Z" />
</g>
<g id="#ffffffff">
<path fill="#ffffff" opacity="1.00" d=" M 169.95 31.96 C 174.82 27.09 182.17 26.49 188.63 27.53 C 195.77 28.84 201.80 33.22 207.39 37.61 C 219.84 48.82 226.54 64.72 231.36 80.42 C 233.84 91.37 236.44 102.34 237.60 113.52 C 238.08 116.32 238.99 119.01 239.42 121.82 C 236.28 124.89 232.44 128.76 234.53 133.54 C 246.82 133.61 258.93 130.75 271.09 129.17 C 286.71 128.10 302.34 130.63 317.41 134.70 C 325.22 136.79 332.75 140.40 340.99 140.39 C 345.18 140.76 349.39 135.88 347.19 131.89 C 344.34 127.25 339.73 124.09 334.93 121.73 C 335.88 114.90 335.66 107.93 337.43 101.23 C 342.05 80.81 348.86 60.09 362.54 43.86 C 362.62 43.78 362.77 43.61 362.84 43.53 C 368.80 35.04 379.68 30.69 389.87 32.16 C 394.66 33.29 399.53 35.35 402.57 39.41 C 408.73 46.72 409.39 56.88 409.00 66.03 C 407.97 77.95 405.71 89.94 400.58 100.83 C 395.58 112.68 389.71 124.20 382.67 134.99 C 380.16 134.23 377.62 133.41 374.98 133.31 C 370.66 133.26 366.36 138.07 368.55 142.30 C 371.80 150.29 380.40 153.94 385.45 160.54 C 388.84 164.01 389.88 168.89 391.37 173.33 C 398.77 194.36 396.78 217.54 390.47 238.58 C 388.68 245.41 385.81 251.88 383.48 258.53 C 382.10 263.02 377.92 265.62 375.23 269.24 C 366.02 280.87 352.44 288.69 338.02 291.82 C 330.01 293.54 321.99 295.31 313.89 296.52 C 305.92 296.71 297.97 297.85 290.00 297.11 C 273.33 297.49 256.99 293.56 240.51 291.59 C 228.28 290.32 216.08 286.32 206.33 278.67 C 204.13 276.50 202.09 274.16 199.53 272.40 C 196.26 270.53 195.47 266.58 193.38 263.70 C 188.50 256.59 184.17 249.08 181.04 241.04 C 176.75 229.20 175.14 216.55 175.81 204.01 C 176.03 182.62 184.32 161.91 196.79 144.76 C 198.84 142.07 200.05 138.51 199.23 135.15 C 197.18 131.33 192.25 130.19 188.47 132.08 C 184.70 126.65 180.97 121.18 177.82 115.36 C 176.54 111.82 174.63 108.58 172.72 105.34 C 165.56 89.85 161.09 73.07 159.98 56.02 C 159.58 46.99 163.88 38.40 169.95 31.96 M 167.72 49.74 C 166.39 54.41 165.82 59.27 164.74 64.01 C 163.34 83.34 170.71 102.99 183.99 117.02 C 185.63 118.66 187.72 120.34 190.19 119.39 C 190.24 116.45 190.00 113.50 189.35 110.63 C 187.37 101.75 185.06 92.95 183.05 84.08 C 182.64 79.41 180.99 74.77 181.81 70.07 C 182.55 64.29 180.92 58.19 183.42 52.69 C 188.03 54.48 191.18 58.63 194.23 62.33 C 194.31 62.43 194.46 62.64 194.53 62.74 C 196.74 65.73 199.97 67.84 201.94 71.02 C 205.97 77.66 209.70 84.49 213.94 91.00 C 217.90 95.92 221.24 101.28 225.07 106.29 C 226.48 104.90 228.22 103.61 228.58 101.53 C 229.81 96.91 227.14 92.56 227.00 88.01 C 226.58 80.45 223.96 73.19 220.50 66.52 C 216.40 60.12 212.34 53.49 206.50 48.50 C 202.64 44.24 198.51 39.46 192.57 38.36 C 189.40 37.48 186.24 39.25 183.06 38.61 C 175.79 36.86 170.41 43.93 167.72 49.74 M 378.96 39.94 C 369.26 43.12 363.49 52.06 357.93 59.99 C 350.93 70.44 345.22 81.90 342.11 94.14 C 340.17 102.30 340.88 110.73 340.89 119.04 C 341.00 121.30 341.34 123.62 342.46 125.63 C 343.70 126.05 345.13 126.02 346.26 125.28 C 351.21 117.63 351.38 107.93 356.46 100.33 C 359.56 96.09 360.80 90.88 363.71 86.54 C 369.16 76.22 374.40 65.45 383.24 57.52 C 384.77 60.07 386.26 62.88 386.01 65.96 C 384.90 73.96 383.15 81.88 380.56 89.54 C 378.00 96.40 376.34 103.56 374.65 110.67 C 373.18 113.98 370.83 117.12 370.86 120.90 C 370.78 123.94 374.26 126.84 377.14 125.21 C 381.60 122.43 382.55 116.72 386.11 113.12 C 390.99 108.29 394.01 102.01 396.97 95.91 C 400.02 87.58 403.10 78.99 403.14 70.02 C 403.87 63.17 403.35 55.57 399.29 49.77 C 396.39 46.65 393.89 42.72 389.72 41.19 C 386.30 39.98 382.55 38.36 378.96 39.94 M 245.45 181.39 C 242.30 183.23 238.86 185.46 237.81 189.19 C 235.73 196.21 243.83 203.76 250.64 200.88 C 256.93 197.99 258.09 188.93 254.65 183.44 C 251.98 181.66 248.65 180.01 245.45 181.39 M 332.45 182.27 C 327.91 183.57 323.32 187.74 323.96 192.84 C 323.89 196.12 326.88 198.15 329.35 199.72 C 334.85 203.19 343.43 199.49 344.31 192.92 C 344.84 186.79 338.56 180.89 332.45 182.27 M 276.45 203.57 C 276.89 210.59 282.89 215.05 287.96 219.01 C 288.97 221.03 288.36 223.59 288.74 225.81 C 284.49 227.36 279.01 226.13 275.81 229.89 C 277.78 230.92 279.79 232.11 282.07 232.27 C 288.02 232.73 293.93 234.05 299.94 233.69 C 303.80 233.23 307.51 232.00 311.28 231.09 C 306.37 228.33 301.22 225.66 295.43 225.83 C 295.42 223.85 295.28 221.87 294.92 219.92 C 298.44 218.75 300.70 215.73 303.49 213.50 C 306.26 210.83 308.98 207.23 308.43 203.16 C 307.25 200.81 304.86 199.12 302.31 198.55 C 296.52 196.48 290.26 196.95 284.22 197.09 C 281.05 197.91 275.22 199.08 276.45 203.57 Z" />
</g>
</svg>
