<?xml version="1.0" encoding="UTF-8" ?>
<!DOCTYPE svg PUBLIC "-//W3C//DTD SVG 1.1//EN" "http://www.w3.org/Graphics/SVG/1.1/DTD/svg11.dtd">
<svg width="800pt" height="800pt" viewBox="0 0 800 800" version="1.1" xmlns="http://www.w3.org/2000/svg">
<g id="#000000ff">
<path fill="#000000" opacity="1.00" d=" M 0.00 0.00 L 0.25 0.00 C 0.19 0.06 0.06 0.19 0.00 0.25 L 0.00 0.00 Z" />
<path fill="#000000" opacity="1.00" d=" M 475.28 412.25 C 476.20 410.70 478.39 411.17 479.90 410.72 C 480.97 414.26 481.91 417.86 482.47 421.52 C 483.41 430.60 485.56 439.50 487.51 448.41 C 494.24 485.05 507.50 519.98 518.35 555.49 C 520.14 562.21 522.60 568.93 522.25 576.00 C 523.33 586.75 513.02 597.29 502.18 595.91 C 495.60 594.47 490.39 588.96 488.33 582.68 C 485.81 574.46 485.38 565.74 482.43 557.64 C 476.97 541.75 473.62 525.27 470.05 508.89 C 467.52 494.46 465.40 479.93 464.46 465.31 C 461.85 459.71 462.81 453.62 463.67 447.77 C 463.44 441.66 461.46 433.98 466.80 429.41 C 469.35 436.24 469.65 443.58 471.33 450.63 C 472.18 456.42 471.56 462.35 473.09 468.06 C 474.37 484.89 477.59 501.49 479.90 518.19 C 483.18 533.13 485.53 548.30 489.97 562.96 C 491.63 567.86 490.68 573.70 494.17 577.87 C 497.22 581.74 500.42 585.89 505.10 587.86 C 513.15 585.10 515.47 575.49 515.56 567.88 C 516.35 563.26 513.19 559.51 511.25 555.65 C 501.59 535.72 494.86 514.55 488.49 493.39 C 483.64 476.16 479.36 458.70 477.23 440.91 C 476.47 433.03 476.12 425.09 474.77 417.28 C 474.79 415.59 474.86 413.88 475.28 412.25 Z" />
<path fill="#000000" opacity="1.00" d=" M 327.08 413.63 C 329.48 413.20 332.84 413.13 333.15 416.30 C 332.49 428.10 331.18 439.88 328.28 451.36 C 325.81 466.64 321.83 481.64 317.60 496.53 C 311.38 516.60 305.03 536.74 295.70 555.62 C 294.28 558.50 292.36 561.20 291.50 564.32 C 291.23 570.15 291.71 576.29 294.60 581.50 C 296.12 584.42 298.71 586.88 301.90 587.86 C 305.46 586.39 308.19 583.54 310.62 580.64 C 312.65 578.16 315.02 575.59 315.30 572.23 C 316.06 566.19 317.64 560.31 319.43 554.50 C 322.31 542.47 324.49 530.28 327.10 518.19 C 329.41 501.49 332.63 484.89 333.91 468.06 C 335.68 461.54 334.54 454.69 336.17 448.16 C 337.41 442.86 337.67 437.37 339.21 432.14 C 340.58 427.79 339.75 423.15 340.63 418.72 C 341.25 418.52 342.49 418.12 343.11 417.92 C 344.66 425.65 345.66 433.61 344.61 441.48 C 343.62 448.12 344.42 454.95 342.54 461.46 C 341.63 488.19 336.24 514.62 329.71 540.51 C 328.05 546.78 326.15 552.99 324.09 559.14 C 321.41 567.03 321.07 575.49 318.43 583.40 C 316.21 589.35 311.15 594.53 304.82 595.91 C 293.98 597.29 283.66 586.75 284.76 576.00 C 284.51 569.80 286.18 563.79 287.93 557.91 C 296.45 529.55 306.70 501.71 314.03 472.99 C 317.61 459.18 320.16 445.15 323.12 431.21 C 324.45 425.35 324.03 419.01 327.08 413.63 Z" />
</g>
<g id="#ffffffff">
<path fill="#ffffff" opacity="1.00" d=" M 467.04 412.07 C 467.04 409.99 468.97 408.73 469.98 407.11 C 472.11 410.22 473.59 413.71 474.77 417.28 C 476.12 425.09 476.47 433.03 477.23 440.91 C 479.36 458.70 483.64 476.16 488.49 493.39 C 494.86 514.55 501.59 535.72 511.25 555.65 C 513.19 559.51 516.35 563.26 515.56 567.88 C 515.47 575.49 513.15 585.10 505.10 587.86 C 500.42 585.89 497.22 581.74 494.17 577.87 C 490.68 573.70 491.63 567.86 489.97 562.96 C 485.53 548.30 483.18 533.13 479.90 518.19 C 477.59 501.49 474.37 484.89 473.09 468.06 C 471.56 462.35 472.18 456.42 471.33 450.63 C 469.65 443.58 469.35 436.24 466.80 429.41 C 466.71 423.62 466.33 417.84 467.04 412.07 Z" />
<path fill="#ffffff" opacity="1.00" d=" M 333.15 416.30 C 333.37 413.97 333.96 411.59 335.68 409.89 C 338.72 411.71 341.77 414.84 340.63 418.72 C 339.75 423.15 340.58 427.79 339.21 432.14 C 337.67 437.37 337.41 442.86 336.17 448.16 C 334.54 454.69 335.68 461.54 333.91 468.06 C 332.63 484.89 329.41 501.49 327.10 518.19 C 324.49 530.28 322.31 542.47 319.43 554.50 C 317.64 560.31 316.06 566.19 315.30 572.23 C 315.02 575.59 312.65 578.16 310.62 580.64 C 308.19 583.54 305.46 586.39 301.90 587.86 C 298.71 586.88 296.12 584.42 294.60 581.50 C 291.71 576.29 291.23 570.15 291.50 564.32 C 292.36 561.20 294.28 558.50 295.70 555.62 C 305.03 536.74 311.38 516.60 317.60 496.53 C 321.83 481.64 325.81 466.64 328.28 451.36 C 331.18 439.88 332.49 428.10 333.15 416.30 Z" />
</g>
</svg>
