<?xml version="1.0" encoding="UTF-8" ?>
<!DOCTYPE svg PUBLIC "-//W3C//DTD SVG 1.1//EN" "http://www.w3.org/Graphics/SVG/1.1/DTD/svg11.dtd">
<svg width="800pt" height="800pt" viewBox="0 0 800 800" version="1.1" xmlns="http://www.w3.org/2000/svg">
<g id="#000000ff">
<path fill="#000000" opacity="1.00" d=" M 0.00 0.00 L 0.10 0.00 C 0.08 0.03 0.03 0.08 0.00 0.10 L 0.00 0.00 Z" />
<path fill="#000000" opacity="1.00" d=" M 351.38 130.40 C 364.20 129.03 377.13 129.71 390.00 129.48 C 410.65 130.08 431.42 128.39 451.99 130.94 C 468.56 131.67 485.12 136.54 498.60 146.38 C 507.81 153.07 515.37 161.70 522.60 170.41 C 532.31 180.39 538.24 193.15 544.70 205.30 C 550.82 218.30 555.65 231.99 557.85 246.23 C 560.04 255.34 558.33 264.76 559.37 273.99 C 559.94 293.53 555.86 313.14 547.92 330.98 C 545.08 336.57 542.49 342.49 537.93 346.94 C 535.70 349.18 532.43 349.56 529.60 350.63 C 520.42 354.09 510.73 355.96 501.57 359.50 C 484.73 365.59 468.78 375.41 457.62 389.60 C 451.68 397.29 451.08 407.25 448.11 416.16 C 447.05 419.88 443.21 421.51 440.07 423.10 C 432.01 427.31 422.74 427.74 413.92 429.03 C 407.32 430.13 400.65 429.07 394.01 429.50 C 388.30 429.91 382.66 428.76 377.02 428.11 C 370.51 427.17 363.81 426.26 357.93 423.11 C 355.02 421.58 351.46 420.17 350.17 416.88 C 348.57 412.51 347.56 407.96 346.62 403.42 C 344.96 397.40 342.45 391.46 338.15 386.84 C 324.43 371.09 305.08 361.42 285.24 355.81 C 277.74 353.89 270.42 351.36 263.10 348.88 C 259.28 347.27 257.05 343.48 254.87 340.16 C 243.62 320.47 238.28 297.61 238.58 274.99 C 239.29 268.00 238.83 260.98 239.04 253.98 C 240.87 236.81 246.11 220.13 253.63 204.63 C 259.99 192.71 265.85 180.20 275.41 170.41 C 284.14 159.88 293.44 149.37 305.43 142.46 C 312.11 138.63 319.24 135.46 326.77 133.74 C 334.80 131.54 343.15 131.28 351.38 130.40 M 347.55 148.60 C 339.04 149.42 330.49 150.69 322.41 153.58 C 312.91 156.33 305.13 162.62 297.19 168.21 C 291.10 173.00 285.21 178.16 280.18 184.03 C 271.02 202.08 262.08 220.69 258.76 240.83 C 257.65 245.74 256.80 250.72 256.86 255.77 C 256.00 262.15 255.33 268.72 256.86 275.06 C 258.15 291.26 261.43 307.60 268.76 322.24 C 270.27 326.67 272.88 330.60 274.49 334.99 C 292.45 334.31 309.54 341.51 325.04 349.87 C 339.33 358.72 353.45 369.47 361.30 384.74 C 365.75 392.61 367.92 401.70 366.89 410.73 C 370.99 410.84 375.12 410.70 379.13 411.69 C 379.21 406.92 378.88 402.13 379.44 397.39 C 381.07 397.29 382.71 397.22 384.36 397.17 C 385.45 402.05 382.83 406.82 384.02 411.76 C 388.73 412.12 393.44 412.62 398.17 412.71 C 397.40 409.17 397.99 405.56 397.84 401.98 C 397.89 399.25 397.26 396.27 398.87 393.84 C 400.79 392.92 404.34 393.34 403.84 396.20 C 403.74 401.73 402.87 407.24 402.38 412.76 C 406.66 412.28 410.96 411.99 415.26 411.76 C 415.03 407.89 414.75 403.97 415.71 400.18 C 417.25 400.15 418.80 400.16 420.36 400.20 C 421.03 403.92 420.40 407.67 420.07 411.39 C 423.71 410.69 427.42 410.89 431.10 410.72 C 430.97 405.88 430.58 400.91 432.07 396.21 C 436.53 380.11 448.14 366.97 461.60 357.56 C 472.37 349.05 485.02 343.28 497.94 338.85 C 506.16 336.17 514.85 334.64 523.51 334.99 C 527.64 325.31 532.86 316.02 535.65 305.81 C 538.70 295.83 540.32 285.44 541.14 275.06 C 542.79 268.42 541.82 261.57 541.09 254.89 C 541.24 248.06 539.19 241.48 538.07 234.80 C 534.11 216.92 526.05 200.29 517.84 184.02 C 509.49 174.35 499.11 166.59 488.47 159.59 C 475.53 151.39 459.96 149.39 445.05 147.98 C 435.41 148.54 425.74 148.01 416.10 148.58 C 410.14 148.02 404.15 148.18 398.18 148.12 C 395.31 150.35 393.18 153.44 390.27 155.67 C 395.53 156.72 400.97 157.46 405.73 160.13 C 408.58 161.43 412.02 164.02 410.85 167.62 C 407.94 174.13 401.83 178.22 396.14 182.11 C 399.51 185.62 402.78 189.86 402.97 194.92 C 403.01 198.36 398.78 201.32 395.73 199.38 C 391.69 197.31 389.80 192.88 387.78 189.08 C 386.54 186.49 384.65 184.00 384.65 181.01 C 383.75 174.47 390.85 171.37 395.41 168.46 C 389.54 166.80 383.77 164.89 378.11 162.63 C 377.61 160.55 376.85 158.25 378.00 156.24 C 379.88 153.20 382.56 150.76 384.79 147.98 C 376.52 147.76 368.26 148.34 360.00 148.29 C 355.85 148.08 351.64 147.60 347.55 148.60 Z" />
<path fill="#000000" opacity="1.00" d=" M 321.57 213.68 C 329.45 212.17 337.60 214.69 344.50 218.46 C 350.66 222.96 356.05 228.72 359.51 235.58 C 363.86 244.04 368.67 252.56 370.11 262.10 C 371.77 275.87 369.17 290.56 361.09 302.03 C 358.24 305.53 355.67 309.32 352.16 312.21 C 342.42 320.15 329.55 324.26 317.02 323.23 C 305.89 322.17 296.24 314.81 290.41 305.55 C 285.46 297.19 282.37 287.74 281.65 278.04 C 281.76 270.60 282.44 263.18 283.83 255.88 C 286.07 241.09 294.96 227.62 307.20 219.14 C 311.63 216.53 316.58 214.88 321.57 213.68 M 340.33 255.38 C 335.30 257.04 330.68 261.03 329.58 266.39 C 327.57 273.36 328.98 281.12 332.87 287.18 C 336.45 292.55 344.38 294.11 349.83 290.78 C 353.95 288.10 355.84 283.19 356.29 278.47 C 357.20 271.77 357.00 264.05 352.20 258.77 C 349.40 255.36 344.53 253.73 340.33 255.38 Z" />
<path fill="#000000" opacity="1.00" d=" M 467.45 213.52 C 475.38 212.24 483.24 215.24 490.19 218.77 C 502.78 227.15 511.88 240.87 514.17 255.87 C 516.65 269.16 517.82 283.40 512.16 296.09 C 508.20 307.30 499.84 317.35 488.50 321.54 C 476.51 325.55 463.18 322.70 452.35 316.72 C 445.10 312.82 439.84 306.31 435.28 299.63 C 428.55 288.46 426.31 274.96 427.89 262.10 C 429.54 251.59 435.03 242.28 439.91 233.01 C 444.93 225.14 451.90 217.68 461.16 215.10 C 463.24 214.51 465.32 213.89 467.45 213.52 M 450.34 255.43 C 444.01 258.20 441.21 265.47 441.28 272.01 C 441.45 277.85 441.72 284.50 446.03 288.96 C 451.07 294.50 461.07 293.34 465.13 287.18 C 468.85 281.36 470.34 273.97 468.63 267.21 C 467.29 259.26 458.20 252.85 450.34 255.43 Z" />
<path fill="#000000" opacity="1.00" d=" M 393.45 287.14 C 396.06 285.52 399.06 288.30 401.05 289.93 C 408.85 298.94 414.96 309.65 417.68 321.32 C 417.82 323.64 417.83 326.30 416.21 328.16 C 414.03 331.55 409.48 330.94 405.99 331.17 C 397.98 332.39 389.56 332.74 381.69 330.43 C 379.60 329.30 377.04 328.38 375.82 326.22 C 374.09 320.54 375.57 314.50 378.32 309.40 C 381.91 301.14 386.50 293.03 393.45 287.14 Z" />
</g>
<g id="#ffffffff">
<path fill="#ffffff" opacity="1.00" d=" M 347.55 148.60 C 351.64 147.60 355.85 148.08 360.00 148.29 C 368.26 148.34 376.52 147.76 384.79 147.98 C 382.56 150.76 379.88 153.20 378.00 156.24 C 376.85 158.25 377.61 160.55 378.11 162.63 C 383.77 164.89 389.54 166.80 395.41 168.46 C 390.85 171.37 383.75 174.47 384.65 181.01 C 384.65 184.00 386.54 186.49 387.78 189.08 C 389.80 192.88 391.69 197.31 395.73 199.38 C 398.78 201.32 403.01 198.36 402.97 194.92 C 402.78 189.86 399.51 185.62 396.14 182.11 C 401.83 178.22 407.94 174.13 410.85 167.62 C 412.02 164.02 408.58 161.43 405.73 160.13 C 400.97 157.46 395.53 156.72 390.27 155.67 C 393.18 153.44 395.31 150.35 398.18 148.12 C 404.15 148.18 410.14 148.02 416.10 148.58 C 425.74 148.01 435.41 148.54 445.05 147.98 C 459.96 149.39 475.53 151.39 488.47 159.59 C 499.11 166.59 509.49 174.35 517.84 184.02 C 526.05 200.29 534.11 216.92 538.07 234.80 C 539.19 241.48 541.24 248.06 541.09 254.89 C 541.82 261.57 542.79 268.42 541.14 275.06 C 540.32 285.44 538.70 295.83 535.65 305.81 C 532.86 316.02 527.64 325.31 523.51 334.99 C 514.85 334.64 506.16 336.17 497.94 338.85 C 485.02 343.28 472.37 349.05 461.60 357.56 C 448.14 366.97 436.53 380.11 432.07 396.21 C 430.58 400.91 430.97 405.88 431.10 410.72 C 427.42 410.89 423.71 410.69 420.07 411.39 C 420.40 407.67 421.03 403.92 420.36 400.20 C 418.80 400.16 417.25 400.15 415.71 400.18 C 414.75 403.97 415.03 407.89 415.26 411.76 C 410.96 411.99 406.66 412.28 402.38 412.76 C 402.87 407.24 403.74 401.73 403.84 396.20 C 404.34 393.34 400.79 392.92 398.87 393.84 C 397.26 396.27 397.89 399.25 397.84 401.98 C 397.99 405.56 397.40 409.17 398.17 412.71 C 393.44 412.62 388.73 412.12 384.02 411.76 C 382.83 406.82 385.45 402.05 384.36 397.17 C 382.71 397.22 381.07 397.29 379.44 397.39 C 378.88 402.13 379.21 406.92 379.13 411.69 C 375.12 410.70 370.99 410.84 366.89 410.73 C 367.92 401.70 365.75 392.61 361.30 384.74 C 353.45 369.47 339.33 358.72 325.04 349.87 C 309.54 341.51 292.45 334.31 274.49 334.99 C 272.88 330.60 270.27 326.67 268.76 322.24 C 261.43 307.60 258.15 291.26 256.86 275.06 C 255.33 268.72 256.00 262.15 256.86 255.77 C 256.80 250.72 257.65 245.74 258.76 240.83 C 262.08 220.69 271.02 202.08 280.18 184.03 C 285.21 178.16 291.10 173.00 297.19 168.21 C 305.13 162.62 312.91 156.33 322.41 153.58 C 330.49 150.69 339.04 149.42 347.55 148.60 M 321.57 213.68 C 316.58 214.88 311.63 216.53 307.20 219.14 C 294.96 227.62 286.07 241.09 283.83 255.88 C 282.44 263.18 281.76 270.60 281.65 278.04 C 282.37 287.74 285.46 297.19 290.41 305.55 C 296.24 314.81 305.89 322.17 317.02 323.23 C 329.55 324.26 342.42 320.15 352.16 312.21 C 355.67 309.32 358.24 305.53 361.09 302.03 C 369.17 290.56 371.77 275.87 370.11 262.10 C 368.67 252.56 363.86 244.04 359.51 235.58 C 356.05 228.72 350.66 222.96 344.50 218.46 C 337.60 214.69 329.45 212.17 321.57 213.68 M 467.45 213.52 C 465.32 213.89 463.24 214.51 461.16 215.10 C 451.90 217.68 444.93 225.14 439.91 233.01 C 435.03 242.28 429.54 251.59 427.89 262.10 C 426.31 274.96 428.55 288.46 435.28 299.63 C 439.84 306.31 445.10 312.82 452.35 316.72 C 463.18 322.70 476.51 325.55 488.50 321.54 C 499.84 317.35 508.20 307.30 512.16 296.09 C 517.82 283.40 516.65 269.16 514.17 255.87 C 511.88 240.87 502.78 227.15 490.19 218.77 C 483.24 215.24 475.38 212.24 467.45 213.52 M 393.45 287.14 C 386.50 293.03 381.91 301.14 378.32 309.40 C 375.57 314.50 374.09 320.54 375.82 326.22 C 377.04 328.38 379.60 329.30 381.69 330.43 C 389.56 332.74 397.98 332.39 405.99 331.17 C 409.48 330.94 414.03 331.55 416.21 328.16 C 417.83 326.30 417.82 323.64 417.68 321.32 C 414.96 309.65 408.85 298.94 401.05 289.93 C 399.06 288.30 396.06 285.52 393.45 287.14 Z" />
<path fill="#ffffff" opacity="1.00" d=" M 340.33 255.38 C 344.53 253.73 349.40 255.36 352.20 258.77 C 357.00 264.05 357.20 271.77 356.29 278.47 C 355.84 283.19 353.95 288.10 349.83 290.78 C 344.38 294.11 336.45 292.55 332.87 287.18 C 328.98 281.12 327.57 273.36 329.58 266.39 C 330.68 261.03 335.30 257.04 340.33 255.38 Z" />
<path fill="#ffffff" opacity="1.00" d=" M 450.34 255.43 C 458.20 252.85 467.29 259.26 468.63 267.21 C 470.34 273.97 468.85 281.36 465.13 287.18 C 461.07 293.34 451.07 294.50 446.03 288.96 C 441.72 284.50 441.45 277.85 441.28 272.01 C 441.21 265.47 444.01 258.20 450.34 255.43 Z" />
</g>
</svg>
