<?xml version="1.0" encoding="UTF-8" ?>
<!DOCTYPE svg PUBLIC "-//W3C//DTD SVG 1.1//EN" "http://www.w3.org/Graphics/SVG/1.1/DTD/svg11.dtd">
<svg width="800pt" height="800pt" viewBox="0 0 800 800" version="1.1" xmlns="http://www.w3.org/2000/svg">
<g id="#000000ff">
<path fill="#000000" opacity="1.00" d=" M 262.70 44.72 C 265.53 40.88 267.65 36.62 269.82 32.39 C 270.67 32.44 272.36 32.55 273.20 32.60 C 275.34 38.17 276.78 43.97 278.27 49.73 C 279.51 54.51 282.98 58.23 286.26 61.75 C 293.66 69.60 302.96 75.24 311.90 81.13 C 327.68 93.11 342.23 109.68 343.86 130.30 C 354.93 126.66 366.44 124.72 377.95 123.24 C 385.29 123.08 392.56 121.78 399.90 121.98 C 412.46 122.55 425.16 122.36 437.45 125.37 C 443.51 126.34 449.46 127.85 455.12 130.25 C 455.89 121.50 459.07 113.12 463.57 105.62 C 469.88 96.11 478.10 87.98 487.16 81.09 C 496.09 75.22 505.37 69.58 512.76 61.74 C 516.03 58.22 519.49 54.51 520.73 49.73 C 522.23 43.97 523.65 38.17 525.80 32.61 C 526.65 32.55 528.34 32.44 529.18 32.39 C 532.22 39.29 537.16 45.11 540.06 52.08 C 545.60 63.32 548.61 75.54 552.42 87.43 C 558.66 110.16 563.56 133.41 564.87 156.98 C 564.84 168.34 565.41 179.67 565.43 191.03 C 564.15 210.41 562.94 229.89 559.11 248.97 C 556.13 260.35 553.60 271.95 548.71 282.71 C 545.53 289.16 543.12 296.04 538.77 301.85 C 535.61 306.66 530.95 310.16 527.33 314.58 C 522.34 320.51 516.53 325.67 511.45 331.50 C 499.56 343.67 486.61 354.85 472.46 364.32 C 464.61 370.27 455.38 373.91 446.98 378.98 C 429.62 389.13 408.92 392.67 389.03 390.62 C 375.07 389.52 361.49 384.79 349.54 377.54 C 342.11 373.28 334.11 369.96 327.22 364.79 C 310.66 353.71 295.59 340.46 282.19 325.73 C 276.01 319.90 270.82 313.14 264.68 307.28 C 259.24 301.62 255.48 294.61 252.51 287.41 C 248.44 279.31 245.41 270.71 243.27 261.91 C 239.94 250.48 237.52 238.76 236.59 226.89 C 234.76 210.67 233.17 194.37 233.71 178.04 C 234.50 167.71 233.38 157.28 234.97 147.01 C 235.71 136.82 237.42 126.73 239.66 116.77 C 242.29 101.64 246.54 86.85 251.31 72.27 C 254.00 62.68 257.88 53.43 262.70 44.72 M 263.82 62.96 C 255.14 93.60 248.40 125.02 247.61 156.96 C 245.87 169.32 248.29 181.63 248.73 193.98 C 249.52 201.95 250.42 209.91 251.22 217.87 C 252.99 231.08 255.92 244.09 259.44 256.94 C 261.83 264.02 264.52 271.00 267.00 278.06 C 269.48 285.17 273.35 291.67 276.35 298.55 C 280.01 304.24 283.87 309.82 287.74 315.37 C 300.22 331.25 316.25 343.88 332.85 355.18 C 342.00 359.57 350.61 365.11 360.09 368.85 C 371.65 373.55 383.47 378.75 396.10 379.39 C 400.73 379.18 405.41 379.46 410.02 378.74 C 427.65 374.41 444.49 367.17 460.20 358.13 C 469.98 353.87 477.86 346.45 486.42 340.27 C 494.54 333.46 502.33 326.20 509.14 318.06 C 513.26 313.09 516.48 307.47 520.27 302.25 C 523.43 298.04 525.01 292.94 527.51 288.35 C 531.88 279.85 534.54 270.62 537.87 261.69 C 547.03 234.72 549.50 206.13 551.37 177.88 C 552.74 169.98 551.66 161.99 551.25 154.07 C 550.25 123.10 543.59 92.66 535.15 62.95 C 533.84 74.99 528.52 86.08 522.66 96.51 C 516.74 108.16 510.90 120.04 508.08 132.89 C 507.46 137.22 506.79 141.55 506.35 145.90 C 506.32 150.85 507.36 156.02 505.22 160.69 C 503.16 159.98 500.99 159.16 499.77 157.22 C 494.40 149.32 491.64 139.57 492.39 130.02 C 492.69 118.95 496.94 108.48 501.76 98.68 C 504.24 93.72 507.51 89.21 509.89 84.20 C 505.33 88.89 499.87 92.56 494.93 96.81 C 488.45 103.08 482.19 109.66 477.17 117.19 C 472.44 122.89 469.95 130.04 465.19 135.72 C 468.65 138.14 472.32 140.94 473.75 145.07 C 473.15 145.36 471.97 145.94 471.37 146.23 C 464.58 147.53 457.74 146.10 450.94 145.77 C 438.27 144.21 425.70 141.65 412.95 141.01 C 407.74 139.62 402.34 140.04 397.02 139.98 C 388.30 139.75 379.61 140.34 370.93 141.04 C 360.88 141.08 351.06 143.70 341.05 144.41 C 337.31 145.05 333.49 145.39 329.76 144.47 C 329.44 144.09 328.79 143.33 328.46 142.95 C 329.34 139.97 331.70 137.92 333.87 135.88 C 329.13 130.11 326.57 122.94 321.82 117.18 C 316.80 109.66 310.55 103.08 304.07 96.82 C 299.16 92.64 293.83 88.91 289.26 84.37 C 289.31 84.64 289.41 85.19 289.46 85.46 C 298.37 99.40 306.42 114.94 306.72 131.85 C 306.97 140.80 304.28 149.82 299.23 157.22 C 298.01 159.16 295.84 159.98 293.78 160.69 C 291.63 156.02 292.67 150.85 292.65 145.91 C 292.09 140.95 291.45 135.99 290.57 131.08 C 288.21 122.75 285.38 114.51 281.39 106.81 C 274.79 92.53 265.38 79.04 263.82 62.96 Z" />
<path fill="#000000" opacity="1.00" d=" M 525.96 203.56 C 528.41 202.50 531.13 202.63 533.73 202.45 C 533.97 207.52 530.69 211.46 528.09 215.40 C 529.18 215.90 530.30 216.37 531.43 216.82 C 531.48 217.70 531.60 219.48 531.66 220.36 C 518.20 224.41 505.47 230.69 494.17 239.05 C 495.78 250.22 494.68 262.20 489.21 272.23 C 486.82 276.25 483.78 280.40 479.14 281.91 C 477.45 282.13 475.38 282.23 474.34 280.61 C 472.41 277.62 474.37 274.29 474.68 271.16 C 474.94 266.02 475.17 260.87 475.59 255.73 C 470.56 261.69 465.11 267.29 460.47 273.56 C 456.60 278.85 452.47 283.97 447.90 288.68 C 447.06 288.66 445.36 288.64 444.51 288.62 C 443.63 280.61 445.66 272.50 449.22 265.35 C 454.84 252.58 463.67 241.21 474.54 232.47 C 482.70 224.99 492.51 219.36 502.89 215.58 C 505.92 214.27 509.61 214.54 512.09 212.08 C 516.18 208.46 521.03 205.84 525.96 203.56 Z" />
<path fill="#000000" opacity="1.00" d=" M 266.51 203.63 C 273.05 203.26 278.07 208.22 282.37 212.47 C 285.77 213.57 289.46 213.62 292.92 214.58 C 299.87 216.56 306.47 219.69 312.52 223.64 C 318.32 226.48 322.78 231.25 327.76 235.24 C 334.46 240.88 339.61 248.02 344.58 255.16 C 350.24 265.36 355.98 276.57 354.48 288.63 C 353.63 288.64 351.94 288.66 351.09 288.67 C 344.77 282.33 339.72 274.92 334.14 267.96 C 330.45 263.98 327.03 259.77 323.42 255.74 C 324.22 262.51 323.54 269.48 325.36 276.11 C 325.98 278.43 324.91 282.02 322.04 281.99 C 317.01 282.25 313.46 277.77 310.89 274.02 C 304.41 263.74 303.15 250.89 304.83 239.07 C 293.55 230.68 280.80 224.41 267.35 220.36 C 267.40 219.46 267.51 217.65 267.57 216.75 C 268.71 216.32 269.84 215.88 270.98 215.45 C 268.51 212.03 265.30 208.14 266.51 203.63 Z" />
<path fill="#000000" opacity="1.00" d=" M 389.13 323.51 C 396.88 320.87 406.64 320.02 413.51 325.26 C 413.48 325.74 413.41 326.70 413.38 327.18 C 410.83 331.21 407.73 334.84 404.24 338.08 C 404.25 341.85 406.02 345.51 404.79 349.27 C 408.94 350.04 413.85 352.36 414.47 357.04 C 414.52 358.82 412.53 359.62 411.05 359.63 C 407.30 360.23 404.39 357.44 401.22 356.00 C 397.03 358.89 391.72 359.33 386.78 359.32 C 384.58 357.35 386.53 354.66 388.03 352.98 C 390.53 350.71 394.12 350.31 397.36 350.30 C 396.37 346.24 396.59 342.08 397.55 338.04 C 393.55 335.42 390.08 332.15 387.52 328.11 C 387.55 326.42 386.82 323.93 389.13 323.51 Z" />
</g>
<g id="#ffffffff">
<path fill="#ffffff" opacity="1.00" d=" M 263.82 62.96 C 265.38 79.04 274.79 92.53 281.39 106.81 C 285.38 114.51 288.21 122.75 290.57 131.08 C 291.45 135.99 292.09 140.95 292.65 145.91 C 292.67 150.85 291.63 156.02 293.78 160.69 C 295.84 159.98 298.01 159.16 299.23 157.22 C 304.28 149.82 306.97 140.80 306.72 131.85 C 306.42 114.94 298.37 99.40 289.46 85.46 C 289.41 85.19 289.31 84.64 289.26 84.37 C 293.83 88.91 299.16 92.64 304.07 96.82 C 310.55 103.08 316.80 109.66 321.82 117.18 C 326.57 122.94 329.13 130.11 333.87 135.88 C 331.70 137.92 329.34 139.97 328.46 142.95 C 328.79 143.33 329.44 144.09 329.76 144.47 C 333.49 145.39 337.31 145.05 341.05 144.41 C 351.06 143.70 360.88 141.08 370.93 141.04 C 379.61 140.34 388.30 139.75 397.02 139.98 C 402.34 140.04 407.74 139.62 412.95 141.01 C 425.70 141.65 438.27 144.21 450.94 145.77 C 457.74 146.10 464.58 147.53 471.37 146.23 C 471.97 145.94 473.15 145.36 473.75 145.07 C 472.32 140.94 468.65 138.14 465.19 135.72 C 469.95 130.04 472.44 122.89 477.17 117.19 C 482.19 109.66 488.45 103.08 494.93 96.81 C 499.87 92.56 505.33 88.89 509.89 84.20 C 507.51 89.21 504.24 93.72 501.76 98.68 C 496.94 108.48 492.69 118.95 492.39 130.02 C 491.64 139.57 494.40 149.32 499.77 157.22 C 500.99 159.16 503.16 159.98 505.22 160.69 C 507.36 156.02 506.32 150.85 506.35 145.90 C 506.79 141.55 507.46 137.22 508.08 132.89 C 510.90 120.04 516.74 108.16 522.66 96.51 C 528.52 86.08 533.84 74.99 535.15 62.95 C 543.59 92.66 550.25 123.10 551.25 154.07 C 551.66 161.99 552.74 169.98 551.37 177.88 C 549.50 206.13 547.03 234.72 537.87 261.69 C 534.54 270.62 531.88 279.85 527.51 288.35 C 525.01 292.94 523.43 298.04 520.27 302.25 C 516.48 307.47 513.26 313.09 509.14 318.06 C 502.33 326.20 494.54 333.46 486.42 340.27 C 477.86 346.45 469.98 353.87 460.20 358.13 C 444.49 367.17 427.65 374.41 410.02 378.74 C 405.41 379.46 400.73 379.18 396.10 379.39 C 383.47 378.75 371.65 373.55 360.09 368.85 C 350.61 365.11 342.00 359.57 332.85 355.18 C 316.25 343.88 300.22 331.25 287.74 315.37 C 283.87 309.82 280.01 304.24 276.35 298.55 C 273.35 291.67 269.48 285.17 267.00 278.06 C 264.52 271.00 261.83 264.02 259.44 256.94 C 255.92 244.09 252.99 231.08 251.22 217.87 C 250.42 209.91 249.52 201.95 248.73 193.98 C 248.29 181.63 245.87 169.32 247.61 156.96 C 248.40 125.02 255.14 93.60 263.82 62.96 M 525.96 203.56 C 521.03 205.84 516.18 208.46 512.09 212.08 C 509.61 214.54 505.92 214.27 502.89 215.58 C 492.51 219.36 482.70 224.99 474.54 232.47 C 463.67 241.21 454.84 252.58 449.22 265.35 C 445.66 272.50 443.63 280.61 444.51 288.62 C 445.36 288.64 447.06 288.66 447.90 288.68 C 452.47 283.97 456.60 278.85 460.47 273.56 C 465.11 267.29 470.56 261.69 475.59 255.73 C 475.17 260.87 474.94 266.02 474.68 271.16 C 474.37 274.29 472.41 277.62 474.34 280.61 C 475.38 282.23 477.45 282.13 479.14 281.91 C 483.78 280.40 486.82 276.25 489.21 272.23 C 494.68 262.20 495.78 250.22 494.17 239.05 C 505.47 230.69 518.20 224.41 531.66 220.36 C 531.60 219.48 531.48 217.70 531.43 216.82 C 530.30 216.37 529.18 215.90 528.09 215.40 C 530.69 211.46 533.97 207.52 533.73 202.45 C 531.13 202.63 528.41 202.50 525.96 203.56 M 266.51 203.63 C 265.30 208.14 268.51 212.03 270.98 215.45 C 269.84 215.88 268.71 216.32 267.57 216.75 C 267.51 217.65 267.40 219.46 267.35 220.36 C 280.80 224.41 293.55 230.68 304.83 239.07 C 303.15 250.89 304.41 263.74 310.89 274.02 C 313.46 277.77 317.01 282.25 322.04 281.99 C 324.91 282.02 325.98 278.43 325.36 276.11 C 323.54 269.48 324.22 262.51 323.42 255.74 C 327.03 259.77 330.45 263.98 334.14 267.96 C 339.72 274.92 344.77 282.33 351.09 288.67 C 351.94 288.66 353.63 288.64 354.48 288.63 C 355.98 276.57 350.24 265.36 344.58 255.16 C 339.61 248.02 334.46 240.88 327.76 235.24 C 322.78 231.25 318.32 226.48 312.52 223.64 C 306.47 219.69 299.87 216.56 292.92 214.58 C 289.46 213.62 285.77 213.57 282.37 212.47 C 278.07 208.22 273.05 203.26 266.51 203.63 M 389.13 323.51 C 386.82 323.93 387.55 326.42 387.52 328.11 C 390.08 332.15 393.55 335.42 397.55 338.04 C 396.59 342.08 396.37 346.24 397.36 350.30 C 394.12 350.31 390.53 350.71 388.03 352.98 C 386.53 354.66 384.58 357.35 386.78 359.32 C 391.72 359.33 397.03 358.89 401.22 356.00 C 404.39 357.44 407.30 360.23 411.05 359.63 C 412.53 359.62 414.52 358.82 414.47 357.04 C 413.85 352.36 408.94 350.04 404.79 349.27 C 406.02 345.51 404.25 341.85 404.24 338.08 C 407.73 334.84 410.83 331.21 413.38 327.18 C 413.41 326.70 413.48 325.74 413.51 325.26 C 406.64 320.02 396.88 320.87 389.13 323.51 Z" />
</g>
</svg>
