<?xml version="1.0" encoding="UTF-8" ?>
<!DOCTYPE svg PUBLIC "-//W3C//DTD SVG 1.1//EN" "http://www.w3.org/Graphics/SVG/1.1/DTD/svg11.dtd">
<svg width="800pt" height="800pt" viewBox="0 0 800 800" version="1.1" xmlns="http://www.w3.org/2000/svg">
<g id="#000000ff">
<path fill="#000000" opacity="1.00" d=" M 337.98 36.95 C 351.69 36.31 365.24 33.44 379.00 33.64 C 388.37 33.75 397.79 33.21 407.08 34.67 C 422.30 36.93 437.97 36.34 452.81 40.85 C 471.23 44.56 488.57 52.01 506.58 57.16 C 521.30 61.02 535.63 67.00 547.94 76.05 C 559.65 84.88 571.76 93.42 581.59 104.41 C 593.08 116.73 604.06 129.61 613.17 143.82 C 621.95 156.55 628.37 170.78 632.56 185.65 C 636.18 200.40 642.32 214.35 646.90 228.81 C 648.26 233.27 649.22 237.85 650.75 242.26 C 651.99 246.74 656.88 248.22 660.16 250.87 C 668.06 256.92 676.15 262.76 683.46 269.54 C 695.42 280.25 706.16 292.24 716.43 304.57 C 722.18 311.51 728.16 318.31 733.20 325.80 C 738.05 333.11 743.59 340.17 746.36 348.61 C 749.14 355.73 748.94 363.52 748.56 371.02 C 748.38 376.07 745.01 380.20 741.61 383.63 C 735.49 389.64 727.32 393.83 718.68 394.35 C 711.00 394.87 703.23 394.51 695.66 393.07 C 689.22 391.84 683.19 388.96 676.68 388.09 C 676.14 392.56 676.75 397.04 677.21 401.49 C 678.11 411.85 677.47 422.39 679.57 432.63 C 683.43 431.91 687.07 430.27 691.00 429.81 C 695.97 429.24 701.04 429.26 706.00 430.04 C 710.51 430.76 714.42 433.30 718.07 435.91 C 725.76 441.44 732.70 448.24 737.47 456.48 C 745.08 470.42 748.63 486.25 749.54 502.02 C 749.67 514.40 750.00 527.13 745.95 539.01 C 743.19 547.22 739.90 555.30 735.79 562.92 C 729.42 573.14 721.26 582.70 710.58 588.55 C 702.70 592.91 693.11 593.95 684.47 591.44 C 680.39 590.32 676.37 588.52 672.06 588.69 C 671.48 598.21 669.52 607.56 668.42 617.03 C 667.33 629.25 664.45 641.21 663.08 653.40 C 660.48 666.55 660.24 680.61 653.48 692.56 C 649.49 699.37 642.71 703.74 637.39 709.38 C 631.58 716.56 631.69 726.41 627.63 734.45 C 623.22 745.75 615.01 755.20 605.32 762.34 C 599.22 767.22 592.26 771.25 584.52 772.83 C 578.66 774.22 572.50 773.07 566.97 770.91 C 561.80 768.87 558.21 764.41 554.56 760.43 C 547.40 752.11 540.15 743.75 534.71 734.17 C 529.24 724.62 522.04 716.27 515.68 707.34 C 513.86 704.34 510.15 704.04 507.01 703.77 C 495.00 702.99 483.01 704.61 471.00 704.38 C 460.96 704.69 450.97 703.45 440.94 703.51 C 426.26 702.94 411.71 700.30 397.00 700.26 C 388.33 699.67 379.65 700.32 370.98 700.53 C 358.95 701.33 347.06 703.82 334.98 703.61 C 326.67 704.41 318.34 704.79 309.99 704.54 C 300.30 704.35 290.58 704.86 280.92 703.92 C 275.70 703.51 270.40 703.46 265.25 704.51 C 263.00 704.81 262.01 707.15 260.72 708.74 C 256.79 714.74 251.95 720.08 248.06 726.12 C 242.53 734.51 237.51 743.28 230.99 750.97 C 226.25 756.52 221.95 762.53 216.42 767.34 C 205.62 775.73 189.79 774.76 178.87 767.12 C 166.75 758.74 154.69 748.42 149.81 734.03 C 146.70 726.82 145.58 718.89 142.07 711.87 C 137.46 704.65 129.04 700.84 124.70 693.37 C 119.01 683.40 117.77 671.74 116.08 660.59 C 114.56 652.03 113.32 643.41 111.32 634.94 C 108.36 617.63 106.60 600.15 104.70 582.69 C 103.45 561.04 101.90 539.40 99.66 517.83 C 99.60 508.19 98.11 498.64 98.22 489.00 C 97.56 464.33 97.29 439.58 99.42 414.97 C 99.25 406.16 101.76 397.50 101.18 388.68 C 93.28 389.46 86.08 393.44 78.12 393.96 C 67.17 394.95 55.15 395.70 45.43 389.58 C 38.41 385.18 31.46 378.60 30.97 369.79 C 30.49 360.30 31.79 350.44 36.09 341.86 C 43.94 328.24 53.50 315.70 63.79 303.84 C 73.24 292.35 83.53 281.56 94.20 271.20 C 102.68 262.85 112.50 256.08 122.07 249.07 C 127.28 245.47 127.19 238.48 129.40 233.12 C 132.97 224.11 134.81 214.52 138.72 205.64 C 142.17 197.56 143.79 188.89 146.47 180.56 C 149.69 170.10 154.73 160.33 159.81 150.68 C 180.75 117.62 208.11 87.93 242.21 68.23 C 253.02 62.59 264.69 58.91 276.15 54.85 C 288.09 48.95 300.61 44.00 313.71 41.33 C 321.64 39.09 329.73 37.40 337.98 36.95 M 318.17 67.71 C 312.35 69.03 306.26 67.56 300.48 69.15 C 283.62 73.19 269.14 83.14 254.04 91.20 C 245.60 96.94 236.48 101.89 229.40 109.38 C 218.47 118.48 209.01 129.14 200.23 140.29 C 194.96 146.43 190.02 152.87 185.79 159.78 C 179.12 170.35 172.60 181.11 167.94 192.73 C 164.63 200.52 160.49 207.92 156.66 215.46 C 152.06 224.15 152.85 234.35 150.63 243.67 C 145.95 255.05 137.42 264.26 129.10 273.12 C 123.00 279.69 117.35 286.67 111.02 293.02 C 103.54 300.54 96.64 308.62 89.82 316.73 C 82.36 326.57 73.84 335.59 67.11 345.97 C 64.52 349.98 62.94 354.65 62.69 359.43 C 87.14 360.62 110.03 349.70 134.13 347.62 C 136.67 347.34 139.26 348.02 141.26 349.64 C 142.92 350.97 145.39 352.51 144.56 355.01 C 143.41 363.34 134.21 366.42 129.88 372.72 C 128.31 391.45 125.68 410.15 125.47 429.00 C 125.34 437.67 124.32 446.30 124.57 454.98 C 124.86 461.02 123.23 466.96 123.65 472.99 C 125.21 484.60 124.33 496.33 124.58 508.00 C 124.84 519.35 123.96 530.76 125.52 542.05 C 125.95 551.67 125.72 561.36 126.88 570.94 C 128.35 577.99 126.96 585.29 128.53 592.33 C 129.97 598.31 129.00 604.50 129.93 610.54 C 130.42 613.68 130.59 616.85 130.81 620.03 C 131.31 627.68 134.03 634.91 136.12 642.23 C 138.23 649.51 140.07 657.14 144.73 663.31 C 150.46 671.12 157.46 677.91 164.60 684.41 C 171.24 690.38 181.53 692.48 185.65 701.00 C 184.67 703.61 182.42 705.80 179.65 706.37 C 176.04 706.79 172.40 706.39 168.78 706.78 C 171.07 718.35 176.89 729.39 185.45 737.55 C 189.32 740.59 193.73 744.29 198.86 744.28 C 206.75 739.22 211.91 731.01 217.78 723.87 C 222.56 717.04 228.59 710.85 231.57 702.93 C 226.42 700.35 219.82 699.29 216.63 693.95 C 217.02 691.92 218.36 690.21 220.19 689.29 C 230.60 683.84 242.04 680.28 253.80 679.56 C 261.97 677.78 270.37 678.80 278.62 677.65 C 303.37 676.46 328.25 675.85 352.96 678.27 C 374.63 678.50 396.31 678.38 417.99 678.36 C 426.70 678.50 435.29 676.63 444.00 676.66 C 456.33 676.67 468.67 676.67 481.00 676.69 C 492.40 676.53 503.68 678.54 515.07 678.53 C 524.34 679.82 533.91 679.90 542.77 683.27 C 548.19 685.33 553.76 687.24 558.66 690.40 C 560.47 691.32 561.21 693.95 559.66 695.47 C 556.40 699.66 550.93 700.67 546.30 702.62 C 545.55 705.92 547.95 708.71 549.85 711.11 C 557.75 720.29 564.06 730.77 572.52 739.49 C 574.45 741.39 576.44 743.40 579.03 744.39 C 581.04 744.54 582.89 743.57 584.65 742.71 C 589.67 739.99 594.29 736.34 597.61 731.64 C 603.07 724.25 607.24 715.53 608.52 706.42 C 605.47 703.66 601.66 701.85 598.80 698.87 C 600.81 695.31 604.23 692.90 607.06 690.05 C 617.32 680.45 625.17 668.71 633.39 657.41 C 644.02 638.85 647.68 617.22 648.60 596.11 C 650.32 587.59 649.24 578.86 650.67 570.31 C 652.41 559.88 650.57 549.24 652.21 538.81 C 653.15 532.24 652.53 525.59 653.04 518.99 C 653.58 512.32 652.50 505.66 652.85 498.99 C 654.14 475.66 652.96 452.30 652.24 428.97 C 650.96 420.30 651.98 411.49 650.57 402.84 C 649.61 396.73 649.90 390.51 648.73 384.44 C 648.06 380.01 648.50 375.41 647.21 371.08 C 644.19 365.30 636.92 362.64 635.01 356.12 C 632.82 351.27 639.23 348.56 642.93 347.61 C 651.87 347.50 660.59 350.09 669.27 352.01 C 685.01 355.23 700.63 360.35 716.89 359.65 C 716.94 350.87 711.20 343.62 705.92 337.16 C 695.78 323.73 684.99 310.77 673.53 298.44 C 666.58 291.70 660.58 284.09 653.93 277.07 C 643.45 265.73 632.52 254.17 626.65 239.63 C 624.42 231.84 624.48 223.49 621.34 215.94 C 616.92 205.12 611.83 194.57 606.64 184.10 C 596.80 165.73 584.88 148.49 571.13 132.83 C 563.49 122.56 553.57 114.41 544.13 105.90 C 539.38 101.07 533.26 98.04 527.81 94.13 C 520.88 89.11 512.83 85.97 505.74 81.19 C 500.78 77.79 495.06 75.84 489.71 73.18 C 486.91 71.84 484.14 70.23 480.99 69.92 C 474.59 69.25 468.25 68.09 461.93 66.90 C 454.81 65.61 447.51 67.07 440.41 65.70 C 434.97 64.79 429.56 63.42 424.01 63.60 C 397.32 63.50 370.63 63.68 343.95 63.62 C 335.28 64.38 326.76 66.33 318.17 67.71 M 688.43 458.30 C 685.38 459.71 679.48 459.51 679.58 463.93 C 679.39 478.91 679.96 493.92 679.34 508.89 C 677.53 518.55 678.38 528.47 676.82 538.16 C 676.24 543.43 676.39 548.75 676.32 554.04 C 676.46 555.83 675.96 558.06 677.69 559.26 C 681.19 562.51 686.26 565.49 691.12 563.54 C 699.80 561.41 705.61 553.94 709.55 546.39 C 715.41 535.59 719.47 523.41 718.85 510.99 C 719.46 497.48 716.48 484.00 711.24 471.60 C 708.76 466.14 705.28 460.41 699.36 458.26 C 695.86 456.77 691.97 457.29 688.43 458.30 Z" />
<path fill="#000000" opacity="1.00" d=" M 373.36 215.08 C 380.54 214.21 387.83 214.48 395.04 214.73 C 406.71 216.48 418.71 217.00 429.89 221.12 C 446.12 226.17 461.71 233.13 476.37 241.71 C 507.67 262.10 532.00 292.08 548.32 325.48 C 559.83 350.46 567.99 377.29 569.85 404.83 C 571.82 418.04 571.93 431.53 570.11 444.77 C 569.52 448.49 569.60 452.26 569.30 456.01 C 566.95 473.95 563.71 491.85 557.84 509.01 C 547.51 540.63 530.03 569.94 506.82 593.79 C 496.66 603.39 485.95 612.55 473.91 619.73 C 465.35 624.40 456.46 628.63 447.01 631.17 C 437.04 633.79 427.54 638.75 417.04 638.84 C 404.15 639.28 391.33 643.96 378.42 641.31 C 366.94 638.58 355.12 637.23 343.94 633.29 C 309.47 622.42 279.95 599.55 256.45 572.54 C 244.49 559.10 234.24 544.18 225.59 528.42 C 217.97 515.41 212.42 501.33 206.92 487.34 C 199.48 468.05 195.48 447.58 193.83 427.02 C 193.82 415.66 193.59 404.29 193.93 392.94 C 196.34 372.43 201.15 351.99 210.09 333.29 C 217.73 315.94 229.54 300.92 241.27 286.20 C 249.83 276.43 259.18 267.30 269.65 259.59 C 294.38 238.75 324.24 223.18 356.41 218.19 C 362.05 217.10 367.66 215.85 373.36 215.08 M 366.38 235.45 C 354.27 237.16 342.22 239.71 330.73 243.94 C 321.12 248.00 311.36 251.91 302.51 257.51 C 291.05 264.75 279.63 272.36 270.38 282.37 C 265.16 288.16 259.43 293.48 254.47 299.50 C 247.03 308.54 240.24 318.14 234.48 328.35 C 226.56 342.53 220.90 357.87 216.82 373.57 C 215.77 378.04 215.44 382.63 214.70 387.15 C 214.21 398.58 210.84 410.02 213.40 421.45 C 214.94 427.63 213.77 434.09 215.24 440.28 C 217.44 456.77 222.28 472.76 227.85 488.39 C 233.22 501.97 240.47 514.68 247.56 527.41 C 255.50 541.04 265.14 553.59 275.53 565.43 C 284.21 574.81 293.88 583.26 304.09 590.93 C 316.57 599.52 329.45 607.85 343.69 613.24 C 352.59 616.44 361.34 620.06 370.43 622.72 C 375.12 624.02 380.02 625.10 384.90 624.25 C 406.18 621.00 427.50 617.77 448.46 612.81 C 452.19 611.79 455.79 610.28 459.09 608.26 C 466.87 603.51 474.37 598.25 481.00 591.98 C 500.59 575.13 516.57 554.11 527.62 530.75 C 534.39 515.61 541.00 500.21 544.26 483.87 C 548.47 467.91 550.80 451.51 551.76 435.05 C 552.82 426.60 551.47 418.13 551.13 409.67 C 549.59 390.48 545.36 371.52 539.01 353.35 C 527.00 319.52 506.85 287.89 478.21 265.80 C 464.57 255.83 450.00 246.41 433.46 242.14 C 420.96 238.23 407.86 237.20 395.01 235.08 C 385.49 234.57 375.87 234.43 366.38 235.45 Z" />
</g>
<g id="#ffffffff">
<path fill="#ffffff" opacity="1.00" d=" M 318.17 67.71 C 326.76 66.33 335.28 64.38 343.95 63.62 C 370.63 63.68 397.32 63.50 424.01 63.60 C 429.56 63.42 434.97 64.79 440.41 65.70 C 447.51 67.07 454.81 65.61 461.93 66.90 C 468.25 68.09 474.59 69.25 480.99 69.92 C 484.14 70.23 486.91 71.84 489.71 73.18 C 495.06 75.84 500.78 77.79 505.74 81.19 C 512.83 85.97 520.88 89.11 527.81 94.13 C 533.26 98.04 539.38 101.07 544.13 105.90 C 553.57 114.41 563.49 122.56 571.13 132.83 C 584.88 148.49 596.80 165.73 606.64 184.10 C 611.83 194.57 616.92 205.12 621.34 215.94 C 624.48 223.49 624.42 231.84 626.65 239.63 C 632.52 254.17 643.45 265.73 653.93 277.07 C 660.58 284.09 666.58 291.70 673.53 298.44 C 684.99 310.77 695.78 323.73 705.92 337.16 C 711.20 343.62 716.94 350.87 716.89 359.65 C 700.63 360.35 685.01 355.23 669.27 352.01 C 660.59 350.09 651.87 347.50 642.93 347.61 C 639.23 348.56 632.82 351.27 635.01 356.12 C 636.92 362.64 644.19 365.30 647.21 371.08 C 648.50 375.41 648.06 380.01 648.73 384.44 C 649.90 390.51 649.61 396.73 650.57 402.84 C 651.98 411.49 650.96 420.30 652.24 428.97 C 652.96 452.30 654.14 475.66 652.85 498.99 C 652.50 505.66 653.58 512.32 653.04 518.99 C 652.53 525.59 653.15 532.24 652.21 538.81 C 650.57 549.24 652.41 559.88 650.67 570.31 C 649.24 578.86 650.32 587.59 648.60 596.11 C 647.68 617.22 644.02 638.85 633.39 657.41 C 625.17 668.71 617.32 680.45 607.06 690.05 C 604.23 692.90 600.81 695.31 598.80 698.87 C 601.66 701.85 605.47 703.66 608.52 706.42 C 607.24 715.53 603.07 724.25 597.61 731.64 C 594.29 736.34 589.67 739.99 584.65 742.71 C 582.89 743.57 581.04 744.54 579.03 744.39 C 576.44 743.40 574.45 741.39 572.52 739.49 C 564.06 730.77 557.75 720.29 549.85 711.11 C 547.95 708.71 545.55 705.92 546.30 702.62 C 550.93 700.67 556.40 699.66 559.66 695.47 C 561.21 693.95 560.47 691.32 558.66 690.40 C 553.76 687.24 548.19 685.33 542.77 683.27 C 533.91 679.90 524.34 679.82 515.07 678.53 C 503.68 678.54 492.40 676.53 481.00 676.69 C 468.67 676.67 456.33 676.67 444.00 676.66 C 435.29 676.63 426.70 678.50 417.99 678.36 C 396.31 678.38 374.63 678.50 352.96 678.27 C 328.25 675.85 303.37 676.46 278.62 677.65 C 270.37 678.80 261.97 677.78 253.80 679.56 C 242.04 680.28 230.60 683.84 220.19 689.29 C 218.36 690.21 217.02 691.92 216.63 693.95 C 219.82 699.29 226.42 700.35 231.57 702.93 C 228.59 710.85 222.56 717.04 217.78 723.87 C 211.91 731.01 206.75 739.22 198.86 744.28 C 193.73 744.29 189.32 740.59 185.45 737.55 C 176.89 729.39 171.07 718.35 168.78 706.78 C 172.40 706.39 176.04 706.79 179.65 706.37 C 182.42 705.80 184.67 703.61 185.65 701.00 C 181.53 692.48 171.24 690.38 164.60 684.41 C 157.46 677.91 150.46 671.12 144.73 663.31 C 140.07 657.14 138.23 649.51 136.12 642.23 C 134.03 634.91 131.31 627.68 130.81 620.03 C 130.59 616.85 130.42 613.68 129.93 610.54 C 129.00 604.50 129.97 598.31 128.53 592.33 C 126.96 585.29 128.35 577.99 126.88 570.94 C 125.72 561.36 125.95 551.67 125.52 542.05 C 123.96 530.76 124.84 519.35 124.58 508.00 C 124.33 496.33 125.21 484.60 123.65 472.99 C 123.23 466.96 124.86 461.02 124.57 454.98 C 124.32 446.30 125.34 437.67 125.47 429.00 C 125.68 410.15 128.31 391.45 129.88 372.72 C 134.21 366.42 143.41 363.34 144.56 355.01 C 145.39 352.51 142.92 350.97 141.26 349.64 C 139.26 348.02 136.67 347.34 134.13 347.62 C 110.03 349.70 87.14 360.62 62.69 359.43 C 62.94 354.65 64.52 349.98 67.11 345.97 C 73.84 335.59 82.36 326.57 89.82 316.73 C 96.64 308.62 103.54 300.54 111.02 293.02 C 117.35 286.67 123.00 279.69 129.10 273.12 C 137.42 264.26 145.95 255.05 150.63 243.67 C 152.85 234.35 152.06 224.15 156.66 215.46 C 160.49 207.92 164.63 200.52 167.94 192.73 C 172.60 181.11 179.12 170.35 185.79 159.78 C 190.02 152.87 194.96 146.43 200.23 140.29 C 209.01 129.14 218.47 118.48 229.40 109.38 C 236.48 101.89 245.60 96.94 254.04 91.20 C 269.14 83.14 283.62 73.19 300.48 69.15 C 306.26 67.56 312.35 69.03 318.17 67.71 M 373.36 215.08 C 367.66 215.85 362.05 217.10 356.41 218.19 C 324.24 223.18 294.38 238.75 269.65 259.59 C 259.18 267.30 249.83 276.43 241.27 286.20 C 229.54 300.92 217.73 315.94 210.09 333.29 C 201.15 351.99 196.34 372.43 193.93 392.94 C 193.59 404.29 193.82 415.66 193.83 427.02 C 195.48 447.58 199.48 468.05 206.92 487.34 C 212.42 501.33 217.97 515.41 225.59 528.42 C 234.24 544.18 244.49 559.10 256.45 572.54 C 279.95 599.55 309.47 622.42 343.94 633.29 C 355.12 637.23 366.94 638.58 378.42 641.31 C 391.33 643.96 404.15 639.28 417.04 638.84 C 427.54 638.75 437.04 633.79 447.01 631.17 C 456.46 628.63 465.35 624.40 473.91 619.73 C 485.95 612.55 496.66 603.39 506.82 593.79 C 530.03 569.94 547.51 540.63 557.84 509.01 C 563.71 491.85 566.95 473.95 569.30 456.01 C 569.60 452.26 569.52 448.49 570.11 444.77 C 571.93 431.53 571.82 418.04 569.85 404.83 C 567.99 377.29 559.83 350.46 548.32 325.48 C 532.00 292.08 507.67 262.10 476.37 241.71 C 461.71 233.13 446.12 226.17 429.89 221.12 C 418.71 217.00 406.71 216.48 395.04 214.73 C 387.83 214.48 380.54 214.21 373.36 215.08 Z" />
<path fill="#ffffff" opacity="1.00" d=" M 366.38 235.45 C 375.87 234.43 385.49 234.57 395.01 235.08 C 407.86 237.20 420.96 238.23 433.46 242.14 C 450.00 246.41 464.57 255.83 478.21 265.80 C 506.85 287.89 527.00 319.52 539.01 353.35 C 545.36 371.52 549.59 390.48 551.13 409.67 C 551.47 418.13 552.82 426.60 551.76 435.05 C 550.80 451.51 548.47 467.91 544.26 483.87 C 541.00 500.21 534.39 515.61 527.62 530.75 C 516.57 554.11 500.59 575.13 481.00 591.98 C 474.37 598.25 466.87 603.51 459.09 608.26 C 455.79 610.28 452.19 611.79 448.46 612.81 C 427.50 617.77 406.18 621.00 384.90 624.25 C 380.02 625.10 375.12 624.02 370.43 622.72 C 361.34 620.06 352.59 616.44 343.69 613.24 C 329.45 607.85 316.57 599.52 304.09 590.93 C 293.88 583.26 284.21 574.81 275.53 565.43 C 265.14 553.59 255.50 541.04 247.56 527.41 C 240.47 514.68 233.22 501.97 227.85 488.39 C 222.28 472.76 217.44 456.77 215.24 440.28 C 213.77 434.09 214.94 427.63 213.40 421.45 C 210.84 410.02 214.21 398.58 214.70 387.15 C 215.44 382.63 215.77 378.04 216.82 373.57 C 220.90 357.87 226.56 342.53 234.48 328.35 C 240.24 318.14 247.03 308.54 254.47 299.50 C 259.43 293.48 265.16 288.16 270.38 282.37 C 279.63 272.36 291.05 264.75 302.51 257.51 C 311.36 251.91 321.12 248.00 330.73 243.94 C 342.22 239.71 354.27 237.16 366.38 235.45 Z" />
<path fill="#ffffff" opacity="1.00" d=" M 688.43 458.30 C 691.97 457.29 695.86 456.77 699.36 458.26 C 705.28 460.41 708.76 466.14 711.24 471.60 C 716.48 484.00 719.46 497.48 718.85 510.99 C 719.47 523.41 715.41 535.59 709.55 546.39 C 705.61 553.94 699.80 561.41 691.12 563.54 C 686.26 565.49 681.19 562.51 677.69 559.26 C 675.96 558.06 676.46 555.83 676.32 554.04 C 676.39 548.75 676.24 543.43 676.82 538.16 C 678.38 528.47 677.53 518.55 679.34 508.89 C 679.96 493.92 679.39 478.91 679.58 463.93 C 679.48 459.51 685.38 459.71 688.43 458.30 Z" />
</g>
</svg>
