<?xml version="1.0" encoding="UTF-8" ?>
<!DOCTYPE svg PUBLIC "-//W3C//DTD SVG 1.1//EN" "http://www.w3.org/Graphics/SVG/1.1/DTD/svg11.dtd">
<svg width="800pt" height="800pt" viewBox="0 0 800 800" version="1.1" xmlns="http://www.w3.org/2000/svg">
<g id="#000000ff">
<path fill="#000000" opacity="1.00" d=" M 0.00 0.00 L 0.10 0.00 C 0.07 0.02 0.02 0.07 0.00 0.10 L 0.00 0.00 Z" />
<path fill="#000000" opacity="1.00" d=" M 313.36 138.42 C 327.24 131.66 342.91 131.25 357.97 129.80 C 371.31 129.49 384.68 129.26 398.02 129.73 C 412.35 129.34 426.70 129.39 441.03 129.86 C 452.19 131.14 463.58 131.27 474.41 134.60 C 487.58 138.49 499.81 145.75 509.30 155.70 C 515.14 160.92 519.61 167.39 524.95 173.07 C 532.95 181.95 538.04 192.90 543.67 203.32 C 551.60 219.17 557.04 236.34 558.95 253.98 C 559.16 260.99 558.70 268.01 559.43 274.99 C 559.68 297.37 554.49 319.98 543.46 339.52 C 541.49 342.73 539.42 346.11 536.22 348.23 C 523.53 353.46 509.86 355.89 497.17 361.17 C 485.66 365.70 475.00 372.32 465.82 380.61 C 471.37 382.89 477.10 384.71 482.29 387.78 C 488.13 387.85 493.91 389.67 499.76 388.80 C 506.05 387.56 511.97 385.00 518.06 383.07 C 525.16 381.12 532.66 380.27 539.94 381.74 C 542.59 380.91 544.98 379.36 547.73 378.76 C 554.22 376.83 560.95 378.77 567.47 379.51 C 573.31 380.25 578.88 382.80 583.23 386.77 C 591.06 394.99 595.61 406.17 596.23 417.47 C 600.43 418.39 604.94 419.78 607.50 423.51 C 612.31 429.72 611.64 438.30 609.29 445.36 C 607.17 452.41 602.70 458.44 600.37 465.39 C 598.19 475.39 601.02 485.45 603.92 494.99 C 605.27 503.53 611.23 510.30 613.30 518.61 C 613.96 521.06 614.39 523.58 614.82 526.09 C 619.40 528.37 623.43 532.22 624.68 537.33 C 626.59 546.66 624.73 557.09 618.45 564.45 C 616.47 566.55 615.64 569.34 614.91 572.07 C 612.28 582.19 609.71 592.38 608.57 602.81 C 607.59 609.52 607.82 616.33 606.96 623.06 C 606.08 630.22 604.87 637.35 604.42 644.56 C 604.20 645.96 604.96 647.21 605.51 648.45 C 607.44 652.47 609.33 656.59 610.19 661.00 C 611.14 668.63 608.85 676.82 603.32 682.31 C 597.37 688.32 589.33 693.69 580.47 692.42 C 571.69 690.16 565.01 682.69 561.50 674.59 C 559.32 670.03 559.88 664.88 560.07 660.01 C 561.11 648.59 571.57 638.93 583.02 638.73 C 584.10 630.49 584.39 622.17 584.97 613.89 C 585.19 610.12 582.60 607.05 581.31 603.69 C 578.15 595.66 575.84 587.27 574.53 578.74 C 573.51 571.99 574.15 565.14 574.60 558.37 C 575.96 547.69 577.73 536.24 585.19 527.91 C 582.65 517.34 578.79 507.15 574.99 496.99 C 573.73 493.55 570.85 491.14 568.55 488.43 C 561.14 480.61 554.99 471.69 549.54 462.43 C 546.55 457.48 544.92 451.74 544.86 445.97 C 545.61 439.93 539.45 436.46 538.37 430.86 C 535.14 432.42 531.87 434.63 528.09 434.01 C 518.76 432.93 509.97 429.29 501.75 424.91 C 506.82 438.64 512.56 452.27 515.25 466.73 C 516.48 473.44 518.43 480.11 518.03 487.00 C 517.71 493.93 518.95 501.10 516.81 507.83 C 513.20 517.24 507.89 526.75 498.67 531.64 C 487.88 536.78 475.73 537.30 464.02 538.01 C 452.03 537.74 439.96 538.80 428.07 536.85 C 427.59 550.05 429.07 563.39 426.42 576.44 C 424.95 583.39 423.65 590.66 419.73 596.73 C 417.97 600.33 416.35 604.00 414.63 607.62 C 421.69 608.42 429.93 611.09 436.13 606.17 C 442.28 599.90 451.43 597.34 460.04 597.96 C 469.92 598.14 478.60 606.37 479.96 616.04 C 479.69 620.88 478.02 625.50 475.82 629.78 C 479.28 634.03 480.87 639.49 480.98 644.90 C 480.50 648.40 478.59 651.49 477.68 654.87 C 478.29 657.91 480.35 660.57 483.30 661.67 C 487.91 663.64 492.58 666.54 494.66 671.33 C 496.74 676.20 496.27 681.74 495.16 686.79 C 503.03 688.76 510.32 694.45 512.70 702.39 C 514.10 706.71 511.55 710.80 509.30 714.30 C 511.05 717.12 512.84 720.01 513.84 723.20 C 514.28 729.04 513.85 734.92 514.01 740.78 C 517.84 742.79 521.73 745.18 524.02 748.99 C 526.86 754.18 526.22 760.37 525.47 766.01 C 530.08 768.33 533.87 771.92 537.19 775.82 C 539.67 779.11 541.40 784.01 538.68 787.69 C 535.63 790.81 531.33 792.48 527.05 793.06 C 515.81 795.33 504.22 792.71 492.96 794.90 C 487.33 794.73 481.00 796.32 475.97 793.08 C 473.77 790.97 471.51 787.57 473.33 784.53 C 475.59 780.74 477.46 776.68 480.30 773.28 C 482.64 770.96 485.45 769.17 488.10 767.21 C 484.86 760.57 485.45 752.58 489.52 746.44 C 491.66 739.37 487.18 732.60 486.49 725.63 C 480.66 724.34 475.01 721.36 471.99 716.01 C 469.35 710.16 470.17 703.06 473.68 697.75 C 474.65 696.66 474.41 696.11 472.95 696.09 C 470.73 695.80 468.39 694.61 467.61 692.38 C 464.82 686.08 466.21 678.78 463.60 672.42 C 462.57 670.00 461.39 667.65 460.55 665.16 C 452.31 664.63 441.99 663.50 437.69 655.32 C 436.04 651.74 432.31 650.02 429.76 647.22 C 421.98 638.86 410.88 632.89 399.28 633.13 C 392.86 635.23 386.77 638.35 381.34 642.37 C 378.09 645.10 375.37 648.42 371.96 650.99 C 368.51 653.30 367.69 657.89 364.22 660.22 C 358.76 663.96 351.90 664.78 345.45 665.16 C 343.89 669.73 341.03 673.94 340.89 678.92 C 340.02 683.86 340.32 689.21 337.70 693.67 C 336.30 695.44 333.82 695.71 331.85 696.59 C 335.15 702.18 336.90 709.09 334.34 715.32 C 331.53 721.08 325.55 724.30 319.51 725.63 C 318.82 732.60 314.34 739.36 316.48 746.43 C 320.54 752.57 321.15 760.57 317.90 767.20 C 321.65 770.01 325.97 772.46 328.21 776.78 C 329.91 780.18 332.65 783.21 333.38 787.00 C 332.93 791.23 329.19 794.73 324.94 794.94 C 319.53 795.09 314.05 795.33 308.71 794.29 C 298.82 793.25 288.76 795.07 278.95 793.06 C 274.65 792.51 270.40 790.76 267.31 787.68 C 264.59 784.01 266.33 779.11 268.81 775.82 C 272.13 771.92 275.92 768.33 280.53 766.01 C 279.78 760.37 279.14 754.18 281.98 748.99 C 284.27 745.18 288.16 742.79 291.99 740.77 C 292.04 735.83 291.96 730.88 291.97 725.94 C 291.77 721.56 294.62 717.91 296.70 714.30 C 294.45 710.80 291.90 706.71 293.31 702.39 C 295.68 694.44 302.97 688.76 310.84 686.79 C 309.61 681.28 309.19 675.11 311.99 669.99 C 314.49 665.70 318.98 663.29 323.36 661.33 C 326.04 660.24 327.70 657.61 328.32 654.87 C 327.40 651.49 325.50 648.40 325.02 644.90 C 325.13 639.49 326.72 634.03 330.18 629.78 C 327.54 624.17 324.38 617.43 327.35 611.35 C 329.82 604.87 335.63 599.94 342.37 598.36 C 351.36 596.85 361.26 598.71 368.33 604.71 C 371.17 607.10 375.11 606.86 378.56 607.49 C 381.70 608.08 384.91 608.04 388.10 608.00 C 383.35 603.20 382.19 596.25 381.14 589.85 C 379.51 577.41 378.23 564.82 379.29 552.26 C 380.28 547.55 379.70 542.67 380.90 537.99 C 366.27 537.68 351.56 538.78 337.00 537.02 C 325.81 535.99 313.33 533.32 306.08 523.92 C 302.69 520.32 300.86 515.69 298.65 511.36 C 296.89 507.86 295.92 503.96 295.97 500.05 C 296.09 490.59 295.24 480.98 297.75 471.74 C 300.33 455.51 306.48 440.20 312.25 424.91 C 304.03 429.29 295.23 432.93 285.91 434.01 C 282.12 434.63 278.86 432.42 275.62 430.85 C 274.41 435.39 271.24 438.90 268.48 442.55 C 267.89 445.82 268.28 449.21 267.39 452.46 C 266.58 456.99 264.34 461.08 261.98 464.98 C 257.17 472.66 252.06 480.21 245.87 486.87 C 242.98 490.32 239.19 493.29 237.72 497.71 C 234.04 507.64 230.28 517.59 227.81 527.92 C 236.40 537.78 237.84 551.47 238.77 563.99 C 240.09 577.35 236.56 590.58 231.98 603.01 C 230.55 606.88 227.46 610.41 228.06 614.78 C 228.68 622.76 228.91 630.78 229.97 638.73 C 238.96 638.90 247.37 644.86 251.02 652.98 C 253.57 658.22 253.23 664.25 252.91 669.91 C 251.06 678.54 245.13 686.15 237.53 690.53 C 230.32 694.79 221.15 691.87 215.06 686.96 C 208.76 682.53 203.55 675.90 202.88 668.00 C 201.55 661.36 204.38 654.96 207.18 649.10 C 207.79 647.64 208.80 646.21 208.58 644.56 C 207.99 634.32 205.64 624.26 205.34 614.00 C 204.87 601.40 202.50 588.95 199.30 576.79 C 198.09 572.56 197.59 567.84 194.55 564.45 C 188.26 557.09 186.41 546.66 188.32 537.33 C 189.57 532.22 193.60 528.37 198.19 526.09 C 198.97 521.03 200.10 515.96 202.41 511.36 C 204.16 507.49 206.57 503.90 207.79 499.80 C 210.75 488.38 215.54 476.55 212.39 464.62 C 208.77 455.49 202.54 447.12 201.99 437.00 C 201.39 431.34 203.12 425.29 207.42 421.42 C 210.23 418.81 214.13 418.07 217.79 417.49 C 218.38 405.97 223.11 394.50 231.28 386.29 C 238.47 379.74 248.59 378.94 257.79 378.13 C 262.44 379.43 266.86 381.54 271.03 383.97 C 275.95 380.12 282.69 378.24 288.76 380.17 C 297.60 382.57 303.69 390.74 312.97 391.98 C 320.01 388.85 327.01 385.50 334.47 383.38 C 332.65 380.93 330.39 378.85 327.96 377.02 C 318.62 369.33 307.81 363.55 296.44 359.48 C 287.27 355.95 277.58 354.08 268.39 350.61 C 265.57 349.53 262.32 349.15 260.09 346.94 C 257.68 344.61 255.82 341.78 254.18 338.89 C 243.40 319.49 238.32 297.12 238.57 274.99 C 239.30 268.01 238.84 260.99 239.05 253.99 C 240.89 236.83 246.12 220.14 253.66 204.64 C 260.09 192.49 266.11 179.78 275.91 169.89 C 286.19 157.17 298.02 144.92 313.36 138.42 M 347.54 148.60 C 339.04 149.42 330.49 150.69 322.41 153.58 C 312.91 156.33 305.13 162.61 297.19 168.21 C 291.10 173.00 285.21 178.16 280.18 184.03 C 270.72 202.57 261.67 221.77 258.41 242.50 C 256.67 248.87 257.22 255.51 256.12 261.97 C 255.17 268.71 257.31 275.25 257.43 281.95 C 259.00 293.10 261.19 304.24 265.36 314.75 C 268.33 321.53 271.44 328.25 274.50 334.99 C 289.63 334.40 304.34 339.49 317.74 346.13 C 326.26 349.76 333.64 355.44 341.00 360.96 C 352.60 370.19 362.38 382.44 366.13 397.00 C 367.47 401.47 366.84 406.16 367.08 410.76 C 371.11 410.83 375.16 410.72 379.11 411.67 C 379.23 406.89 378.86 402.08 379.46 397.33 C 381.18 397.28 382.91 397.29 384.63 397.38 C 385.08 402.22 382.96 406.91 384.07 411.77 C 388.61 412.13 393.16 412.52 397.72 412.78 C 398.24 406.38 396.94 399.78 398.68 393.55 C 400.38 393.46 402.10 393.56 403.73 394.13 C 404.08 400.36 402.86 406.54 402.40 412.75 C 406.67 412.28 410.96 412.00 415.25 411.74 C 415.01 407.93 414.87 404.10 415.52 400.32 C 417.19 400.19 418.88 400.20 420.56 400.36 C 420.84 404.07 420.55 407.81 419.87 411.46 C 423.50 410.67 427.22 410.87 430.92 410.76 C 431.16 406.17 430.52 401.47 431.87 397.00 C 436.13 380.55 447.93 367.12 461.61 357.55 C 467.78 352.77 474.44 348.56 481.64 345.49 C 494.61 339.13 508.89 334.42 523.50 334.99 C 525.13 330.61 527.71 326.67 529.24 322.25 C 536.57 307.61 539.85 291.28 541.14 275.08 C 542.67 268.72 541.99 262.15 541.14 255.76 C 541.28 248.37 539.20 241.24 537.91 234.03 C 533.86 216.44 525.94 200.05 517.84 184.03 C 509.49 174.35 499.12 166.60 488.48 159.59 C 475.54 151.40 459.97 149.39 445.05 147.98 C 435.41 148.54 425.75 148.01 416.11 148.58 C 410.15 148.02 404.16 148.18 398.19 148.11 C 395.31 150.33 393.20 153.44 390.28 155.65 C 395.53 156.73 400.98 157.46 405.73 160.13 C 408.58 161.43 412.01 164.01 410.86 167.61 C 407.96 174.14 401.82 178.19 396.16 182.12 C 399.50 185.64 402.79 189.86 402.97 194.92 C 403.02 198.35 398.79 201.32 395.74 199.38 C 391.69 197.32 389.81 192.89 387.78 189.08 C 386.54 186.49 384.65 183.99 384.65 181.00 C 383.73 174.46 390.86 171.44 395.34 168.43 C 390.91 166.97 386.31 166.00 382.03 164.09 C 380.39 163.32 377.77 163.19 377.63 160.88 C 376.17 155.27 382.09 151.96 384.82 147.94 C 377.88 148.29 370.94 147.99 364.01 148.28 C 358.52 148.59 352.96 147.26 347.54 148.60 M 458.20 388.51 C 455.17 392.75 453.11 397.59 451.54 402.53 C 450.31 407.99 449.50 413.81 446.77 418.74 C 436.39 427.68 421.92 427.76 409.03 429.59 C 409.00 432.04 409.07 434.50 408.96 436.95 C 407.84 442.38 408.30 448.29 404.89 453.03 C 404.20 453.03 402.80 453.03 402.10 453.03 C 401.09 451.22 400.11 449.38 399.57 447.38 C 398.28 443.84 399.62 439.97 398.61 436.38 C 397.61 434.05 399.04 431.72 399.24 429.38 C 389.29 430.16 379.39 428.61 369.62 426.84 C 370.79 428.27 371.97 429.70 373.09 431.18 C 372.03 433.43 370.45 435.61 367.78 435.94 C 356.59 436.20 345.37 435.73 334.19 436.14 C 329.25 437.60 324.07 436.84 319.01 436.97 C 315.66 445.40 313.26 454.16 310.83 462.88 C 315.65 463.04 320.39 463.99 325.10 464.94 C 331.65 464.98 338.24 465.22 344.78 464.81 C 349.48 463.11 354.61 464.90 359.30 463.18 C 363.17 462.27 366.89 464.05 370.73 464.13 C 373.17 464.42 374.92 466.34 376.55 468.00 C 375.11 469.48 373.63 471.02 371.61 471.70 C 364.38 474.34 356.88 476.32 349.22 477.22 C 338.87 479.44 328.33 477.12 318.21 474.85 C 315.06 473.84 312.26 471.99 309.26 470.64 C 309.22 473.81 307.93 476.81 308.00 479.99 C 308.38 484.65 306.43 489.06 306.97 493.74 C 315.27 496.80 323.81 499.59 332.69 500.23 C 337.74 501.93 343.19 500.04 348.22 501.81 C 351.70 502.34 355.25 501.65 358.73 502.20 C 362.63 503.09 366.63 503.92 370.04 506.12 C 370.03 506.77 370.01 508.07 370.00 508.72 C 365.78 513.22 359.34 513.39 353.74 514.82 C 349.22 515.19 344.66 515.02 340.14 514.93 C 337.51 514.31 334.87 513.89 332.17 513.89 C 324.00 512.31 315.81 510.09 308.62 505.77 C 310.30 511.54 314.02 516.61 318.95 520.01 C 324.94 522.51 331.43 524.27 337.98 524.01 C 348.92 524.36 359.89 523.64 370.83 524.15 C 374.58 525.29 378.57 524.60 382.31 525.75 C 384.25 526.24 386.38 526.26 388.06 525.02 C 393.35 521.53 396.05 515.47 401.00 511.60 C 400.93 506.40 401.20 501.19 400.78 496.01 C 400.85 491.19 400.49 486.11 403.50 482.00 C 404.49 481.99 405.50 481.99 406.51 482.00 C 408.42 485.01 409.44 488.35 409.06 491.94 C 410.58 498.04 409.85 504.37 410.00 510.60 C 413.45 513.96 416.98 517.23 420.26 520.76 C 422.25 522.96 425.45 522.89 428.06 523.88 C 433.17 525.89 438.81 525.04 444.05 524.06 C 456.34 523.78 468.63 524.34 480.91 523.94 C 485.73 523.11 490.57 522.04 495.05 520.01 C 500.01 516.63 503.64 511.51 505.39 505.76 C 498.20 510.11 490.00 512.30 481.83 513.89 C 479.43 514.00 477.02 514.06 474.72 514.80 C 470.21 515.21 465.65 515.00 461.13 514.94 C 455.25 513.53 448.46 513.38 444.00 508.73 C 443.99 508.07 443.97 506.77 443.96 506.12 C 447.62 503.80 451.93 502.90 456.12 502.07 C 460.48 501.86 464.90 502.41 469.13 501.06 C 482.09 501.31 494.96 498.43 507.03 493.74 C 507.24 490.39 506.79 487.11 506.06 483.86 C 506.34 479.38 505.33 475.06 504.58 470.68 C 501.15 472.26 497.97 474.54 494.20 475.22 C 484.58 477.32 474.58 479.34 464.79 477.22 C 458.72 476.45 452.69 475.19 446.89 473.20 C 443.37 472.28 439.77 470.98 437.45 468.00 C 439.08 466.34 440.83 464.42 443.27 464.13 C 447.37 464.01 451.43 462.06 455.54 463.38 C 458.88 464.50 462.44 463.75 465.88 464.06 C 473.11 465.81 480.63 464.71 488.00 464.99 C 492.78 464.31 497.53 463.16 502.38 462.82 C 500.84 453.96 498.30 445.32 494.99 436.97 C 489.93 436.84 484.75 437.60 479.82 436.14 C 468.63 435.73 457.41 436.20 446.22 435.94 C 443.54 435.61 441.95 433.42 440.89 431.16 C 444.66 424.38 452.78 423.25 459.75 422.78 C 463.14 421.43 466.68 422.17 470.08 422.94 C 477.75 422.47 485.01 425.24 492.29 427.21 C 490.66 422.49 488.88 417.77 488.02 412.84 C 488.02 410.62 487.36 407.81 489.44 406.28 C 490.50 406.08 491.56 405.93 492.64 405.82 C 494.78 408.16 496.06 411.07 497.50 413.86 C 499.67 414.03 502.03 413.71 503.96 414.97 C 514.65 419.75 525.34 425.01 536.92 427.22 C 536.98 425.43 537.02 423.64 537.08 421.85 C 542.01 421.25 545.02 425.38 547.26 429.08 C 550.29 425.46 554.21 422.80 557.65 419.60 C 565.02 414.25 574.85 414.83 583.07 417.75 C 583.13 411.70 581.03 405.81 578.68 400.32 C 575.92 397.46 573.40 394.11 569.77 392.32 C 565.99 390.02 561.34 391.17 557.16 391.12 C 551.02 393.09 544.85 395.72 538.25 395.02 C 536.57 393.22 535.40 391.07 534.50 388.80 C 525.97 389.65 518.00 393.19 511.16 398.25 C 504.58 401.35 496.89 401.81 489.84 400.19 C 485.76 399.78 481.62 399.07 478.00 397.06 C 471.12 394.83 465.65 389.11 458.20 388.51 M 239.74 395.71 C 233.68 401.09 231.33 409.49 230.91 417.31 C 238.92 414.90 248.28 414.42 255.35 419.60 C 258.95 422.91 262.99 425.74 266.16 429.50 C 268.95 425.99 271.61 421.15 276.92 421.85 C 276.97 423.63 277.01 425.42 277.08 427.22 C 286.34 425.34 295.28 421.85 303.76 417.69 C 308.01 416.30 311.79 413.26 316.50 413.86 C 317.94 411.07 319.21 408.16 321.35 405.82 C 323.15 405.97 325.48 406.00 325.92 408.24 C 326.72 414.85 323.64 421.05 321.71 427.21 C 329.26 425.04 336.84 422.48 344.81 422.85 C 349.02 420.98 353.26 422.90 357.54 423.08 C 354.70 421.18 350.77 419.80 349.88 416.10 C 348.75 412.16 347.39 408.26 346.85 404.18 C 345.88 399.69 343.73 395.57 341.92 391.38 C 339.77 392.00 337.51 391.85 335.37 392.36 C 329.39 394.25 323.72 397.34 317.45 398.16 C 315.20 403.51 308.14 405.48 303.13 402.92 C 294.41 400.17 288.27 391.49 278.88 390.87 C 280.88 393.60 281.81 396.96 279.79 399.99 C 271.27 401.43 263.84 396.38 257.01 392.06 C 251.28 389.54 243.89 390.81 239.74 395.71 M 211.94 431.12 C 210.55 437.93 212.49 445.58 217.53 450.51 C 220.64 453.54 221.57 457.92 223.22 461.79 C 225.67 471.54 224.73 481.90 221.52 491.38 C 219.95 495.85 217.26 499.79 215.02 503.93 C 212.36 511.39 209.69 518.86 206.46 526.10 C 210.66 527.29 213.79 530.41 216.68 533.52 C 216.88 522.16 221.09 511.47 224.83 500.92 C 228.10 491.96 231.58 482.45 239.04 476.08 C 246.53 465.04 255.69 453.89 257.01 440.11 C 254.56 434.82 249.57 430.55 243.86 429.13 C 236.57 428.34 228.89 431.52 224.35 437.29 C 222.35 439.89 220.51 443.96 216.53 442.84 C 212.87 437.69 215.41 431.35 218.37 426.57 C 215.46 426.54 212.63 428.14 211.94 431.12 M 594.77 426.86 C 597.71 431.55 600.04 437.81 596.47 442.84 C 592.48 443.96 590.65 439.89 588.65 437.29 C 584.11 431.52 576.43 428.34 569.14 429.13 C 563.42 430.55 558.45 434.83 555.97 440.12 C 556.82 450.17 562.35 459.02 567.80 467.24 C 570.88 471.16 573.03 475.85 576.99 479.01 C 580.99 483.73 583.82 489.37 586.00 495.13 C 590.46 507.59 595.96 520.07 596.33 533.51 C 599.20 530.41 602.33 527.31 606.52 526.09 C 603.85 520.03 601.51 513.81 599.29 507.57 C 597.85 502.21 593.98 498.00 592.04 492.85 C 588.31 483.01 587.23 472.05 589.78 461.79 C 591.43 457.93 592.36 453.54 595.47 450.51 C 600.34 445.79 602.19 438.59 601.27 432.00 C 600.88 428.81 598.01 426.37 594.77 426.86 M 393.32 533.34 C 391.58 534.42 388.86 534.70 388.56 537.13 C 392.38 535.18 396.62 533.81 400.96 533.98 C 406.56 534.14 412.22 533.57 417.78 534.58 C 413.27 531.19 408.72 527.87 405.07 523.49 C 401.20 526.83 398.28 531.50 393.32 533.34 M 200.28 536.02 C 196.72 538.72 196.69 543.76 197.11 547.81 C 199.73 552.63 203.21 557.15 204.37 562.64 C 205.82 568.97 208.32 575.00 209.79 581.32 C 213.12 595.61 214.91 610.22 216.12 624.83 C 216.62 630.36 218.65 635.60 219.45 641.08 C 220.92 640.55 222.39 640.03 223.88 639.56 C 218.50 626.69 219.61 612.10 223.09 598.91 C 225.35 580.54 228.02 561.67 223.97 543.35 C 223.39 544.32 222.82 545.29 222.24 546.26 C 223.95 552.30 224.03 558.68 222.50 564.77 C 221.37 564.80 220.25 564.82 219.14 564.85 C 214.41 557.45 213.23 548.54 209.09 540.88 C 207.48 537.76 203.98 534.94 200.28 536.02 M 604.28 540.26 C 599.80 548.02 598.74 557.26 593.87 564.85 C 592.74 564.82 591.61 564.79 590.50 564.77 C 589.70 560.97 589.13 557.09 589.45 553.21 C 589.80 549.85 591.70 546.21 589.11 543.27 C 587.09 550.69 587.14 558.39 586.84 566.01 C 587.78 579.53 588.24 593.21 591.69 606.38 C 593.34 617.42 593.64 629.12 589.12 639.57 C 590.61 640.03 592.08 640.54 593.55 641.08 C 594.40 635.30 596.57 629.78 596.97 623.93 C 598.29 606.88 600.97 589.93 604.67 573.24 C 607.32 565.69 609.53 557.83 613.99 551.08 C 617.26 547.01 616.73 540.38 613.36 536.52 C 610.08 534.39 605.95 537.29 604.28 540.26 M 389.12 542.76 C 388.96 547.81 388.84 552.89 389.21 557.94 C 393.08 557.01 396.91 555.59 400.96 555.98 C 406.15 556.36 411.58 555.10 416.57 556.96 C 417.36 552.67 416.88 548.28 417.00 543.96 C 415.13 544.60 413.19 545.36 411.18 544.91 C 404.00 542.64 396.22 545.49 389.12 542.76 M 388.91 563.81 C 388.74 567.68 390.17 571.37 390.18 575.24 C 395.26 573.30 400.73 574.17 406.04 573.98 C 409.17 573.70 412.01 575.23 414.88 576.24 C 414.63 572.41 416.10 568.82 416.12 565.02 C 410.41 564.97 404.69 565.01 398.98 565.02 C 395.56 565.09 392.35 563.56 388.91 563.81 M 390.80 581.73 C 390.93 583.81 391.00 585.90 391.05 588.01 C 398.29 587.99 405.53 587.99 412.78 588.03 C 412.97 585.89 413.51 583.82 414.16 581.79 C 406.51 583.29 398.38 583.91 390.80 581.73 M 393.00 596.16 C 392.99 597.36 392.98 598.57 392.98 599.79 C 395.24 600.60 397.57 601.24 399.94 601.69 C 403.17 600.74 406.56 600.99 409.89 601.01 C 411.24 598.63 412.51 596.19 413.43 593.62 C 407.14 596.53 399.77 598.40 393.00 596.16 M 338.97 615.94 C 337.74 617.72 337.25 620.58 339.30 621.97 C 342.29 621.78 345.17 620.62 348.13 620.11 C 352.37 620.62 357.39 621.89 358.80 626.53 C 358.50 627.07 357.89 628.15 357.59 628.70 C 352.10 630.43 345.70 631.09 341.71 635.71 C 338.26 638.66 337.80 644.63 341.27 647.71 C 347.23 651.07 354.40 650.41 360.77 648.73 C 362.50 647.21 362.33 644.57 363.78 642.85 C 370.23 634.14 378.87 626.01 389.82 623.79 C 393.41 622.56 397.04 620.84 400.92 620.99 C 405.07 621.64 409.22 622.42 413.20 623.85 C 419.74 623.71 426.13 626.71 430.85 631.14 C 435.19 634.09 438.72 638.04 441.78 642.28 C 443.61 644.04 443.36 647.01 445.23 648.73 C 451.59 650.41 458.77 651.07 464.72 647.71 C 468.20 644.63 467.73 638.65 464.28 635.71 C 460.29 631.09 453.89 630.43 448.41 628.70 C 448.11 628.15 447.50 627.07 447.20 626.53 C 448.61 621.89 453.62 620.63 457.85 620.11 C 460.82 620.61 463.70 621.79 466.71 621.96 C 467.01 621.64 467.61 620.98 467.91 620.65 C 468.95 614.60 461.95 609.76 456.43 611.45 C 449.46 612.73 443.08 616.21 436.02 617.07 C 432.31 617.58 428.82 619.39 425.00 619.05 C 418.50 618.90 410.71 618.02 406.90 611.99 C 404.13 613.25 401.10 613.17 398.15 613.07 C 393.73 615.24 390.24 619.17 385.37 620.45 C 381.47 621.97 377.40 620.22 373.50 619.65 C 365.26 616.04 356.70 612.99 347.90 611.08 C 344.35 611.16 340.62 612.57 338.97 615.94 M 227.33 650.19 C 223.04 650.95 218.69 652.45 215.41 655.42 C 214.50 656.36 213.18 657.47 213.57 658.97 C 214.12 665.86 216.90 673.15 222.59 677.43 C 225.39 679.50 229.29 680.09 232.46 678.52 C 237.75 675.29 241.38 669.25 241.20 662.99 C 241.27 655.91 234.78 648.66 227.33 650.19 M 580.44 650.59 C 576.24 651.51 573.82 655.62 572.28 659.31 C 570.34 666.64 574.15 674.69 580.54 678.52 C 583.71 680.10 587.61 679.50 590.41 677.43 C 596.34 672.94 599.17 665.23 599.47 658.01 C 597.84 654.50 594.01 652.77 590.60 651.43 C 587.35 650.42 583.79 649.33 580.44 650.59 M 326.52 670.59 C 324.37 671.53 321.34 671.88 320.66 674.58 C 318.56 678.31 319.51 682.72 317.88 686.58 C 322.31 688.35 326.38 690.83 330.37 693.42 C 334.87 687.97 332.34 680.49 332.87 674.11 C 333.72 669.67 335.86 665.46 338.98 662.18 C 338.23 662.01 336.73 661.69 335.98 661.53 C 333.74 665.35 330.42 668.49 326.52 670.59 M 467.02 662.17 C 469.59 664.82 471.36 668.11 472.52 671.60 C 474.42 678.69 470.60 687.20 475.63 693.42 C 479.61 690.83 483.69 688.35 488.12 686.58 C 486.29 681.95 487.59 676.06 483.74 672.30 C 478.07 670.48 472.99 666.77 470.03 661.53 C 469.28 661.69 467.78 662.01 467.02 662.17 M 303.97 703.28 C 303.98 703.89 303.98 705.10 303.98 705.70 C 307.41 709.02 311.97 711.55 316.89 711.04 C 318.78 711.45 320.48 709.76 320.06 707.87 C 320.66 703.30 316.65 700.29 312.88 698.80 C 309.71 699.86 306.33 700.74 303.97 703.28 M 487.21 703.15 C 485.62 705.25 485.04 709.15 487.33 710.91 C 492.79 711.90 498.20 709.56 502.01 705.70 C 502.02 705.10 502.02 703.89 502.03 703.29 C 499.67 700.74 496.28 699.86 493.12 698.80 C 491.06 700.14 488.25 700.68 487.21 703.15 M 303.11 721.01 C 300.57 727.58 302.93 734.82 301.70 741.58 C 300.64 744.06 299.39 746.54 297.27 748.29 C 295.17 750.59 291.43 750.96 289.97 753.89 C 288.25 756.67 289.21 760.05 289.02 763.13 C 292.72 763.20 296.20 761.49 299.92 761.99 C 304.72 762.75 309.60 763.27 314.11 765.25 C 314.11 759.92 312.31 754.84 309.63 750.29 C 307.11 746.05 306.46 741.09 307.12 736.25 C 308.71 732.38 310.14 728.44 311.32 724.42 C 308.55 723.36 305.69 722.51 303.11 721.01 M 494.68 724.42 C 495.81 728.16 497.04 731.88 498.60 735.48 C 499.89 740.72 498.78 746.33 496.03 750.96 C 493.48 755.29 491.86 760.18 491.90 765.25 C 495.33 763.82 498.90 762.96 502.58 762.58 C 507.37 760.91 512.17 762.92 516.98 763.13 C 517.03 759.10 517.87 753.75 513.63 751.46 C 509.34 749.55 505.83 746.06 504.30 741.58 C 503.07 734.82 505.43 727.58 502.89 721.01 C 500.31 722.51 497.45 723.36 494.68 724.42 M 273.48 787.20 C 278.65 786.50 283.71 784.84 288.96 784.96 C 298.30 783.08 307.94 784.39 317.41 783.99 C 315.11 781.46 312.73 778.82 309.38 777.69 C 304.33 775.06 298.52 776.15 293.07 776.05 C 285.50 777.19 278.34 781.27 273.48 787.20 M 488.59 783.99 C 496.34 784.07 504.11 783.88 511.87 784.06 C 514.80 784.84 517.80 785.10 520.85 785.09 C 524.74 785.76 528.62 786.55 532.52 787.20 C 529.12 782.84 524.34 779.87 519.33 777.68 C 513.85 775.37 507.83 776.00 502.04 776.03 C 496.72 776.83 491.88 779.74 488.59 783.99 Z" />
<path fill="#000000" opacity="1.00" d=" M 321.58 213.68 C 329.46 212.17 337.61 214.69 344.50 218.46 C 350.67 222.97 356.05 228.71 359.51 235.57 C 363.71 243.78 368.38 252.01 369.96 261.23 C 371.90 275.02 369.39 289.80 361.51 301.45 C 358.42 305.35 355.55 309.54 351.60 312.65 C 341.94 320.29 329.32 324.24 317.03 323.23 C 305.89 322.18 296.25 314.81 290.41 305.55 C 285.46 297.19 282.37 287.74 281.65 278.04 C 281.76 270.60 282.44 263.18 283.84 255.86 C 286.07 241.08 294.97 227.62 307.20 219.14 C 311.63 216.52 316.58 214.87 321.58 213.68 M 340.36 255.38 C 335.31 257.03 330.68 261.03 329.57 266.40 C 327.95 271.95 328.57 277.96 330.80 283.25 C 332.37 287.68 336.11 291.69 340.97 292.26 C 344.86 293.07 349.27 292.00 351.97 288.96 C 355.63 285.28 356.28 279.85 356.64 274.92 C 357.07 268.84 355.96 262.07 351.24 257.78 C 348.44 254.98 344.07 253.95 340.36 255.38 Z" />
<path fill="#000000" opacity="1.00" d=" M 467.46 213.52 C 475.38 212.24 483.23 215.24 490.19 218.76 C 502.78 227.14 511.88 240.87 514.16 255.87 C 516.65 269.16 517.81 283.40 512.16 296.09 C 508.28 307.07 500.20 316.89 489.23 321.28 C 480.78 324.44 471.39 323.79 462.88 321.22 C 454.03 318.50 445.56 313.53 440.03 305.95 C 429.37 293.93 425.84 276.86 428.04 261.23 C 429.85 251.06 435.16 242.03 439.90 233.01 C 444.93 225.14 451.90 217.68 461.16 215.10 C 463.24 214.51 465.32 213.89 467.46 213.52 M 450.37 255.42 C 444.02 258.18 441.21 265.47 441.28 272.02 C 441.45 277.85 441.73 284.50 446.03 288.96 C 451.06 294.50 461.06 293.34 465.13 287.19 C 468.85 281.37 470.34 273.97 468.63 267.22 C 467.30 259.27 458.23 252.86 450.37 255.42 Z" />
<path fill="#000000" opacity="1.00" d=" M 393.47 287.13 C 396.08 285.54 399.06 288.30 401.05 289.92 C 408.85 298.94 414.97 309.65 417.68 321.33 C 418.18 324.68 417.10 328.28 414.16 330.19 C 409.56 331.61 404.67 330.80 400.02 332.02 C 391.96 331.98 382.46 332.95 376.16 326.86 C 374.57 322.92 374.83 318.29 376.21 314.30 C 380.32 304.37 385.09 294.20 393.47 287.13 Z" />
</g>
<g id="#ffffffff">
<path fill="#ffffff" opacity="1.00" d=" M 347.54 148.60 C 352.96 147.26 358.52 148.59 364.01 148.28 C 370.94 147.99 377.88 148.29 384.82 147.94 C 382.09 151.96 376.17 155.27 377.63 160.88 C 377.77 163.19 380.39 163.32 382.03 164.09 C 386.31 166.00 390.91 166.97 395.34 168.43 C 390.86 171.44 383.73 174.46 384.65 181.00 C 384.65 183.99 386.54 186.49 387.78 189.08 C 389.81 192.89 391.69 197.32 395.74 199.38 C 398.79 201.32 403.02 198.35 402.97 194.92 C 402.79 189.86 399.50 185.64 396.16 182.12 C 401.82 178.19 407.96 174.14 410.86 167.61 C 412.01 164.01 408.58 161.43 405.73 160.13 C 400.98 157.46 395.53 156.73 390.28 155.65 C 393.20 153.44 395.31 150.33 398.19 148.11 C 404.16 148.18 410.15 148.02 416.11 148.58 C 425.75 148.01 435.41 148.54 445.05 147.98 C 459.97 149.39 475.54 151.40 488.48 159.59 C 499.12 166.60 509.49 174.35 517.84 184.03 C 525.94 200.05 533.86 216.44 537.91 234.03 C 539.20 241.24 541.28 248.37 541.14 255.76 C 541.99 262.15 542.67 268.72 541.14 275.08 C 539.85 291.28 536.57 307.61 529.24 322.25 C 527.71 326.67 525.13 330.61 523.50 334.99 C 508.89 334.42 494.61 339.13 481.64 345.49 C 474.44 348.56 467.78 352.77 461.61 357.55 C 447.93 367.12 436.13 380.55 431.87 397.00 C 430.52 401.47 431.16 406.17 430.92 410.76 C 427.22 410.87 423.50 410.67 419.87 411.46 C 420.55 407.81 420.84 404.07 420.56 400.36 C 418.88 400.20 417.19 400.19 415.52 400.32 C 414.87 404.10 415.01 407.93 415.25 411.74 C 410.96 412.00 406.67 412.28 402.40 412.75 C 402.86 406.54 404.08 400.36 403.73 394.13 C 402.10 393.56 400.38 393.46 398.68 393.55 C 396.94 399.78 398.24 406.38 397.72 412.78 C 393.16 412.52 388.61 412.13 384.07 411.77 C 382.96 406.91 385.08 402.22 384.63 397.38 C 382.91 397.29 381.18 397.28 379.46 397.33 C 378.86 402.08 379.23 406.89 379.11 411.67 C 375.16 410.72 371.11 410.83 367.08 410.76 C 366.84 406.16 367.47 401.47 366.13 397.00 C 362.38 382.44 352.60 370.19 341.00 360.96 C 333.64 355.44 326.26 349.76 317.74 346.13 C 304.34 339.49 289.63 334.40 274.50 334.99 C 271.44 328.25 268.33 321.53 265.36 314.75 C 261.19 304.24 259.00 293.10 257.43 281.95 C 257.31 275.25 255.17 268.71 256.12 261.97 C 257.22 255.51 256.67 248.87 258.41 242.50 C 261.67 221.77 270.72 202.57 280.18 184.03 C 285.21 178.16 291.10 173.00 297.19 168.21 C 305.13 162.61 312.91 156.33 322.41 153.58 C 330.49 150.69 339.04 149.42 347.54 148.60 M 321.58 213.68 C 316.58 214.87 311.63 216.52 307.20 219.14 C 294.97 227.62 286.07 241.08 283.84 255.86 C 282.44 263.18 281.76 270.60 281.65 278.04 C 282.37 287.74 285.46 297.19 290.41 305.55 C 296.25 314.81 305.89 322.18 317.03 323.23 C 329.32 324.24 341.94 320.29 351.60 312.65 C 355.55 309.54 358.42 305.35 361.51 301.45 C 369.39 289.80 371.90 275.02 369.96 261.23 C 368.38 252.01 363.71 243.78 359.51 235.57 C 356.05 228.71 350.67 222.97 344.50 218.46 C 337.61 214.69 329.46 212.17 321.58 213.68 M 467.46 213.52 C 465.32 213.89 463.24 214.51 461.16 215.10 C 451.90 217.68 444.93 225.14 439.90 233.01 C 435.16 242.03 429.85 251.06 428.04 261.23 C 425.84 276.86 429.37 293.93 440.03 305.95 C 445.56 313.53 454.03 318.50 462.88 321.22 C 471.39 323.79 480.78 324.44 489.23 321.28 C 500.20 316.89 508.28 307.07 512.16 296.09 C 517.81 283.40 516.65 269.16 514.16 255.87 C 511.88 240.87 502.78 227.14 490.19 218.76 C 483.23 215.24 475.38 212.24 467.46 213.52 M 393.47 287.13 C 385.09 294.20 380.32 304.37 376.21 314.30 C 374.83 318.29 374.57 322.92 376.16 326.86 C 382.46 332.95 391.96 331.98 400.02 332.02 C 404.67 330.80 409.56 331.61 414.16 330.19 C 417.10 328.28 418.18 324.68 417.68 321.33 C 414.97 309.65 408.85 298.94 401.05 289.92 C 399.06 288.30 396.08 285.54 393.47 287.13 Z" />
<path fill="#ffffff" opacity="1.00" d=" M 340.36 255.38 C 344.07 253.95 348.44 254.98 351.24 257.78 C 355.96 262.07 357.07 268.84 356.64 274.92 C 356.28 279.85 355.63 285.28 351.97 288.96 C 349.27 292.00 344.86 293.07 340.97 292.26 C 336.11 291.69 332.37 287.68 330.80 283.25 C 328.57 277.96 327.95 271.95 329.57 266.40 C 330.68 261.03 335.31 257.03 340.36 255.38 Z" />
<path fill="#ffffff" opacity="1.00" d=" M 450.37 255.42 C 458.23 252.86 467.30 259.27 468.63 267.22 C 470.34 273.97 468.85 281.37 465.13 287.19 C 461.06 293.34 451.06 294.50 446.03 288.96 C 441.73 284.50 441.45 277.85 441.28 272.02 C 441.21 265.47 444.02 258.18 450.37 255.42 Z" />
<path fill="#ffffff" opacity="1.00" d=" M 458.20 388.51 C 465.65 389.11 471.12 394.83 478.00 397.06 C 481.62 399.07 485.76 399.78 489.84 400.19 C 496.89 401.81 504.58 401.35 511.16 398.25 C 518.00 393.19 525.97 389.65 534.50 388.80 C 535.40 391.07 536.57 393.22 538.25 395.02 C 544.85 395.72 551.02 393.09 557.16 391.12 C 561.34 391.17 565.99 390.02 569.77 392.32 C 573.40 394.11 575.92 397.46 578.68 400.32 C 581.03 405.81 583.13 411.70 583.07 417.75 C 574.85 414.83 565.02 414.25 557.65 419.60 C 554.21 422.80 550.29 425.46 547.26 429.08 C 545.02 425.38 542.01 421.25 537.08 421.85 C 537.02 423.64 536.98 425.43 536.92 427.22 C 525.34 425.01 514.65 419.75 503.96 414.97 C 502.03 413.71 499.67 414.03 497.50 413.86 C 496.06 411.07 494.78 408.16 492.64 405.82 C 491.56 405.93 490.50 406.08 489.44 406.28 C 487.36 407.81 488.02 410.62 488.02 412.84 C 488.88 417.77 490.66 422.49 492.29 427.21 C 485.01 425.24 477.75 422.47 470.08 422.94 C 466.68 422.17 463.14 421.43 459.75 422.78 C 452.78 423.25 444.66 424.38 440.89 431.16 C 441.95 433.42 443.54 435.61 446.22 435.94 C 457.41 436.20 468.63 435.73 479.82 436.14 C 484.75 437.60 489.93 436.84 494.99 436.97 C 498.30 445.32 500.84 453.96 502.38 462.82 C 497.53 463.16 492.78 464.31 488.00 464.99 C 480.63 464.71 473.11 465.81 465.88 464.06 C 462.44 463.75 458.88 464.50 455.54 463.38 C 451.43 462.06 447.37 464.01 443.27 464.13 C 440.83 464.42 439.08 466.34 437.45 468.00 C 439.77 470.98 443.37 472.28 446.89 473.20 C 452.69 475.19 458.72 476.45 464.79 477.22 C 474.58 479.34 484.58 477.32 494.20 475.22 C 497.97 474.54 501.15 472.26 504.58 470.68 C 505.33 475.06 506.34 479.38 506.06 483.86 C 506.79 487.11 507.24 490.39 507.03 493.74 C 494.96 498.43 482.09 501.31 469.13 501.06 C 464.90 502.41 460.48 501.86 456.12 502.07 C 451.93 502.90 447.62 503.80 443.96 506.12 C 443.97 506.77 443.99 508.07 444.00 508.73 C 448.46 513.38 455.25 513.53 461.13 514.94 C 465.65 515.00 470.21 515.21 474.72 514.80 C 477.02 514.06 479.43 514.00 481.83 513.89 C 490.00 512.30 498.20 510.11 505.39 505.76 C 503.64 511.51 500.01 516.63 495.05 520.01 C 490.57 522.04 485.73 523.11 480.91 523.94 C 468.63 524.34 456.34 523.78 444.05 524.06 C 438.81 525.04 433.17 525.89 428.06 523.88 C 425.45 522.89 422.25 522.96 420.26 520.76 C 416.98 517.23 413.45 513.96 410.00 510.60 C 409.85 504.37 410.58 498.04 409.06 491.94 C 409.44 488.35 408.42 485.01 406.51 482.00 C 405.50 481.99 404.49 481.99 403.50 482.00 C 400.49 486.11 400.85 491.19 400.78 496.01 C 401.20 501.19 400.93 506.40 401.00 511.60 C 396.05 515.47 393.35 521.53 388.06 525.02 C 386.38 526.26 384.25 526.24 382.31 525.75 C 378.57 524.60 374.58 525.29 370.83 524.15 C 359.89 523.64 348.92 524.36 337.98 524.01 C 331.43 524.27 324.94 522.51 318.95 520.01 C 314.02 516.61 310.30 511.54 308.62 505.77 C 315.81 510.09 324.00 512.31 332.17 513.89 C 334.87 513.89 337.51 514.31 340.14 514.93 C 344.66 515.02 349.22 515.19 353.74 514.82 C 359.34 513.39 365.78 513.22 370.00 508.72 C 370.01 508.07 370.03 506.77 370.04 506.12 C 366.63 503.92 362.63 503.09 358.73 502.20 C 355.25 501.65 351.70 502.34 348.22 501.81 C 343.19 500.04 337.74 501.93 332.69 500.23 C 323.81 499.59 315.27 496.80 306.97 493.74 C 306.43 489.06 308.38 484.65 308.00 479.99 C 307.93 476.81 309.22 473.81 309.26 470.64 C 312.26 471.99 315.06 473.84 318.21 474.85 C 328.33 477.12 338.87 479.44 349.22 477.22 C 356.88 476.32 364.38 474.34 371.61 471.70 C 373.63 471.02 375.11 469.48 376.55 468.00 C 374.92 466.34 373.17 464.42 370.73 464.13 C 366.89 464.05 363.17 462.27 359.30 463.18 C 354.61 464.90 349.48 463.11 344.78 464.81 C 338.24 465.22 331.65 464.98 325.10 464.94 C 320.39 463.99 315.65 463.04 310.83 462.88 C 313.26 454.16 315.66 445.40 319.01 436.97 C 324.07 436.84 329.25 437.60 334.19 436.14 C 345.37 435.73 356.59 436.20 367.78 435.94 C 370.45 435.61 372.03 433.43 373.09 431.18 C 371.97 429.70 370.79 428.27 369.62 426.84 C 379.39 428.61 389.29 430.16 399.24 429.38 C 399.04 431.72 397.61 434.05 398.61 436.38 C 399.62 439.97 398.28 443.84 399.57 447.38 C 400.11 449.38 401.09 451.22 402.10 453.03 C 402.80 453.03 404.20 453.03 404.89 453.03 C 408.30 448.29 407.84 442.38 408.96 436.95 C 409.07 434.50 409.00 432.04 409.03 429.59 C 421.92 427.76 436.39 427.68 446.77 418.74 C 449.50 413.81 450.31 407.99 451.54 402.53 C 453.11 397.59 455.17 392.75 458.20 388.51 Z" />
<path fill="#ffffff" opacity="1.00" d=" M 239.74 395.71 C 243.89 390.81 251.28 389.54 257.01 392.06 C 263.84 396.38 271.27 401.43 279.79 399.99 C 281.81 396.96 280.88 393.60 278.88 390.87 C 288.27 391.49 294.41 400.17 303.13 402.92 C 308.14 405.48 315.20 403.51 317.45 398.16 C 323.72 397.34 329.39 394.25 335.37 392.36 C 337.51 391.85 339.77 392.00 341.92 391.38 C 343.73 395.57 345.88 399.69 346.85 404.18 C 347.39 408.26 348.75 412.16 349.88 416.10 C 350.77 419.80 354.70 421.18 357.54 423.08 C 353.26 422.90 349.02 420.98 344.81 422.85 C 336.84 422.48 329.26 425.04 321.71 427.21 C 323.64 421.05 326.72 414.85 325.92 408.24 C 325.48 406.00 323.15 405.97 321.35 405.82 C 319.21 408.16 317.94 411.07 316.50 413.86 C 311.79 413.26 308.01 416.30 303.76 417.69 C 295.28 421.85 286.34 425.34 277.08 427.22 C 277.01 425.42 276.97 423.63 276.92 421.85 C 271.61 421.15 268.95 425.99 266.16 429.50 C 262.99 425.74 258.95 422.91 255.35 419.60 C 248.28 414.42 238.92 414.90 230.91 417.31 C 231.33 409.49 233.68 401.09 239.74 395.71 Z" />
<path fill="#ffffff" opacity="1.00" d=" M 211.94 431.12 C 212.63 428.14 215.46 426.54 218.37 426.57 C 215.41 431.35 212.87 437.69 216.53 442.84 C 220.51 443.96 222.35 439.89 224.35 437.29 C 228.89 431.52 236.57 428.34 243.86 429.13 C 249.57 430.55 254.56 434.82 257.01 440.11 C 255.69 453.89 246.53 465.04 239.04 476.08 C 231.58 482.45 228.10 491.96 224.83 500.92 C 221.09 511.47 216.88 522.16 216.68 533.52 C 213.79 530.41 210.66 527.29 206.46 526.10 C 209.69 518.86 212.36 511.39 215.02 503.93 C 217.26 499.79 219.95 495.85 221.52 491.38 C 224.73 481.90 225.67 471.54 223.22 461.79 C 221.57 457.92 220.64 453.54 217.53 450.51 C 212.49 445.58 210.55 437.93 211.94 431.12 Z" />
<path fill="#ffffff" opacity="1.00" d=" M 594.77 426.86 C 598.01 426.37 600.88 428.81 601.27 432.00 C 602.19 438.59 600.34 445.79 595.47 450.51 C 592.36 453.54 591.43 457.93 589.78 461.79 C 587.23 472.05 588.31 483.01 592.04 492.85 C 593.98 498.00 597.85 502.21 599.29 507.57 C 601.51 513.81 603.85 520.03 606.52 526.09 C 602.33 527.31 599.20 530.41 596.33 533.51 C 595.96 520.07 590.46 507.59 586.00 495.13 C 583.82 489.37 580.99 483.73 576.99 479.01 C 573.03 475.85 570.88 471.16 567.80 467.24 C 562.35 459.02 556.82 450.17 555.97 440.12 C 558.45 434.83 563.42 430.55 569.14 429.13 C 576.43 428.34 584.11 431.52 588.65 437.29 C 590.65 439.89 592.48 443.96 596.47 442.84 C 600.04 437.81 597.71 431.55 594.77 426.86 Z" />
<path fill="#ffffff" opacity="1.00" d=" M 393.32 533.34 C 398.28 531.50 401.20 526.83 405.07 523.49 C 408.72 527.87 413.27 531.19 417.78 534.58 C 412.22 533.57 406.56 534.14 400.96 533.98 C 396.62 533.81 392.38 535.18 388.56 537.13 C 388.86 534.70 391.58 534.42 393.32 533.34 Z" />
<path fill="#ffffff" opacity="1.00" d=" M 200.28 536.02 C 203.98 534.94 207.48 537.76 209.09 540.88 C 213.23 548.54 214.41 557.45 219.14 564.85 C 220.25 564.82 221.37 564.80 222.50 564.77 C 224.03 558.68 223.95 552.30 222.24 546.26 C 222.82 545.29 223.39 544.32 223.97 543.35 C 228.02 561.67 225.35 580.54 223.09 598.91 C 219.61 612.10 218.50 626.69 223.88 639.56 C 222.39 640.03 220.92 640.55 219.45 641.08 C 218.65 635.60 216.62 630.36 216.12 624.83 C 214.91 610.22 213.12 595.61 209.79 581.32 C 208.32 575.00 205.82 568.97 204.37 562.64 C 203.21 557.15 199.73 552.63 197.11 547.81 C 196.69 543.76 196.72 538.72 200.28 536.02 Z" />
<path fill="#ffffff" opacity="1.00" d=" M 604.28 540.26 C 605.95 537.29 610.08 534.39 613.36 536.52 C 616.73 540.38 617.26 547.01 613.99 551.08 C 609.53 557.83 607.32 565.69 604.67 573.24 C 600.97 589.93 598.29 606.88 596.97 623.93 C 596.57 629.78 594.40 635.30 593.55 641.08 C 592.08 640.54 590.61 640.03 589.12 639.57 C 593.64 629.12 593.34 617.42 591.69 606.38 C 588.24 593.21 587.78 579.53 586.84 566.01 C 587.14 558.39 587.09 550.69 589.11 543.27 C 591.70 546.21 589.80 549.85 589.45 553.21 C 589.13 557.09 589.70 560.97 590.50 564.77 C 591.61 564.79 592.74 564.82 593.87 564.85 C 598.74 557.26 599.80 548.02 604.28 540.26 Z" />
<path fill="#ffffff" opacity="1.00" d=" M 389.12 542.76 C 396.22 545.49 404.00 542.64 411.18 544.91 C 413.19 545.36 415.13 544.60 417.00 543.96 C 416.88 548.28 417.36 552.67 416.57 556.96 C 411.58 555.10 406.15 556.36 400.96 555.98 C 396.91 555.59 393.08 557.01 389.21 557.94 C 388.84 552.89 388.96 547.81 389.12 542.76 Z" />
<path fill="#ffffff" opacity="1.00" d=" M 388.91 563.81 C 392.35 563.56 395.56 565.09 398.98 565.02 C 404.69 565.01 410.41 564.97 416.12 565.02 C 416.10 568.82 414.63 572.41 414.88 576.24 C 412.01 575.23 409.17 573.70 406.04 573.98 C 400.73 574.17 395.26 573.30 390.18 575.24 C 390.17 571.37 388.74 567.68 388.91 563.81 Z" />
<path fill="#ffffff" opacity="1.00" d=" M 390.80 581.73 C 398.38 583.91 406.51 583.29 414.16 581.79 C 413.51 583.82 412.97 585.89 412.78 588.03 C 405.53 587.99 398.29 587.99 391.05 588.01 C 391.00 585.90 390.93 583.81 390.80 581.73 Z" />
<path fill="#ffffff" opacity="1.00" d=" M 393.00 596.16 C 399.77 598.40 407.14 596.53 413.43 593.62 C 412.51 596.19 411.24 598.63 409.89 601.01 C 406.56 600.99 403.17 600.74 399.94 601.69 C 397.57 601.24 395.24 600.60 392.98 599.79 C 392.98 598.57 392.99 597.36 393.00 596.16 Z" />
<path fill="#ffffff" opacity="1.00" d=" M 338.97 615.94 C 340.62 612.57 344.35 611.16 347.90 611.08 C 356.70 612.99 365.26 616.04 373.50 619.65 C 377.40 620.22 381.47 621.97 385.37 620.45 C 390.24 619.17 393.73 615.24 398.15 613.07 C 401.10 613.17 404.13 613.25 406.90 611.99 C 410.71 618.02 418.50 618.90 425.00 619.05 C 428.82 619.39 432.31 617.58 436.02 617.07 C 443.08 616.21 449.46 612.73 456.43 611.45 C 461.95 609.76 468.95 614.60 467.91 620.65 C 467.61 620.98 467.01 621.64 466.71 621.96 C 463.70 621.79 460.82 620.61 457.85 620.11 C 453.62 620.63 448.61 621.89 447.20 626.53 C 447.50 627.07 448.11 628.15 448.41 628.70 C 453.89 630.43 460.29 631.09 464.28 635.71 C 467.73 638.65 468.20 644.63 464.72 647.71 C 458.77 651.07 451.59 650.41 445.23 648.73 C 443.36 647.01 443.61 644.04 441.78 642.28 C 438.72 638.04 435.19 634.09 430.85 631.14 C 426.13 626.71 419.74 623.71 413.20 623.85 C 409.22 622.42 405.07 621.64 400.92 620.99 C 397.04 620.84 393.41 622.56 389.82 623.79 C 378.87 626.01 370.23 634.14 363.78 642.85 C 362.33 644.57 362.50 647.21 360.77 648.73 C 354.40 650.41 347.23 651.07 341.27 647.71 C 337.80 644.63 338.26 638.66 341.71 635.71 C 345.70 631.09 352.10 630.43 357.59 628.70 C 357.89 628.15 358.50 627.07 358.80 626.53 C 357.39 621.89 352.37 620.62 348.13 620.11 C 345.17 620.62 342.29 621.78 339.30 621.97 C 337.25 620.58 337.74 617.72 338.97 615.94 Z" />
<path fill="#ffffff" opacity="1.00" d=" M 227.33 650.19 C 234.78 648.66 241.27 655.91 241.20 662.99 C 241.38 669.25 237.75 675.29 232.46 678.52 C 229.29 680.09 225.39 679.50 222.59 677.43 C 216.90 673.15 214.12 665.86 213.57 658.97 C 213.18 657.47 214.50 656.36 215.41 655.42 C 218.69 652.45 223.04 650.95 227.33 650.19 Z" />
<path fill="#ffffff" opacity="1.00" d=" M 580.44 650.59 C 583.79 649.33 587.35 650.42 590.60 651.43 C 594.01 652.77 597.84 654.50 599.47 658.01 C 599.17 665.23 596.34 672.94 590.41 677.43 C 587.61 679.50 583.71 680.10 580.54 678.52 C 574.15 674.69 570.34 666.64 572.28 659.31 C 573.82 655.62 576.24 651.51 580.44 650.59 Z" />
<path fill="#ffffff" opacity="1.00" d=" M 326.52 670.59 C 330.42 668.49 333.74 665.35 335.98 661.53 C 336.73 661.69 338.23 662.01 338.98 662.18 C 335.86 665.46 333.72 669.67 332.87 674.11 C 332.34 680.49 334.87 687.97 330.37 693.42 C 326.38 690.83 322.31 688.35 317.88 686.58 C 319.51 682.72 318.56 678.31 320.66 674.58 C 321.34 671.88 324.37 671.53 326.52 670.59 Z" />
<path fill="#ffffff" opacity="1.00" d=" M 467.02 662.17 C 467.78 662.01 469.28 661.69 470.03 661.53 C 472.99 666.77 478.07 670.48 483.74 672.30 C 487.59 676.06 486.29 681.95 488.12 686.58 C 483.69 688.35 479.61 690.83 475.63 693.42 C 470.60 687.20 474.42 678.69 472.52 671.60 C 471.36 668.11 469.59 664.82 467.02 662.17 Z" />
<path fill="#ffffff" opacity="1.00" d=" M 472.95 696.09 C 474.41 696.11 474.65 696.66 473.68 697.75 C 473.50 697.33 473.13 696.51 472.95 696.09 Z" />
<path fill="#ffffff" opacity="1.00" d=" M 303.97 703.28 C 306.33 700.74 309.71 699.86 312.88 698.80 C 316.65 700.29 320.66 703.30 320.06 707.87 C 320.48 709.76 318.78 711.45 316.89 711.04 C 311.97 711.55 307.41 709.02 303.98 705.70 C 303.98 705.10 303.98 703.89 303.97 703.28 Z" />
<path fill="#ffffff" opacity="1.00" d=" M 487.21 703.15 C 488.25 700.68 491.06 700.14 493.12 698.80 C 496.28 699.86 499.67 700.74 502.03 703.29 C 502.02 703.89 502.02 705.10 502.01 705.70 C 498.20 709.56 492.79 711.90 487.33 710.91 C 485.04 709.15 485.62 705.25 487.21 703.15 Z" />
<path fill="#ffffff" opacity="1.00" d=" M 303.11 721.01 C 305.69 722.51 308.55 723.36 311.32 724.42 C 310.14 728.44 308.71 732.38 307.12 736.25 C 306.46 741.09 307.11 746.05 309.63 750.29 C 312.31 754.84 314.11 759.92 314.11 765.25 C 309.60 763.27 304.72 762.75 299.92 761.99 C 296.20 761.49 292.72 763.20 289.02 763.13 C 289.21 760.05 288.25 756.67 289.97 753.89 C 291.43 750.96 295.17 750.59 297.27 748.29 C 299.39 746.54 300.64 744.06 301.70 741.58 C 302.93 734.82 300.57 727.58 303.11 721.01 Z" />
<path fill="#ffffff" opacity="1.00" d=" M 494.68 724.42 C 497.45 723.36 500.31 722.51 502.89 721.01 C 505.43 727.58 503.07 734.82 504.30 741.58 C 505.83 746.06 509.34 749.55 513.63 751.46 C 517.87 753.75 517.03 759.10 516.98 763.13 C 512.17 762.92 507.37 760.91 502.58 762.58 C 498.90 762.96 495.33 763.82 491.90 765.25 C 491.86 760.18 493.48 755.29 496.03 750.96 C 498.78 746.33 499.89 740.72 498.60 735.48 C 497.04 731.88 495.81 728.16 494.68 724.42 Z" />
<path fill="#ffffff" opacity="1.00" d=" M 273.48 787.20 C 278.34 781.27 285.50 777.19 293.07 776.05 C 298.52 776.15 304.33 775.06 309.38 777.69 C 312.73 778.82 315.11 781.46 317.41 783.99 C 307.94 784.39 298.30 783.08 288.96 784.96 C 283.71 784.84 278.65 786.50 273.48 787.20 Z" />
<path fill="#ffffff" opacity="1.00" d=" M 488.59 783.99 C 491.88 779.74 496.72 776.83 502.04 776.03 C 507.83 776.00 513.85 775.37 519.33 777.68 C 524.34 779.87 529.12 782.84 532.52 787.20 C 528.62 786.55 524.74 785.76 520.85 785.09 C 517.80 785.10 514.80 784.84 511.87 784.06 C 504.11 783.88 496.34 784.07 488.59 783.99 Z" />
</g>
</svg>
