<?xml version="1.0" encoding="UTF-8" ?>
<!DOCTYPE svg PUBLIC "-//W3C//DTD SVG 1.1//EN" "http://www.w3.org/Graphics/SVG/1.1/DTD/svg11.dtd">
<svg width="600pt" height="600pt" viewBox="0 0 600 600" version="1.1" xmlns="http://www.w3.org/2000/svg">
<g id="#ffffffff">
<path fill="#ffffff" opacity="1.00" d=" M 0.00 0.00 L 0.19 0.00 C 0.14 0.05 0.05 0.16 0.00 0.21 L 0.00 0.00 Z" />
<path fill="#ffffff" opacity="1.00" d=" M 267.01 196.01 C 277.68 195.97 288.34 196.01 299.01 196.01 C 300.69 196.05 302.34 195.70 304.00 195.39 C 308.28 196.61 312.85 195.28 317.07 196.78 C 320.30 197.31 323.59 196.79 326.83 197.06 C 331.30 197.90 335.78 198.76 340.31 199.23 C 343.47 200.68 346.53 202.32 349.76 203.59 C 353.44 206.38 357.70 208.19 361.69 210.46 C 365.08 213.39 369.46 215.01 372.37 218.57 C 376.91 222.29 381.41 226.25 384.81 231.10 C 396.36 243.80 404.80 259.03 411.10 274.92 C 413.03 282.52 413.43 290.41 414.94 298.09 C 416.10 304.89 417.95 311.62 418.06 318.56 C 419.13 325.43 421.28 332.11 421.88 339.06 C 421.88 344.45 423.79 349.60 424.01 354.99 C 425.26 365.95 426.36 376.95 426.29 388.00 C 427.24 398.66 426.86 409.31 426.58 419.99 C 427.22 429.64 425.69 439.24 425.97 448.87 C 424.94 455.54 425.20 462.30 424.23 468.97 C 423.84 479.21 421.63 489.54 416.57 498.52 C 413.25 502.28 410.98 506.84 407.42 510.41 C 404.83 513.61 401.61 516.18 398.68 519.06 C 400.39 520.57 402.26 521.87 404.21 523.07 C 402.53 529.79 399.52 536.58 393.60 540.61 C 391.83 541.68 389.41 543.56 387.45 541.89 C 381.73 537.05 378.15 530.29 373.22 524.73 C 372.35 523.72 372.01 522.43 371.62 521.21 C 374.35 520.06 377.60 519.45 379.47 516.94 C 379.35 516.55 379.12 515.79 379.00 515.40 C 375.29 512.95 370.93 511.55 366.66 510.38 C 351.23 508.19 335.58 507.95 320.01 508.06 C 307.71 509.35 295.34 509.05 283.00 509.01 C 273.32 509.20 263.68 507.87 254.00 508.21 C 242.93 508.45 231.79 508.27 220.81 509.93 C 215.69 510.24 210.92 512.36 206.33 514.48 C 205.25 514.88 203.70 516.58 205.09 517.56 C 206.96 519.59 209.82 520.11 212.27 521.15 C 211.65 522.50 211.19 523.97 210.26 525.17 C 206.09 530.38 202.56 536.13 197.79 540.85 C 196.70 541.82 195.22 543.25 193.67 542.34 C 185.83 539.12 181.57 530.92 179.79 523.04 C 182.69 522.96 187.81 524.09 188.38 520.05 C 186.19 516.30 181.71 515.13 178.45 512.57 C 174.36 509.32 170.80 505.42 167.69 501.24 C 164.66 497.24 164.08 492.14 162.46 487.54 C 159.56 479.59 160.40 471.01 159.07 462.78 C 159.20 455.81 157.49 448.97 158.07 442.00 C 156.72 429.08 157.86 416.09 156.93 403.15 C 157.45 394.15 157.84 385.15 157.98 376.13 C 159.11 362.59 160.36 349.04 162.60 335.63 C 165.84 322.42 166.78 308.83 169.53 295.50 C 170.58 288.87 171.26 282.17 172.64 275.59 C 175.39 269.75 178.85 264.22 180.97 258.08 C 184.88 250.52 189.19 243.08 194.63 236.49 C 199.68 230.35 204.53 223.90 211.02 219.16 C 214.17 215.21 218.92 213.34 222.73 210.20 C 232.07 205.56 240.79 198.61 251.61 198.01 C 256.83 198.31 261.86 196.55 267.01 196.01 M 276.39 274.64 C 259.13 277.33 243.03 285.50 229.99 297.02 C 221.81 303.11 215.20 311.04 209.40 319.36 C 201.22 330.30 196.05 343.38 193.95 356.84 C 192.20 364.78 193.31 372.97 192.98 381.04 C 193.86 397.35 199.32 413.07 206.47 427.66 C 212.89 439.93 220.67 451.68 230.75 461.25 C 244.83 475.89 263.55 486.67 283.89 489.08 C 290.34 491.39 297.10 489.52 303.63 488.73 C 310.46 488.99 316.80 486.10 323.21 484.19 C 333.05 481.17 341.75 475.20 349.23 468.25 C 371.60 447.64 382.99 417.14 384.39 387.19 C 385.63 380.47 384.35 373.72 383.90 367.00 C 380.18 334.77 362.99 303.40 335.20 285.88 C 327.00 281.42 318.37 277.75 309.41 275.13 C 298.56 272.96 287.24 271.72 276.39 274.64 Z" />
<path fill="#ffffff" opacity="1.00" d=" M 280.42 283.29 C 286.88 282.93 293.54 282.40 299.90 283.86 C 311.54 284.76 323.07 288.49 332.62 295.30 C 347.90 305.15 359.12 320.37 366.11 337.00 C 372.89 352.70 375.91 369.97 375.01 387.04 C 373.67 402.12 370.51 417.20 364.05 430.96 C 356.58 448.16 343.95 463.09 328.14 473.19 C 325.57 474.85 322.62 475.76 319.63 476.28 C 310.49 478.32 301.20 479.60 291.97 481.21 C 288.51 481.81 284.88 481.68 281.58 480.42 C 273.05 477.27 264.13 474.74 256.58 469.50 C 238.64 459.14 224.97 442.58 215.70 424.25 C 208.79 412.20 205.00 398.56 203.08 384.88 C 203.27 380.58 201.99 376.41 202.01 372.13 C 203.02 365.41 202.89 358.56 204.85 351.99 C 208.30 337.69 215.91 324.58 225.57 313.58 C 230.14 309.13 234.05 303.95 239.42 300.37 C 251.28 291.22 265.51 285.08 280.42 283.29 Z" />
<path fill="#ffffff" opacity="1.00" d=" M 439.86 398.11 C 443.25 397.49 446.81 394.95 450.24 396.70 C 453.43 397.78 454.90 401.02 456.33 403.80 C 460.83 414.81 462.02 427.79 456.86 438.81 C 454.54 443.57 451.72 449.00 446.19 450.50 C 443.11 452.21 440.22 449.48 438.02 447.62 C 437.76 440.11 439.28 432.59 439.34 425.06 C 440.64 416.14 439.74 407.09 439.86 398.11 Z" />
</g>
<g id="#000000fe">
<path fill="#000000" opacity="1.00" d=" M 271.85 181.88 C 280.51 180.56 289.29 180.61 298.02 180.87 C 307.22 182.07 316.59 182.13 325.59 184.58 C 331.89 185.76 337.90 187.97 343.90 190.17 C 353.45 193.03 363.41 195.52 371.62 201.43 C 377.94 206.00 384.44 210.47 389.70 216.30 C 401.20 228.42 411.81 242.21 416.27 258.57 C 417.69 264.80 420.34 270.63 422.21 276.72 C 431.97 305.85 436.15 336.48 438.65 367.00 C 439.14 372.65 439.01 378.37 440.06 383.97 C 445.68 381.60 452.39 380.95 457.78 384.26 C 463.16 387.70 468.06 392.34 470.65 398.27 C 476.75 412.04 477.74 428.22 472.28 442.36 C 469.50 449.01 465.84 455.53 460.14 460.11 C 456.08 463.82 450.47 465.91 444.95 465.18 C 441.96 464.68 439.14 463.52 436.22 462.72 C 434.99 473.47 433.89 484.26 431.67 494.86 C 430.29 501.69 430.30 508.94 427.12 515.29 C 424.96 519.59 420.63 522.08 417.59 525.66 C 415.66 530.23 414.87 535.24 412.56 539.68 C 409.80 545.53 404.72 549.82 399.58 553.54 C 395.25 556.58 389.54 558.51 384.37 556.57 C 379.61 555.19 376.70 550.94 373.61 547.40 C 370.15 543.44 367.20 539.09 364.54 534.56 C 361.99 530.11 358.21 526.53 355.64 522.09 C 348.77 521.26 341.88 522.17 335.00 522.01 C 320.63 522.31 306.33 520.43 292.00 519.70 C 282.65 520.11 273.35 521.25 263.99 521.62 C 252.13 522.82 240.21 521.14 228.36 522.09 C 225.79 526.53 222.01 530.10 219.46 534.56 C 215.42 541.55 210.38 547.96 204.69 553.69 C 199.70 558.33 191.82 558.29 186.25 554.70 C 179.91 550.62 173.79 545.44 170.81 538.33 C 168.92 534.25 168.16 529.77 166.41 525.66 C 163.37 522.08 159.03 519.59 156.88 515.28 C 153.94 509.48 153.78 502.85 152.62 496.57 C 147.65 471.54 146.41 445.99 144.60 420.60 C 143.57 409.43 144.13 398.21 143.98 387.01 C 145.06 370.36 146.25 353.70 148.44 337.16 C 150.35 327.80 150.87 318.23 153.12 308.93 C 156.17 293.64 160.85 278.73 166.18 264.09 C 168.67 253.98 172.53 244.08 178.60 235.56 C 188.97 220.23 202.34 206.70 218.61 197.67 C 224.11 194.79 230.26 193.48 235.93 190.99 C 246.96 185.16 259.50 182.78 271.85 181.88 M 267.01 196.01 C 261.86 196.55 256.83 198.31 251.61 198.01 C 240.79 198.61 232.07 205.56 222.73 210.20 C 218.92 213.34 214.17 215.21 211.02 219.16 C 204.53 223.90 199.68 230.35 194.63 236.49 C 189.19 243.08 184.88 250.52 180.97 258.08 C 178.85 264.22 175.39 269.75 172.64 275.59 C 171.26 282.17 170.58 288.87 169.53 295.50 C 166.78 308.83 165.84 322.42 162.60 335.63 C 160.36 349.04 159.11 362.59 157.98 376.13 C 157.84 385.15 157.45 394.15 156.93 403.15 C 157.86 416.09 156.72 429.08 158.07 442.00 C 157.49 448.97 159.20 455.81 159.07 462.78 C 160.40 471.01 159.56 479.59 162.46 487.54 C 164.08 492.14 164.66 497.24 167.69 501.24 C 170.80 505.42 174.36 509.32 178.45 512.57 C 181.71 515.13 186.19 516.30 188.38 520.05 C 187.81 524.09 182.69 522.96 179.79 523.04 C 181.57 530.92 185.83 539.12 193.67 542.34 C 195.22 543.25 196.70 541.82 197.79 540.85 C 202.56 536.13 206.09 530.38 210.26 525.17 C 211.19 523.97 211.65 522.50 212.27 521.15 C 209.82 520.11 206.96 519.59 205.09 517.56 C 203.70 516.58 205.25 514.88 206.33 514.48 C 210.92 512.36 215.69 510.24 220.81 509.93 C 231.79 508.27 242.93 508.45 254.00 508.21 C 263.68 507.87 273.32 509.20 283.00 509.01 C 295.34 509.05 307.71 509.35 320.01 508.06 C 335.58 507.95 351.23 508.19 366.66 510.38 C 370.93 511.55 375.29 512.95 379.00 515.40 C 379.12 515.79 379.35 516.55 379.47 516.94 C 377.60 519.45 374.35 520.06 371.62 521.21 C 372.01 522.43 372.35 523.72 373.22 524.73 C 378.15 530.29 381.73 537.05 387.45 541.89 C 389.41 543.56 391.83 541.68 393.60 540.61 C 399.52 536.58 402.53 529.79 404.21 523.07 C 402.26 521.87 400.39 520.57 398.68 519.06 C 401.61 516.18 404.83 513.61 407.42 510.41 C 410.98 506.84 413.25 502.28 416.57 498.52 C 421.63 489.54 423.84 479.21 424.23 468.97 C 425.20 462.30 424.94 455.54 425.97 448.87 C 425.69 439.24 427.22 429.64 426.58 419.99 C 426.86 409.31 427.24 398.66 426.29 388.00 C 426.36 376.95 425.26 365.95 424.01 354.99 C 423.79 349.60 421.88 344.45 421.88 339.06 C 421.28 332.11 419.13 325.43 418.06 318.56 C 417.95 311.62 416.10 304.89 414.94 298.09 C 413.43 290.41 413.03 282.52 411.10 274.92 C 404.80 259.03 396.36 243.80 384.81 231.10 C 381.41 226.25 376.91 222.29 372.37 218.57 C 369.46 215.01 365.08 213.39 361.69 210.46 C 357.70 208.19 353.44 206.38 349.76 203.59 C 346.53 202.32 343.47 200.68 340.31 199.23 C 335.78 198.76 331.30 197.90 326.83 197.06 C 323.59 196.79 320.30 197.31 317.07 196.78 C 312.85 195.28 308.28 196.61 304.00 195.39 C 302.34 195.70 300.69 196.05 299.01 196.01 C 288.34 196.01 277.68 195.97 267.01 196.01 M 439.86 398.11 C 439.74 407.09 440.64 416.14 439.34 425.06 C 439.28 432.59 437.76 440.11 438.02 447.62 C 440.22 449.48 443.11 452.21 446.19 450.50 C 451.72 449.00 454.54 443.57 456.86 438.81 C 462.02 427.79 460.83 414.81 456.33 403.80 C 454.90 401.02 453.43 397.78 450.24 396.70 C 446.81 394.95 443.25 397.49 439.86 398.11 Z" />
<path fill="#000000" opacity="1.00" d=" M 276.39 274.64 C 287.24 271.72 298.56 272.96 309.41 275.13 C 318.37 277.75 327.00 281.42 335.20 285.88 C 362.99 303.40 380.18 334.77 383.90 367.00 C 384.35 373.72 385.63 380.47 384.39 387.19 C 382.99 417.14 371.60 447.64 349.23 468.25 C 341.75 475.20 333.05 481.17 323.21 484.19 C 316.80 486.10 310.46 488.99 303.63 488.73 C 297.10 489.52 290.34 491.39 283.89 489.08 C 263.55 486.67 244.83 475.89 230.75 461.25 C 220.67 451.68 212.89 439.93 206.47 427.66 C 199.32 413.07 193.86 397.35 192.98 381.04 C 193.31 372.97 192.20 364.78 193.95 356.84 C 196.05 343.38 201.22 330.30 209.40 319.36 C 215.20 311.04 221.81 303.11 229.99 297.02 C 243.03 285.50 259.13 277.33 276.39 274.64 M 280.42 283.29 C 265.51 285.08 251.28 291.22 239.42 300.37 C 234.05 303.95 230.14 309.13 225.57 313.58 C 215.91 324.58 208.30 337.69 204.85 351.99 C 202.89 358.56 203.02 365.41 202.01 372.13 C 201.99 376.41 203.27 380.58 203.08 384.88 C 205.00 398.56 208.79 412.20 215.70 424.25 C 224.97 442.58 238.64 459.14 256.58 469.50 C 264.13 474.74 273.05 477.27 281.58 480.42 C 284.88 481.68 288.51 481.81 291.97 481.21 C 301.20 479.60 310.49 478.32 319.63 476.28 C 322.62 475.76 325.57 474.85 328.14 473.19 C 343.95 463.09 356.58 448.16 364.05 430.96 C 370.51 417.20 373.67 402.12 375.01 387.04 C 375.91 369.97 372.89 352.70 366.11 337.00 C 359.12 320.37 347.90 305.15 332.62 295.30 C 323.07 288.49 311.54 284.76 299.90 283.86 C 293.54 282.40 286.88 282.93 280.42 283.29 Z" />
</g>
</svg>
