<?xml version="1.0" encoding="UTF-8" ?>
<!DOCTYPE svg PUBLIC "-//W3C//DTD SVG 1.1//EN" "http://www.w3.org/Graphics/SVG/1.1/DTD/svg11.dtd">
<svg width="1900pt" height="378pt" viewBox="0 0 1900 378" version="1.1" xmlns="http://www.w3.org/2000/svg">
<g id="#ffffffff">
<path fill="#ffffff" opacity="1.00" d=" M 0.00 0.00 L 1900.00 0.00 L 1900.00 378.00 L 0.00 378.00 L 0.00 0.00 M 1355.39 2.29 C 1352.36 3.29 1352.19 8.84 1355.48 9.68 C 1357.66 10.96 1361.62 11.00 1362.20 7.88 C 1362.45 5.70 1362.15 2.79 1359.81 1.87 C 1358.32 1.60 1356.75 1.68 1355.39 2.29 M 1631.38 6.29 C 1628.70 8.09 1628.39 11.66 1627.76 14.55 C 1621.86 17.12 1616.07 24.15 1619.18 30.77 C 1620.06 33.31 1623.11 32.51 1625.18 32.64 C 1624.70 29.44 1625.75 26.48 1627.43 23.81 C 1628.47 29.36 1627.65 36.48 1633.06 39.97 C 1636.64 34.82 1635.72 28.54 1636.47 22.67 C 1638.62 26.48 1639.02 31.08 1641.94 34.47 C 1648.59 28.57 1644.39 16.65 1636.05 14.88 C 1635.85 12.36 1636.56 9.38 1634.62 7.36 C 1633.81 6.57 1632.49 5.39 1631.38 6.29 M 246.46 7.40 C 241.42 10.19 241.02 16.83 241.95 21.88 C 244.42 31.21 257.42 34.73 264.68 28.75 C 269.18 26.25 269.20 19.98 267.13 15.86 C 263.34 8.71 254.22 4.53 246.46 7.40 M 1369.35 7.46 C 1365.99 7.73 1363.86 10.46 1361.30 12.27 C 1359.35 13.77 1356.91 14.54 1355.15 16.27 C 1353.93 17.73 1354.35 19.58 1354.93 21.21 C 1361.92 23.07 1370.05 19.48 1373.04 12.84 C 1374.43 10.25 1372.38 6.69 1369.35 7.46 M 1417.40 8.19 C 1414.82 10.61 1414.97 14.66 1416.83 17.46 C 1418.85 17.50 1421.77 17.92 1422.67 15.52 C 1424.10 12.97 1422.34 10.30 1421.57 7.86 C 1420.16 7.84 1418.73 7.71 1417.40 8.19 M 1373.44 15.55 C 1370.80 22.32 1362.98 24.28 1356.66 25.99 C 1357.13 27.23 1357.31 28.77 1358.66 29.42 C 1362.69 32.07 1367.29 34.40 1372.22 34.50 C 1373.37 32.29 1373.58 29.75 1373.92 27.31 C 1377.13 27.33 1380.33 27.57 1383.35 28.81 C 1384.93 24.21 1382.23 19.88 1381.52 15.41 C 1380.82 13.46 1380.67 10.14 1378.01 10.04 C 1375.24 10.43 1374.55 13.47 1373.44 15.55 M 456.18 14.20 C 453.98 14.88 452.46 16.85 451.97 19.03 C 452.09 21.52 454.11 23.20 456.02 24.48 C 461.70 24.24 461.70 14.59 456.18 14.20 M 1428.41 15.31 C 1425.81 17.00 1424.00 19.70 1421.67 21.73 C 1419.14 24.01 1419.88 28.20 1422.95 29.61 C 1427.29 28.19 1430.46 24.64 1433.32 21.25 C 1435.12 18.00 1432.14 13.53 1428.41 15.31 M 1435.30 23.29 C 1432.15 28.09 1427.32 31.56 1421.76 32.95 C 1422.48 35.59 1422.97 38.96 1425.84 40.15 C 1428.57 41.99 1431.95 41.53 1435.06 41.31 C 1438.45 39.94 1437.79 35.65 1438.62 32.75 C 1441.19 32.41 1443.77 32.58 1446.38 32.51 C 1445.81 26.80 1447.31 17.89 1440.06 16.00 C 1437.35 17.57 1436.88 20.86 1435.30 23.29 M 443.20 19.52 C 438.96 19.98 437.27 27.04 441.39 28.76 C 443.12 30.41 444.90 28.32 446.41 27.38 C 447.98 24.67 446.95 19.41 443.20 19.52 M 467.04 21.08 C 465.50 23.48 466.99 26.23 467.75 28.62 C 470.15 28.49 473.44 29.50 474.76 26.78 C 476.64 24.43 476.24 19.75 472.72 19.36 C 470.75 19.24 468.26 19.22 467.04 21.08 M 236.34 22.84 C 232.78 25.66 233.73 30.92 236.93 33.60 C 238.63 33.80 241.31 33.94 241.69 31.70 C 242.17 29.28 242.67 26.22 240.47 24.48 C 239.55 23.46 237.61 21.27 236.34 22.84 M 455.37 28.21 C 451.12 28.95 446.70 30.42 443.97 33.97 C 441.59 36.58 441.61 40.46 442.34 43.71 C 444.62 48.42 450.01 50.84 454.99 51.39 C 460.73 50.65 467.82 49.37 470.56 43.54 C 473.54 34.81 463.82 26.17 455.37 28.21 M 246.52 32.45 C 242.83 33.81 243.79 38.29 245.92 40.61 C 248.11 40.67 250.98 41.07 252.31 38.89 C 253.42 35.53 250.26 31.09 246.52 32.45 M 259.08 34.38 C 258.28 37.38 258.41 41.48 262.00 42.49 C 264.63 42.12 268.33 40.54 267.89 37.30 C 267.77 35.12 265.67 33.84 263.92 32.97 C 262.25 33.25 260.68 33.89 259.08 34.38 M 1660.68 60.64 C 1655.98 63.41 1652.29 69.20 1654.01 74.75 C 1654.49 76.71 1656.75 77.10 1658.22 78.12 C 1659.40 75.58 1660.43 72.97 1661.71 70.47 C 1661.93 74.05 1661.40 77.77 1662.61 81.24 C 1663.86 83.73 1667.17 84.22 1668.93 81.94 C 1671.39 77.75 1670.89 72.62 1671.35 67.94 C 1672.59 71.59 1674.18 75.11 1675.81 78.60 C 1677.37 78.31 1680.00 78.62 1680.46 76.57 C 1682.84 68.85 1677.40 60.68 1670.17 58.06 C 1670.01 55.35 1669.48 52.15 1666.90 50.69 C 1661.44 51.08 1664.73 58.73 1660.68 60.64 M 1409.45 56.36 C 1408.12 56.81 1406.77 57.55 1406.74 59.12 C 1405.73 62.96 1410.24 66.62 1413.88 65.28 C 1418.18 62.56 1414.16 54.47 1409.45 56.36 M 396.27 58.05 C 395.75 60.06 394.69 62.18 395.53 64.25 C 396.50 65.35 397.86 65.97 399.07 66.78 C 400.78 65.00 404.01 62.73 402.22 59.93 C 401.46 57.22 398.38 57.88 396.27 58.05 M 410.26 59.08 C 407.14 60.42 407.31 65.62 410.48 66.75 C 412.20 68.37 413.98 66.28 415.64 65.60 C 416.12 63.27 415.48 61.02 414.63 58.87 C 413.17 58.86 411.69 58.79 410.26 59.08 M 280.28 60.26 C 276.07 61.03 273.12 64.39 270.40 67.42 C 267.30 72.10 268.59 79.75 274.10 82.05 C 279.46 84.21 285.67 85.40 291.25 83.31 C 294.73 82.37 298.54 79.95 298.87 76.02 C 299.06 72.61 299.73 68.60 297.13 65.89 C 293.36 60.71 286.31 59.19 280.28 60.26 M 1421.38 62.34 C 1417.62 65.96 1413.97 69.69 1410.67 73.72 C 1409.54 74.99 1410.57 76.82 1410.51 78.30 C 1415.84 79.29 1420.71 75.92 1424.04 72.06 C 1426.14 69.59 1429.06 66.78 1428.13 63.20 C 1427.06 60.38 1423.27 60.48 1421.38 62.34 M 1431.21 68.29 C 1428.26 75.12 1420.50 77.22 1414.45 80.34 C 1412.57 81.27 1411.10 83.51 1412.60 85.45 C 1416.91 89.55 1423.30 90.37 1428.78 88.28 C 1428.97 86.22 1429.23 84.16 1429.54 82.10 C 1432.71 80.91 1436.15 81.40 1439.47 81.41 C 1439.96 78.72 1440.42 75.93 1439.67 73.24 C 1438.76 70.24 1439.50 65.96 1435.81 64.74 C 1433.22 63.26 1432.06 66.48 1431.21 68.29 M 418.46 68.27 C 415.91 70.62 416.70 77.41 420.96 76.59 C 423.17 76.40 425.52 74.38 425.32 71.98 C 425.63 68.55 421.13 66.41 418.46 68.27 M 395.39 70.51 C 390.64 71.49 386.60 75.83 387.38 80.88 C 387.96 86.54 393.01 89.98 397.57 92.49 C 401.18 94.95 405.78 94.98 409.96 94.46 C 415.63 92.81 418.14 85.40 415.77 80.26 C 412.71 72.35 403.44 68.18 395.39 70.51 M 1477.35 77.15 C 1470.71 78.78 1475.04 89.23 1480.90 87.34 C 1482.47 85.59 1484.91 83.14 1483.53 80.61 C 1482.54 78.39 1479.88 76.04 1477.35 77.15 M 1632.99 79.30 C 1632.08 82.02 1632.04 84.87 1631.74 87.68 C 1627.51 91.05 1623.34 95.40 1622.89 101.05 C 1622.64 104.10 1624.96 106.16 1627.07 107.92 C 1627.87 104.58 1629.31 101.42 1631.39 98.67 C 1632.88 103.26 1632.72 108.48 1636.03 112.32 C 1637.83 111.24 1640.05 110.32 1640.48 107.98 C 1641.19 103.77 1640.83 99.44 1640.74 95.19 C 1642.54 98.19 1644.19 101.29 1646.02 104.28 C 1647.45 104.45 1648.90 104.54 1650.38 104.54 C 1650.82 101.61 1651.59 98.45 1650.31 95.63 C 1648.39 91.43 1644.67 87.99 1640.08 87.03 C 1639.17 84.31 1638.66 81.27 1636.82 79.00 C 1635.52 79.03 1634.24 79.13 1632.99 79.30 M 298.33 81.08 C 295.60 82.46 295.30 86.02 296.52 88.53 C 297.74 89.61 299.44 89.93 300.96 90.45 C 302.15 89.65 303.30 88.78 304.34 87.79 C 305.98 84.17 302.41 78.84 298.33 81.08 M 1489.25 82.35 C 1485.44 83.03 1483.95 87.01 1481.15 89.19 C 1479.16 91.39 1475.66 94.20 1477.77 97.42 C 1481.29 97.88 1484.92 97.15 1487.40 94.43 C 1489.63 91.93 1493.38 89.86 1493.15 86.04 C 1493.38 84.00 1491.19 82.00 1489.25 82.35 M 268.01 86.24 C 266.34 89.41 269.30 91.77 272.02 92.70 C 273.24 91.95 274.50 91.27 275.67 90.43 C 276.81 87.70 274.36 85.64 272.78 83.80 C 271.01 84.09 268.31 83.86 268.01 86.24 M 286.27 85.28 C 283.04 85.56 280.82 90.29 283.02 92.91 C 284.53 95.23 288.32 95.04 289.96 92.95 C 292.64 90.31 289.93 84.88 286.27 85.28 M 1495.20 87.16 C 1494.11 89.90 1493.16 92.85 1490.82 94.81 C 1487.98 97.92 1483.90 99.29 1480.61 101.77 C 1479.34 102.52 1479.01 103.59 1479.60 104.97 C 1483.60 109.10 1489.26 111.99 1495.13 111.39 C 1497.26 109.14 1496.33 105.81 1496.68 103.03 C 1499.15 104.14 1501.62 105.29 1504.33 105.73 C 1506.74 100.72 1504.61 95.46 1503.46 90.44 C 1502.71 88.39 1502.02 85.88 1499.68 85.16 C 1498.02 84.84 1495.71 85.33 1495.20 87.16 M 769.46 106.78 C 760.57 107.64 752.11 110.66 743.44 112.59 C 729.12 115.59 716.08 122.46 702.34 127.21 C 694.76 129.48 686.47 131.99 678.68 129.22 C 672.70 127.12 667.26 123.62 662.57 119.38 C 659.50 116.93 656.30 113.50 652.00 114.04 C 647.88 113.98 644.60 118.01 644.68 121.98 C 644.52 129.85 648.95 137.11 654.11 142.72 C 656.11 146.61 659.59 149.40 662.97 152.03 C 671.22 158.72 681.59 162.22 691.96 163.85 C 705.04 164.61 718.04 161.92 730.67 158.75 C 734.83 157.77 739.00 156.27 743.34 156.62 C 742.04 162.57 741.68 168.71 739.45 174.43 C 734.20 194.07 723.46 211.55 716.59 230.57 C 711.26 242.72 707.08 255.41 704.40 268.42 C 700.95 282.40 700.49 297.20 703.97 311.22 C 705.56 317.45 708.42 323.24 710.77 329.21 C 713.47 334.63 715.80 340.45 719.98 344.94 C 724.75 354.58 738.51 360.50 747.94 353.93 C 755.85 348.48 756.28 336.88 751.92 329.05 C 749.02 319.93 744.74 311.33 741.76 302.24 C 741.81 287.20 744.86 272.29 750.33 258.30 C 754.52 248.52 758.13 238.50 762.85 228.95 C 769.61 212.70 776.13 195.95 777.61 178.26 C 778.49 172.09 778.74 165.40 775.66 159.76 C 775.16 156.31 773.98 152.98 772.71 149.75 C 779.71 148.16 786.94 148.34 794.04 149.15 C 804.11 149.92 814.12 151.55 823.89 154.13 C 834.85 157.12 844.99 162.49 854.56 168.50 C 860.64 172.76 867.52 176.31 874.98 177.21 C 881.29 178.02 888.25 174.93 891.10 169.08 C 893.86 164.14 893.62 157.95 891.14 152.95 C 890.01 149.62 888.50 146.40 886.41 143.57 C 880.68 135.32 871.45 130.81 863.06 125.82 C 854.42 121.56 845.81 116.98 836.45 114.50 C 814.86 107.83 792.01 105.02 769.46 106.78 M 355.82 126.03 C 356.94 126.55 358.06 127.09 359.17 127.63 C 360.72 126.60 363.21 126.18 363.37 123.93 C 364.00 121.23 362.38 117.21 359.06 117.72 C 354.86 117.84 355.54 123.14 355.82 126.03 M 1659.05 118.89 C 1657.55 121.44 1657.67 124.75 1656.15 127.12 C 1648.66 129.05 1642.45 137.64 1645.84 145.29 C 1646.75 147.38 1650.66 150.11 1651.71 146.71 C 1651.86 145.14 1651.69 143.55 1651.78 141.98 C 1652.78 139.84 1654.27 137.99 1655.62 136.05 C 1656.44 141.54 1655.25 147.39 1657.71 152.56 C 1659.45 152.18 1662.01 153.08 1662.93 151.00 C 1665.40 146.27 1665.66 140.73 1666.50 135.53 C 1667.81 139.19 1668.90 142.93 1669.27 146.82 C 1669.26 149.20 1673.01 150.47 1674.40 148.46 C 1677.11 146.59 1676.80 142.95 1677.07 140.05 C 1676.49 133.42 1671.64 127.68 1665.39 125.61 C 1664.94 123.38 1664.53 121.13 1663.60 119.04 C 1662.07 118.94 1660.54 118.89 1659.05 118.89 M 341.34 123.24 C 337.23 125.21 335.91 130.06 335.13 134.17 C 333.82 140.27 335.65 147.37 341.01 151.00 C 343.46 153.11 347.45 154.87 350.09 152.07 C 358.80 146.13 358.70 131.83 350.45 125.58 C 347.72 124.12 344.52 121.58 341.34 123.24 M 414.44 124.28 C 410.58 125.04 411.22 130.70 414.49 131.79 C 417.90 134.27 422.70 128.45 419.94 125.43 C 418.69 123.78 416.23 123.11 414.44 124.28 M 429.51 125.30 C 428.32 126.87 427.49 128.80 427.80 130.81 C 429.60 133.49 432.87 134.35 435.87 133.27 C 437.02 131.81 437.84 129.98 437.40 128.09 C 436.82 124.65 432.15 123.30 429.51 125.30 M 359.89 137.52 C 362.09 137.49 364.81 138.30 366.46 136.37 C 369.60 133.75 365.78 128.03 362.13 129.61 C 358.68 130.54 359.83 134.89 359.89 137.52 M 280.43 134.40 C 271.36 136.21 265.19 146.43 267.78 155.28 C 268.67 159.02 273.01 159.89 275.46 162.37 C 278.40 161.76 280.70 159.79 283.04 158.05 C 289.50 153.66 291.31 143.66 286.64 137.34 C 285.65 134.91 282.93 133.67 280.43 134.40 M 441.41 135.32 C 440.32 135.89 439.25 136.58 438.72 137.74 C 436.42 140.81 439.61 145.27 442.96 145.46 C 444.48 144.53 446.22 143.51 446.78 141.69 C 448.01 138.56 444.78 134.40 441.41 135.32 M 415.38 136.55 C 410.26 138.11 407.02 144.59 408.34 149.66 C 411.03 154.58 415.81 158.33 421.06 160.23 C 425.19 160.25 429.97 161.38 433.43 158.46 C 435.71 156.61 438.35 154.34 438.03 151.08 C 438.98 145.42 434.53 140.68 429.99 138.08 C 425.46 136.12 420.21 135.11 415.38 136.55 M 294.31 141.21 C 290.32 142.53 290.56 147.69 292.91 150.42 C 296.17 151.30 298.83 148.11 299.05 145.12 C 298.74 142.95 296.72 140.26 294.31 141.21 M 361.48 144.42 C 356.93 146.86 360.14 154.86 365.10 153.42 C 369.67 152.24 367.03 141.06 361.48 144.42 M 288.08 154.07 C 287.45 156.05 286.67 158.19 287.68 160.20 C 288.78 161.44 290.33 162.41 292.02 162.52 C 294.50 161.30 295.95 158.12 294.38 155.63 C 293.52 152.90 290.20 153.13 288.08 154.07 M 275.01 162.90 C 273.69 166.22 276.11 168.53 278.95 169.69 C 280.98 168.25 284.61 167.26 284.04 164.08 C 284.30 162.09 282.29 161.11 280.95 160.16 C 279.02 161.23 277.28 162.68 275.01 162.90 M 886.78 178.89 C 882.50 180.63 880.68 185.26 879.40 189.35 C 877.90 197.26 878.75 205.36 880.91 213.07 C 881.86 220.01 883.88 226.71 885.49 233.52 C 886.94 242.03 887.47 250.67 888.63 259.22 C 888.72 272.84 889.15 286.54 887.05 300.05 C 885.84 313.12 883.21 326.00 881.27 338.98 C 880.78 342.95 881.57 346.91 881.63 350.89 C 881.62 355.00 883.38 358.91 885.87 362.11 C 888.93 369.87 898.96 372.74 906.21 369.34 C 911.34 367.30 914.04 362.16 916.64 357.64 C 920.76 350.30 922.06 341.89 923.75 333.76 C 926.65 316.64 928.78 299.36 929.33 281.99 C 929.16 273.73 929.85 265.42 928.64 257.21 C 927.87 251.09 927.51 244.90 925.79 238.94 C 935.96 232.09 946.15 223.18 959.04 222.77 C 961.25 233.00 960.17 243.65 959.90 254.03 C 958.12 262.21 958.08 270.62 956.72 278.86 C 954.97 289.49 954.77 300.26 954.10 310.98 C 953.79 316.66 954.75 322.27 955.25 327.91 C 956.24 332.54 956.09 337.47 958.38 341.75 C 960.64 346.16 962.21 350.93 964.94 355.08 C 967.52 361.16 973.81 364.80 980.07 365.98 C 985.36 367.11 990.25 362.20 990.09 357.02 C 990.13 351.47 990.04 345.89 991.40 340.45 C 993.63 319.97 995.14 299.40 998.05 278.99 C 999.16 270.72 999.26 262.36 999.94 254.06 C 999.95 245.78 1000.63 237.37 998.79 229.22 C 998.72 228.22 998.10 226.84 999.14 226.12 C 1003.21 222.66 1007.94 219.99 1012.81 217.82 C 1015.76 216.46 1019.04 217.22 1022.09 217.78 C 1024.31 222.15 1025.06 227.12 1024.78 231.98 C 1025.17 243.51 1022.05 254.68 1019.86 265.89 C 1015.83 278.37 1013.75 291.47 1013.22 304.56 C 1012.99 308.06 1013.93 311.49 1013.97 314.99 C 1013.97 325.33 1019.24 334.75 1024.99 343.00 C 1028.00 349.38 1034.84 352.77 1041.33 354.57 C 1047.55 355.60 1055.36 356.21 1059.95 350.96 C 1063.89 346.49 1063.09 339.80 1060.36 334.93 C 1058.56 327.90 1053.98 322.08 1051.69 315.27 C 1051.38 305.20 1052.92 295.18 1055.33 285.42 C 1057.90 270.07 1062.89 254.82 1061.65 239.07 C 1061.05 233.25 1060.63 227.23 1058.09 221.87 C 1055.78 213.06 1051.40 204.62 1044.48 198.56 C 1037.84 192.68 1028.87 189.24 1019.96 189.93 C 1008.18 190.05 997.43 196.86 990.20 205.81 C 987.43 201.97 984.60 198.07 980.73 195.27 C 973.32 189.38 963.25 187.52 954.05 189.17 C 939.85 192.35 928.01 201.67 918.43 212.25 C 914.53 201.03 910.17 189.08 900.36 181.63 C 896.38 179.30 891.36 176.61 886.78 178.89 M 1100.86 183.89 C 1094.45 186.23 1089.11 190.62 1083.90 194.87 C 1080.67 197.45 1079.27 201.48 1077.83 205.20 C 1076.91 207.50 1078.98 209.50 1079.73 211.55 C 1080.82 213.22 1081.74 215.75 1084.16 215.64 C 1093.43 215.24 1101.79 210.34 1111.01 209.54 C 1115.30 209.49 1119.56 210.69 1123.36 212.67 C 1126.90 214.41 1129.75 217.29 1133.40 218.86 C 1136.47 223.14 1139.40 227.57 1141.59 232.38 C 1145.99 242.75 1145.75 254.26 1145.70 265.31 C 1140.83 259.19 1135.42 253.31 1128.31 249.78 C 1123.47 247.50 1118.52 244.72 1113.03 244.75 C 1107.87 244.74 1102.56 243.89 1097.55 245.49 C 1091.43 247.46 1085.13 249.84 1080.64 254.66 C 1072.79 263.06 1067.97 274.49 1068.29 286.04 C 1066.98 295.64 1064.53 305.45 1066.55 315.14 C 1067.46 319.95 1068.08 325.00 1070.77 329.22 C 1072.65 332.22 1074.60 335.24 1077.01 337.86 C 1078.77 341.61 1082.00 344.41 1085.54 346.46 C 1094.91 351.68 1106.07 353.78 1116.63 351.58 C 1127.09 349.28 1136.88 344.16 1144.76 336.92 C 1146.32 341.50 1148.13 346.10 1150.95 350.07 C 1153.39 355.06 1157.76 359.06 1162.89 361.17 C 1170.47 364.17 1181.54 361.39 1183.74 352.67 C 1184.73 347.21 1185.98 340.93 1182.78 335.94 L 1182.62 335.15 C 1182.83 332.77 1182.97 330.37 1182.87 327.98 C 1181.74 313.33 1184.23 298.75 1185.37 284.18 C 1186.82 270.85 1186.81 257.34 1184.98 244.05 C 1184.69 241.50 1183.98 239.00 1182.74 236.75 C 1182.53 234.55 1182.11 232.38 1181.49 230.27 C 1177.84 218.50 1172.76 206.88 1164.21 197.82 C 1153.33 186.99 1138.56 179.32 1122.94 179.61 C 1115.29 178.66 1107.92 181.31 1100.86 183.89 M 808.30 187.20 C 798.00 189.00 788.43 196.81 785.94 207.16 C 784.94 210.83 787.10 214.17 788.90 217.17 C 790.25 219.92 792.71 222.30 795.97 222.26 C 802.61 222.37 809.20 220.29 815.86 221.20 C 821.83 222.21 826.77 225.95 831.22 229.83 C 836.29 239.80 836.38 251.30 836.63 262.22 C 827.62 254.46 815.99 249.78 804.03 250.02 C 792.75 249.48 781.55 254.75 774.24 263.25 C 765.80 272.62 761.66 285.48 762.08 297.99 C 762.07 300.34 761.63 302.66 761.54 305.01 C 761.55 314.80 765.79 324.00 770.98 332.08 C 779.67 347.54 799.01 354.25 815.96 352.13 C 825.86 350.85 833.91 344.66 841.59 338.80 C 843.34 342.03 845.31 345.25 847.97 347.83 C 850.99 354.14 859.51 358.43 866.02 355.00 C 873.11 346.86 873.54 335.41 874.34 325.18 C 875.49 317.71 874.41 310.10 875.67 302.64 C 876.66 296.48 876.25 290.22 876.57 284.01 C 876.87 277.68 877.55 271.36 877.22 265.02 C 876.59 252.92 876.62 240.37 872.10 228.94 C 867.79 213.59 859.01 198.12 844.26 190.78 C 837.70 187.34 830.29 186.31 823.06 185.23 C 818.02 184.53 813.23 186.66 808.30 187.20 Z" />
<path fill="#ffffff" opacity="1.00" d=" M 1101.80 268.78 C 1110.70 265.90 1120.17 268.76 1128.17 272.93 C 1135.13 281.18 1136.53 292.61 1135.08 303.00 C 1134.41 313.15 1129.58 323.26 1121.26 329.31 C 1116.60 331.76 1111.31 333.50 1106.01 333.23 C 1099.15 332.32 1092.31 329.61 1087.45 324.56 C 1084.44 321.60 1082.49 317.78 1080.75 313.98 C 1080.37 301.54 1082.32 288.59 1088.78 277.75 C 1091.36 272.83 1096.85 270.58 1101.80 268.78 M 1098.33 274.10 C 1103.79 280.57 1105.66 290.99 1099.88 297.84 C 1095.72 303.18 1088.48 304.20 1082.21 302.92 C 1083.44 306.87 1085.05 310.85 1087.97 313.88 C 1091.06 320.71 1100.09 324.20 1106.90 320.86 C 1117.58 316.39 1122.02 302.22 1117.15 292.02 C 1116.26 289.27 1115.22 286.57 1113.90 284.00 C 1111.03 278.19 1104.81 274.26 1098.33 274.10 Z" />
<path fill="#ffffff" opacity="1.00" d=" M 790.02 277.09 C 799.29 269.71 812.72 268.76 823.30 273.78 C 826.70 275.53 829.45 278.27 832.12 280.96 C 836.77 291.29 836.66 303.69 831.99 314.01 C 829.02 322.52 822.03 329.50 813.39 332.18 C 808.00 334.33 802.13 332.88 796.86 331.15 C 789.87 328.58 783.24 323.73 780.35 316.67 C 779.16 313.78 777.86 310.93 776.83 307.98 C 776.52 303.71 776.78 299.34 778.30 295.30 C 780.81 288.50 784.16 281.63 790.02 277.09 M 815.38 277.87 C 818.97 285.41 817.22 295.33 810.07 300.10 C 806.01 303.44 800.53 303.80 795.54 303.06 C 796.65 306.95 798.14 310.88 800.94 313.89 C 803.13 319.05 808.82 321.48 814.01 322.33 C 820.69 323.26 827.67 319.56 830.60 313.48 C 833.56 307.49 834.74 299.87 831.35 293.81 C 828.99 286.33 823.40 279.43 815.38 277.87 Z" />
</g>
<g id="#000000ff">
<path fill="#000000" opacity="1.00" d=" M 1355.39 2.29 C 1356.75 1.68 1358.32 1.60 1359.81 1.87 C 1362.15 2.79 1362.45 5.70 1362.20 7.88 C 1361.62 11.00 1357.66 10.96 1355.48 9.68 C 1352.19 8.84 1352.36 3.29 1355.39 2.29 Z" />
<path fill="#000000" opacity="1.00" d=" M 1631.38 6.29 C 1632.49 5.39 1633.81 6.57 1634.62 7.36 C 1636.56 9.38 1635.85 12.36 1636.05 14.88 C 1644.39 16.65 1648.59 28.57 1641.94 34.47 C 1639.02 31.08 1638.62 26.48 1636.47 22.67 C 1635.72 28.54 1636.64 34.82 1633.06 39.97 C 1627.65 36.48 1628.47 29.36 1627.43 23.81 C 1625.75 26.48 1624.70 29.44 1625.18 32.64 C 1623.11 32.51 1620.06 33.31 1619.18 30.77 C 1616.07 24.15 1621.86 17.12 1627.76 14.55 C 1628.39 11.66 1628.70 8.09 1631.38 6.29 Z" />
<path fill="#000000" opacity="1.00" d=" M 246.46 7.40 C 254.22 4.53 263.34 8.71 267.13 15.86 C 269.20 19.98 269.18 26.25 264.68 28.75 C 257.42 34.73 244.42 31.21 241.95 21.88 C 241.02 16.83 241.42 10.19 246.46 7.40 Z" />
<path fill="#000000" opacity="1.00" d=" M 1369.35 7.46 C 1372.38 6.69 1374.43 10.25 1373.04 12.84 C 1370.05 19.48 1361.92 23.07 1354.93 21.21 C 1354.35 19.58 1353.93 17.73 1355.15 16.27 C 1356.91 14.54 1359.35 13.77 1361.30 12.27 C 1363.86 10.46 1365.99 7.73 1369.35 7.46 Z" />
<path fill="#000000" opacity="1.00" d=" M 1417.40 8.19 C 1418.73 7.71 1420.16 7.84 1421.57 7.86 C 1422.34 10.30 1424.10 12.97 1422.67 15.52 C 1421.77 17.92 1418.85 17.50 1416.83 17.46 C 1414.97 14.66 1414.82 10.61 1417.40 8.19 Z" />
<path fill="#000000" opacity="1.00" d=" M 1373.44 15.55 C 1374.55 13.47 1375.24 10.43 1378.01 10.04 C 1380.67 10.14 1380.82 13.46 1381.52 15.41 C 1382.23 19.88 1384.93 24.21 1383.35 28.81 C 1380.33 27.57 1377.13 27.33 1373.92 27.31 C 1373.58 29.75 1373.37 32.29 1372.22 34.50 C 1367.29 34.40 1362.69 32.07 1358.66 29.42 C 1357.31 28.77 1357.13 27.23 1356.66 25.99 C 1362.98 24.28 1370.80 22.32 1373.44 15.55 Z" />
<path fill="#000000" opacity="1.00" d=" M 456.18 14.20 C 461.70 14.59 461.70 24.24 456.02 24.48 C 454.11 23.20 452.09 21.52 451.97 19.03 C 452.46 16.85 453.98 14.88 456.18 14.20 Z" />
<path fill="#000000" opacity="1.00" d=" M 1428.41 15.31 C 1432.14 13.53 1435.12 18.00 1433.32 21.25 C 1430.46 24.64 1427.29 28.19 1422.95 29.61 C 1419.88 28.20 1419.14 24.01 1421.67 21.73 C 1424.00 19.70 1425.81 17.00 1428.41 15.31 Z" />
<path fill="#000000" opacity="1.00" d=" M 1435.30 23.29 C 1436.88 20.86 1437.35 17.57 1440.06 16.00 C 1447.31 17.89 1445.81 26.80 1446.38 32.51 C 1443.77 32.58 1441.19 32.41 1438.62 32.75 C 1437.79 35.65 1438.45 39.94 1435.06 41.31 C 1431.95 41.53 1428.57 41.99 1425.84 40.15 C 1422.97 38.96 1422.48 35.59 1421.76 32.95 C 1427.32 31.56 1432.15 28.09 1435.30 23.29 Z" />
<path fill="#000000" opacity="1.00" d=" M 443.20 19.52 C 446.95 19.41 447.98 24.67 446.41 27.38 C 444.90 28.32 443.12 30.41 441.39 28.76 C 437.27 27.04 438.96 19.98 443.20 19.52 Z" />
<path fill="#000000" opacity="1.00" d=" M 467.04 21.08 C 468.26 19.22 470.75 19.24 472.72 19.36 C 476.24 19.75 476.64 24.43 474.76 26.78 C 473.44 29.50 470.15 28.49 467.75 28.62 C 466.99 26.23 465.50 23.48 467.04 21.08 Z" />
<path fill="#000000" opacity="1.00" d=" M 236.34 22.84 C 237.61 21.27 239.55 23.46 240.47 24.48 C 242.67 26.22 242.17 29.28 241.69 31.70 C 241.31 33.94 238.63 33.80 236.93 33.60 C 233.73 30.92 232.78 25.66 236.34 22.84 Z" />
<path fill="#000000" opacity="1.00" d=" M 455.37 28.21 C 463.82 26.17 473.54 34.81 470.56 43.54 C 467.82 49.37 460.73 50.65 454.99 51.39 C 450.01 50.84 444.62 48.42 442.34 43.71 C 441.61 40.46 441.59 36.58 443.97 33.97 C 446.70 30.42 451.12 28.95 455.37 28.21 Z" />
<path fill="#000000" opacity="1.00" d=" M 246.52 32.45 C 250.26 31.09 253.42 35.53 252.31 38.89 C 250.98 41.07 248.11 40.67 245.92 40.61 C 243.79 38.29 242.83 33.81 246.52 32.45 Z" />
<path fill="#000000" opacity="1.00" d=" M 259.08 34.38 C 260.68 33.89 262.25 33.25 263.92 32.97 C 265.67 33.84 267.77 35.12 267.89 37.30 C 268.33 40.54 264.63 42.12 262.00 42.49 C 258.41 41.48 258.28 37.38 259.08 34.38 Z" />
<path fill="#000000" opacity="1.00" d=" M 1660.68 60.64 C 1664.73 58.73 1661.44 51.08 1666.90 50.69 C 1669.48 52.15 1670.01 55.35 1670.17 58.06 C 1677.40 60.68 1682.84 68.85 1680.46 76.57 C 1680.00 78.62 1677.37 78.31 1675.81 78.60 C 1674.18 75.11 1672.59 71.59 1671.35 67.94 C 1670.89 72.62 1671.39 77.75 1668.93 81.94 C 1667.17 84.22 1663.86 83.73 1662.61 81.24 C 1661.40 77.77 1661.93 74.05 1661.71 70.47 C 1660.43 72.97 1659.40 75.58 1658.22 78.12 C 1656.75 77.10 1654.49 76.71 1654.01 74.75 C 1652.29 69.20 1655.98 63.41 1660.68 60.64 Z" />
<path fill="#000000" opacity="1.00" d=" M 1409.45 56.36 C 1414.16 54.47 1418.18 62.56 1413.88 65.28 C 1410.24 66.62 1405.73 62.96 1406.74 59.12 C 1406.77 57.55 1408.12 56.81 1409.45 56.36 Z" />
<path fill="#000000" opacity="1.00" d=" M 396.27 58.05 C 398.38 57.88 401.46 57.22 402.22 59.93 C 404.01 62.73 400.78 65.00 399.07 66.78 C 397.86 65.97 396.50 65.35 395.53 64.25 C 394.69 62.18 395.75 60.06 396.27 58.05 Z" />
<path fill="#000000" opacity="1.00" d=" M 410.26 59.08 C 411.69 58.79 413.17 58.86 414.63 58.87 C 415.48 61.02 416.12 63.27 415.64 65.60 C 413.98 66.28 412.20 68.37 410.48 66.75 C 407.31 65.62 407.14 60.42 410.26 59.08 Z" />
<path fill="#000000" opacity="1.00" d=" M 280.28 60.26 C 286.31 59.19 293.36 60.71 297.13 65.89 C 299.73 68.60 299.06 72.61 298.87 76.02 C 298.54 79.95 294.73 82.37 291.25 83.31 C 285.67 85.40 279.46 84.21 274.10 82.05 C 268.59 79.75 267.30 72.10 270.40 67.42 C 273.12 64.39 276.07 61.03 280.28 60.26 Z" />
<path fill="#000000" opacity="1.00" d=" M 1421.38 62.34 C 1423.27 60.48 1427.06 60.38 1428.13 63.20 C 1429.06 66.78 1426.14 69.59 1424.04 72.06 C 1420.71 75.92 1415.84 79.29 1410.51 78.30 C 1410.57 76.82 1409.54 74.99 1410.67 73.72 C 1413.97 69.69 1417.62 65.96 1421.38 62.34 Z" />
<path fill="#000000" opacity="1.00" d=" M 1431.21 68.29 C 1432.06 66.48 1433.22 63.26 1435.81 64.74 C 1439.50 65.96 1438.76 70.24 1439.67 73.24 C 1440.42 75.93 1439.96 78.72 1439.47 81.41 C 1436.15 81.40 1432.71 80.91 1429.54 82.10 C 1429.23 84.16 1428.97 86.22 1428.78 88.28 C 1423.30 90.37 1416.91 89.55 1412.60 85.45 C 1411.10 83.51 1412.57 81.27 1414.45 80.34 C 1420.50 77.22 1428.26 75.12 1431.21 68.29 Z" />
<path fill="#000000" opacity="1.00" d=" M 418.46 68.27 C 421.13 66.41 425.63 68.55 425.32 71.98 C 425.52 74.38 423.17 76.40 420.96 76.59 C 416.70 77.41 415.91 70.62 418.46 68.27 Z" />
<path fill="#000000" opacity="1.00" d=" M 395.39 70.51 C 403.44 68.18 412.71 72.35 415.77 80.26 C 418.14 85.40 415.63 92.81 409.96 94.46 C 405.78 94.98 401.18 94.95 397.57 92.49 C 393.01 89.98 387.96 86.54 387.38 80.88 C 386.60 75.83 390.64 71.49 395.39 70.51 Z" />
<path fill="#000000" opacity="1.00" d=" M 1477.35 77.15 C 1479.88 76.04 1482.54 78.39 1483.53 80.61 C 1484.91 83.14 1482.47 85.59 1480.90 87.34 C 1475.04 89.23 1470.71 78.78 1477.35 77.15 Z" />
<path fill="#000000" opacity="1.00" d=" M 1632.99 79.30 C 1634.24 79.13 1635.52 79.03 1636.82 79.00 C 1638.66 81.27 1639.17 84.31 1640.08 87.03 C 1644.67 87.99 1648.39 91.43 1650.31 95.63 C 1651.59 98.45 1650.82 101.61 1650.38 104.54 C 1648.90 104.54 1647.45 104.45 1646.02 104.28 C 1644.19 101.29 1642.54 98.19 1640.74 95.19 C 1640.83 99.44 1641.19 103.77 1640.48 107.98 C 1640.05 110.32 1637.83 111.24 1636.03 112.32 C 1632.72 108.48 1632.88 103.26 1631.39 98.67 C 1629.31 101.42 1627.87 104.58 1627.07 107.92 C 1624.96 106.16 1622.64 104.10 1622.89 101.05 C 1623.34 95.40 1627.51 91.05 1631.74 87.68 C 1632.04 84.87 1632.08 82.02 1632.99 79.30 Z" />
<path fill="#000000" opacity="1.00" d=" M 298.33 81.08 C 302.41 78.84 305.98 84.17 304.34 87.79 C 303.30 88.78 302.15 89.65 300.96 90.45 C 299.44 89.93 297.74 89.61 296.52 88.53 C 295.30 86.02 295.60 82.46 298.33 81.08 Z" />
<path fill="#000000" opacity="1.00" d=" M 1489.25 82.35 C 1491.19 82.00 1493.38 84.00 1493.15 86.04 C 1493.38 89.86 1489.63 91.93 1487.40 94.43 C 1484.92 97.15 1481.29 97.88 1477.77 97.42 C 1475.66 94.20 1479.16 91.39 1481.15 89.19 C 1483.95 87.01 1485.44 83.03 1489.25 82.35 Z" />
<path fill="#000000" opacity="1.00" d=" M 268.01 86.24 C 268.31 83.86 271.01 84.09 272.78 83.80 C 274.36 85.64 276.81 87.70 275.67 90.43 C 274.50 91.27 273.24 91.95 272.02 92.70 C 269.30 91.77 266.34 89.41 268.01 86.24 Z" />
<path fill="#000000" opacity="1.00" d=" M 286.27 85.28 C 289.93 84.88 292.64 90.31 289.96 92.95 C 288.32 95.04 284.53 95.23 283.02 92.91 C 280.82 90.29 283.04 85.56 286.27 85.28 Z" />
<path fill="#000000" opacity="1.00" d=" M 1495.20 87.16 C 1495.71 85.33 1498.02 84.84 1499.68 85.16 C 1502.02 85.88 1502.71 88.39 1503.46 90.44 C 1504.61 95.46 1506.74 100.72 1504.33 105.73 C 1501.62 105.29 1499.15 104.14 1496.68 103.03 C 1496.33 105.81 1497.26 109.14 1495.13 111.39 C 1489.26 111.99 1483.60 109.10 1479.60 104.97 C 1479.01 103.59 1479.34 102.52 1480.61 101.77 C 1483.90 99.29 1487.98 97.92 1490.82 94.81 C 1493.16 92.85 1494.11 89.90 1495.20 87.16 Z" />
<path fill="#000000" opacity="1.00" d=" M 769.46 106.78 C 792.01 105.02 814.86 107.83 836.45 114.50 C 845.81 116.98 854.42 121.56 863.06 125.82 C 871.45 130.81 880.68 135.32 886.41 143.57 C 888.50 146.40 890.01 149.62 891.14 152.95 C 891.20 157.06 891.17 161.41 889.09 165.10 C 886.24 170.93 879.30 173.99 873.01 173.19 C 866.02 172.36 859.48 169.24 853.73 165.29 C 846.50 160.55 838.86 156.39 830.86 153.11 C 816.86 147.75 801.84 145.84 786.98 144.69 C 781.60 144.24 776.23 144.77 770.89 145.37 C 771.49 146.83 772.10 148.29 772.71 149.75 C 773.98 152.98 775.16 156.31 775.66 159.76 C 776.96 169.43 775.19 179.18 773.45 188.67 C 770.87 197.49 768.58 206.44 764.91 214.88 C 761.09 225.43 755.64 235.29 751.86 245.86 C 746.36 258.12 742.24 271.08 740.57 284.44 C 739.95 290.37 739.72 296.54 741.76 302.24 C 744.74 311.33 749.02 319.93 751.92 329.05 C 752.83 334.22 753.20 339.90 750.63 344.68 C 747.47 350.67 740.06 353.95 733.49 352.42 C 728.33 351.40 723.86 348.36 719.98 344.94 C 715.80 340.45 713.47 334.63 710.77 329.21 C 708.42 323.24 705.56 317.45 703.97 311.22 C 700.49 297.20 700.95 282.40 704.40 268.42 C 707.08 255.41 711.26 242.72 716.59 230.57 C 723.46 211.55 734.20 194.07 739.45 174.43 C 741.68 168.71 742.04 162.57 743.34 156.62 C 743.55 154.93 743.53 153.22 743.54 151.51 C 725.78 154.81 708.23 161.15 689.92 159.84 C 683.33 158.89 676.87 156.93 670.80 154.20 C 664.58 151.43 659.50 146.77 654.11 142.72 C 648.95 137.11 644.52 129.85 644.68 121.98 C 644.60 118.01 647.88 113.98 652.00 114.04 C 656.30 113.50 659.50 116.93 662.57 119.38 C 667.26 123.62 672.70 127.12 678.68 129.22 C 686.47 131.99 694.76 129.48 702.34 127.21 C 716.08 122.46 729.12 115.59 743.44 112.59 C 752.11 110.66 760.57 107.64 769.46 106.78 Z" />
<path fill="#000000" opacity="1.00" d=" M 355.82 126.03 C 355.54 123.14 354.86 117.84 359.06 117.72 C 362.38 117.21 364.00 121.23 363.37 123.93 C 363.21 126.18 360.72 126.60 359.17 127.63 C 358.06 127.09 356.94 126.55 355.82 126.03 Z" />
<path fill="#000000" opacity="1.00" d=" M 1659.05 118.89 C 1660.54 118.89 1662.07 118.94 1663.60 119.04 C 1664.53 121.13 1664.94 123.38 1665.39 125.61 C 1671.64 127.68 1676.49 133.42 1677.07 140.05 C 1676.80 142.95 1677.11 146.59 1674.40 148.46 C 1673.01 150.47 1669.26 149.20 1669.27 146.82 C 1668.90 142.93 1667.81 139.19 1666.50 135.53 C 1665.66 140.73 1665.40 146.27 1662.93 151.00 C 1662.01 153.08 1659.45 152.18 1657.71 152.56 C 1655.25 147.39 1656.44 141.54 1655.62 136.05 C 1654.27 137.99 1652.78 139.84 1651.78 141.98 C 1651.69 143.55 1651.86 145.14 1651.71 146.71 C 1650.66 150.11 1646.75 147.38 1645.84 145.29 C 1642.45 137.64 1648.66 129.05 1656.15 127.12 C 1657.67 124.75 1657.55 121.44 1659.05 118.89 Z" />
<path fill="#000000" opacity="1.00" d=" M 341.34 123.24 C 344.52 121.58 347.72 124.12 350.45 125.58 C 358.70 131.83 358.80 146.13 350.09 152.07 C 347.45 154.87 343.46 153.11 341.01 151.00 C 335.65 147.37 333.82 140.27 335.13 134.17 C 335.91 130.06 337.23 125.21 341.34 123.24 Z" />
<path fill="#000000" opacity="1.00" d=" M 414.44 124.28 C 416.23 123.11 418.69 123.78 419.94 125.43 C 422.70 128.45 417.90 134.27 414.49 131.79 C 411.22 130.70 410.58 125.04 414.44 124.28 Z" />
<path fill="#000000" opacity="1.00" d=" M 429.51 125.30 C 432.15 123.30 436.82 124.65 437.40 128.09 C 437.84 129.98 437.02 131.81 435.87 133.27 C 432.87 134.35 429.60 133.49 427.80 130.81 C 427.49 128.80 428.32 126.87 429.51 125.30 Z" />
<path fill="#000000" opacity="1.00" d=" M 359.89 137.52 C 359.83 134.89 358.68 130.54 362.13 129.61 C 365.78 128.03 369.60 133.75 366.46 136.37 C 364.81 138.30 362.09 137.49 359.89 137.52 Z" />
<path fill="#000000" opacity="1.00" d=" M 280.43 134.40 C 282.93 133.67 285.65 134.91 286.64 137.34 C 291.31 143.66 289.50 153.66 283.04 158.05 C 280.70 159.79 278.40 161.76 275.46 162.37 C 273.01 159.89 268.67 159.02 267.78 155.28 C 265.19 146.43 271.36 136.21 280.43 134.40 Z" />
<path fill="#000000" opacity="1.00" d=" M 441.41 135.32 C 444.78 134.40 448.01 138.56 446.78 141.69 C 446.22 143.51 444.48 144.53 442.96 145.46 C 439.61 145.27 436.42 140.81 438.72 137.74 C 439.25 136.58 440.32 135.89 441.41 135.32 Z" />
<path fill="#000000" opacity="1.00" d=" M 415.38 136.55 C 420.21 135.11 425.46 136.12 429.99 138.08 C 434.53 140.68 438.98 145.42 438.03 151.08 C 438.35 154.34 435.71 156.61 433.43 158.46 C 429.97 161.38 425.19 160.25 421.06 160.23 C 415.81 158.33 411.03 154.58 408.34 149.66 C 407.02 144.59 410.26 138.11 415.38 136.55 Z" />
<path fill="#000000" opacity="1.00" d=" M 294.31 141.21 C 296.72 140.26 298.74 142.95 299.05 145.12 C 298.83 148.11 296.17 151.30 292.91 150.42 C 290.56 147.69 290.32 142.53 294.31 141.21 Z" />
<path fill="#000000" opacity="1.00" d=" M 361.48 144.42 C 367.03 141.06 369.67 152.24 365.10 153.42 C 360.14 154.86 356.93 146.86 361.48 144.42 Z" />
<path fill="#000000" opacity="1.00" d=" M 288.08 154.07 C 290.20 153.13 293.52 152.90 294.38 155.63 C 295.95 158.12 294.50 161.30 292.02 162.52 C 290.33 162.41 288.78 161.44 287.68 160.20 C 286.67 158.19 287.45 156.05 288.08 154.07 Z" />
<path fill="#000000" opacity="1.00" d=" M 275.01 162.90 C 277.28 162.68 279.02 161.23 280.95 160.16 C 282.29 161.11 284.30 162.09 284.04 164.08 C 284.61 167.26 280.98 168.25 278.95 169.69 C 276.11 168.53 273.69 166.22 275.01 162.90 Z" />
<path fill="#000000" opacity="1.00" d=" M 886.78 178.89 C 891.36 176.61 896.38 179.30 900.36 181.63 C 910.17 189.08 914.53 201.03 918.43 212.25 C 928.01 201.67 939.85 192.35 954.05 189.17 C 963.25 187.52 973.32 189.38 980.73 195.27 C 984.60 198.07 987.43 201.97 990.20 205.81 C 997.43 196.86 1008.18 190.05 1019.96 189.93 C 1028.87 189.24 1037.84 192.68 1044.48 198.56 C 1051.40 204.62 1055.78 213.06 1058.09 221.87 C 1059.34 230.41 1060.46 239.09 1059.47 247.72 C 1057.55 264.09 1052.97 279.98 1050.46 296.26 C 1049.40 302.59 1049.35 309.19 1051.69 315.27 C 1053.98 322.08 1058.56 327.90 1060.36 334.93 C 1060.92 339.24 1060.82 344.28 1057.47 347.51 C 1054.02 351.13 1048.64 351.45 1043.96 351.16 C 1036.85 350.99 1030.43 347.30 1024.99 343.00 C 1019.24 334.75 1013.97 325.33 1013.97 314.99 C 1013.93 311.49 1012.99 308.06 1013.22 304.56 C 1013.75 291.47 1015.83 278.37 1019.86 265.89 C 1022.05 254.68 1025.17 243.51 1024.78 231.98 C 1025.06 227.12 1024.31 222.15 1022.09 217.78 C 1020.99 215.96 1019.71 214.05 1017.67 213.20 C 1013.83 212.26 1010.02 213.94 1006.72 215.75 C 1003.31 217.68 999.80 219.59 996.98 222.34 C 996.38 225.23 997.64 228.19 997.76 231.11 C 999.31 257.22 994.64 283.09 992.05 308.98 C 991.70 316.35 990.54 323.64 990.05 331.00 C 989.71 336.70 987.82 342.24 988.16 347.99 C 988.16 351.89 988.59 356.52 985.55 359.51 C 983.50 361.86 980.18 362.52 977.24 361.85 C 972.61 360.79 968.42 358.26 964.94 355.08 C 962.21 350.93 960.64 346.16 958.38 341.75 C 956.09 337.47 956.24 332.54 955.25 327.91 C 954.75 322.27 953.79 316.66 954.10 310.98 C 954.77 300.26 954.97 289.49 956.72 278.86 C 958.08 270.62 958.12 262.21 959.90 254.03 C 960.17 243.65 961.25 233.00 959.04 222.77 C 958.56 221.61 958.05 220.46 957.40 219.40 C 953.87 218.25 950.16 219.55 946.86 220.81 C 938.92 224.07 931.89 229.11 925.00 234.14 C 923.80 234.82 924.52 236.45 924.52 237.53 C 929.21 262.17 927.53 287.47 924.46 312.20 C 923.21 320.84 921.96 329.50 920.03 338.02 C 918.36 346.73 914.81 355.24 909.02 362.02 C 902.97 368.51 892.18 367.93 885.87 362.11 C 883.38 358.91 881.62 355.00 881.63 350.89 C 881.57 346.91 880.78 342.95 881.27 338.98 C 883.21 326.00 885.84 313.12 887.05 300.05 C 889.15 286.54 888.72 272.84 888.63 259.22 C 887.47 250.67 886.94 242.03 885.49 233.52 C 883.88 226.71 881.86 220.01 880.91 213.07 C 878.75 205.36 877.90 197.26 879.40 189.35 C 880.68 185.26 882.50 180.63 886.78 178.89 Z" />
<path fill="#000000" opacity="1.00" d=" M 1100.86 183.89 C 1107.92 181.31 1115.29 178.66 1122.94 179.61 C 1138.56 179.32 1153.33 186.99 1164.21 197.82 C 1172.76 206.88 1177.84 218.50 1181.49 230.27 C 1182.11 232.38 1182.53 234.55 1182.74 236.75 C 1184.56 251.08 1185.04 265.62 1183.37 279.99 C 1182.06 298.28 1178.12 317.00 1182.62 335.15 L 1182.78 335.94 C 1182.83 340.71 1182.78 345.63 1181.22 350.19 C 1179.04 355.79 1172.68 358.52 1166.97 358.28 C 1160.58 358.49 1155.23 354.36 1150.95 350.07 C 1148.13 346.10 1146.32 341.50 1144.76 336.92 C 1144.25 335.41 1143.75 333.89 1143.27 332.38 C 1135.36 339.96 1125.31 345.22 1114.62 347.57 C 1101.46 350.30 1087.27 346.48 1077.01 337.86 C 1074.60 335.24 1072.65 332.22 1070.77 329.22 C 1068.08 325.00 1067.46 319.95 1066.55 315.14 C 1064.53 305.45 1066.98 295.64 1068.29 286.04 C 1067.97 274.49 1072.79 263.06 1080.64 254.66 C 1085.13 249.84 1091.43 247.46 1097.55 245.49 C 1102.56 243.89 1107.87 244.74 1113.03 244.75 C 1118.52 244.72 1123.47 247.50 1128.31 249.78 C 1135.42 253.31 1140.83 259.19 1145.70 265.31 C 1145.75 254.26 1145.99 242.75 1141.59 232.38 C 1139.40 227.57 1136.47 223.14 1133.40 218.86 C 1127.91 211.42 1119.11 205.90 1109.73 205.54 C 1099.45 206.07 1090.17 212.18 1079.73 211.55 C 1078.98 209.50 1076.91 207.50 1077.83 205.20 C 1079.27 201.48 1080.67 197.45 1083.90 194.87 C 1089.11 190.62 1094.45 186.23 1100.86 183.89 M 1089.22 270.27 C 1081.35 280.36 1079.02 293.55 1078.64 306.05 C 1078.49 308.85 1079.55 311.50 1080.75 313.98 C 1082.49 317.78 1084.44 321.60 1087.45 324.56 C 1092.31 329.61 1099.15 332.32 1106.01 333.23 C 1111.31 333.50 1116.60 331.76 1121.26 329.31 C 1129.58 323.26 1134.41 313.15 1135.08 303.00 C 1136.53 292.61 1135.13 281.18 1128.17 272.93 C 1124.63 266.48 1116.79 264.53 1110.04 263.74 C 1102.51 262.83 1095.19 265.95 1089.22 270.27 Z" />
<path fill="#000000" opacity="1.00" d=" M 808.30 187.20 C 813.23 186.66 818.02 184.53 823.06 185.23 C 830.29 186.31 837.70 187.34 844.26 190.78 C 859.01 198.12 867.79 213.59 872.10 228.94 C 873.20 236.77 874.67 244.56 874.79 252.50 C 876.07 266.34 874.28 280.18 874.18 294.03 C 872.54 303.65 873.39 313.44 872.17 323.10 C 871.47 332.72 870.69 343.42 864.00 350.99 C 858.67 354.15 852.58 350.76 847.97 347.83 C 845.31 345.25 843.34 342.03 841.59 338.80 C 840.81 337.35 840.04 335.89 839.29 334.44 C 832.24 341.11 823.68 346.63 813.95 348.14 C 798.13 350.21 781.42 344.29 770.98 332.08 C 765.79 324.00 761.55 314.80 761.54 305.01 C 761.63 302.66 762.07 300.34 762.08 297.99 C 761.66 285.48 765.80 272.62 774.24 263.25 C 781.55 254.75 792.75 249.48 804.03 250.02 C 815.99 249.78 827.62 254.46 836.63 262.22 C 836.38 251.30 836.29 239.80 831.22 229.83 C 827.94 223.47 821.51 219.06 814.66 217.35 C 806.09 215.76 797.37 219.99 788.90 217.17 C 787.10 214.17 784.94 210.83 785.94 207.16 C 788.43 196.81 798.00 189.00 808.30 187.20 M 794.99 269.04 C 788.26 271.72 782.78 277.17 779.64 283.66 C 777.47 288.20 775.19 292.88 774.76 297.97 C 774.45 301.43 775.53 304.81 776.83 307.98 C 777.86 310.93 779.16 313.78 780.35 316.67 C 783.24 323.73 789.87 328.58 796.86 331.15 C 802.13 332.88 808.00 334.33 813.39 332.18 C 822.03 329.50 829.02 322.52 831.99 314.01 C 836.66 303.69 836.77 291.29 832.12 280.96 C 829.92 276.43 826.18 272.72 821.93 270.10 C 813.65 266.06 803.52 265.34 794.99 269.04 Z" />
<path fill="#000000" opacity="1.00" d=" M 1098.33 274.10 C 1104.81 274.26 1111.03 278.19 1113.90 284.00 C 1115.22 286.57 1116.26 289.27 1117.15 292.02 C 1117.63 298.71 1116.47 305.82 1112.32 311.26 C 1109.08 315.22 1104.17 318.07 1098.99 318.15 C 1094.90 318.16 1091.35 315.88 1087.97 313.88 C 1085.05 310.85 1083.44 306.87 1082.21 302.92 C 1088.48 304.20 1095.72 303.18 1099.88 297.84 C 1105.66 290.99 1103.79 280.57 1098.33 274.10 Z" />
<path fill="#000000" opacity="1.00" d=" M 815.38 277.87 C 823.40 279.43 828.99 286.33 831.35 293.81 C 831.59 299.19 831.16 304.80 828.55 309.63 C 825.86 315.01 820.00 318.52 814.00 318.47 C 809.26 318.45 804.97 316.14 800.94 313.89 C 798.14 310.88 796.65 306.95 795.54 303.06 C 800.53 303.80 806.01 303.44 810.07 300.10 C 817.22 295.33 818.97 285.41 815.38 277.87 Z" />
</g>
<g id="#939393ff">
<path fill="#939393" opacity="1.00" d=" M 654.11 142.72 C 659.50 146.77 664.58 151.43 670.80 154.20 C 676.87 156.93 683.33 158.89 689.92 159.84 C 708.23 161.15 725.78 154.81 743.54 151.51 C 743.53 153.22 743.55 154.93 743.34 156.62 C 739.00 156.27 734.83 157.77 730.67 158.75 C 718.04 161.92 705.04 164.61 691.96 163.85 C 681.59 162.22 671.22 158.72 662.97 152.03 C 659.59 149.40 656.11 146.61 654.11 142.72 Z" />
<path fill="#939393" opacity="1.00" d=" M 770.89 145.37 C 776.23 144.77 781.60 144.24 786.98 144.69 C 801.84 145.84 816.86 147.75 830.86 153.11 C 838.86 156.39 846.50 160.55 853.73 165.29 C 859.48 169.24 866.02 172.36 873.01 173.19 C 879.30 173.99 886.24 170.93 889.09 165.10 C 891.17 161.41 891.20 157.06 891.14 152.95 C 893.62 157.95 893.86 164.14 891.10 169.08 C 888.25 174.93 881.29 178.02 874.98 177.21 C 867.52 176.31 860.64 172.76 854.56 168.50 C 844.99 162.49 834.85 157.12 823.89 154.13 C 814.12 151.55 804.11 149.92 794.04 149.15 C 786.94 148.34 779.71 148.16 772.71 149.75 C 772.10 148.29 771.49 146.83 770.89 145.37 Z" />
<path fill="#939393" opacity="1.00" d=" M 775.66 159.76 C 778.74 165.40 778.49 172.09 777.61 178.26 C 776.13 195.95 769.61 212.70 762.85 228.95 C 758.13 238.50 754.52 248.52 750.33 258.30 C 744.86 272.29 741.81 287.20 741.76 302.24 C 739.72 296.54 739.95 290.37 740.57 284.44 C 742.24 271.08 746.36 258.12 751.86 245.86 C 755.64 235.29 761.09 225.43 764.91 214.88 C 768.58 206.44 770.87 197.49 773.45 188.67 C 775.19 179.18 776.96 169.43 775.66 159.76 Z" />
<path fill="#939393" opacity="1.00" d=" M 1079.73 211.55 C 1090.17 212.18 1099.45 206.07 1109.73 205.54 C 1119.11 205.90 1127.91 211.42 1133.40 218.86 C 1129.75 217.29 1126.90 214.41 1123.36 212.67 C 1119.56 210.69 1115.30 209.49 1111.01 209.54 C 1101.79 210.34 1093.43 215.24 1084.16 215.64 C 1081.74 215.75 1080.82 213.22 1079.73 211.55 Z" />
<path fill="#939393" opacity="1.00" d=" M 1006.72 215.75 C 1010.02 213.94 1013.83 212.26 1017.67 213.20 C 1019.71 214.05 1020.99 215.96 1022.09 217.78 C 1019.04 217.22 1015.76 216.46 1012.81 217.82 C 1007.94 219.99 1003.21 222.66 999.14 226.12 C 998.10 226.84 998.72 228.22 998.79 229.22 C 1000.63 237.37 999.95 245.78 999.94 254.06 C 999.26 262.36 999.16 270.72 998.05 278.99 C 995.14 299.40 993.63 319.97 991.40 340.45 C 990.04 345.89 990.13 351.47 990.09 357.02 C 990.25 362.20 985.36 367.11 980.07 365.98 C 973.81 364.80 967.52 361.16 964.94 355.08 C 968.42 358.26 972.61 360.79 977.24 361.85 C 980.18 362.52 983.50 361.86 985.55 359.51 C 988.59 356.52 988.16 351.89 988.16 347.99 C 987.82 342.24 989.71 336.70 990.05 331.00 C 990.54 323.64 991.70 316.35 992.05 308.98 C 994.64 283.09 999.31 257.22 997.76 231.11 C 997.64 228.19 996.38 225.23 996.98 222.34 C 999.80 219.59 1003.31 217.68 1006.72 215.75 Z" />
<path fill="#939393" opacity="1.00" d=" M 788.90 217.17 C 797.37 219.99 806.09 215.76 814.66 217.35 C 821.51 219.06 827.94 223.47 831.22 229.83 C 826.77 225.95 821.83 222.21 815.86 221.20 C 809.20 220.29 802.61 222.37 795.97 222.26 C 792.71 222.30 790.25 219.92 788.90 217.17 Z" />
<path fill="#939393" opacity="1.00" d=" M 946.86 220.81 C 950.16 219.55 953.87 218.25 957.40 219.40 C 958.05 220.46 958.56 221.61 959.04 222.77 C 946.15 223.18 935.96 232.09 925.79 238.94 C 927.51 244.90 927.87 251.09 928.64 257.21 C 929.85 265.42 929.16 273.73 929.33 281.99 C 928.78 299.36 926.65 316.64 923.75 333.76 C 922.06 341.89 920.76 350.30 916.64 357.64 C 914.04 362.16 911.34 367.30 906.21 369.34 C 898.96 372.74 888.93 369.87 885.87 362.11 C 892.18 367.93 902.97 368.51 909.02 362.02 C 914.81 355.24 918.36 346.73 920.03 338.02 C 921.96 329.50 923.21 320.84 924.46 312.20 C 927.53 287.47 929.21 262.17 924.52 237.53 C 924.52 236.45 923.80 234.82 925.00 234.14 C 931.89 229.11 938.92 224.07 946.86 220.81 Z" />
<path fill="#939393" opacity="1.00" d=" M 1058.09 221.87 C 1060.63 227.23 1061.05 233.25 1061.65 239.07 C 1062.89 254.82 1057.90 270.07 1055.33 285.42 C 1052.92 295.18 1051.38 305.20 1051.69 315.27 C 1049.35 309.19 1049.40 302.59 1050.46 296.26 C 1052.97 279.98 1057.55 264.09 1059.47 247.72 C 1060.46 239.09 1059.34 230.41 1058.09 221.87 Z" />
<path fill="#939393" opacity="1.00" d=" M 872.10 228.94 C 876.62 240.37 876.59 252.92 877.22 265.02 C 877.55 271.36 876.87 277.68 876.57 284.01 C 876.25 290.22 876.66 296.48 875.67 302.64 C 874.41 310.10 875.49 317.71 874.34 325.18 C 873.54 335.41 873.11 346.86 866.02 355.00 C 859.51 358.43 850.99 354.14 847.97 347.83 C 852.58 350.76 858.67 354.15 864.00 350.99 C 870.69 343.42 871.47 332.72 872.17 323.10 C 873.39 313.44 872.54 303.65 874.18 294.03 C 874.28 280.18 876.07 266.34 874.79 252.50 C 874.67 244.56 873.20 236.77 872.10 228.94 Z" />
<path fill="#939393" opacity="1.00" d=" M 1089.22 270.27 C 1095.19 265.95 1102.51 262.83 1110.04 263.74 C 1116.79 264.53 1124.63 266.48 1128.17 272.93 C 1120.17 268.76 1110.70 265.90 1101.80 268.78 C 1096.85 270.58 1091.36 272.83 1088.78 277.75 C 1082.32 288.59 1080.37 301.54 1080.75 313.98 C 1079.55 311.50 1078.49 308.85 1078.64 306.05 C 1079.02 293.55 1081.35 280.36 1089.22 270.27 Z" />
<path fill="#939393" opacity="1.00" d=" M 794.99 269.04 C 803.52 265.34 813.65 266.06 821.93 270.10 C 826.18 272.72 829.92 276.43 832.12 280.96 C 829.45 278.27 826.70 275.53 823.30 273.78 C 812.72 268.76 799.29 269.71 790.02 277.09 C 784.16 281.63 780.81 288.50 778.30 295.30 C 776.78 299.34 776.52 303.71 776.83 307.98 C 775.53 304.81 774.45 301.43 774.76 297.97 C 775.19 292.88 777.47 288.20 779.64 283.66 C 782.78 277.17 788.26 271.72 794.99 269.04 Z" />
<path fill="#939393" opacity="1.00" d=" M 1117.15 292.02 C 1122.02 302.22 1117.58 316.39 1106.90 320.86 C 1100.09 324.20 1091.06 320.71 1087.97 313.88 C 1091.35 315.88 1094.90 318.16 1098.99 318.15 C 1104.17 318.07 1109.08 315.22 1112.32 311.26 C 1116.47 305.82 1117.63 298.71 1117.15 292.02 Z" />
<path fill="#939393" opacity="1.00" d=" M 831.35 293.81 C 834.74 299.87 833.56 307.49 830.60 313.48 C 827.67 319.56 820.69 323.26 814.01 322.33 C 808.82 321.48 803.13 319.05 800.94 313.89 C 804.97 316.14 809.26 318.45 814.00 318.47 C 820.00 318.52 825.86 315.01 828.55 309.63 C 831.16 304.80 831.59 299.19 831.35 293.81 Z" />
<path fill="#939393" opacity="1.00" d=" M 751.92 329.05 C 756.28 336.88 755.85 348.48 747.94 353.93 C 738.51 360.50 724.75 354.58 719.98 344.94 C 723.86 348.36 728.33 351.40 733.49 352.42 C 740.06 353.95 747.47 350.67 750.63 344.68 C 753.20 339.90 752.83 334.22 751.92 329.05 Z" />
<path fill="#939393" opacity="1.00" d=" M 770.98 332.08 C 781.42 344.29 798.13 350.21 813.95 348.14 C 823.68 346.63 832.24 341.11 839.29 334.44 C 840.04 335.89 840.81 337.35 841.59 338.80 C 833.91 344.66 825.86 350.85 815.96 352.13 C 799.01 354.25 779.67 347.54 770.98 332.08 Z" />
<path fill="#939393" opacity="1.00" d=" M 1114.62 347.57 C 1125.31 345.22 1135.36 339.96 1143.27 332.38 C 1143.75 333.89 1144.25 335.41 1144.76 336.92 C 1136.88 344.16 1127.09 349.28 1116.63 351.58 C 1106.07 353.78 1094.91 351.68 1085.54 346.46 C 1082.00 344.41 1078.77 341.61 1077.01 337.86 C 1087.27 346.48 1101.46 350.30 1114.62 347.57 Z" />
<path fill="#939393" opacity="1.00" d=" M 1060.36 334.93 C 1063.09 339.80 1063.89 346.49 1059.95 350.96 C 1055.36 356.21 1047.55 355.60 1041.33 354.57 C 1034.84 352.77 1028.00 349.38 1024.99 343.00 C 1030.43 347.30 1036.85 350.99 1043.96 351.16 C 1048.64 351.45 1054.02 351.13 1057.47 347.51 C 1060.82 344.28 1060.92 339.24 1060.36 334.93 Z" />
<path fill="#939393" opacity="1.00" d=" M 1182.78 335.94 C 1185.98 340.93 1184.73 347.21 1183.74 352.67 C 1181.54 361.39 1170.47 364.17 1162.89 361.17 C 1157.76 359.06 1153.39 355.06 1150.95 350.07 C 1155.23 354.36 1160.58 358.49 1166.97 358.28 C 1172.68 358.52 1179.04 355.79 1181.22 350.19 C 1182.78 345.63 1182.83 340.71 1182.78 335.94 Z" />
</g>
<g id="#949494ff">
<path fill="#949494" opacity="1.00" d=" M 1182.74 236.75 C 1183.98 239.00 1184.69 241.50 1184.98 244.05 C 1186.81 257.34 1186.82 270.85 1185.37 284.18 C 1184.23 298.75 1181.74 313.33 1182.87 327.98 C 1182.97 330.37 1182.83 332.77 1182.62 335.15 C 1178.12 317.00 1182.06 298.28 1183.37 279.99 C 1185.04 265.62 1184.56 251.08 1182.74 236.75 Z" />
</g>
</svg>
