<?xml version="1.0" encoding="UTF-8" ?>
<!DOCTYPE svg PUBLIC "-//W3C//DTD SVG 1.1//EN" "http://www.w3.org/Graphics/SVG/1.1/DTD/svg11.dtd">
<svg width="800pt" height="800pt" viewBox="0 0 800 800" version="1.1" xmlns="http://www.w3.org/2000/svg">
<g id="#000000ff">
<path fill="#000000" opacity="1.00" d=" M 297.32 53.15 C 308.51 51.99 319.78 52.75 331.00 52.42 C 354.00 52.48 377.00 52.15 400.00 52.61 C 422.99 52.15 446.00 52.48 468.99 52.42 C 483.05 52.85 497.31 51.48 511.17 54.52 C 518.82 56.17 526.75 54.59 534.38 56.39 C 540.50 57.86 546.89 57.18 553.01 58.66 C 569.86 62.78 586.94 66.79 602.48 74.73 C 615.23 81.58 627.40 89.45 639.10 97.97 C 644.05 101.65 647.90 106.51 652.37 110.72 C 659.03 117.06 665.92 123.28 671.30 130.80 C 677.87 139.76 685.43 147.90 692.98 156.02 C 702.08 166.89 708.88 179.39 716.68 191.18 C 721.34 198.88 724.22 207.51 729.07 215.12 C 737.21 228.32 743.03 242.77 747.87 257.46 C 750.12 264.41 753.36 271.00 755.19 278.09 C 757.79 288.16 760.95 298.11 762.73 308.38 C 764.32 317.56 766.28 326.70 767.45 335.95 C 768.01 349.94 767.24 363.97 767.76 377.96 C 768.37 383.84 768.89 389.77 768.19 395.68 C 767.08 404.60 768.34 413.66 766.89 422.56 C 766.37 426.02 765.82 429.47 765.56 432.97 C 764.95 442.24 762.53 451.26 760.47 460.29 C 758.03 470.19 755.70 480.16 751.93 489.66 C 748.44 498.28 746.36 507.47 741.84 515.66 C 737.05 524.59 733.87 534.49 727.39 542.44 C 723.86 546.83 720.35 551.37 715.83 554.80 C 711.06 558.35 704.71 557.94 699.51 560.52 C 695.37 562.57 691.01 564.11 686.50 565.10 C 680.16 566.39 674.35 569.42 668.00 570.66 C 660.38 572.23 653.12 575.08 645.68 577.28 C 627.21 582.48 609.56 590.41 593.05 600.16 C 575.67 609.62 560.31 622.40 546.44 636.43 C 540.96 641.73 536.57 648.00 531.96 654.03 C 526.99 660.56 524.66 668.54 521.88 676.13 C 519.24 682.93 519.91 690.49 517.06 697.24 C 514.42 703.50 514.21 710.73 510.39 716.47 C 505.10 722.48 497.03 724.68 490.21 728.43 C 481.49 733.29 471.44 734.44 461.80 736.31 C 457.23 737.21 452.63 738.02 447.99 738.42 C 437.33 739.33 426.85 742.28 416.09 741.71 C 405.37 741.20 394.62 741.20 383.90 741.71 C 374.16 742.24 364.61 739.86 355.00 738.73 C 344.22 737.82 333.63 735.49 323.05 733.35 C 314.77 731.75 307.19 727.89 299.76 724.06 C 294.88 721.36 289.56 718.17 287.58 712.63 C 285.41 706.63 284.00 700.39 281.90 694.37 C 280.05 688.14 280.49 681.38 277.63 675.42 C 274.26 668.14 272.23 660.17 267.58 653.54 C 257.76 639.88 245.86 627.75 232.53 617.51 C 223.39 609.61 212.82 603.66 202.42 597.62 C 185.28 587.63 166.53 580.86 147.77 574.62 C 142.89 573.02 137.96 571.54 132.95 570.42 C 126.32 569.03 120.16 566.06 113.52 564.69 C 106.53 563.23 100.31 559.33 93.22 558.26 C 89.07 557.59 85.06 555.94 82.04 552.96 C 75.69 546.91 69.87 540.07 66.09 532.09 C 62.65 524.84 58.28 518.04 55.43 510.52 C 53.08 504.38 51.24 498.06 48.80 491.96 C 43.97 479.84 41.23 467.05 37.74 454.51 C 35.60 446.91 34.58 439.08 33.67 431.26 C 32.17 422.91 32.05 414.42 31.59 405.98 C 31.47 398.74 29.82 391.51 30.82 384.27 C 34.04 366.15 30.82 347.62 32.88 329.41 C 35.55 317.07 36.70 304.42 40.41 292.32 C 42.09 286.52 43.37 280.61 45.08 274.82 C 49.82 260.54 56.35 246.96 61.81 232.96 C 63.10 229.98 64.60 227.10 66.12 224.24 C 78.07 202.17 88.99 179.34 104.25 159.28 C 110.62 151.68 117.79 144.76 123.89 136.92 C 127.93 131.96 131.49 126.58 136.00 122.01 C 142.08 115.75 148.59 109.92 154.57 103.56 C 159.50 98.31 165.65 94.47 171.57 90.45 C 180.78 83.98 190.36 77.86 200.83 73.61 C 208.20 70.54 215.34 66.81 223.11 64.78 C 231.06 62.70 238.97 60.42 246.99 58.62 C 252.85 57.23 258.96 57.85 264.84 56.52 C 269.83 55.38 274.96 55.34 280.05 55.38 C 285.90 55.47 291.55 53.76 297.32 53.15 M 276.08 96.49 C 265.50 96.10 255.36 99.65 244.97 101.14 C 238.91 101.79 233.24 104.13 227.46 105.92 C 222.76 107.45 217.92 108.61 213.43 110.74 C 202.06 116.00 190.81 121.96 181.29 130.22 C 176.37 134.07 170.63 136.76 165.87 140.84 C 158.60 146.22 152.07 152.49 144.98 158.09 C 140.89 161.29 137.85 165.55 134.09 169.08 C 131.43 171.68 128.41 174.04 126.55 177.32 C 119.66 190.32 113.16 203.53 107.31 217.04 C 101.01 229.80 96.06 243.17 90.90 256.42 C 88.08 265.60 84.36 274.52 82.39 283.96 C 78.99 296.99 76.94 310.31 74.20 323.49 C 72.92 329.26 73.69 335.20 73.41 341.05 C 73.29 346.42 71.33 351.55 71.35 356.93 C 71.26 362.97 71.27 369.02 71.30 375.07 C 71.23 379.14 72.92 382.95 73.36 386.96 C 73.90 392.21 73.25 397.53 74.03 402.76 C 76.72 416.44 78.65 430.27 81.70 443.88 C 85.26 455.71 88.30 467.74 93.11 479.15 C 95.84 485.96 99.67 492.27 102.08 499.22 C 105.02 507.94 110.96 515.35 113.16 524.36 C 121.47 524.71 129.94 523.48 138.09 525.56 C 141.31 526.35 144.63 526.48 147.90 526.87 C 164.20 529.72 179.70 535.71 195.10 541.55 C 203.40 545.19 211.38 549.50 219.71 553.06 C 230.49 558.59 240.93 564.86 250.53 572.29 C 259.49 579.01 268.92 585.19 277.00 593.00 C 283.36 599.29 289.80 605.51 295.85 612.09 C 302.66 619.69 307.45 628.77 312.59 637.51 C 317.41 645.67 320.61 654.64 323.45 663.64 C 324.66 668.68 326.39 673.69 326.43 678.93 C 326.51 685.47 326.37 692.00 326.46 698.54 C 335.57 698.82 344.86 697.90 353.70 700.70 C 353.69 692.11 353.42 683.51 353.70 674.92 C 353.92 671.80 354.92 668.01 358.20 666.83 C 360.72 666.13 363.95 666.11 365.71 668.39 C 368.53 671.05 367.62 675.26 366.73 678.56 C 364.43 685.76 365.61 693.40 365.51 700.82 C 371.50 701.80 377.61 701.13 383.60 702.10 C 388.11 702.65 392.63 703.29 397.19 703.36 C 397.65 692.91 397.49 682.45 397.47 671.99 C 397.51 668.59 397.09 665.10 397.91 661.76 C 400.84 657.38 408.21 657.32 411.15 661.73 C 412.10 666.04 411.57 670.55 410.82 674.86 C 409.07 684.05 408.85 693.44 408.31 702.76 C 411.22 702.59 414.14 702.43 417.04 702.05 C 423.80 701.04 430.71 701.90 437.45 700.62 C 437.65 692.96 435.13 685.07 437.54 677.59 C 438.62 673.60 443.44 672.41 446.89 673.94 C 449.92 675.76 450.79 679.68 450.30 682.97 C 449.56 688.53 448.40 694.05 448.29 699.68 C 456.67 698.36 465.12 698.87 473.55 698.36 C 473.53 691.88 473.46 685.41 473.51 678.93 C 473.51 673.68 475.26 668.66 476.47 663.61 C 479.29 654.59 482.56 645.64 487.35 637.46 C 492.34 628.91 497.05 620.07 503.63 612.61 C 510.78 604.77 518.47 597.45 526.03 590.02 C 533.16 583.01 541.84 577.94 549.63 571.75 C 556.82 566.05 564.74 561.42 572.65 556.81 C 580.13 552.25 588.43 549.33 596.21 545.37 C 604.38 541.25 613.14 538.59 621.66 535.31 C 630.44 531.90 639.63 529.67 648.78 527.47 C 653.18 526.40 657.77 526.65 662.17 525.55 C 670.23 523.48 678.60 524.72 686.81 524.35 C 688.12 518.79 690.82 513.73 693.55 508.76 C 697.04 502.57 698.73 495.57 702.07 489.31 C 709.66 474.76 713.84 458.79 718.43 443.12 C 721.18 430.04 723.12 416.79 725.78 403.68 C 727.11 396.41 725.39 388.85 727.59 381.70 C 728.88 377.59 728.69 373.24 728.67 369.00 C 728.53 362.14 729.15 355.18 727.46 348.46 C 725.66 341.11 727.08 333.51 726.18 326.08 C 724.54 317.08 722.39 308.19 720.95 299.16 C 716.52 275.03 707.71 252.02 698.29 229.47 C 690.26 211.69 682.28 193.86 673.06 176.66 C 670.02 172.19 665.39 169.16 661.94 165.05 C 657.80 160.16 652.47 156.53 647.77 152.23 C 640.15 145.33 632.16 138.77 623.31 133.52 C 618.55 130.67 614.78 126.49 609.99 123.71 C 600.64 118.05 591.10 112.54 580.84 108.72 C 573.40 106.68 566.22 103.82 558.76 101.87 C 551.16 100.70 543.65 99.02 536.09 97.64 C 529.79 95.70 523.06 97.41 516.75 95.59 C 509.34 93.51 501.56 94.59 493.98 94.54 C 477.97 94.98 461.87 93.67 445.93 95.51 C 440.20 95.82 434.46 95.62 428.80 94.68 C 419.20 94.19 409.58 94.70 399.98 94.45 C 396.82 94.04 394.91 96.91 392.99 98.89 C 389.02 103.67 384.34 107.77 379.91 112.12 C 388.23 113.77 396.74 114.76 404.80 117.44 C 412.13 120.51 420.33 123.14 425.40 129.66 C 428.49 133.19 428.21 138.73 425.64 142.47 C 422.47 147.24 419.75 152.48 415.33 156.25 C 408.41 162.09 401.29 167.69 393.88 172.90 C 400.91 181.05 407.75 190.10 409.41 201.02 C 409.46 208.55 401.01 216.30 393.51 212.91 C 383.65 208.25 378.88 197.67 374.20 188.47 C 371.60 182.84 367.21 177.59 367.37 171.08 C 367.53 166.63 366.41 161.37 369.82 157.83 C 375.97 150.96 383.72 145.65 391.90 141.47 C 385.79 139.41 379.63 137.50 373.34 136.08 C 368.18 134.99 363.67 132.09 358.59 130.77 C 356.30 129.92 353.28 129.60 352.08 127.16 C 349.06 121.44 349.96 114.02 354.23 109.17 C 358.45 104.26 363.27 99.88 367.07 94.61 C 342.04 94.10 317.00 94.92 291.97 94.35 C 286.53 93.90 281.45 96.29 276.08 96.49 Z" />
<path fill="#000000" opacity="1.00" d=" M 223.52 244.90 C 232.53 243.72 241.85 243.99 250.56 246.77 C 259.08 248.75 267.39 251.77 274.89 256.30 C 278.72 258.65 281.76 262.00 285.12 264.94 C 293.90 271.95 300.56 281.25 306.39 290.75 C 312.38 302.23 318.68 313.58 323.73 325.52 C 330.18 339.13 333.98 353.96 335.18 368.96 C 335.87 380.80 334.24 392.64 331.62 404.17 C 329.85 415.28 325.47 425.77 320.58 435.83 C 317.18 442.97 312.42 449.36 307.29 455.34 C 291.92 477.24 266.74 490.98 240.67 495.43 C 223.61 499.20 205.17 498.33 189.08 491.19 C 181.51 487.33 174.08 482.95 167.70 477.31 C 161.53 471.03 155.25 464.70 150.74 457.07 C 144.60 447.48 140.58 436.76 136.54 426.17 C 133.94 419.31 133.23 412.00 131.84 404.86 C 129.26 395.08 130.96 384.94 130.71 374.99 C 130.44 368.89 132.33 363.04 133.09 357.06 C 133.37 347.00 136.35 337.30 138.07 327.44 C 140.40 319.98 143.73 312.85 146.96 305.74 C 151.61 297.36 156.13 288.74 162.71 281.67 C 170.82 272.86 179.14 263.99 189.28 257.47 C 199.91 251.43 211.64 247.58 223.52 244.90 M 266.36 340.89 C 256.58 343.82 247.45 350.18 242.70 359.40 C 239.47 366.16 238.52 373.71 237.90 381.10 C 237.98 391.17 240.85 401.02 245.16 410.06 C 249.05 417.76 256.15 424.30 264.86 425.78 C 274.63 428.64 285.94 425.29 292.54 417.51 C 299.69 409.78 301.18 398.88 302.41 388.85 C 302.85 382.10 302.98 375.24 301.59 368.57 C 300.18 358.37 294.08 348.91 285.46 343.31 C 279.91 339.50 272.70 339.78 266.36 340.89 Z" />
<path fill="#000000" opacity="1.00" d=" M 557.63 244.83 C 563.26 244.03 569.02 244.21 574.68 244.63 C 586.55 246.92 598.12 250.85 608.84 256.45 C 615.75 260.14 621.15 265.95 626.89 271.16 C 632.29 277.09 638.30 282.54 642.91 289.15 C 648.93 298.30 654.27 307.93 658.19 318.17 C 662.91 327.90 663.53 338.84 666.13 349.19 C 666.55 355.27 667.19 361.32 668.51 367.28 C 668.69 376.19 669.70 385.08 669.56 394.00 C 669.54 400.11 667.55 405.96 666.84 412.00 C 665.68 421.16 662.15 429.76 658.63 438.22 C 653.50 451.15 646.35 463.54 636.15 473.15 C 629.20 480.96 620.16 486.49 610.91 491.17 C 599.04 496.46 585.87 498.16 572.96 497.44 C 546.44 495.30 520.16 484.73 501.14 465.82 C 497.53 462.37 494.86 458.13 491.75 454.26 C 486.61 448.29 481.98 441.79 478.68 434.61 C 474.79 426.36 471.18 417.89 469.32 408.93 C 468.02 400.98 465.89 393.14 465.56 385.05 C 465.27 372.53 464.97 359.79 468.29 347.59 C 470.66 336.38 475.99 326.15 480.50 315.71 C 487.72 302.38 493.53 288.07 503.52 276.46 C 507.46 270.79 512.99 266.65 518.01 262.02 C 528.53 251.49 543.62 248.07 557.63 244.83 M 522.50 339.99 C 511.03 341.94 503.05 352.31 499.67 362.84 C 497.08 372.65 496.62 382.96 498.29 392.97 C 498.54 400.90 500.92 408.85 505.59 415.30 C 509.23 419.95 513.97 424.25 519.92 425.49 C 529.50 428.05 540.57 425.83 547.81 418.85 C 554.82 412.64 557.69 403.38 560.14 394.65 C 561.28 389.19 560.69 383.55 560.83 378.01 C 561.14 367.33 557.40 356.03 548.95 349.11 C 541.68 343.08 532.16 338.40 522.50 339.99 Z" />
<path fill="#000000" opacity="1.00" d=" M 388.28 413.79 C 391.88 412.41 395.56 414.41 398.64 416.17 C 404.91 419.50 408.76 425.67 413.05 431.07 C 416.92 436.00 420.09 441.40 423.37 446.73 C 431.20 457.63 436.36 470.21 440.11 483.03 C 441.80 488.18 444.12 493.48 443.26 499.03 C 442.43 504.44 439.75 509.81 435.21 513.00 C 426.80 517.34 416.98 513.70 408.27 516.67 C 403.97 517.98 399.42 517.47 395.00 517.48 C 385.93 517.17 376.67 518.40 367.84 515.72 C 360.96 515.14 354.92 511.50 349.51 507.47 C 345.96 504.78 345.52 500.06 345.11 495.98 C 343.65 487.01 346.69 478.06 350.20 469.92 C 356.27 457.10 361.76 443.77 370.65 432.57 C 375.68 425.63 381.06 418.57 388.28 413.79 Z" />
</g>
<g id="#ffffffff">
<path fill="#ffffff" opacity="1.00" d=" M 276.08 96.49 C 281.45 96.29 286.53 93.90 291.97 94.35 C 317.00 94.92 342.04 94.10 367.07 94.61 C 363.27 99.88 358.45 104.26 354.23 109.17 C 349.96 114.02 349.06 121.44 352.08 127.16 C 353.28 129.60 356.30 129.92 358.59 130.77 C 363.67 132.09 368.18 134.99 373.34 136.08 C 379.63 137.50 385.79 139.41 391.90 141.47 C 383.72 145.65 375.97 150.96 369.82 157.83 C 366.41 161.37 367.53 166.63 367.37 171.08 C 367.21 177.59 371.60 182.84 374.20 188.47 C 378.88 197.67 383.65 208.25 393.51 212.91 C 401.01 216.30 409.46 208.55 409.41 201.02 C 407.75 190.10 400.91 181.05 393.88 172.90 C 401.29 167.69 408.41 162.09 415.33 156.25 C 419.75 152.48 422.47 147.24 425.64 142.47 C 428.21 138.73 428.49 133.19 425.40 129.66 C 420.33 123.14 412.13 120.51 404.80 117.44 C 396.74 114.76 388.23 113.77 379.91 112.12 C 384.34 107.77 389.02 103.67 392.99 98.89 C 394.91 96.91 396.82 94.04 399.98 94.45 C 409.58 94.70 419.20 94.19 428.80 94.68 C 434.46 95.62 440.20 95.82 445.93 95.51 C 461.87 93.67 477.97 94.98 493.98 94.54 C 501.56 94.59 509.34 93.51 516.75 95.59 C 523.06 97.41 529.79 95.70 536.09 97.64 C 543.65 99.02 551.16 100.70 558.76 101.87 C 566.22 103.82 573.40 106.68 580.84 108.72 C 591.10 112.54 600.64 118.05 609.99 123.71 C 614.78 126.49 618.55 130.67 623.31 133.52 C 632.16 138.77 640.15 145.33 647.77 152.23 C 652.47 156.53 657.80 160.16 661.94 165.05 C 665.39 169.16 670.02 172.19 673.06 176.66 C 682.28 193.86 690.26 211.69 698.29 229.47 C 707.71 252.02 716.52 275.03 720.95 299.16 C 722.39 308.19 724.54 317.08 726.18 326.08 C 727.08 333.51 725.66 341.11 727.46 348.46 C 729.15 355.18 728.53 362.14 728.67 369.00 C 728.69 373.24 728.88 377.59 727.59 381.70 C 725.39 388.85 727.11 396.41 725.78 403.68 C 723.12 416.79 721.18 430.04 718.43 443.12 C 713.84 458.79 709.66 474.76 702.07 489.31 C 698.73 495.57 697.04 502.57 693.55 508.76 C 690.82 513.73 688.12 518.79 686.81 524.35 C 678.60 524.72 670.23 523.48 662.17 525.55 C 657.77 526.65 653.18 526.40 648.78 527.47 C 639.63 529.67 630.44 531.90 621.66 535.31 C 613.14 538.59 604.38 541.25 596.21 545.37 C 588.43 549.33 580.13 552.25 572.65 556.81 C 564.74 561.42 556.82 566.05 549.63 571.75 C 541.84 577.94 533.16 583.01 526.03 590.02 C 518.47 597.45 510.78 604.77 503.63 612.61 C 497.05 620.07 492.34 628.91 487.35 637.46 C 482.56 645.64 479.29 654.59 476.47 663.61 C 475.26 668.66 473.51 673.68 473.51 678.93 C 473.46 685.41 473.53 691.88 473.55 698.36 C 465.12 698.87 456.67 698.36 448.29 699.68 C 448.40 694.05 449.56 688.53 450.30 682.97 C 450.79 679.68 449.92 675.76 446.89 673.94 C 443.44 672.41 438.62 673.60 437.54 677.59 C 435.13 685.07 437.65 692.96 437.45 700.62 C 430.71 701.90 423.80 701.04 417.04 702.05 C 414.14 702.43 411.22 702.59 408.31 702.76 C 408.85 693.44 409.07 684.05 410.82 674.86 C 411.57 670.55 412.10 666.04 411.15 661.73 C 408.21 657.32 400.84 657.38 397.91 661.76 C 397.09 665.10 397.51 668.59 397.47 671.99 C 397.49 682.45 397.65 692.91 397.19 703.36 C 392.63 703.29 388.11 702.65 383.60 702.10 C 377.61 701.13 371.50 701.80 365.51 700.82 C 365.61 693.40 364.43 685.76 366.73 678.56 C 367.62 675.26 368.53 671.05 365.71 668.39 C 363.95 666.11 360.72 666.13 358.20 666.83 C 354.92 668.01 353.92 671.80 353.70 674.92 C 353.42 683.51 353.69 692.11 353.70 700.70 C 344.86 697.90 335.57 698.82 326.46 698.54 C 326.37 692.00 326.51 685.47 326.43 678.93 C 326.39 673.69 324.66 668.68 323.45 663.64 C 320.61 654.64 317.41 645.67 312.59 637.51 C 307.45 628.77 302.66 619.69 295.85 612.09 C 289.80 605.51 283.36 599.29 277.00 593.00 C 268.92 585.19 259.49 579.01 250.53 572.29 C 240.93 564.86 230.49 558.59 219.71 553.06 C 211.38 549.50 203.40 545.19 195.10 541.55 C 179.70 535.71 164.20 529.72 147.90 526.87 C 144.63 526.48 141.31 526.35 138.09 525.56 C 129.94 523.48 121.47 524.71 113.16 524.36 C 110.96 515.35 105.02 507.94 102.08 499.22 C 99.67 492.27 95.84 485.96 93.11 479.15 C 88.30 467.74 85.26 455.71 81.70 443.88 C 78.65 430.27 76.72 416.44 74.03 402.76 C 73.25 397.53 73.90 392.21 73.36 386.96 C 72.92 382.95 71.23 379.14 71.30 375.07 C 71.27 369.02 71.26 362.97 71.35 356.93 C 71.33 351.55 73.29 346.42 73.41 341.05 C 73.69 335.20 72.92 329.26 74.20 323.49 C 76.94 310.31 78.99 296.99 82.39 283.96 C 84.36 274.52 88.08 265.60 90.90 256.42 C 96.06 243.17 101.01 229.80 107.31 217.04 C 113.16 203.53 119.66 190.32 126.55 177.32 C 128.41 174.04 131.43 171.68 134.09 169.08 C 137.85 165.55 140.89 161.29 144.98 158.09 C 152.07 152.49 158.60 146.22 165.87 140.84 C 170.63 136.76 176.37 134.07 181.29 130.22 C 190.81 121.96 202.06 116.00 213.43 110.74 C 217.92 108.61 222.76 107.45 227.46 105.92 C 233.24 104.13 238.91 101.79 244.97 101.14 C 255.36 99.65 265.50 96.10 276.08 96.49 M 223.52 244.90 C 211.64 247.58 199.91 251.43 189.28 257.47 C 179.14 263.99 170.82 272.86 162.71 281.67 C 156.13 288.74 151.61 297.36 146.96 305.74 C 143.73 312.85 140.40 319.98 138.07 327.44 C 136.35 337.30 133.37 347.00 133.09 357.06 C 132.33 363.04 130.44 368.89 130.71 374.99 C 130.96 384.94 129.26 395.08 131.84 404.86 C 133.23 412.00 133.94 419.31 136.54 426.17 C 140.58 436.76 144.60 447.48 150.74 457.07 C 155.25 464.70 161.53 471.03 167.70 477.31 C 174.08 482.95 181.51 487.33 189.08 491.19 C 205.17 498.33 223.61 499.20 240.67 495.43 C 266.74 490.98 291.92 477.24 307.29 455.34 C 312.42 449.36 317.18 442.97 320.58 435.83 C 325.47 425.77 329.85 415.28 331.62 404.17 C 334.24 392.64 335.87 380.80 335.18 368.96 C 333.98 353.96 330.18 339.13 323.73 325.52 C 318.68 313.58 312.38 302.23 306.39 290.75 C 300.56 281.25 293.90 271.95 285.12 264.94 C 281.76 262.00 278.72 258.65 274.89 256.30 C 267.39 251.77 259.08 248.75 250.56 246.77 C 241.85 243.99 232.53 243.72 223.52 244.90 M 557.63 244.83 C 543.62 248.07 528.53 251.49 518.01 262.02 C 512.99 266.65 507.46 270.79 503.52 276.46 C 493.53 288.07 487.72 302.38 480.50 315.71 C 475.99 326.15 470.66 336.38 468.29 347.59 C 464.97 359.79 465.27 372.53 465.56 385.05 C 465.89 393.14 468.02 400.98 469.32 408.93 C 471.18 417.89 474.79 426.36 478.68 434.61 C 481.98 441.79 486.61 448.29 491.75 454.26 C 494.86 458.13 497.53 462.37 501.14 465.82 C 520.16 484.73 546.44 495.30 572.96 497.44 C 585.87 498.16 599.04 496.46 610.91 491.17 C 620.16 486.49 629.20 480.96 636.15 473.15 C 646.35 463.54 653.50 451.15 658.63 438.22 C 662.15 429.76 665.68 421.16 666.84 412.00 C 667.55 405.96 669.54 400.11 669.56 394.00 C 669.70 385.08 668.69 376.19 668.51 367.28 C 667.19 361.32 666.55 355.27 666.13 349.19 C 663.53 338.84 662.91 327.90 658.19 318.17 C 654.27 307.93 648.93 298.30 642.91 289.15 C 638.30 282.54 632.29 277.09 626.89 271.16 C 621.15 265.95 615.75 260.14 608.84 256.45 C 598.12 250.85 586.55 246.92 574.68 244.63 C 569.02 244.21 563.26 244.03 557.63 244.83 M 388.28 413.79 C 381.06 418.57 375.68 425.63 370.65 432.57 C 361.76 443.77 356.27 457.10 350.20 469.92 C 346.69 478.06 343.65 487.01 345.11 495.98 C 345.52 500.06 345.96 504.78 349.51 507.47 C 354.92 511.50 360.96 515.14 367.84 515.72 C 376.67 518.40 385.93 517.17 395.00 517.48 C 399.42 517.47 403.97 517.98 408.27 516.67 C 416.98 513.70 426.80 517.34 435.21 513.00 C 439.75 509.81 442.43 504.44 443.26 499.03 C 444.12 493.48 441.80 488.18 440.11 483.03 C 436.36 470.21 431.20 457.63 423.37 446.73 C 420.09 441.40 416.92 436.00 413.05 431.07 C 408.76 425.67 404.91 419.50 398.64 416.17 C 395.56 414.41 391.88 412.41 388.28 413.79 Z" />
<path fill="#ffffff" opacity="1.00" d=" M 522.50 339.99 C 532.16 338.40 541.68 343.08 548.95 349.11 C 557.40 356.03 561.14 367.33 560.83 378.01 C 560.69 383.55 561.28 389.19 560.14 394.65 C 557.69 403.38 554.82 412.64 547.81 418.85 C 540.57 425.83 529.50 428.05 519.92 425.49 C 513.97 424.25 509.23 419.95 505.59 415.30 C 500.92 408.85 498.54 400.90 498.29 392.97 C 496.62 382.96 497.08 372.65 499.67 362.84 C 503.05 352.31 511.03 341.94 522.50 339.99 Z" />
<path fill="#ffffff" opacity="1.00" d=" M 266.36 340.89 C 272.70 339.78 279.91 339.50 285.46 343.31 C 294.08 348.91 300.18 358.37 301.59 368.57 C 302.98 375.24 302.85 382.10 302.41 388.85 C 301.18 398.88 299.69 409.78 292.54 417.51 C 285.94 425.29 274.63 428.64 264.86 425.78 C 256.15 424.30 249.05 417.76 245.16 410.06 C 240.85 401.02 237.98 391.17 237.90 381.10 C 238.52 373.71 239.47 366.16 242.70 359.40 C 247.45 350.18 256.58 343.82 266.36 340.89 Z" />
</g>
</svg>
