<?xml version="1.0" encoding="UTF-8" ?>
<!DOCTYPE svg PUBLIC "-//W3C//DTD SVG 1.1//EN" "http://www.w3.org/Graphics/SVG/1.1/DTD/svg11.dtd">
<svg width="800pt" height="800pt" viewBox="0 0 800 800" version="1.1" xmlns="http://www.w3.org/2000/svg">
<g id="#000000ff">
<path fill="#000000" opacity="1.00" d=" M 141.47 40.56 C 143.05 38.04 147.08 37.64 148.92 40.06 C 153.23 48.17 154.16 57.44 157.15 66.02 C 158.37 71.57 159.62 77.27 163.00 81.99 C 166.84 88.92 173.12 93.86 178.27 99.74 C 184.98 106.46 192.31 112.57 200.34 117.67 C 210.89 126.76 224.22 132.01 234.25 141.75 C 237.63 144.72 241.57 147.02 244.65 150.34 C 251.66 157.67 259.52 164.33 265.08 172.91 C 269.45 179.60 275.63 185.25 278.09 193.06 C 281.85 202.22 286.17 211.26 288.16 221.03 C 288.81 224.95 288.17 229.30 290.38 232.83 C 294.48 232.98 298.24 230.99 302.18 230.13 C 308.16 228.71 313.87 226.17 320.00 225.42 C 329.64 224.38 339.07 222.06 348.63 220.53 C 356.55 218.57 364.77 219.63 372.81 218.69 C 391.39 215.65 410.29 217.79 429.01 217.41 C 437.07 217.19 445.06 218.47 453.06 219.21 C 465.41 220.31 477.52 223.09 489.47 226.27 C 494.48 227.65 499.71 228.36 504.45 230.58 C 507.02 231.67 509.65 233.19 512.56 232.70 C 515.38 227.66 513.86 221.55 516.01 216.28 C 518.46 207.16 522.80 198.75 526.15 189.96 C 528.03 185.54 531.26 181.94 534.19 178.21 C 537.02 174.64 539.20 170.60 542.16 167.13 C 547.34 161.01 553.29 155.60 558.85 149.84 C 561.98 146.59 565.96 144.33 569.28 141.28 C 577.06 133.70 587.05 129.09 595.82 122.85 C 603.04 117.39 610.85 112.70 617.47 106.47 C 626.68 98.08 636.22 89.49 642.13 78.32 C 644.19 74.50 644.75 70.16 645.85 66.02 C 648.84 57.44 649.76 48.16 654.09 40.07 C 655.93 37.67 659.96 38.02 661.53 40.56 C 665.19 45.48 666.76 51.63 670.61 56.45 C 676.86 64.44 680.26 74.09 685.23 82.84 C 687.92 87.61 689.07 93.02 691.10 98.07 C 695.33 107.83 697.26 118.35 700.95 128.31 C 704.08 139.17 708.08 149.77 710.46 160.84 C 714.88 176.40 718.54 192.19 721.09 208.17 C 722.04 212.81 723.62 217.31 724.18 222.03 C 725.14 230.42 726.94 238.68 728.27 247.01 C 729.49 258.37 730.24 269.78 732.01 281.08 C 733.18 297.68 731.43 314.39 733.10 330.97 C 733.57 336.65 732.52 342.33 733.12 348.00 C 733.48 352.33 733.39 356.67 732.91 360.98 C 732.23 367.99 732.68 375.03 732.56 382.06 C 732.57 386.45 730.70 390.57 730.60 394.95 C 730.44 399.34 730.95 403.81 729.87 408.13 C 728.96 411.70 728.53 415.37 728.56 419.06 C 728.68 423.47 726.70 427.58 726.64 431.96 C 726.53 435.47 726.84 439.03 726.13 442.50 C 723.80 453.64 722.82 465.04 719.81 476.04 C 713.16 500.89 707.54 526.42 695.06 549.18 C 690.20 562.77 681.75 574.63 672.76 585.77 C 667.66 591.31 661.83 596.16 657.07 602.01 C 651.32 609.55 644.28 615.93 638.03 623.02 C 629.07 631.40 620.83 640.51 611.98 649.00 C 607.35 653.37 603.16 658.22 598.03 662.04 C 591.39 667.00 585.81 673.21 579.29 678.31 C 569.32 686.09 559.27 693.78 548.64 700.65 C 540.43 706.75 531.90 712.60 522.43 716.60 C 518.03 718.59 514.14 721.51 509.84 723.69 C 499.70 728.74 490.15 734.91 479.84 739.63 C 475.69 741.19 471.28 742.07 467.42 744.35 C 459.63 748.76 450.46 748.83 442.02 751.24 C 434.53 753.54 426.63 753.11 419.01 754.72 C 404.99 754.96 390.77 756.22 376.88 753.60 C 371.52 753.25 366.15 752.77 360.98 751.24 C 352.54 748.83 343.37 748.76 335.58 744.35 C 330.50 741.35 324.42 740.81 319.35 737.81 C 310.46 733.40 302.05 728.11 293.17 723.70 C 288.87 721.49 284.94 718.64 280.57 716.58 C 273.66 713.36 266.92 709.69 260.71 705.27 C 253.89 699.98 246.43 695.61 239.54 690.42 C 231.29 684.04 222.70 678.06 215.14 670.84 C 209.60 665.34 203.10 660.94 197.67 655.32 C 186.18 644.81 175.77 633.21 164.48 622.51 C 158.39 615.59 151.51 609.38 145.93 602.02 C 139.87 594.44 131.76 588.71 126.25 580.66 C 122.42 575.15 117.77 570.12 115.04 563.92 C 111.68 557.13 109.44 549.84 105.74 543.22 C 94.91 521.56 89.69 497.77 83.46 474.53 C 80.47 463.12 79.54 451.33 77.11 439.81 C 76.37 436.56 76.61 433.23 76.57 429.94 C 76.66 425.20 74.48 420.76 74.61 416.01 C 75.03 408.55 71.92 401.44 72.59 393.97 C 71.88 379.98 70.31 366.00 69.66 352.01 C 70.48 345.00 69.59 337.98 69.89 330.97 C 71.10 320.02 70.48 308.99 70.58 298.00 C 70.23 287.27 72.59 276.70 72.69 265.99 C 73.05 250.81 77.23 236.11 78.95 221.09 C 79.56 216.70 81.03 212.50 81.91 208.17 C 84.45 192.19 88.13 176.40 92.54 160.84 C 94.94 149.78 98.91 139.16 102.05 128.30 C 105.74 118.35 107.67 107.83 111.90 98.07 C 113.99 92.80 115.20 87.17 118.08 82.23 C 122.83 73.90 126.05 64.68 131.98 57.04 C 136.05 52.07 137.70 45.69 141.47 40.56 M 128.87 100.53 C 128.29 105.26 126.99 109.84 125.60 114.39 C 122.00 128.48 118.05 142.50 115.13 156.76 C 113.32 162.41 112.36 168.25 111.40 174.09 C 108.61 184.37 107.39 194.96 105.56 205.42 C 103.65 212.96 102.94 220.73 101.68 228.38 C 99.78 235.45 100.95 242.81 100.22 250.02 C 99.84 253.42 99.60 256.85 99.22 260.26 C 97.64 269.30 99.10 278.54 97.68 287.61 C 96.24 298.02 96.47 308.54 96.53 319.02 C 96.73 324.40 98.73 329.57 98.43 334.99 C 98.08 344.71 100.53 354.26 100.44 363.98 C 100.40 367.06 100.84 370.13 101.58 373.12 C 103.40 379.78 101.56 386.82 103.40 393.48 C 105.22 400.04 103.80 407.00 106.03 413.50 C 106.39 422.21 108.97 430.57 110.31 439.16 C 111.73 449.82 115.19 460.07 117.28 470.61 C 119.71 478.80 121.12 487.30 124.60 495.15 C 128.27 506.59 132.92 517.68 136.70 529.08 C 140.67 540.53 146.52 551.15 151.84 562.00 C 153.70 565.82 155.01 569.93 157.46 573.45 C 163.04 581.63 168.73 589.73 173.88 598.19 C 183.25 612.77 196.46 624.20 208.49 636.48 C 212.85 641.16 218.08 644.90 222.54 649.47 C 226.37 653.43 231.49 655.75 235.56 659.42 C 245.04 667.41 255.33 674.32 265.30 681.65 C 270.10 685.20 275.91 686.88 280.95 689.99 C 289.98 695.44 299.58 699.86 308.79 704.98 C 318.32 709.33 328.12 713.08 337.79 717.11 C 344.90 720.26 352.41 722.33 359.66 725.09 C 371.58 728.13 383.53 732.06 396.00 731.52 C 404.58 731.01 413.25 732.06 421.76 730.59 C 429.70 728.53 437.86 727.20 445.57 724.32 C 452.34 721.67 459.39 719.83 466.02 716.83 C 478.29 711.50 491.07 707.24 502.65 700.46 C 512.91 695.59 522.39 689.26 532.76 684.65 C 538.44 681.59 543.23 677.19 548.60 673.67 C 556.43 668.63 563.49 662.53 570.79 656.79 C 578.57 652.14 584.56 645.25 591.44 639.45 C 605.02 625.69 619.99 612.93 630.36 596.40 C 637.29 585.52 645.73 575.43 650.53 563.35 C 655.10 553.59 660.53 544.23 664.36 534.13 C 667.33 526.91 669.40 519.36 672.34 512.13 C 675.38 504.89 677.44 497.30 680.27 489.98 C 684.74 476.20 687.44 461.93 691.25 447.97 C 692.71 440.89 693.22 433.63 695.10 426.62 C 696.88 421.39 696.07 415.75 697.65 410.48 C 699.28 404.86 697.71 398.86 699.48 393.26 C 701.48 386.69 699.61 379.71 701.42 373.12 C 702.59 368.84 702.66 364.39 702.59 359.99 C 702.27 350.58 705.13 341.39 704.50 331.97 C 703.97 326.84 706.65 322.12 706.51 317.03 C 706.46 311.02 706.56 305.00 706.39 298.98 C 705.85 290.65 704.32 282.38 704.59 274.01 C 704.93 262.61 702.03 251.40 702.47 240.00 C 702.83 234.89 701.58 229.93 700.71 224.94 C 700.05 218.11 698.76 211.36 697.22 204.67 C 696.13 196.90 694.81 189.16 693.38 181.45 C 690.98 173.33 690.55 164.80 687.87 156.76 C 685.52 145.20 682.45 133.80 679.45 122.40 C 677.86 115.05 675.04 108.00 674.12 100.51 C 673.82 100.62 673.22 100.85 672.92 100.97 C 671.26 104.74 670.79 108.89 670.17 112.92 C 669.10 119.51 666.13 125.54 664.00 131.81 C 660.50 143.37 653.96 153.65 648.42 164.29 C 643.91 171.12 642.45 179.38 638.15 186.32 C 634.08 192.77 632.07 200.18 628.83 207.03 C 625.28 216.13 622.59 225.53 619.57 234.82 C 618.17 239.05 618.78 243.60 617.62 247.89 C 616.29 252.71 616.71 257.79 615.59 262.65 C 614.59 271.96 616.99 281.58 614.56 290.74 C 613.86 294.60 609.08 293.96 606.66 292.21 C 600.55 288.49 598.76 281.19 595.47 275.33 C 592.79 270.85 592.32 265.51 589.95 260.89 C 587.96 256.88 588.97 252.28 587.79 248.08 C 586.96 244.79 586.22 241.40 586.83 238.00 C 587.83 230.87 587.59 223.58 589.35 216.56 C 591.77 207.26 593.74 197.76 597.86 189.02 C 599.59 185.36 601.11 181.61 602.66 177.87 C 604.88 172.32 608.23 167.35 610.87 162.00 C 613.90 155.89 618.92 150.78 620.76 144.10 C 613.70 147.02 609.40 153.93 603.10 158.03 C 597.17 162.76 590.85 167.10 585.93 172.93 C 575.90 182.62 566.33 192.90 558.64 204.57 C 554.61 209.93 550.53 215.26 547.28 221.15 C 542.42 228.73 539.30 237.38 533.23 244.16 C 538.29 248.97 544.28 252.98 548.17 258.95 C 549.50 261.13 548.82 264.75 545.83 264.98 C 540.29 265.63 534.74 267.28 529.13 266.34 C 524.47 265.55 519.80 264.63 515.06 264.74 C 508.33 264.87 501.71 263.41 495.00 263.31 C 490.18 263.27 485.78 260.98 481.01 260.67 C 464.65 259.16 448.53 254.87 432.01 255.40 C 426.20 255.57 420.81 252.84 415.02 252.86 C 402.35 252.87 389.67 252.76 377.00 252.84 C 372.81 252.94 368.63 253.31 364.52 254.05 C 358.83 255.05 353.02 254.02 347.33 255.02 C 341.75 255.97 336.02 254.69 330.48 256.04 C 326.11 256.96 321.63 256.89 317.21 257.42 C 306.31 259.09 295.45 261.28 284.40 261.67 C 276.63 263.00 267.58 265.04 260.51 260.53 C 260.26 258.55 260.21 256.50 260.72 254.56 C 262.77 250.55 267.55 248.77 269.65 244.85 C 268.79 240.61 264.87 237.75 262.94 233.96 C 257.63 224.20 252.23 214.41 245.18 205.76 C 237.32 193.60 227.41 182.99 217.05 172.94 C 211.70 166.50 204.83 161.65 198.13 156.74 C 192.74 152.68 188.63 146.76 182.29 144.08 C 183.89 150.56 188.83 155.49 191.78 161.34 C 194.78 167.36 198.54 172.99 200.94 179.29 C 203.62 186.23 207.28 192.78 209.27 199.98 C 212.08 210.15 215.23 220.37 215.48 231.01 C 215.54 235.65 217.12 240.31 215.93 244.92 C 215.11 248.23 214.42 251.59 214.39 255.02 C 214.44 259.42 211.65 263.07 210.66 267.22 C 209.94 270.31 208.73 273.24 207.19 276.00 C 204.35 281.11 202.73 287.18 198.02 291.00 C 195.91 293.09 192.72 294.29 189.83 293.20 C 188.32 291.41 187.82 289.02 187.57 286.77 C 186.98 278.87 187.77 270.95 187.66 263.06 C 186.79 258.23 186.64 253.32 186.06 248.46 C 184.50 242.43 184.87 236.02 182.44 230.21 C 178.70 217.54 174.32 205.04 168.79 193.04 C 167.13 189.86 165.01 186.94 163.41 183.72 C 161.05 179.35 159.67 174.55 157.70 170.02 C 152.09 159.30 145.74 148.93 141.05 137.76 C 139.06 131.49 136.50 125.42 134.38 119.20 C 132.27 113.28 132.61 106.75 130.09 100.94 C 129.79 100.84 129.18 100.63 128.87 100.53 Z" />
<path fill="#000000" opacity="1.00" d=" M 645.83 384.68 C 651.23 381.86 656.67 378.32 663.02 378.45 C 665.30 378.42 669.04 377.95 669.52 381.02 C 668.87 388.80 664.65 395.89 659.41 401.51 C 658.63 402.17 658.38 403.16 658.58 404.15 C 661.31 405.55 665.08 406.44 665.57 410.05 C 665.74 414.15 661.14 415.35 658.02 416.30 C 640.50 421.16 624.55 430.08 608.75 438.83 C 602.71 443.10 596.11 446.67 590.61 451.65 C 591.55 458.39 591.75 465.20 592.48 471.97 C 592.93 475.78 591.14 479.30 590.72 483.01 C 590.49 489.27 588.76 495.33 587.64 501.46 C 583.50 512.42 578.54 523.68 569.51 531.53 C 566.01 534.45 561.75 537.32 556.95 536.75 C 553.36 536.93 550.19 533.61 550.34 530.05 C 549.67 525.18 551.06 520.47 552.28 515.82 C 552.89 508.45 551.92 500.96 553.23 493.63 C 553.64 490.52 554.56 487.43 554.14 484.27 C 548.63 488.77 544.87 494.90 540.00 500.00 C 533.93 506.32 529.16 513.72 523.18 520.11 C 517.36 528.23 511.01 535.95 504.41 543.43 C 502.06 545.93 499.81 548.61 496.91 550.48 C 494.72 551.23 492.85 549.54 491.78 547.83 C 489.98 536.03 493.46 524.32 496.96 513.16 C 500.33 504.14 504.46 495.40 509.10 486.95 C 511.91 480.82 516.58 475.87 520.46 470.43 C 523.88 466.47 526.10 461.57 530.00 458.02 C 532.42 455.77 534.86 453.52 537.11 451.10 C 543.59 444.21 551.42 438.78 558.04 432.04 C 563.40 427.13 569.39 422.91 576.06 419.96 C 586.95 412.71 598.99 407.31 611.42 403.27 C 616.74 401.56 623.02 401.47 626.99 396.97 C 632.20 391.40 639.23 388.23 645.83 384.68 Z" />
<path fill="#000000" opacity="1.00" d=" M 134.68 385.04 C 135.21 383.10 136.71 380.99 138.98 381.29 C 146.15 380.61 152.15 385.42 157.71 389.25 C 161.66 391.85 164.03 396.29 168.10 398.68 C 176.37 400.56 185.10 400.57 193.10 403.71 C 204.79 408.18 216.56 412.86 226.94 419.96 C 233.60 422.92 239.61 427.13 244.97 432.04 C 251.75 438.95 259.80 444.50 266.39 451.62 C 269.82 455.47 274.23 458.43 277.08 462.80 C 281.48 469.61 286.88 475.70 291.43 482.41 C 296.98 492.31 302.08 502.51 306.04 513.16 C 309.50 524.05 312.75 535.40 311.41 546.95 C 311.12 548.66 309.53 550.05 307.94 550.60 C 305.57 551.04 304.02 548.87 302.46 547.48 C 294.70 539.16 287.25 530.51 280.68 521.22 C 278.46 518.20 275.62 515.71 273.50 512.62 C 270.02 507.49 265.70 503.03 261.57 498.43 C 257.35 493.71 253.83 488.30 248.86 484.28 C 248.46 487.71 249.46 491.08 249.90 494.47 C 251.13 501.78 249.95 509.25 250.87 516.58 C 252.50 521.79 253.53 527.39 252.18 532.79 C 250.07 537.57 243.62 537.63 239.56 535.56 C 230.83 531.12 224.92 522.66 220.73 514.06 C 218.27 508.53 215.19 503.10 214.45 497.01 C 213.87 492.96 212.47 489.06 212.43 484.94 C 212.46 480.51 210.02 476.43 210.52 471.97 C 211.24 465.20 211.45 458.39 212.39 451.65 C 206.89 446.67 200.29 443.09 194.25 438.82 C 184.97 433.74 175.73 428.52 166.10 424.12 C 158.80 422.11 152.12 418.42 144.85 416.34 C 141.96 415.33 138.19 414.42 137.40 410.96 C 137.17 407.29 140.94 405.87 143.51 404.28 C 144.04 402.36 142.52 400.84 141.59 399.36 C 138.48 395.04 135.96 390.22 134.68 385.04 Z" />
<path fill="#000000" opacity="1.00" d=" M 381.33 620.15 C 393.68 615.78 407.31 615.13 419.96 618.69 C 423.89 619.56 429.79 621.87 428.57 626.96 C 426.95 630.89 424.25 634.28 421.75 637.71 C 418.52 642.07 414.03 645.31 410.76 649.62 C 409.83 652.85 411.25 656.08 412.04 659.18 C 413.21 663.39 412.01 667.80 412.70 672.07 C 418.99 672.98 425.08 675.86 428.97 681.01 C 431.13 683.45 430.84 686.98 430.32 689.97 C 427.37 692.23 423.41 691.73 419.95 691.65 C 413.93 691.48 409.89 685.82 404.33 684.67 C 397.42 689.99 388.38 690.93 379.93 690.76 C 378.34 690.68 376.42 690.91 375.73 689.11 C 373.02 685.76 376.26 682.06 378.48 679.51 C 383.06 674.67 390.08 674.19 396.33 674.24 C 397.05 668.50 395.94 662.72 396.52 656.98 C 396.66 654.17 397.59 651.42 397.37 648.60 C 392.39 644.22 386.42 640.86 382.51 635.35 C 380.22 631.97 376.68 628.63 377.33 624.18 C 377.26 621.94 379.62 620.94 381.33 620.15 Z" />
</g>
<g id="#ffffffff">
<path fill="#ffffff" opacity="1.00" d=" M 128.87 100.53 C 129.18 100.63 129.79 100.84 130.09 100.94 C 132.61 106.75 132.27 113.28 134.38 119.20 C 136.50 125.42 139.06 131.49 141.05 137.76 C 145.74 148.93 152.09 159.30 157.70 170.02 C 159.67 174.55 161.05 179.35 163.41 183.72 C 165.01 186.94 167.13 189.86 168.79 193.04 C 174.32 205.04 178.70 217.54 182.44 230.21 C 184.87 236.02 184.50 242.43 186.06 248.46 C 186.64 253.32 186.79 258.23 187.66 263.06 C 187.77 270.95 186.98 278.87 187.57 286.77 C 187.82 289.02 188.32 291.41 189.83 293.20 C 192.72 294.29 195.91 293.09 198.02 291.00 C 202.73 287.18 204.35 281.11 207.19 276.00 C 208.73 273.24 209.94 270.31 210.66 267.22 C 211.65 263.07 214.44 259.42 214.39 255.02 C 214.42 251.59 215.11 248.23 215.93 244.92 C 217.12 240.31 215.54 235.65 215.48 231.01 C 215.23 220.37 212.08 210.15 209.27 199.98 C 207.28 192.78 203.62 186.23 200.94 179.29 C 198.54 172.99 194.78 167.36 191.78 161.34 C 188.83 155.49 183.89 150.56 182.29 144.08 C 188.63 146.76 192.74 152.68 198.13 156.74 C 204.83 161.65 211.70 166.50 217.05 172.94 C 227.41 182.99 237.32 193.60 245.18 205.76 C 252.23 214.41 257.63 224.20 262.94 233.96 C 264.87 237.75 268.79 240.61 269.65 244.85 C 267.55 248.77 262.77 250.55 260.72 254.56 C 260.21 256.50 260.26 258.55 260.51 260.53 C 267.58 265.04 276.63 263.00 284.40 261.67 C 295.45 261.28 306.31 259.09 317.21 257.42 C 321.63 256.89 326.11 256.96 330.48 256.04 C 336.02 254.69 341.75 255.97 347.33 255.02 C 353.02 254.02 358.83 255.05 364.52 254.05 C 368.63 253.31 372.81 252.94 377.00 252.84 C 389.67 252.76 402.35 252.87 415.02 252.86 C 420.81 252.84 426.20 255.57 432.01 255.40 C 448.53 254.87 464.65 259.16 481.01 260.67 C 485.78 260.98 490.18 263.27 495.00 263.31 C 501.71 263.41 508.33 264.87 515.06 264.74 C 519.80 264.63 524.47 265.55 529.13 266.34 C 534.74 267.28 540.29 265.63 545.83 264.98 C 548.82 264.75 549.50 261.13 548.17 258.95 C 544.28 252.98 538.29 248.97 533.23 244.16 C 539.30 237.38 542.42 228.73 547.28 221.15 C 550.53 215.26 554.61 209.93 558.64 204.57 C 566.33 192.90 575.90 182.62 585.93 172.93 C 590.85 167.10 597.17 162.76 603.10 158.03 C 609.40 153.93 613.70 147.02 620.76 144.10 C 618.92 150.78 613.90 155.89 610.87 162.00 C 608.23 167.35 604.88 172.32 602.66 177.87 C 601.11 181.61 599.59 185.36 597.86 189.02 C 593.74 197.76 591.77 207.26 589.35 216.56 C 587.59 223.58 587.83 230.87 586.83 238.00 C 586.22 241.40 586.96 244.79 587.79 248.08 C 588.97 252.28 587.96 256.88 589.95 260.89 C 592.32 265.51 592.79 270.85 595.47 275.33 C 598.76 281.19 600.55 288.49 606.66 292.21 C 609.08 293.96 613.86 294.60 614.56 290.74 C 616.99 281.58 614.59 271.96 615.59 262.65 C 616.71 257.79 616.29 252.71 617.62 247.89 C 618.78 243.60 618.17 239.05 619.57 234.82 C 622.59 225.53 625.28 216.13 628.83 207.03 C 632.07 200.18 634.08 192.77 638.15 186.32 C 642.45 179.38 643.91 171.12 648.42 164.29 C 653.96 153.65 660.50 143.37 664.00 131.81 C 666.13 125.54 669.10 119.51 670.17 112.92 C 670.79 108.89 671.26 104.74 672.92 100.97 C 673.22 100.85 673.82 100.62 674.12 100.51 C 675.04 108.00 677.86 115.05 679.45 122.40 C 682.45 133.80 685.52 145.20 687.87 156.76 C 690.55 164.80 690.98 173.33 693.38 181.45 C 694.81 189.16 696.13 196.90 697.22 204.67 C 698.76 211.36 700.05 218.11 700.71 224.94 C 701.58 229.93 702.83 234.89 702.47 240.00 C 702.03 251.40 704.93 262.61 704.59 274.01 C 704.32 282.38 705.85 290.65 706.39 298.98 C 706.56 305.00 706.46 311.02 706.51 317.03 C 706.65 322.12 703.97 326.84 704.50 331.97 C 705.13 341.39 702.27 350.58 702.59 359.99 C 702.66 364.39 702.59 368.84 701.42 373.12 C 699.61 379.71 701.48 386.69 699.48 393.26 C 697.71 398.86 699.28 404.86 697.65 410.48 C 696.07 415.75 696.88 421.39 695.10 426.62 C 693.22 433.63 692.71 440.89 691.25 447.97 C 687.44 461.93 684.74 476.20 680.27 489.98 C 677.44 497.30 675.38 504.89 672.34 512.13 C 669.40 519.36 667.33 526.91 664.36 534.13 C 660.53 544.23 655.10 553.59 650.53 563.35 C 645.73 575.43 637.29 585.52 630.36 596.40 C 619.99 612.93 605.02 625.69 591.44 639.45 C 584.56 645.25 578.57 652.14 570.79 656.79 C 563.49 662.53 556.43 668.63 548.60 673.67 C 543.23 677.19 538.44 681.59 532.76 684.65 C 522.39 689.26 512.91 695.59 502.65 700.46 C 491.07 707.24 478.29 711.50 466.02 716.83 C 459.39 719.83 452.34 721.67 445.57 724.32 C 437.86 727.20 429.70 728.53 421.76 730.59 C 413.25 732.06 404.58 731.01 396.00 731.52 C 383.53 732.06 371.58 728.13 359.66 725.09 C 352.41 722.33 344.90 720.26 337.79 717.11 C 328.12 713.08 318.32 709.33 308.79 704.98 C 299.58 699.86 289.98 695.44 280.95 689.99 C 275.91 686.88 270.10 685.20 265.30 681.65 C 255.33 674.32 245.04 667.41 235.56 659.42 C 231.49 655.75 226.37 653.43 222.54 649.47 C 218.08 644.90 212.85 641.16 208.49 636.48 C 196.46 624.20 183.25 612.77 173.88 598.19 C 168.73 589.73 163.04 581.63 157.46 573.45 C 155.01 569.93 153.70 565.82 151.84 562.00 C 146.52 551.15 140.67 540.53 136.70 529.08 C 132.92 517.68 128.27 506.59 124.60 495.15 C 121.12 487.30 119.71 478.80 117.28 470.61 C 115.19 460.07 111.73 449.82 110.31 439.16 C 108.97 430.57 106.39 422.21 106.03 413.50 C 103.80 407.00 105.22 400.04 103.40 393.48 C 101.56 386.82 103.40 379.78 101.58 373.12 C 100.84 370.13 100.40 367.06 100.44 363.98 C 100.53 354.26 98.08 344.71 98.43 334.99 C 98.73 329.57 96.73 324.40 96.53 319.02 C 96.47 308.54 96.24 298.02 97.68 287.61 C 99.10 278.54 97.64 269.30 99.22 260.26 C 99.60 256.85 99.84 253.42 100.22 250.02 C 100.95 242.81 99.78 235.45 101.68 228.38 C 102.94 220.73 103.65 212.96 105.56 205.42 C 107.39 194.96 108.61 184.37 111.40 174.09 C 112.36 168.25 113.32 162.41 115.13 156.76 C 118.05 142.50 122.00 128.48 125.60 114.39 C 126.99 109.84 128.29 105.26 128.87 100.53 M 645.83 384.68 C 639.23 388.23 632.20 391.40 626.99 396.97 C 623.02 401.47 616.74 401.56 611.42 403.27 C 598.99 407.31 586.95 412.71 576.06 419.96 C 569.39 422.91 563.40 427.13 558.04 432.04 C 551.42 438.78 543.59 444.21 537.11 451.10 C 534.86 453.52 532.42 455.77 530.00 458.02 C 526.10 461.57 523.88 466.47 520.46 470.43 C 516.58 475.87 511.91 480.82 509.10 486.95 C 504.46 495.40 500.33 504.14 496.96 513.16 C 493.46 524.32 489.98 536.03 491.78 547.83 C 492.85 549.54 494.72 551.23 496.91 550.48 C 499.81 548.61 502.06 545.93 504.41 543.43 C 511.01 535.95 517.36 528.23 523.18 520.11 C 529.16 513.72 533.93 506.32 540.00 500.00 C 544.87 494.90 548.63 488.77 554.14 484.27 C 554.56 487.43 553.64 490.52 553.23 493.63 C 551.92 500.96 552.89 508.45 552.28 515.82 C 551.06 520.47 549.67 525.18 550.34 530.05 C 550.19 533.61 553.36 536.93 556.95 536.75 C 561.75 537.32 566.01 534.45 569.51 531.53 C 578.54 523.68 583.50 512.42 587.64 501.46 C 588.76 495.33 590.49 489.27 590.72 483.01 C 591.14 479.30 592.93 475.78 592.48 471.97 C 591.75 465.20 591.55 458.39 590.61 451.65 C 596.11 446.67 602.71 443.10 608.75 438.83 C 624.55 430.08 640.50 421.16 658.02 416.30 C 661.14 415.35 665.74 414.15 665.57 410.05 C 665.08 406.44 661.31 405.55 658.58 404.15 C 658.38 403.16 658.63 402.17 659.41 401.51 C 664.65 395.89 668.87 388.80 669.52 381.02 C 669.04 377.95 665.30 378.42 663.02 378.45 C 656.67 378.32 651.23 381.86 645.83 384.68 M 134.68 385.04 C 135.96 390.22 138.48 395.04 141.59 399.36 C 142.52 400.84 144.04 402.36 143.51 404.28 C 140.94 405.87 137.17 407.29 137.40 410.96 C 138.19 414.42 141.96 415.33 144.85 416.34 C 152.12 418.42 158.80 422.11 166.10 424.12 C 175.73 428.52 184.97 433.74 194.25 438.82 C 200.29 443.09 206.89 446.67 212.39 451.65 C 211.45 458.39 211.24 465.20 210.52 471.97 C 210.02 476.43 212.46 480.51 212.43 484.94 C 212.47 489.06 213.87 492.96 214.45 497.01 C 215.19 503.10 218.27 508.53 220.73 514.06 C 224.92 522.66 230.83 531.12 239.56 535.56 C 243.62 537.63 250.07 537.57 252.18 532.79 C 253.53 527.39 252.50 521.79 250.87 516.58 C 249.95 509.25 251.13 501.78 249.90 494.47 C 249.46 491.08 248.46 487.71 248.86 484.28 C 253.83 488.30 257.35 493.71 261.57 498.43 C 265.70 503.03 270.02 507.49 273.50 512.62 C 275.62 515.71 278.46 518.20 280.68 521.22 C 287.25 530.51 294.70 539.16 302.46 547.48 C 304.02 548.87 305.57 551.04 307.94 550.60 C 309.53 550.05 311.12 548.66 311.41 546.95 C 312.75 535.40 309.50 524.05 306.04 513.16 C 302.08 502.51 296.98 492.31 291.43 482.41 C 286.88 475.70 281.48 469.61 277.08 462.80 C 274.23 458.43 269.82 455.47 266.39 451.62 C 259.80 444.50 251.75 438.95 244.97 432.04 C 239.61 427.13 233.60 422.92 226.94 419.96 C 216.56 412.86 204.79 408.18 193.10 403.71 C 185.10 400.57 176.37 400.56 168.10 398.68 C 164.03 396.29 161.66 391.85 157.71 389.25 C 152.15 385.42 146.15 380.61 138.98 381.29 C 136.71 380.99 135.21 383.10 134.68 385.04 M 381.33 620.15 C 379.62 620.94 377.26 621.94 377.33 624.18 C 376.68 628.63 380.22 631.97 382.51 635.35 C 386.42 640.86 392.39 644.22 397.37 648.60 C 397.59 651.42 396.66 654.17 396.52 656.98 C 395.94 662.72 397.05 668.50 396.33 674.24 C 390.08 674.19 383.06 674.67 378.48 679.51 C 376.26 682.06 373.02 685.76 375.73 689.11 C 376.42 690.91 378.34 690.68 379.93 690.76 C 388.38 690.93 397.42 689.99 404.33 684.67 C 409.89 685.82 413.93 691.48 419.95 691.65 C 423.41 691.73 427.37 692.23 430.32 689.97 C 430.84 686.98 431.13 683.45 428.97 681.01 C 425.08 675.86 418.99 672.98 412.70 672.07 C 412.01 667.80 413.21 663.39 412.04 659.18 C 411.25 656.08 409.83 652.85 410.76 649.62 C 414.03 645.31 418.52 642.07 421.75 637.71 C 424.25 634.28 426.95 630.89 428.57 626.96 C 429.79 621.87 423.89 619.56 419.96 618.69 C 407.31 615.13 393.68 615.78 381.33 620.15 Z" />
</g>
</svg>
