<?xml version="1.0" encoding="UTF-8" ?>
<!DOCTYPE svg PUBLIC "-//W3C//DTD SVG 1.1//EN" "http://www.w3.org/Graphics/SVG/1.1/DTD/svg11.dtd">
<svg width="800pt" height="800pt" viewBox="0 0 800 800" version="1.1" xmlns="http://www.w3.org/2000/svg">
<g id="#000000ff">
<path fill="#000000" opacity="1.00" d=" M 224.61 420.48 C 233.99 414.72 247.55 413.03 256.44 420.57 C 260.04 423.95 264.78 426.55 266.68 431.35 C 269.01 436.93 268.34 443.13 268.03 449.01 C 267.30 456.52 263.36 463.10 259.25 469.23 C 254.88 476.05 249.99 482.58 244.41 488.47 C 242.11 491.17 239.22 493.56 237.99 497.00 C 234.43 506.62 230.71 516.23 228.25 526.20 C 227.31 528.61 229.83 530.24 230.90 532.09 C 235.98 539.91 237.15 549.41 238.42 558.44 C 238.83 565.20 239.46 572.04 238.48 578.79 C 237.15 587.31 234.84 595.67 231.68 603.70 C 230.38 607.07 227.71 610.16 228.04 613.97 C 228.64 622.23 228.89 630.52 229.93 638.75 C 238.94 638.84 247.35 644.88 251.02 652.99 C 253.58 658.23 253.21 664.29 252.92 669.95 C 250.95 678.77 244.81 686.62 236.86 690.86 C 231.35 694.00 224.62 692.46 219.27 689.79 C 211.62 685.16 204.16 678.33 203.03 668.96 C 201.43 662.05 204.13 655.24 207.17 649.15 C 207.68 647.88 208.57 646.70 208.61 645.31 C 208.15 634.83 205.64 624.56 205.35 614.07 C 204.88 601.16 202.37 588.43 199.09 575.97 C 197.93 572.02 197.49 567.58 194.58 564.45 C 188.25 557.10 186.41 546.62 188.33 537.29 C 189.55 532.16 193.64 528.56 198.04 526.07 C 198.87 523.65 199.01 521.06 199.70 518.61 C 201.65 510.57 207.42 504.05 208.86 495.84 C 211.79 485.76 215.18 475.07 212.39 464.56 C 208.45 454.91 201.74 445.86 201.94 434.99 C 201.54 427.78 206.05 420.09 213.31 418.29 C 217.22 416.81 221.08 419.00 224.61 420.48 M 212.23 430.31 C 210.78 434.47 211.60 439.08 212.85 443.19 C 213.96 446.97 216.93 449.66 219.30 452.65 C 226.28 464.58 225.81 479.47 221.23 492.17 C 219.64 496.35 217.09 500.06 215.00 503.99 C 212.37 511.42 209.66 518.84 206.50 526.06 C 210.62 527.31 213.65 530.41 216.69 533.28 C 216.90 524.68 219.34 516.36 222.23 508.32 C 225.91 498.19 228.91 487.38 236.01 479.01 C 239.98 475.84 242.13 471.14 245.22 467.22 C 250.64 459.01 256.20 450.17 257.01 440.13 C 254.58 434.83 249.59 430.58 243.90 429.14 C 237.02 428.35 229.90 431.17 225.21 436.22 C 223.21 438.78 221.37 441.48 219.00 443.73 C 217.58 442.97 215.86 442.31 215.39 440.59 C 213.30 435.84 216.05 430.83 218.27 426.67 C 215.69 426.55 213.15 427.79 212.23 430.31 M 200.25 536.03 C 196.72 538.78 196.67 543.81 197.12 547.88 C 199.77 552.65 203.20 557.15 204.36 562.61 C 205.81 568.94 208.30 574.96 209.78 581.28 C 213.11 595.59 214.91 610.22 216.12 624.85 C 216.62 630.34 218.65 635.54 219.42 641.00 C 220.89 640.54 222.36 640.08 223.84 639.64 C 218.75 627.01 219.42 612.73 222.94 599.80 C 225.06 584.13 226.98 568.25 225.52 552.44 C 224.88 549.55 225.36 546.19 223.25 543.83 C 222.70 545.26 222.13 546.80 222.67 548.34 C 224.12 554.00 223.91 560.04 222.11 565.59 C 221.58 565.60 220.53 565.62 220.00 565.64 C 213.91 558.09 213.52 547.73 208.34 539.68 C 206.63 537.10 203.42 535.05 200.25 536.03 M 227.34 650.18 C 222.18 651.20 216.24 653.07 213.53 657.95 C 213.82 665.20 216.65 672.93 222.59 677.43 C 225.38 679.49 229.25 680.09 232.42 678.54 C 237.74 675.33 241.38 669.26 241.20 662.99 C 241.27 655.92 234.79 648.67 227.34 650.18 Z" />
<path fill="#000000" opacity="1.00" d=" M 557.64 419.69 C 566.63 413.17 579.36 414.95 588.39 420.48 C 591.92 419.00 595.78 416.81 599.69 418.30 C 606.57 420.00 611.07 427.07 611.04 433.95 C 611.48 443.26 606.88 451.69 602.75 459.71 C 598.09 467.84 599.32 477.85 601.51 486.56 C 603.85 493.24 604.55 500.53 608.25 506.69 C 611.64 512.71 613.99 519.27 614.80 526.16 C 619.44 528.32 623.37 532.23 624.67 537.29 C 626.28 545.03 625.22 553.41 621.36 560.35 C 619.60 563.59 616.34 565.96 615.60 569.74 C 612.59 580.63 609.85 591.64 608.56 602.89 C 607.55 609.56 607.85 616.35 606.96 623.04 C 606.07 630.66 604.58 638.27 604.44 645.96 C 607.43 652.91 611.73 660.10 610.11 668.00 C 609.27 678.01 601.32 685.44 593.07 690.13 C 587.84 692.54 581.42 693.90 576.14 690.86 C 568.18 686.61 562.05 678.77 560.08 669.94 C 559.75 664.04 559.41 657.69 562.31 652.31 C 566.11 644.55 574.32 638.84 583.07 638.75 C 583.85 632.23 584.29 625.68 584.60 619.13 C 584.68 615.99 585.64 612.63 584.18 609.68 C 578.93 599.53 575.91 588.32 574.30 577.05 C 573.62 568.01 574.20 558.87 575.89 549.97 C 576.78 543.94 578.58 537.94 581.69 532.68 C 582.78 530.57 585.68 528.87 584.75 526.20 C 582.36 516.47 578.73 507.10 575.29 497.70 C 574.04 493.72 570.72 491.01 568.11 487.94 C 560.88 480.25 554.88 471.48 549.53 462.41 C 544.45 454.07 543.82 443.73 545.34 434.30 C 546.55 427.50 552.91 423.92 557.64 419.69 M 594.82 426.91 C 597.07 430.97 599.65 435.94 597.61 440.59 C 597.13 442.31 595.41 442.97 594.00 443.73 C 591.63 441.48 589.78 438.78 587.79 436.22 C 583.10 431.17 575.98 428.35 569.10 429.13 C 563.40 430.57 558.45 434.84 555.97 440.11 C 557.32 453.88 566.46 465.04 573.97 476.09 C 579.58 480.86 583.00 487.61 585.71 494.34 C 590.21 507.00 595.87 519.63 596.31 533.27 C 599.35 530.41 602.37 527.33 606.48 526.06 C 603.36 518.82 600.62 511.42 598.00 503.99 C 595.91 500.06 593.36 496.35 591.77 492.17 C 587.19 479.47 586.73 464.58 593.70 452.66 C 596.06 449.67 599.03 446.97 600.15 443.19 C 601.40 439.08 602.22 434.47 600.77 430.31 C 599.86 427.84 597.37 426.55 594.82 426.91 M 605.53 538.54 C 599.43 546.61 599.44 557.75 593.00 565.64 C 592.47 565.62 591.41 565.59 590.88 565.58 C 588.96 559.78 588.95 553.49 590.47 547.61 C 591.13 546.10 589.84 544.94 589.12 543.78 C 587.59 549.04 587.07 554.54 587.15 560.00 C 586.43 565.32 587.11 570.67 587.55 575.99 C 587.76 583.99 589.06 591.87 590.06 599.80 C 593.59 612.74 594.24 627.01 589.16 639.65 C 590.64 640.08 592.12 640.54 593.60 640.99 C 594.39 635.24 596.57 629.77 596.97 623.96 C 598.29 606.93 600.95 590.01 604.65 573.34 C 607.31 565.74 609.51 557.82 614.02 551.05 C 617.07 547.34 616.57 541.72 614.36 537.72 C 612.40 534.20 607.58 536.07 605.53 538.54 M 580.42 650.60 C 577.50 651.16 575.40 653.54 573.93 655.97 C 568.83 663.75 573.37 674.96 581.32 678.86 C 586.90 681.03 592.35 676.80 595.22 672.31 C 597.49 667.83 599.62 663.09 599.47 657.95 C 597.76 654.49 593.98 652.75 590.56 651.42 C 587.31 650.41 583.76 649.34 580.42 650.60 Z" />
</g>
<g id="#ffffffff">
<path fill="#ffffff" opacity="1.00" d=" M 212.23 430.31 C 213.15 427.79 215.69 426.55 218.27 426.67 C 216.05 430.83 213.30 435.84 215.39 440.59 C 215.86 442.31 217.58 442.97 219.00 443.73 C 221.37 441.48 223.21 438.78 225.21 436.22 C 229.90 431.17 237.02 428.35 243.90 429.14 C 249.59 430.58 254.58 434.83 257.01 440.13 C 256.20 450.17 250.64 459.01 245.22 467.22 C 242.13 471.14 239.98 475.84 236.01 479.01 C 228.91 487.38 225.91 498.19 222.23 508.32 C 219.34 516.36 216.90 524.68 216.69 533.28 C 213.65 530.41 210.62 527.31 206.50 526.06 C 209.66 518.84 212.37 511.42 215.00 503.99 C 217.09 500.06 219.64 496.35 221.23 492.17 C 225.81 479.47 226.28 464.58 219.30 452.65 C 216.93 449.66 213.96 446.97 212.85 443.19 C 211.60 439.08 210.78 434.47 212.23 430.31 Z" />
<path fill="#ffffff" opacity="1.00" d=" M 594.82 426.91 C 597.37 426.55 599.86 427.84 600.77 430.31 C 602.22 434.47 601.40 439.08 600.15 443.19 C 599.03 446.97 596.06 449.67 593.70 452.66 C 586.73 464.58 587.19 479.47 591.77 492.17 C 593.36 496.35 595.91 500.06 598.00 503.99 C 600.62 511.42 603.36 518.82 606.48 526.06 C 602.37 527.33 599.35 530.41 596.31 533.27 C 595.87 519.63 590.21 507.00 585.71 494.34 C 583.00 487.61 579.58 480.86 573.97 476.09 C 566.46 465.04 557.32 453.88 555.97 440.11 C 558.45 434.84 563.40 430.57 569.10 429.13 C 575.98 428.35 583.10 431.17 587.79 436.22 C 589.78 438.78 591.63 441.48 594.00 443.73 C 595.41 442.97 597.13 442.31 597.61 440.59 C 599.65 435.94 597.07 430.97 594.82 426.91 Z" />
<path fill="#ffffff" opacity="1.00" d=" M 200.25 536.03 C 203.42 535.05 206.63 537.10 208.34 539.68 C 213.52 547.73 213.91 558.09 220.00 565.64 C 220.53 565.62 221.58 565.60 222.11 565.59 C 223.91 560.04 224.12 554.00 222.67 548.34 C 222.13 546.80 222.70 545.26 223.25 543.83 C 225.36 546.19 224.88 549.55 225.52 552.44 C 226.98 568.25 225.06 584.13 222.94 599.80 C 219.42 612.73 218.75 627.01 223.84 639.64 C 222.36 640.08 220.89 640.54 219.42 641.00 C 218.65 635.54 216.62 630.34 216.12 624.85 C 214.91 610.22 213.11 595.59 209.78 581.28 C 208.30 574.96 205.81 568.94 204.36 562.61 C 203.20 557.15 199.77 552.65 197.12 547.88 C 196.67 543.81 196.72 538.78 200.25 536.03 Z" />
<path fill="#ffffff" opacity="1.00" d=" M 605.53 538.54 C 607.58 536.07 612.40 534.20 614.36 537.72 C 616.57 541.72 617.07 547.34 614.02 551.05 C 609.51 557.82 607.31 565.74 604.65 573.34 C 600.95 590.01 598.29 606.93 596.97 623.96 C 596.57 629.77 594.39 635.24 593.60 640.99 C 592.12 640.54 590.64 640.08 589.16 639.65 C 594.24 627.01 593.59 612.74 590.06 599.80 C 589.06 591.87 587.76 583.99 587.55 575.99 C 587.11 570.67 586.43 565.32 587.15 560.00 C 587.07 554.54 587.59 549.04 589.12 543.78 C 589.84 544.94 591.13 546.10 590.47 547.61 C 588.95 553.49 588.96 559.78 590.88 565.58 C 591.41 565.59 592.47 565.62 593.00 565.64 C 599.44 557.75 599.43 546.61 605.53 538.54 Z" />
<path fill="#ffffff" opacity="1.00" d=" M 227.34 650.18 C 234.79 648.67 241.27 655.92 241.20 662.99 C 241.38 669.26 237.74 675.33 232.42 678.54 C 229.25 680.09 225.38 679.49 222.59 677.43 C 216.65 672.93 213.82 665.20 213.53 657.95 C 216.24 653.07 222.18 651.20 227.34 650.18 Z" />
<path fill="#ffffff" opacity="1.00" d=" M 580.42 650.60 C 583.76 649.34 587.31 650.41 590.56 651.42 C 593.98 652.75 597.76 654.49 599.47 657.95 C 599.62 663.09 597.49 667.83 595.22 672.31 C 592.35 676.80 586.90 681.03 581.32 678.86 C 573.37 674.96 568.83 663.75 573.93 655.97 C 575.40 653.54 577.50 651.16 580.42 650.60 Z" />
</g>
</svg>
