<?xml version="1.0" encoding="UTF-8" ?>
<!DOCTYPE svg PUBLIC "-//W3C//DTD SVG 1.1//EN" "http://www.w3.org/Graphics/SVG/1.1/DTD/svg11.dtd">
<svg width="800pt" height="800pt" viewBox="0 0 800 800" version="1.1" xmlns="http://www.w3.org/2000/svg">
<g id="#000000ff">
<path fill="#000000" opacity="1.00" d=" M 265.08 41.10 C 266.88 38.24 268.30 35.15 270.04 32.25 C 270.75 32.37 272.16 32.61 272.87 32.73 C 277.20 40.05 276.40 49.50 281.64 56.40 C 289.44 66.75 300.55 73.77 311.27 80.71 C 319.84 87.01 327.52 94.59 333.78 103.20 C 339.34 111.15 342.79 120.50 343.96 130.12 C 357.70 126.21 371.81 123.31 386.11 122.75 C 393.43 121.84 400.83 121.78 408.18 122.35 C 424.05 122.42 440.06 124.73 455.03 130.10 C 456.23 120.49 459.66 111.14 465.22 103.19 C 471.49 94.59 479.16 87.01 487.73 80.71 C 498.45 73.77 509.56 66.75 517.36 56.40 C 522.60 49.50 521.80 40.06 526.12 32.73 C 526.83 32.61 528.25 32.38 528.96 32.26 C 530.70 35.16 532.12 38.24 533.92 41.10 C 538.99 48.57 542.47 56.98 545.56 65.42 C 549.00 76.43 552.62 87.39 555.44 98.59 C 560.36 119.73 564.83 141.20 564.98 163.00 C 564.80 172.66 565.64 182.31 565.37 191.97 C 564.12 211.09 562.85 230.31 559.06 249.13 C 556.12 260.46 553.57 271.98 548.71 282.69 C 545.49 289.36 542.90 296.42 538.40 302.37 C 535.27 306.87 530.91 310.27 527.44 314.46 C 522.44 320.44 516.58 325.62 511.45 331.48 C 496.60 346.78 479.91 360.37 461.57 371.26 C 466.76 377.81 472.84 383.80 476.62 391.36 C 479.17 396.57 482.20 401.65 483.63 407.33 C 485.32 415.02 481.64 422.83 483.67 430.47 C 487.17 447.08 490.22 463.82 494.84 480.18 C 501.75 505.58 510.65 530.35 518.29 555.52 C 520.12 561.89 521.81 568.36 522.12 575.01 C 523.68 584.73 515.88 593.97 506.61 596.00 C 507.65 600.69 508.91 605.32 510.30 609.92 C 515.34 632.59 517.99 655.77 518.50 678.98 C 518.02 702.25 514.34 725.46 507.72 747.78 C 505.02 758.00 500.81 767.75 496.27 777.26 C 494.27 782.56 492.85 788.47 488.56 792.48 C 485.01 795.72 479.35 793.78 477.08 789.98 C 472.16 781.98 470.10 772.68 467.10 763.89 C 464.37 756.30 462.41 748.47 460.25 740.71 C 457.63 727.85 453.33 715.41 450.34 702.64 C 447.58 692.62 444.64 682.64 441.14 672.86 C 438.17 666.12 434.20 659.88 430.47 653.56 C 426.11 646.59 422.22 639.26 416.94 632.92 C 407.70 633.73 398.43 633.98 389.23 635.24 C 384.05 642.25 379.84 649.90 375.27 657.30 C 372.36 662.42 369.17 667.42 366.86 672.86 C 359.91 692.11 355.43 712.12 349.80 731.78 C 347.69 741.34 345.13 750.80 342.19 760.14 C 338.61 769.89 336.54 780.29 331.32 789.38 C 329.25 793.23 323.87 795.78 320.01 792.90 C 315.23 789.05 313.82 782.73 311.74 777.26 C 299.36 752.28 293.36 724.61 290.49 697.03 C 288.20 676.11 290.68 655.11 292.98 634.31 C 286.85 630.60 280.69 626.38 276.80 620.20 C 269.88 609.82 265.94 597.71 263.49 585.56 C 258.90 565.37 258.60 544.56 259.13 523.96 C 259.10 516.92 260.80 510.02 260.82 502.97 C 261.89 497.29 261.94 491.50 262.71 485.78 C 263.58 470.43 265.20 454.99 263.37 439.64 C 262.67 429.61 261.22 419.62 259.18 409.78 C 256.52 399.60 252.32 389.60 245.63 381.40 C 241.46 376.15 235.42 372.27 228.79 371.07 C 221.89 369.66 214.59 371.93 209.02 376.06 C 204.72 379.15 203.19 385.03 198.27 387.37 C 195.38 388.65 192.23 386.72 190.78 384.20 C 188.35 380.55 189.92 376.00 191.21 372.23 C 195.44 360.81 204.96 352.57 214.40 345.42 C 222.55 339.31 233.51 338.94 243.11 341.02 C 256.23 344.74 267.41 354.19 273.95 366.07 C 277.88 373.37 283.79 379.61 286.47 387.57 C 294.39 408.08 296.88 430.21 298.17 452.00 C 297.79 465.57 298.60 479.18 297.26 492.71 C 295.50 504.17 295.64 515.86 297.42 527.31 C 301.10 518.84 303.00 509.78 306.03 501.09 C 313.91 476.55 319.42 451.33 324.07 426.02 C 325.25 418.82 322.48 411.28 325.28 404.32 C 329.54 393.38 335.78 383.33 342.94 374.06 C 339.53 372.12 335.99 370.42 332.63 368.41 C 314.26 356.61 297.38 342.47 282.72 326.27 C 276.36 320.27 270.96 313.36 264.70 307.27 C 259.03 301.47 255.35 294.14 252.19 286.76 C 247.29 277.11 244.39 266.66 241.74 256.23 C 238.08 243.63 236.98 230.53 235.53 217.55 C 234.04 202.08 233.00 186.54 234.01 171.00 C 233.50 151.58 236.13 132.22 240.31 113.28 C 243.37 96.73 248.59 80.70 253.69 64.70 C 256.74 56.51 260.14 48.35 265.08 41.10 M 263.76 63.37 C 257.38 85.58 252.26 108.18 249.38 131.12 C 248.32 144.08 247.30 157.05 246.97 170.05 C 248.33 187.76 249.54 205.51 251.95 223.12 C 253.85 234.68 256.41 246.13 259.59 257.41 C 261.97 264.33 264.56 271.18 267.01 278.08 C 269.51 285.20 273.35 291.72 276.39 298.61 C 280.17 304.45 284.09 310.22 288.13 315.89 C 300.57 331.50 316.40 343.99 332.82 355.16 C 340.13 358.71 347.13 362.89 354.46 366.42 C 365.99 371.46 377.70 376.35 390.07 378.90 C 396.62 379.63 403.26 379.42 409.80 378.78 C 427.76 374.46 444.83 366.96 460.83 357.81 C 467.56 355.01 473.15 350.21 478.99 345.96 C 489.61 338.08 499.56 329.21 508.20 319.16 C 512.46 314.30 515.72 308.70 519.44 303.43 C 523.56 298.10 525.59 291.58 528.82 285.73 C 532.73 277.00 535.60 267.86 538.86 258.87 C 542.42 247.47 544.84 235.74 546.93 223.99 C 549.41 206.43 550.51 188.72 552.02 171.06 C 552.27 165.03 551.37 159.04 551.21 153.01 C 550.11 122.55 543.57 92.60 535.24 63.36 C 533.99 71.75 531.20 79.80 527.50 87.40 C 518.50 104.62 508.48 122.19 506.82 141.95 C 505.81 146.93 506.95 151.99 506.42 157.00 C 506.45 158.60 505.23 159.70 504.25 160.78 C 498.02 157.58 495.94 150.37 493.74 144.25 C 491.24 134.72 492.09 124.54 494.99 115.18 C 498.03 104.44 503.93 94.90 509.30 85.23 C 497.44 94.24 485.98 104.12 477.61 116.58 C 472.70 122.43 470.08 129.77 465.25 135.67 C 468.57 137.92 471.36 140.84 473.78 144.02 C 473.34 144.57 472.47 145.66 472.03 146.20 C 468.59 146.43 465.18 147.23 461.74 146.62 C 445.38 145.92 429.39 141.81 413.05 141.01 C 406.49 139.34 399.69 140.19 393.01 139.98 C 383.99 139.68 375.03 141.09 366.02 141.15 C 357.04 142.22 348.12 143.84 339.10 144.66 C 335.92 145.30 332.70 145.13 329.56 144.41 C 329.31 143.78 328.80 142.53 328.55 141.91 C 330.03 139.65 331.92 137.73 333.82 135.85 C 330.18 131.36 327.82 126.06 324.73 121.22 C 320.76 115.61 316.83 109.94 312.07 104.95 C 305.50 97.41 297.48 91.43 289.70 85.23 C 292.74 91.46 296.97 97.06 299.52 103.54 C 305.47 116.06 308.86 130.57 305.26 144.25 C 303.06 150.37 300.98 157.59 294.74 160.79 C 290.72 157.08 293.05 151.04 292.64 146.26 C 291.88 139.73 291.42 133.06 289.29 126.80 C 285.26 112.89 278.18 100.16 271.50 87.40 C 267.80 79.80 265.01 71.75 263.76 63.37 M 210.43 359.43 C 205.24 364.07 201.42 370.16 199.03 376.68 C 204.27 373.09 207.81 367.34 213.81 364.85 C 220.75 360.97 229.20 360.63 236.56 363.49 C 247.61 367.80 256.43 376.74 261.91 387.13 C 269.50 400.77 272.67 416.37 274.28 431.75 C 275.31 437.43 274.74 443.23 275.49 448.95 C 276.66 459.32 274.46 469.64 274.95 480.03 C 273.94 486.32 274.00 492.69 273.42 499.03 C 273.74 505.06 272.20 510.99 272.65 517.01 C 273.01 524.78 271.33 532.56 272.39 540.31 C 273.12 546.99 272.51 553.76 273.61 560.40 C 275.13 573.69 277.05 587.05 281.14 599.84 C 283.02 605.14 287.88 608.56 290.59 613.37 C 292.08 615.83 293.97 618.01 295.64 620.34 C 296.67 612.01 299.57 604.13 301.47 596.01 C 293.88 595.24 287.97 589.38 285.37 582.49 C 284.01 578.58 285.12 574.43 285.31 570.44 C 285.60 564.39 289.28 558.56 287.45 552.47 C 286.78 549.71 287.11 546.86 286.92 544.06 C 284.86 529.76 286.76 515.31 288.12 501.06 C 288.91 493.91 290.78 486.72 289.71 479.51 C 287.84 450.17 284.96 420.74 277.75 392.16 C 276.03 386.59 275.02 380.55 271.03 376.03 C 266.77 369.39 261.06 363.74 254.18 359.84 C 244.79 354.53 234.23 349.76 223.18 351.10 C 218.64 353.37 214.46 356.35 210.43 359.43 M 436.90 383.92 C 422.02 390.39 405.42 392.11 389.37 390.68 C 376.45 389.66 363.87 385.60 352.56 379.33 C 350.59 378.10 348.79 380.27 347.35 381.38 C 341.85 387.20 337.33 394.05 334.73 401.67 C 333.19 405.72 334.50 410.12 333.53 414.27 C 332.51 422.49 332.23 430.80 330.88 438.99 C 329.56 446.01 327.69 452.93 326.80 460.02 C 322.41 480.63 316.72 500.96 309.73 520.84 C 306.18 532.09 301.58 542.97 296.68 553.70 C 295.05 557.28 292.65 560.53 291.45 564.29 C 291.01 573.07 292.71 584.31 301.93 588.07 C 306.42 585.68 309.83 581.87 312.84 577.86 C 316.41 573.70 315.30 567.79 317.06 562.89 C 321.27 549.09 323.50 534.79 326.59 520.72 C 327.90 515.63 327.85 510.34 329.01 505.22 C 331.15 492.60 332.96 479.90 333.98 467.15 C 335.88 461.17 334.45 454.76 336.05 448.74 C 337.47 443.29 337.53 437.57 339.19 432.19 C 340.74 428.11 339.62 423.64 340.58 419.45 C 341.61 414.88 340.64 410.15 341.60 405.57 C 342.16 405.55 343.26 405.50 343.81 405.48 C 348.67 411.11 346.39 419.20 346.47 425.96 C 345.60 431.70 347.86 437.23 347.45 442.95 C 347.95 448.64 348.09 454.35 348.26 460.05 C 346.80 480.17 342.91 500.04 337.59 519.48 C 334.44 528.32 332.69 537.59 329.40 546.38 C 327.58 552.40 325.39 558.29 323.13 564.15 C 321.00 569.91 320.53 576.11 318.85 582.01 C 317.93 585.18 315.90 587.92 315.10 591.15 C 311.45 606.97 307.80 622.82 305.65 638.94 C 302.75 664.80 300.33 691.19 304.98 717.00 C 308.10 737.97 314.36 758.31 320.64 778.50 C 320.82 779.74 321.47 780.15 322.59 779.73 C 327.62 767.27 330.42 754.12 334.16 741.25 C 335.86 734.73 338.21 728.41 339.79 721.85 C 344.54 702.73 350.93 683.98 359.10 666.05 C 360.60 662.38 363.20 659.30 364.53 655.56 C 367.50 648.15 372.01 641.30 378.30 636.29 C 374.33 636.16 370.36 635.88 366.43 635.33 C 366.34 634.29 366.26 633.25 366.19 632.21 C 372.04 627.56 379.77 626.72 386.94 625.86 C 391.93 624.79 397.06 625.11 402.06 624.09 C 412.60 624.45 423.13 621.85 433.64 623.50 C 436.58 623.97 440.20 627.07 438.26 630.24 C 435.69 632.53 432.10 632.77 428.85 633.15 C 431.57 638.58 436.60 642.23 439.46 647.57 C 442.47 652.14 443.80 657.58 446.89 662.10 C 451.44 670.66 454.83 679.77 458.14 688.86 C 464.42 704.89 467.73 721.83 473.00 738.18 C 477.06 752.05 480.02 766.28 485.41 779.74 C 485.75 779.78 486.41 779.86 486.75 779.90 C 492.83 761.86 498.05 743.47 501.78 724.78 C 502.75 717.18 504.76 709.67 504.88 701.99 C 506.71 683.36 504.93 664.61 503.18 646.04 C 501.33 627.76 497.18 609.83 493.10 591.97 C 492.21 588.84 489.63 586.56 488.62 583.48 C 486.45 576.77 485.87 569.68 484.01 562.90 C 480.48 552.37 476.75 541.88 473.95 531.11 C 473.00 527.43 471.86 523.80 470.63 520.20 C 466.90 507.36 464.34 494.21 462.05 481.06 C 460.23 468.77 459.02 456.35 460.51 443.96 C 460.05 437.90 462.27 432.05 461.68 426.00 C 461.08 419.06 461.15 411.96 462.76 405.16 C 463.20 403.74 464.61 403.46 465.85 403.09 C 467.39 404.99 468.28 407.45 467.51 409.89 C 465.94 416.79 467.02 423.83 467.16 430.80 C 469.52 436.51 469.41 442.81 470.95 448.73 C 472.24 453.65 471.57 458.79 472.24 463.79 C 472.95 466.49 473.45 469.23 473.44 472.04 C 474.66 484.85 476.65 497.57 478.85 510.25 C 479.20 515.43 480.30 520.52 481.50 525.57 C 483.17 534.82 485.24 543.99 487.20 553.18 C 488.69 558.62 490.57 563.98 491.29 569.61 C 491.72 572.01 491.71 574.66 493.31 576.68 C 496.51 581.13 500.15 585.45 505.07 588.07 C 514.29 584.31 515.99 573.07 515.55 564.28 C 514.65 561.20 512.71 558.54 511.26 555.69 C 501.96 536.50 495.42 516.15 489.18 495.80 C 483.98 477.50 479.28 458.97 477.16 440.05 C 476.29 431.90 476.22 423.64 474.30 415.63 C 473.49 411.53 474.64 407.30 473.72 403.22 C 471.21 394.18 465.47 386.54 459.31 379.65 C 457.59 377.51 454.74 376.65 452.16 376.12 C 447.06 378.69 442.32 382.00 436.90 383.92 Z" />
<path fill="#000000" opacity="1.00" d=" M 509.69 213.69 C 516.88 208.63 524.37 201.96 533.78 202.49 C 533.69 207.36 531.14 211.65 527.91 215.13 C 529.10 215.77 530.29 216.40 531.49 217.04 C 531.54 217.85 531.63 219.47 531.68 220.28 C 528.23 221.77 524.53 222.53 521.12 224.09 C 511.44 227.65 502.59 233.09 494.21 239.02 C 495.75 250.20 494.70 262.18 489.21 272.22 C 486.78 276.32 483.63 280.64 478.81 281.97 C 477.19 282.13 475.18 282.15 474.29 280.51 C 472.40 277.46 474.49 274.07 474.69 270.88 C 474.94 265.92 475.24 260.96 475.48 256.00 C 472.89 258.58 470.67 261.50 468.22 264.21 C 460.85 271.98 455.51 281.49 447.60 288.78 C 446.58 288.72 445.56 288.66 444.55 288.60 C 443.40 279.51 446.40 270.51 450.55 262.55 C 453.36 255.79 458.03 250.14 462.35 244.33 C 467.76 237.74 474.50 232.45 481.02 227.03 C 489.81 221.17 499.23 215.87 509.69 213.69 Z" />
<path fill="#000000" opacity="1.00" d=" M 265.98 204.56 C 269.19 202.61 272.73 204.65 275.45 206.47 C 278.13 208.13 280.23 210.49 282.53 212.59 C 284.16 213.13 285.88 213.21 287.56 213.54 C 296.51 214.82 304.88 218.75 312.44 223.58 C 318.26 226.45 322.76 231.22 327.76 235.24 C 334.50 240.92 339.69 248.11 344.67 255.31 C 350.28 265.45 355.99 276.62 354.46 288.59 C 353.43 288.65 352.41 288.71 351.39 288.78 C 344.56 282.44 339.59 274.48 333.63 267.39 C 330.14 263.69 327.05 259.65 323.52 256.00 C 324.11 262.70 323.60 269.55 325.35 276.09 C 325.84 278.09 325.28 280.46 323.54 281.70 C 318.86 283.18 314.74 279.29 312.16 275.83 C 304.49 265.37 303.12 251.54 304.79 239.02 C 296.40 233.09 287.56 227.65 277.89 224.09 C 274.47 222.53 270.77 221.77 267.33 220.28 C 267.37 219.49 267.44 217.91 267.47 217.12 C 268.59 216.48 269.72 215.86 270.86 215.25 C 268.40 212.15 266.16 208.63 265.98 204.56 Z" />
<path fill="#000000" opacity="1.00" d=" M 387.29 324.50 C 394.37 320.88 403.06 320.50 410.50 323.26 C 411.90 323.71 412.82 324.92 413.85 325.91 C 411.68 330.83 407.61 334.35 404.32 338.45 C 404.23 342.07 405.80 345.59 405.06 349.25 C 408.77 350.21 413.19 352.00 414.25 356.10 C 415.06 357.85 413.38 359.56 411.64 359.55 C 407.74 360.44 404.57 357.61 401.30 356.03 C 397.08 358.74 391.92 359.37 387.01 359.34 C 385.71 358.56 386.08 356.64 386.34 355.41 C 388.10 351.15 393.23 350.36 397.29 350.21 C 396.42 346.18 396.62 342.07 397.52 338.08 C 393.03 334.68 387.25 330.78 387.29 324.50 Z" />
<path fill="#000000" opacity="1.00" d=" M 394.64 400.33 C 398.85 397.21 403.47 394.20 408.79 393.55 C 411.63 396.70 414.49 399.85 417.01 403.27 C 420.60 400.94 424.01 398.03 428.27 397.03 C 429.21 400.00 429.51 403.10 429.31 406.22 C 431.52 405.16 433.67 403.89 436.04 403.23 C 438.32 402.91 439.21 405.26 440.19 406.84 C 441.90 410.51 441.83 414.68 441.77 418.65 C 445.08 416.95 448.32 414.56 452.27 415.40 C 454.06 423.63 450.54 431.76 448.06 439.47 C 450.58 441.23 453.69 443.47 453.56 446.90 C 452.58 456.70 449.02 466.11 443.99 474.53 C 445.47 474.77 447.29 474.15 448.52 475.26 C 450.85 476.73 451.17 480.22 449.14 482.08 C 444.34 487.60 443.68 495.60 438.38 500.77 C 437.22 493.02 442.34 486.51 445.09 479.67 C 443.06 480.38 441.01 481.09 438.90 481.50 C 437.24 481.21 437.18 479.58 437.37 478.25 C 441.76 467.55 446.37 456.80 448.78 445.43 C 446.52 446.34 444.09 446.51 441.69 446.55 C 441.17 444.67 440.90 442.68 441.61 440.81 C 443.55 434.85 445.76 428.96 447.04 422.81 C 444.18 424.66 441.06 426.36 437.52 425.84 C 435.27 420.47 435.10 414.67 436.00 408.98 C 432.97 410.12 429.78 411.27 426.50 410.60 C 424.13 409.40 424.42 406.67 424.26 404.45 C 421.65 406.32 418.73 408.47 415.32 407.78 C 411.48 406.71 410.95 401.44 408.03 399.66 C 403.90 401.79 399.69 403.74 395.71 406.13 C 392.04 407.82 389.26 404.00 386.74 401.97 C 384.09 404.50 381.28 406.89 378.04 408.63 C 376.28 407.19 374.50 405.79 372.68 404.44 C 371.59 408.91 368.35 412.88 369.75 417.68 C 367.18 419.15 364.33 418.45 361.73 417.50 C 362.47 421.29 362.74 425.14 362.65 429.00 C 362.43 431.96 363.79 434.76 363.45 437.73 C 361.60 437.67 359.76 437.53 357.92 437.38 C 359.74 440.46 361.51 443.58 363.16 446.76 C 365.36 451.04 368.55 454.76 370.50 459.18 C 369.99 461.72 366.34 461.72 364.30 462.66 C 365.41 472.28 371.56 480.30 373.92 489.57 C 371.45 489.80 368.98 489.60 366.54 489.22 C 370.77 495.74 373.95 502.88 375.60 510.49 C 375.25 511.02 374.53 512.10 374.17 512.64 C 370.18 505.39 365.57 498.49 361.91 491.06 C 361.31 489.30 359.70 487.17 361.27 485.47 C 362.58 483.08 365.49 483.30 367.81 483.53 C 363.52 477.93 361.76 471.01 359.39 464.50 C 358.86 462.92 359.30 461.24 359.39 459.63 C 361.01 458.72 362.68 457.89 364.37 457.09 C 360.43 451.29 356.68 445.24 354.32 438.60 C 353.25 435.95 353.56 433.04 354.90 430.55 C 356.22 430.48 357.56 430.41 358.89 430.36 C 357.58 425.00 356.56 419.55 356.18 414.05 C 356.24 412.28 355.58 409.52 358.06 409.24 C 360.34 409.92 362.52 410.92 364.82 411.60 C 365.78 406.69 367.86 401.60 372.07 398.66 C 374.61 398.70 376.67 400.34 378.67 401.71 C 380.85 399.72 382.96 397.16 385.96 396.50 C 389.04 397.28 391.90 398.74 394.64 400.33 Z" />
</g>
<g id="#ffffffff">
<path fill="#ffffff" opacity="1.00" d=" M 263.76 63.37 C 265.01 71.75 267.80 79.80 271.50 87.40 C 278.18 100.16 285.26 112.89 289.29 126.80 C 291.42 133.06 291.88 139.73 292.64 146.26 C 293.05 151.04 290.72 157.08 294.74 160.79 C 300.98 157.59 303.06 150.37 305.26 144.25 C 308.86 130.57 305.47 116.06 299.52 103.54 C 296.97 97.06 292.74 91.46 289.70 85.23 C 297.48 91.43 305.50 97.41 312.07 104.95 C 316.83 109.94 320.76 115.61 324.73 121.22 C 327.82 126.06 330.18 131.36 333.82 135.85 C 331.92 137.73 330.03 139.65 328.55 141.91 C 328.80 142.53 329.31 143.78 329.56 144.41 C 332.70 145.13 335.92 145.30 339.10 144.66 C 348.12 143.84 357.04 142.22 366.02 141.15 C 375.03 141.09 383.99 139.68 393.01 139.98 C 399.69 140.19 406.49 139.34 413.05 141.01 C 429.39 141.81 445.38 145.92 461.74 146.62 C 465.18 147.23 468.59 146.43 472.03 146.20 C 472.47 145.66 473.34 144.57 473.78 144.02 C 471.36 140.84 468.57 137.92 465.25 135.67 C 470.08 129.77 472.70 122.43 477.61 116.58 C 485.98 104.12 497.44 94.24 509.30 85.23 C 503.93 94.90 498.03 104.44 494.99 115.18 C 492.09 124.54 491.24 134.72 493.74 144.25 C 495.94 150.37 498.02 157.58 504.25 160.78 C 505.23 159.70 506.45 158.60 506.42 157.00 C 506.95 151.99 505.81 146.93 506.82 141.95 C 508.48 122.19 518.50 104.62 527.50 87.40 C 531.20 79.80 533.99 71.75 535.24 63.36 C 543.57 92.60 550.11 122.55 551.21 153.01 C 551.37 159.04 552.27 165.03 552.02 171.06 C 550.51 188.72 549.41 206.43 546.93 223.99 C 544.84 235.74 542.42 247.47 538.86 258.87 C 535.60 267.86 532.73 277.00 528.82 285.73 C 525.59 291.58 523.56 298.10 519.44 303.43 C 515.72 308.70 512.46 314.30 508.20 319.16 C 499.56 329.21 489.61 338.08 478.99 345.96 C 473.15 350.21 467.56 355.01 460.83 357.81 C 444.83 366.96 427.76 374.46 409.80 378.78 C 403.26 379.42 396.62 379.63 390.07 378.90 C 377.70 376.35 365.99 371.46 354.46 366.42 C 347.13 362.89 340.13 358.71 332.82 355.16 C 316.40 343.99 300.57 331.50 288.13 315.89 C 284.09 310.22 280.17 304.45 276.39 298.61 C 273.35 291.72 269.51 285.20 267.01 278.08 C 264.56 271.18 261.97 264.33 259.59 257.41 C 256.41 246.13 253.85 234.68 251.95 223.12 C 249.54 205.51 248.33 187.76 246.97 170.05 C 247.30 157.05 248.32 144.08 249.38 131.12 C 252.26 108.18 257.38 85.58 263.76 63.37 M 509.69 213.69 C 499.23 215.87 489.81 221.17 481.02 227.03 C 474.50 232.45 467.76 237.74 462.35 244.33 C 458.03 250.14 453.36 255.79 450.55 262.55 C 446.40 270.51 443.40 279.51 444.55 288.60 C 445.56 288.66 446.58 288.72 447.60 288.78 C 455.51 281.49 460.85 271.98 468.22 264.21 C 470.67 261.50 472.89 258.58 475.48 256.00 C 475.24 260.96 474.94 265.92 474.69 270.88 C 474.49 274.07 472.40 277.46 474.29 280.51 C 475.18 282.15 477.19 282.13 478.81 281.97 C 483.63 280.64 486.78 276.32 489.21 272.22 C 494.70 262.18 495.75 250.20 494.21 239.02 C 502.59 233.09 511.44 227.65 521.12 224.09 C 524.53 222.53 528.23 221.77 531.68 220.28 C 531.63 219.47 531.54 217.85 531.49 217.04 C 530.29 216.40 529.10 215.77 527.91 215.13 C 531.14 211.65 533.69 207.36 533.78 202.49 C 524.37 201.96 516.88 208.63 509.69 213.69 M 265.98 204.56 C 266.16 208.63 268.40 212.15 270.86 215.25 C 269.72 215.86 268.59 216.48 267.47 217.12 C 267.44 217.91 267.37 219.49 267.33 220.28 C 270.77 221.77 274.47 222.53 277.89 224.09 C 287.56 227.65 296.40 233.09 304.79 239.02 C 303.12 251.54 304.49 265.37 312.16 275.83 C 314.74 279.29 318.86 283.18 323.54 281.70 C 325.28 280.46 325.84 278.09 325.35 276.09 C 323.60 269.55 324.11 262.70 323.52 256.00 C 327.05 259.65 330.14 263.69 333.63 267.39 C 339.59 274.48 344.56 282.44 351.39 288.78 C 352.41 288.71 353.43 288.65 354.46 288.59 C 355.99 276.62 350.28 265.45 344.67 255.31 C 339.69 248.11 334.50 240.92 327.76 235.24 C 322.76 231.22 318.26 226.45 312.44 223.58 C 304.88 218.75 296.51 214.82 287.56 213.54 C 285.88 213.21 284.16 213.13 282.53 212.59 C 280.23 210.49 278.13 208.13 275.45 206.47 C 272.73 204.65 269.19 202.61 265.98 204.56 M 387.29 324.50 C 387.25 330.78 393.03 334.68 397.52 338.08 C 396.62 342.07 396.42 346.18 397.29 350.21 C 393.23 350.36 388.10 351.15 386.34 355.41 C 386.08 356.64 385.71 358.56 387.01 359.34 C 391.92 359.37 397.08 358.74 401.30 356.03 C 404.57 357.61 407.74 360.44 411.64 359.55 C 413.38 359.56 415.06 357.85 414.25 356.10 C 413.19 352.00 408.77 350.21 405.06 349.25 C 405.80 345.59 404.23 342.07 404.32 338.45 C 407.61 334.35 411.68 330.83 413.85 325.91 C 412.82 324.92 411.90 323.71 410.50 323.26 C 403.06 320.50 394.37 320.88 387.29 324.50 Z" />
<path fill="#ffffff" opacity="1.00" d=" M 210.43 359.43 C 214.46 356.35 218.64 353.37 223.18 351.10 C 234.23 349.76 244.79 354.53 254.18 359.84 C 261.06 363.74 266.77 369.39 271.03 376.03 C 275.02 380.55 276.03 386.59 277.75 392.16 C 284.96 420.74 287.84 450.17 289.71 479.51 C 290.78 486.72 288.91 493.91 288.12 501.06 C 286.76 515.31 284.86 529.76 286.92 544.06 C 287.11 546.86 286.78 549.71 287.45 552.47 C 289.28 558.56 285.60 564.39 285.31 570.44 C 285.12 574.43 284.01 578.58 285.37 582.49 C 287.97 589.38 293.88 595.24 301.47 596.01 C 299.57 604.13 296.67 612.01 295.64 620.34 C 293.97 618.01 292.08 615.83 290.59 613.37 C 287.88 608.56 283.02 605.14 281.14 599.84 C 277.05 587.05 275.13 573.69 273.61 560.40 C 272.51 553.76 273.12 546.99 272.39 540.31 C 271.33 532.56 273.01 524.78 272.65 517.01 C 272.20 510.99 273.74 505.06 273.42 499.03 C 274.00 492.69 273.94 486.32 274.95 480.03 C 274.46 469.64 276.66 459.32 275.49 448.95 C 274.74 443.23 275.31 437.43 274.28 431.75 C 272.67 416.37 269.50 400.77 261.91 387.13 C 256.43 376.74 247.61 367.80 236.56 363.49 C 229.20 360.63 220.75 360.97 213.81 364.85 C 207.81 367.34 204.27 373.09 199.03 376.68 C 201.42 370.16 205.24 364.07 210.43 359.43 Z" />
<path fill="#ffffff" opacity="1.00" d=" M 436.90 383.92 C 442.32 382.00 447.06 378.69 452.16 376.12 C 454.74 376.65 457.59 377.51 459.31 379.65 C 465.47 386.54 471.21 394.18 473.72 403.22 C 474.64 407.30 473.49 411.53 474.30 415.63 C 476.22 423.64 476.29 431.90 477.16 440.05 C 479.28 458.97 483.98 477.50 489.18 495.80 C 495.42 516.15 501.96 536.50 511.26 555.69 C 512.71 558.54 514.65 561.20 515.55 564.28 C 515.99 573.07 514.29 584.31 505.07 588.07 C 500.15 585.45 496.51 581.13 493.31 576.68 C 491.71 574.66 491.72 572.01 491.29 569.61 C 490.57 563.98 488.69 558.62 487.20 553.18 C 485.24 543.99 483.17 534.82 481.50 525.57 C 480.30 520.52 479.20 515.43 478.85 510.25 C 476.65 497.57 474.66 484.85 473.44 472.04 C 473.45 469.23 472.95 466.49 472.24 463.79 C 471.57 458.79 472.24 453.65 470.95 448.73 C 469.41 442.81 469.52 436.51 467.16 430.80 C 467.02 423.83 465.94 416.79 467.51 409.89 C 468.28 407.45 467.39 404.99 465.85 403.09 C 464.61 403.46 463.20 403.74 462.76 405.16 C 461.15 411.96 461.08 419.06 461.68 426.00 C 462.27 432.05 460.05 437.90 460.51 443.96 C 459.02 456.35 460.23 468.77 462.05 481.06 C 464.34 494.21 466.90 507.36 470.63 520.20 C 471.86 523.80 473.00 527.43 473.95 531.11 C 476.75 541.88 480.48 552.37 484.01 562.90 C 485.87 569.68 486.45 576.77 488.62 583.48 C 489.63 586.56 492.21 588.84 493.10 591.97 C 497.18 609.83 501.33 627.76 503.18 646.04 C 504.93 664.61 506.71 683.36 504.88 701.99 C 504.76 709.67 502.75 717.18 501.78 724.78 C 498.05 743.47 492.83 761.86 486.75 779.90 C 486.41 779.86 485.75 779.78 485.41 779.74 C 480.02 766.28 477.06 752.05 473.00 738.18 C 467.73 721.83 464.42 704.89 458.14 688.86 C 454.83 679.77 451.44 670.66 446.89 662.10 C 443.80 657.58 442.47 652.14 439.46 647.57 C 436.60 642.23 431.57 638.58 428.85 633.15 C 432.10 632.77 435.69 632.53 438.26 630.24 C 440.20 627.07 436.58 623.97 433.64 623.50 C 423.13 621.85 412.60 624.45 402.06 624.09 C 397.06 625.11 391.93 624.79 386.94 625.86 C 379.77 626.72 372.04 627.56 366.19 632.21 C 366.26 633.25 366.34 634.29 366.43 635.33 C 370.36 635.88 374.33 636.16 378.30 636.29 C 372.01 641.30 367.50 648.15 364.53 655.56 C 363.20 659.30 360.60 662.38 359.10 666.05 C 350.93 683.98 344.54 702.73 339.79 721.85 C 338.21 728.41 335.86 734.73 334.16 741.25 C 330.42 754.12 327.62 767.27 322.59 779.73 C 321.47 780.15 320.82 779.74 320.64 778.50 C 314.36 758.31 308.10 737.97 304.98 717.00 C 300.33 691.19 302.75 664.80 305.65 638.94 C 307.80 622.82 311.45 606.97 315.10 591.15 C 315.90 587.92 317.93 585.18 318.85 582.01 C 320.53 576.11 321.00 569.91 323.13 564.15 C 325.39 558.29 327.58 552.40 329.40 546.38 C 332.69 537.59 334.44 528.32 337.59 519.48 C 342.91 500.04 346.80 480.17 348.26 460.05 C 348.09 454.35 347.95 448.64 347.45 442.95 C 347.86 437.23 345.60 431.70 346.47 425.96 C 346.39 419.20 348.67 411.11 343.81 405.48 C 343.26 405.50 342.16 405.55 341.60 405.57 C 340.64 410.15 341.61 414.88 340.58 419.45 C 339.62 423.64 340.74 428.11 339.19 432.19 C 337.53 437.57 337.47 443.29 336.05 448.74 C 334.45 454.76 335.88 461.17 333.98 467.15 C 332.96 479.90 331.15 492.60 329.01 505.22 C 327.85 510.34 327.90 515.63 326.59 520.72 C 323.50 534.79 321.27 549.09 317.06 562.89 C 315.30 567.79 316.41 573.70 312.84 577.86 C 309.83 581.87 306.42 585.68 301.93 588.07 C 292.71 584.31 291.01 573.07 291.45 564.29 C 292.65 560.53 295.05 557.28 296.68 553.70 C 301.58 542.97 306.18 532.09 309.73 520.84 C 316.72 500.96 322.41 480.63 326.80 460.02 C 327.69 452.93 329.56 446.01 330.88 438.99 C 332.23 430.80 332.51 422.49 333.53 414.27 C 334.50 410.12 333.19 405.72 334.73 401.67 C 337.33 394.05 341.85 387.20 347.35 381.38 C 348.79 380.27 350.59 378.10 352.56 379.33 C 363.87 385.60 376.45 389.66 389.37 390.68 C 405.42 392.11 422.02 390.39 436.90 383.92 M 394.64 400.33 C 391.90 398.74 389.04 397.28 385.96 396.50 C 382.96 397.16 380.85 399.72 378.67 401.71 C 376.67 400.34 374.61 398.70 372.07 398.66 C 367.86 401.60 365.78 406.69 364.82 411.60 C 362.52 410.92 360.34 409.92 358.06 409.24 C 355.58 409.52 356.24 412.28 356.18 414.05 C 356.56 419.55 357.58 425.00 358.89 430.36 C 357.56 430.41 356.22 430.48 354.90 430.55 C 353.56 433.04 353.25 435.95 354.32 438.60 C 356.68 445.24 360.43 451.29 364.37 457.09 C 362.68 457.89 361.01 458.72 359.39 459.63 C 359.30 461.24 358.86 462.92 359.39 464.50 C 361.76 471.01 363.52 477.93 367.81 483.53 C 365.49 483.30 362.58 483.08 361.27 485.47 C 359.70 487.17 361.31 489.30 361.91 491.06 C 365.57 498.49 370.18 505.39 374.17 512.64 C 374.53 512.10 375.25 511.02 375.60 510.49 C 373.95 502.88 370.77 495.74 366.54 489.22 C 368.98 489.60 371.45 489.80 373.92 489.57 C 371.56 480.30 365.41 472.28 364.30 462.66 C 366.34 461.72 369.99 461.72 370.50 459.18 C 368.55 454.76 365.36 451.04 363.16 446.76 C 361.51 443.58 359.74 440.46 357.92 437.38 C 359.76 437.53 361.60 437.67 363.45 437.73 C 363.79 434.76 362.43 431.96 362.65 429.00 C 362.74 425.14 362.47 421.29 361.73 417.50 C 364.33 418.45 367.18 419.15 369.75 417.68 C 368.35 412.88 371.59 408.91 372.68 404.44 C 374.50 405.79 376.28 407.19 378.04 408.63 C 381.28 406.89 384.09 404.50 386.74 401.97 C 389.26 404.00 392.04 407.82 395.71 406.13 C 399.69 403.74 403.90 401.79 408.03 399.66 C 410.95 401.44 411.48 406.71 415.32 407.78 C 418.73 408.47 421.65 406.32 424.26 404.45 C 424.42 406.67 424.13 409.40 426.50 410.60 C 429.78 411.27 432.97 410.12 436.00 408.98 C 435.10 414.67 435.27 420.47 437.52 425.84 C 441.06 426.36 444.18 424.66 447.04 422.81 C 445.76 428.96 443.55 434.85 441.61 440.81 C 440.90 442.68 441.17 444.67 441.69 446.55 C 444.09 446.51 446.52 446.34 448.78 445.43 C 446.37 456.80 441.76 467.55 437.37 478.25 C 437.18 479.58 437.24 481.21 438.90 481.50 C 441.01 481.09 443.06 480.38 445.09 479.67 C 442.34 486.51 437.22 493.02 438.38 500.77 C 443.68 495.60 444.34 487.60 449.14 482.08 C 451.17 480.22 450.85 476.73 448.52 475.26 C 447.29 474.15 445.47 474.77 443.99 474.53 C 449.02 466.11 452.58 456.70 453.56 446.90 C 453.69 443.47 450.58 441.23 448.06 439.47 C 450.54 431.76 454.06 423.63 452.27 415.40 C 448.32 414.56 445.08 416.95 441.77 418.65 C 441.83 414.68 441.90 410.51 440.19 406.84 C 439.21 405.26 438.32 402.91 436.04 403.23 C 433.67 403.89 431.52 405.16 429.31 406.22 C 429.51 403.10 429.21 400.00 428.27 397.03 C 424.01 398.03 420.60 400.94 417.01 403.27 C 414.49 399.85 411.63 396.70 408.79 393.55 C 403.47 394.20 398.85 397.21 394.64 400.33 Z" />
</g>
</svg>
