<?xml version="1.0" encoding="UTF-8" ?>
<!DOCTYPE svg PUBLIC "-//W3C//DTD SVG 1.1//EN" "http://www.w3.org/Graphics/SVG/1.1/DTD/svg11.dtd">
<svg width="800pt" height="800pt" viewBox="0 0 800 800" version="1.1" xmlns="http://www.w3.org/2000/svg">
<g id="#000000ff">
<path fill="#000000" opacity="1.00" d=" M 397.77 319.79 C 402.90 318.26 408.36 319.61 412.96 322.06 C 414.47 322.82 415.58 324.21 416.04 325.84 C 418.09 332.64 419.76 339.56 421.71 346.39 C 423.10 351.36 426.16 355.79 430.29 358.87 C 439.81 359.43 449.01 362.72 456.88 368.08 C 461.91 370.55 464.88 375.48 468.48 379.53 C 474.53 386.34 478.52 394.60 482.17 402.86 C 485.14 409.44 484.04 416.91 482.80 423.78 C 480.68 432.44 476.94 440.68 472.08 448.15 C 470.94 450.24 469.16 452.38 469.77 454.93 C 471.87 475.24 476.76 495.13 482.10 514.79 C 484.83 527.64 488.78 540.18 492.15 552.86 C 495.38 565.96 502.10 577.94 504.87 591.16 C 507.25 598.11 508.93 605.26 510.87 612.33 C 514.42 630.36 517.42 648.58 517.91 666.98 C 519.15 679.28 518.14 691.65 516.79 703.89 C 513.50 729.12 507.69 754.37 496.27 777.26 C 494.20 782.73 492.76 789.02 488.01 792.89 C 484.40 795.60 479.25 793.52 477.07 789.97 C 472.31 782.19 470.22 773.20 467.35 764.64 C 461.26 747.51 458.13 729.56 452.78 712.22 C 449.55 699.19 445.83 686.27 441.43 673.59 C 439.25 668.07 435.99 663.09 433.11 657.94 C 428.31 650.10 423.79 642.08 418.42 634.63 C 417.31 632.58 414.91 632.90 412.96 633.05 C 405.07 634.21 397.06 633.94 389.18 635.24 C 381.38 646.64 374.27 658.54 367.79 670.74 C 362.16 684.94 358.49 699.84 354.55 714.58 C 349.58 730.91 346.62 747.78 340.90 763.88 C 337.91 772.68 335.83 781.96 330.93 789.97 C 328.65 793.77 322.97 795.72 319.42 792.47 C 314.14 787.57 313.45 780.02 310.17 773.95 C 302.31 757.82 297.78 740.35 294.12 722.86 C 291.38 706.74 289.12 690.43 289.60 674.04 C 290.34 666.36 290.13 658.62 291.14 650.97 C 291.58 645.38 292.66 639.86 292.96 634.26 C 287.71 631.36 282.79 627.70 278.90 623.12 C 270.78 612.43 266.35 599.40 263.67 586.39 C 259.75 569.23 258.70 551.56 259.00 534.00 C 259.14 527.60 258.86 521.14 259.82 514.79 C 260.94 508.84 260.31 502.73 261.71 496.82 C 262.05 490.17 263.17 483.59 263.13 476.91 C 265.42 456.24 263.81 435.30 260.19 414.87 C 258.75 405.78 255.33 397.09 250.93 389.04 C 246.52 381.35 240.16 374.01 231.27 371.67 C 223.48 369.18 214.74 371.49 208.46 376.50 C 204.54 379.62 203.01 385.17 198.29 387.36 C 195.39 388.66 192.23 386.75 190.79 384.21 C 188.39 380.56 189.91 376.02 191.20 372.25 C 195.41 360.81 204.96 352.57 214.40 345.41 C 222.33 339.44 232.94 339.03 242.35 340.82 C 255.78 344.35 267.28 353.96 273.94 366.06 C 277.04 371.82 281.30 376.85 284.35 382.63 C 291.48 398.19 294.50 415.21 296.56 432.09 C 297.81 442.34 298.44 452.68 297.98 463.00 C 298.36 472.03 297.91 481.06 297.56 490.08 C 296.34 498.93 295.53 507.90 296.22 516.83 C 298.16 530.76 297.90 544.89 300.25 558.76 C 301.57 566.36 302.10 574.25 305.28 581.38 C 307.35 578.09 308.23 574.26 309.69 570.70 C 315.96 556.16 318.82 540.49 323.47 525.41 C 326.37 511.65 330.62 498.21 333.45 484.43 C 335.44 474.01 337.66 463.57 338.33 452.96 C 337.17 449.60 334.94 446.78 333.21 443.71 C 327.19 432.95 322.87 420.62 324.21 408.13 C 325.71 401.43 329.36 395.48 332.44 389.43 C 335.53 384.59 338.45 379.58 342.21 375.23 C 347.28 370.59 353.47 367.20 360.01 365.15 C 363.55 364.01 367.76 364.38 370.64 361.69 C 373.66 359.04 376.79 356.29 378.60 352.63 C 380.46 349.00 381.80 345.13 383.29 341.33 C 384.71 337.91 384.17 334.05 385.57 330.63 C 387.65 325.40 392.13 320.92 397.77 319.79 M 391.80 339.62 C 390.66 348.89 387.27 358.67 379.55 364.49 C 376.14 366.74 373.43 369.97 369.64 371.65 C 366.18 373.82 361.86 373.40 358.30 375.34 C 353.53 377.60 348.17 379.49 345.01 383.99 C 338.87 391.61 332.80 400.81 333.95 411.06 C 334.02 416.66 336.45 421.83 337.49 427.26 C 338.38 431.87 339.36 436.47 340.51 441.02 C 340.67 434.68 341.61 428.37 341.31 422.02 C 341.22 416.49 340.64 410.89 341.64 405.40 C 345.43 405.06 346.29 409.35 346.68 412.23 C 347.35 418.79 346.09 425.37 346.40 431.94 C 347.96 440.87 347.70 449.99 348.27 459.02 C 347.89 466.71 346.79 474.35 345.85 481.99 C 343.05 496.87 340.34 511.86 335.41 526.22 C 331.78 539.80 327.55 553.25 322.22 566.27 C 320.10 570.35 319.57 574.96 318.34 579.34 C 314.83 591.66 311.91 604.14 309.53 616.73 C 305.94 632.42 304.41 648.48 303.20 664.49 C 302.20 677.66 302.02 690.90 303.15 704.06 C 305.99 729.96 313.02 755.23 321.23 779.87 C 321.58 779.83 322.28 779.75 322.62 779.71 C 325.15 772.94 327.52 766.10 329.30 759.10 C 332.96 744.20 337.93 729.66 341.62 714.78 C 346.24 697.88 352.09 681.28 359.41 665.36 C 360.90 661.98 363.30 659.07 364.53 655.57 C 367.47 648.14 372.04 641.39 378.21 636.28 C 374.29 636.17 370.38 635.85 366.49 635.37 C 366.37 634.32 366.26 633.29 366.15 632.26 C 368.52 630.45 371.16 628.95 374.05 628.18 C 383.48 625.57 393.29 625.31 402.92 624.04 C 413.17 624.42 423.42 621.83 433.64 623.50 C 436.58 623.97 440.21 627.08 438.25 630.25 C 435.69 632.53 432.11 632.78 428.87 633.13 C 430.35 635.30 431.51 637.72 433.32 639.65 C 438.71 644.74 441.84 651.63 444.70 658.34 C 451.87 670.37 456.31 683.77 460.97 696.91 C 465.28 708.86 467.72 721.36 471.55 733.46 C 476.41 748.80 479.43 764.71 485.38 779.71 C 485.73 779.75 486.42 779.83 486.77 779.86 C 494.47 756.83 501.03 733.26 504.29 709.12 C 507.17 684.84 504.88 660.29 501.98 636.11 C 498.89 616.45 494.65 596.98 489.27 577.83 C 488.26 573.67 487.49 569.40 485.48 565.57 C 480.66 553.52 476.60 541.16 473.27 528.61 C 466.13 506.37 461.54 483.29 459.74 460.00 C 459.85 452.41 460.48 444.84 460.73 437.26 C 462.97 428.66 460.41 419.82 461.74 411.13 C 462.23 408.67 461.90 405.77 463.72 403.81 C 464.55 402.93 466.30 403.28 466.77 404.43 C 470.16 411.01 466.41 418.16 466.40 425.03 C 466.67 430.66 467.58 436.27 467.39 441.92 C 469.21 434.21 470.39 426.35 472.77 418.78 C 474.20 414.01 474.36 408.95 473.89 404.03 C 471.98 396.33 467.62 389.45 462.54 383.45 C 460.52 381.21 458.88 378.25 455.83 377.30 C 448.85 374.39 442.40 369.78 434.92 368.32 C 425.87 369.10 417.74 362.87 413.87 355.07 C 410.40 348.32 410.93 340.48 410.85 333.15 C 409.67 328.02 403.15 328.60 399.12 329.11 C 394.72 330.57 393.02 335.58 391.80 339.62 M 210.44 359.43 C 205.24 364.08 201.40 370.17 199.03 376.72 C 204.41 372.90 208.16 366.97 214.49 364.51 C 221.73 360.63 230.53 360.79 237.96 364.06 C 251.75 369.97 261.15 382.92 266.38 396.59 C 273.99 415.79 275.03 436.66 275.84 457.04 C 275.92 462.71 274.79 468.32 274.98 474.00 C 275.08 478.00 274.99 482.01 274.18 485.95 C 273.64 494.97 273.45 504.01 272.58 513.01 C 273.04 520.70 272.07 528.36 272.03 536.04 C 273.07 545.34 272.54 554.74 273.99 563.99 C 275.64 576.33 277.41 588.76 281.41 600.60 C 283.53 605.48 287.99 608.79 290.59 613.37 C 292.05 615.83 293.93 617.99 295.71 620.22 C 297.11 610.04 300.55 600.31 303.07 590.39 C 293.17 581.49 288.91 567.94 287.85 555.01 C 286.60 549.75 287.34 544.32 286.30 539.03 C 285.90 531.36 285.76 523.60 286.88 515.98 C 286.94 505.23 289.57 494.71 290.08 484.00 C 289.56 478.01 289.09 472.02 288.91 466.02 C 286.76 445.41 285.24 424.65 280.45 404.44 C 278.99 396.41 277.05 388.41 274.13 380.79 C 269.40 372.85 263.50 365.31 255.40 360.58 C 245.70 354.89 234.71 349.72 223.16 351.10 C 218.63 353.38 214.46 356.35 210.44 359.43 Z" />
<path fill="#000000" opacity="1.00" d=" M 392.66 366.12 C 395.24 363.16 398.98 365.86 401.99 366.46 C 404.19 366.45 406.40 366.46 408.60 366.67 C 408.94 371.75 402.47 375.69 398.14 372.84 C 395.56 371.61 392.17 369.37 392.66 366.12 Z" />
<path fill="#000000" opacity="1.00" d=" M 394.72 400.31 C 398.41 397.49 402.48 394.93 407.02 393.78 C 408.60 393.15 409.65 394.48 410.56 395.52 C 412.86 397.96 414.93 400.59 417.01 403.22 C 420.63 400.99 423.99 398.00 428.25 397.08 C 429.27 400.00 429.51 403.07 429.29 406.14 C 431.52 405.14 433.68 403.92 436.04 403.22 C 438.30 402.91 439.20 405.24 440.18 406.82 C 441.88 410.42 441.78 414.51 441.85 418.39 C 445.12 417.20 448.18 414.35 451.88 415.55 C 452.98 416.68 452.76 418.44 452.86 419.90 C 452.57 426.76 450.12 433.23 448.07 439.71 C 450.74 441.18 453.70 443.56 453.56 446.93 C 452.59 456.73 448.98 466.10 444.02 474.55 C 446.38 474.37 449.20 474.60 450.15 477.21 C 451.72 481.11 447.16 483.49 446.03 486.82 C 443.61 490.98 443.08 497.14 438.27 499.23 C 437.91 492.05 442.59 486.01 445.12 479.58 C 443.10 480.34 441.05 481.08 438.94 481.50 C 436.96 481.18 437.10 478.93 437.61 477.50 C 440.75 470.74 443.13 463.66 445.74 456.68 C 447.20 452.93 447.55 448.81 449.28 445.17 C 447.03 446.22 444.56 446.77 442.07 446.36 C 440.50 445.02 441.21 442.55 441.62 440.80 C 443.53 434.87 445.76 429.02 447.01 422.89 C 444.10 424.62 440.98 426.51 437.44 425.71 C 435.30 420.36 435.10 414.62 435.99 408.98 C 432.97 410.12 429.76 411.32 426.49 410.56 C 424.02 409.49 424.43 406.52 424.40 404.33 C 421.76 406.27 418.79 408.47 415.31 407.78 C 411.47 406.70 410.97 401.44 408.03 399.66 C 403.93 401.79 399.72 403.71 395.75 406.10 C 392.13 407.84 389.25 404.09 386.82 401.97 C 384.07 404.40 381.35 406.91 378.06 408.60 C 376.32 407.21 374.57 405.86 372.76 404.57 C 371.47 408.92 368.37 412.92 369.77 417.67 C 367.21 419.15 364.36 418.45 361.76 417.57 C 363.17 423.64 362.04 429.94 363.53 435.99 C 363.45 436.44 363.30 437.35 363.22 437.80 C 361.47 437.68 359.72 437.51 357.98 437.36 C 361.98 444.81 366.24 452.09 370.78 459.23 C 369.34 461.47 366.69 461.89 364.32 462.56 C 365.30 472.25 371.67 480.27 373.86 489.61 C 371.44 489.78 369.03 489.60 366.64 489.26 C 370.74 495.76 373.85 502.80 375.63 510.30 C 375.23 510.80 374.44 511.78 374.04 512.28 C 369.61 504.17 363.97 496.62 360.73 487.91 C 360.10 484.17 364.84 482.61 367.83 483.62 C 364.50 479.04 362.38 473.70 360.78 468.30 C 359.77 465.58 358.25 462.57 359.64 459.69 C 361.01 458.53 362.70 457.84 364.30 457.07 C 360.70 451.68 357.29 446.12 354.86 440.10 C 353.68 437.12 352.79 433.39 355.06 430.68 C 356.32 430.48 357.59 430.36 358.87 430.32 C 357.59 424.97 356.55 419.54 356.18 414.05 C 356.22 412.28 355.61 409.61 358.02 409.24 C 360.33 409.93 362.54 410.92 364.87 411.57 C 365.68 406.87 367.69 402.28 371.33 399.13 C 374.00 397.84 376.54 400.41 378.71 401.73 C 380.85 399.70 382.97 397.15 385.97 396.50 C 389.06 397.31 391.93 398.77 394.72 400.31 Z" />
</g>
<g id="#ffffffff">
<path fill="#ffffff" opacity="1.00" d=" M 391.80 339.62 C 393.02 335.58 394.72 330.57 399.12 329.11 C 403.15 328.60 409.67 328.02 410.85 333.15 C 410.93 340.48 410.40 348.32 413.87 355.07 C 417.74 362.87 425.87 369.10 434.92 368.32 C 442.40 369.78 448.85 374.39 455.83 377.30 C 458.88 378.25 460.52 381.21 462.54 383.45 C 467.62 389.45 471.98 396.33 473.89 404.03 C 474.36 408.95 474.20 414.01 472.77 418.78 C 470.39 426.35 469.21 434.21 467.39 441.92 C 467.58 436.27 466.67 430.66 466.40 425.03 C 466.41 418.16 470.16 411.01 466.77 404.43 C 466.30 403.28 464.55 402.93 463.72 403.81 C 461.90 405.77 462.23 408.67 461.74 411.13 C 460.41 419.82 462.97 428.66 460.73 437.26 C 460.48 444.84 459.85 452.41 459.74 460.00 C 461.54 483.29 466.13 506.37 473.27 528.61 C 476.60 541.16 480.66 553.52 485.48 565.57 C 487.49 569.40 488.26 573.67 489.27 577.83 C 494.65 596.98 498.89 616.45 501.98 636.11 C 504.88 660.29 507.17 684.84 504.29 709.12 C 501.03 733.26 494.47 756.83 486.77 779.86 C 486.42 779.83 485.73 779.75 485.38 779.71 C 479.43 764.71 476.41 748.80 471.55 733.46 C 467.72 721.36 465.28 708.86 460.97 696.91 C 456.31 683.77 451.87 670.37 444.70 658.34 C 441.84 651.63 438.71 644.74 433.32 639.65 C 431.51 637.72 430.35 635.30 428.87 633.13 C 432.11 632.78 435.69 632.53 438.25 630.25 C 440.21 627.08 436.58 623.97 433.64 623.50 C 423.42 621.83 413.17 624.42 402.92 624.04 C 393.29 625.31 383.48 625.57 374.05 628.18 C 371.16 628.95 368.52 630.45 366.15 632.26 C 366.26 633.29 366.37 634.32 366.49 635.37 C 370.38 635.85 374.29 636.17 378.21 636.28 C 372.04 641.39 367.47 648.14 364.53 655.57 C 363.30 659.07 360.90 661.98 359.41 665.36 C 352.09 681.28 346.24 697.88 341.62 714.78 C 337.93 729.66 332.96 744.20 329.30 759.10 C 327.52 766.10 325.15 772.94 322.62 779.71 C 322.28 779.75 321.58 779.83 321.23 779.87 C 313.02 755.23 305.99 729.96 303.15 704.06 C 302.02 690.90 302.20 677.66 303.20 664.49 C 304.41 648.48 305.94 632.42 309.53 616.73 C 311.91 604.14 314.83 591.66 318.34 579.34 C 319.57 574.96 320.10 570.35 322.22 566.27 C 327.55 553.25 331.78 539.80 335.41 526.22 C 340.34 511.86 343.05 496.87 345.85 481.99 C 346.79 474.35 347.89 466.71 348.27 459.02 C 347.70 449.99 347.96 440.87 346.40 431.94 C 346.09 425.37 347.35 418.79 346.68 412.23 C 346.29 409.35 345.43 405.06 341.64 405.40 C 340.64 410.89 341.22 416.49 341.31 422.02 C 341.61 428.37 340.67 434.68 340.51 441.02 C 339.36 436.47 338.38 431.87 337.49 427.26 C 336.45 421.83 334.02 416.66 333.95 411.06 C 332.80 400.81 338.87 391.61 345.01 383.99 C 348.17 379.49 353.53 377.60 358.30 375.34 C 361.86 373.40 366.18 373.82 369.64 371.65 C 373.43 369.97 376.14 366.74 379.55 364.49 C 387.27 358.67 390.66 348.89 391.80 339.62 M 392.66 366.12 C 392.17 369.37 395.56 371.61 398.14 372.84 C 402.47 375.69 408.94 371.75 408.60 366.67 C 406.40 366.46 404.19 366.45 401.99 366.46 C 398.98 365.86 395.24 363.16 392.66 366.12 M 394.72 400.31 C 391.93 398.77 389.06 397.31 385.97 396.50 C 382.97 397.15 380.85 399.70 378.71 401.73 C 376.54 400.41 374.00 397.84 371.33 399.13 C 367.69 402.28 365.68 406.87 364.87 411.57 C 362.54 410.92 360.33 409.93 358.02 409.24 C 355.61 409.61 356.22 412.28 356.18 414.05 C 356.55 419.54 357.59 424.97 358.87 430.32 C 357.59 430.36 356.32 430.48 355.06 430.68 C 352.79 433.39 353.68 437.12 354.86 440.10 C 357.29 446.12 360.70 451.68 364.30 457.07 C 362.70 457.84 361.01 458.53 359.64 459.69 C 358.25 462.57 359.77 465.58 360.78 468.30 C 362.38 473.70 364.50 479.04 367.83 483.62 C 364.84 482.61 360.10 484.17 360.73 487.91 C 363.97 496.62 369.61 504.17 374.04 512.28 C 374.44 511.78 375.23 510.80 375.63 510.30 C 373.85 502.80 370.74 495.76 366.64 489.26 C 369.03 489.60 371.44 489.78 373.86 489.61 C 371.67 480.27 365.30 472.25 364.32 462.56 C 366.69 461.89 369.34 461.47 370.78 459.23 C 366.24 452.09 361.98 444.81 357.98 437.36 C 359.72 437.51 361.47 437.68 363.22 437.80 C 363.30 437.35 363.45 436.44 363.53 435.99 C 362.04 429.94 363.17 423.64 361.76 417.57 C 364.36 418.45 367.21 419.15 369.77 417.67 C 368.37 412.92 371.47 408.92 372.76 404.57 C 374.57 405.86 376.32 407.21 378.06 408.60 C 381.35 406.91 384.07 404.40 386.82 401.97 C 389.25 404.09 392.13 407.84 395.75 406.10 C 399.72 403.71 403.93 401.79 408.03 399.66 C 410.97 401.44 411.47 406.70 415.31 407.78 C 418.79 408.47 421.76 406.27 424.40 404.33 C 424.43 406.52 424.02 409.49 426.49 410.56 C 429.76 411.32 432.97 410.12 435.99 408.98 C 435.10 414.62 435.30 420.36 437.44 425.71 C 440.98 426.51 444.10 424.62 447.01 422.89 C 445.76 429.02 443.53 434.87 441.62 440.80 C 441.21 442.55 440.50 445.02 442.07 446.36 C 444.56 446.77 447.03 446.22 449.28 445.17 C 447.55 448.81 447.20 452.93 445.74 456.68 C 443.13 463.66 440.75 470.74 437.61 477.50 C 437.10 478.93 436.96 481.18 438.94 481.50 C 441.05 481.08 443.10 480.34 445.12 479.58 C 442.59 486.01 437.91 492.05 438.27 499.23 C 443.08 497.14 443.61 490.98 446.03 486.82 C 447.16 483.49 451.72 481.11 450.15 477.21 C 449.20 474.60 446.38 474.37 444.02 474.55 C 448.98 466.10 452.59 456.73 453.56 446.93 C 453.70 443.56 450.74 441.18 448.07 439.71 C 450.12 433.23 452.57 426.76 452.86 419.90 C 452.76 418.44 452.98 416.68 451.88 415.55 C 448.18 414.35 445.12 417.20 441.85 418.39 C 441.78 414.51 441.88 410.42 440.18 406.82 C 439.20 405.24 438.30 402.91 436.04 403.22 C 433.68 403.92 431.52 405.14 429.29 406.14 C 429.51 403.07 429.27 400.00 428.25 397.08 C 423.99 398.00 420.63 400.99 417.01 403.22 C 414.93 400.59 412.86 397.96 410.56 395.52 C 409.65 394.48 408.60 393.15 407.02 393.78 C 402.48 394.93 398.41 397.49 394.72 400.31 Z" />
<path fill="#ffffff" opacity="1.00" d=" M 210.44 359.43 C 214.46 356.35 218.63 353.38 223.16 351.10 C 234.71 349.72 245.70 354.89 255.40 360.58 C 263.50 365.31 269.40 372.85 274.13 380.79 C 277.05 388.41 278.99 396.41 280.45 404.44 C 285.24 424.65 286.76 445.41 288.91 466.02 C 289.09 472.02 289.56 478.01 290.08 484.00 C 289.57 494.71 286.94 505.23 286.88 515.98 C 285.76 523.60 285.90 531.36 286.30 539.03 C 287.34 544.32 286.60 549.75 287.85 555.01 C 288.91 567.94 293.17 581.49 303.07 590.39 C 300.55 600.31 297.11 610.04 295.71 620.22 C 293.93 617.99 292.05 615.83 290.59 613.37 C 287.99 608.79 283.53 605.48 281.41 600.60 C 277.41 588.76 275.64 576.33 273.99 563.99 C 272.54 554.74 273.07 545.34 272.03 536.04 C 272.07 528.36 273.04 520.70 272.58 513.01 C 273.45 504.01 273.64 494.97 274.18 485.95 C 274.99 482.01 275.08 478.00 274.98 474.00 C 274.79 468.32 275.92 462.71 275.84 457.04 C 275.03 436.66 273.99 415.79 266.38 396.59 C 261.15 382.92 251.75 369.97 237.96 364.06 C 230.53 360.79 221.73 360.63 214.49 364.51 C 208.16 366.97 204.41 372.90 199.03 376.72 C 201.40 370.17 205.24 364.08 210.44 359.43 Z" />
</g>
</svg>
