<?xml version="1.0" encoding="UTF-8" ?>
<!DOCTYPE svg PUBLIC "-//W3C//DTD SVG 1.1//EN" "http://www.w3.org/Graphics/SVG/1.1/DTD/svg11.dtd">
<svg width="800pt" height="800pt" viewBox="0 0 800 800" version="1.1" xmlns="http://www.w3.org/2000/svg">
<g id="#000000ff">
<path fill="#000000" opacity="1.00" d=" M 384.97 47.00 C 389.96 42.79 396.62 41.28 402.98 40.80 C 408.87 40.70 414.43 43.17 419.76 45.41 C 425.55 48.27 425.21 55.61 427.17 60.89 C 431.01 71.37 431.56 83.01 437.20 92.82 C 439.83 96.67 442.95 100.31 446.66 103.15 C 450.91 104.59 455.52 104.14 459.87 105.15 C 465.99 106.54 471.94 108.68 477.61 111.36 C 482.32 113.52 486.43 116.72 491.00 119.13 C 496.26 121.63 499.11 126.97 502.85 131.15 C 507.36 137.31 513.07 142.61 516.59 149.47 C 521.88 159.25 527.66 169.00 530.27 179.91 C 531.50 187.56 530.87 195.38 529.77 203.01 C 529.14 207.38 529.46 211.86 530.81 216.07 C 532.68 221.76 532.48 227.85 534.24 233.56 C 535.91 239.25 536.70 245.12 537.51 250.98 C 542.02 271.86 547.04 292.67 553.77 312.97 C 556.58 323.22 559.62 333.41 563.13 343.45 C 566.16 357.43 572.42 370.40 576.14 384.17 C 579.82 395.96 583.25 407.82 587.08 419.57 C 588.73 425.58 590.56 431.65 590.63 437.93 C 590.66 443.83 592.49 450.15 589.50 455.66 C 586.32 461.16 583.10 467.13 577.52 470.54 C 574.24 472.70 570.31 473.42 566.85 475.19 C 567.55 485.33 572.29 494.67 573.63 504.72 C 577.69 520.21 579.13 536.20 581.25 552.03 C 582.16 561.57 583.48 571.09 583.69 580.68 C 584.95 593.75 584.39 606.90 584.41 620.01 C 583.27 636.52 580.99 652.94 578.56 669.31 C 576.63 680.52 573.56 691.48 571.28 702.61 C 567.43 713.04 565.78 724.17 561.33 734.40 C 558.19 741.29 555.73 748.49 552.09 755.15 C 548.18 762.07 547.58 770.38 542.92 776.93 C 540.07 780.95 536.78 786.60 531.01 785.79 C 525.77 786.10 522.05 781.63 519.27 777.80 C 512.77 766.30 509.99 753.24 505.23 741.01 C 501.49 730.59 499.18 719.74 495.80 709.21 C 494.41 704.64 493.43 699.97 492.52 695.30 C 491.34 689.08 489.13 683.13 487.78 676.95 C 485.66 667.67 482.03 658.80 480.19 649.44 C 478.90 643.30 476.33 637.52 474.88 631.42 C 473.33 625.11 471.71 618.80 469.39 612.72 C 467.01 606.45 465.84 599.79 463.17 593.63 C 453.80 576.04 443.60 558.89 432.70 542.19 C 430.74 539.27 429.20 535.94 426.53 533.60 C 419.69 532.06 412.90 535.17 406.02 534.67 C 398.65 534.10 391.45 535.90 384.16 536.51 C 381.83 536.48 380.62 538.74 379.41 540.38 C 374.19 548.61 368.75 556.72 364.24 565.37 C 356.54 578.58 347.61 591.38 343.55 606.31 C 342.24 611.80 339.50 616.84 338.42 622.39 C 337.24 628.16 335.51 633.79 333.54 639.33 C 331.17 645.96 330.43 653.00 328.53 659.77 C 325.47 671.69 320.89 683.20 318.51 695.30 C 317.21 702.62 315.07 709.74 312.89 716.84 C 311.03 722.85 310.14 729.12 308.01 735.05 C 305.16 742.89 302.92 750.93 299.90 758.71 C 296.68 767.27 294.41 776.95 287.03 783.05 C 283.53 786.54 277.18 786.92 273.52 783.49 C 270.42 780.80 268.15 777.31 266.25 773.72 C 262.98 767.81 262.43 760.83 258.92 755.02 C 254.83 748.04 252.53 740.25 249.16 732.93 C 245.41 723.55 243.65 713.53 240.19 704.05 C 237.01 691.77 234.31 679.36 232.04 666.88 C 230.80 655.54 228.47 644.34 227.60 632.97 C 224.50 600.97 227.83 568.83 231.29 537.00 C 231.59 535.19 229.30 534.59 228.20 533.64 C 224.06 531.34 220.83 527.83 217.11 524.96 C 207.05 517.91 202.02 506.21 196.46 495.70 C 190.95 483.25 187.95 469.92 184.60 456.79 C 183.61 450.52 181.56 444.42 181.34 438.05 C 181.17 432.65 179.54 427.40 179.67 421.98 C 179.85 416.61 178.28 411.39 178.28 406.03 C 178.26 389.00 178.25 371.96 178.37 354.93 C 178.44 349.54 180.51 344.42 180.62 339.03 C 180.81 333.55 180.52 327.99 181.84 322.62 C 183.30 316.79 182.16 310.67 183.78 304.87 C 185.30 299.02 184.11 292.95 184.80 287.01 C 186.71 273.10 186.25 259.01 186.23 245.01 C 186.40 239.28 184.90 233.71 184.50 228.04 C 184.58 216.13 181.80 204.48 180.30 192.73 C 178.74 179.50 173.97 166.89 167.92 155.11 C 165.10 148.37 160.39 142.75 155.97 137.03 C 152.38 132.50 147.37 129.45 142.53 126.44 C 128.81 119.19 110.74 120.66 98.85 130.84 C 93.81 134.94 91.46 141.34 86.61 145.60 C 83.64 147.96 79.17 149.54 75.67 147.38 C 71.23 145.04 68.91 139.91 69.48 135.00 C 70.78 122.22 77.51 110.48 86.47 101.48 C 95.42 92.33 104.68 82.97 116.36 77.37 C 124.68 73.62 134.05 73.10 143.04 73.79 C 149.14 74.34 155.41 75.08 160.90 77.99 C 168.90 82.05 177.35 85.76 183.74 92.25 C 190.88 98.18 196.48 105.71 201.24 113.62 C 206.32 123.94 214.10 132.68 218.97 143.12 C 224.05 155.10 228.73 167.40 230.81 180.30 C 232.04 188.21 234.43 195.89 235.21 203.87 C 236.58 216.40 238.21 228.91 238.76 241.51 C 240.03 251.64 239.06 261.84 239.34 272.01 C 239.35 284.67 239.72 297.38 238.30 309.98 C 237.83 314.35 236.80 318.65 236.52 323.04 C 235.95 337.41 235.90 351.84 238.09 366.09 C 242.02 360.72 243.66 354.10 245.44 347.80 C 246.85 340.92 250.06 334.59 251.54 327.73 C 252.64 322.76 254.45 318.01 256.00 313.19 C 259.93 298.82 263.66 284.39 267.79 270.07 C 269.98 261.07 271.49 251.93 273.13 242.82 C 276.17 234.25 276.76 225.12 279.08 216.37 C 281.52 205.73 279.91 194.75 280.17 183.95 C 279.91 176.37 284.46 169.91 287.12 163.11 C 291.10 155.56 294.59 147.63 299.90 140.89 C 303.17 136.50 305.57 131.40 309.77 127.76 C 317.71 121.07 327.09 116.35 336.78 112.77 C 341.89 110.92 348.05 112.11 352.41 108.39 C 356.02 105.37 359.43 102.09 362.49 98.52 C 367.57 92.46 369.26 84.56 372.49 77.52 C 374.44 73.46 374.78 68.93 375.36 64.54 C 376.20 57.75 379.76 51.40 384.97 47.00 M 396.58 56.80 C 392.24 59.15 389.83 63.78 388.07 68.19 C 385.49 74.44 385.83 81.42 383.40 87.71 C 380.95 94.06 378.44 100.61 373.79 105.73 C 369.88 110.58 364.32 113.60 359.97 117.97 C 356.87 121.06 352.88 123.00 348.97 124.84 C 344.96 126.78 340.31 126.34 336.25 128.10 C 330.93 130.39 325.73 132.94 320.59 135.61 C 316.20 137.78 313.78 142.21 310.79 145.85 C 304.61 153.26 300.04 161.93 296.78 170.98 C 294.51 177.22 296.53 183.96 295.05 190.33 C 294.03 194.83 294.44 199.49 293.83 204.04 C 293.48 207.02 292.81 209.95 292.67 212.95 C 292.54 229.65 286.16 245.44 284.59 261.96 C 282.08 273.34 279.50 284.73 276.29 295.94 C 272.96 309.81 269.15 323.59 264.33 337.02 C 259.00 355.77 251.78 373.91 244.85 392.11 C 241.32 399.76 238.47 407.75 234.04 414.95 C 232.15 418.78 229.35 422.50 229.33 426.95 C 229.30 433.92 229.14 441.16 231.98 447.68 C 233.94 454.10 238.55 460.00 245.08 462.14 C 250.84 460.34 255.22 455.57 259.07 451.08 C 262.07 447.13 265.91 443.24 266.34 438.03 C 267.38 429.56 269.07 421.14 272.02 413.12 C 273.64 408.78 274.42 404.22 275.39 399.72 C 279.47 383.09 281.94 366.13 285.55 349.41 C 286.56 344.69 286.16 339.80 287.41 335.13 C 290.36 322.89 291.00 310.27 293.15 297.89 C 293.72 290.92 294.82 283.97 294.72 276.96 C 294.59 273.13 296.64 269.74 297.23 266.04 C 297.90 259.14 296.65 252.05 298.54 245.28 C 300.91 236.65 301.17 227.61 303.34 218.95 C 305.19 214.87 305.57 210.40 305.34 205.98 C 304.97 200.92 306.80 196.06 306.67 191.02 C 306.82 186.85 306.27 182.67 306.73 178.52 C 307.83 175.25 312.74 176.07 313.75 179.04 C 316.22 185.35 316.70 192.31 315.82 199.01 C 315.55 207.16 314.69 215.41 316.18 223.49 C 316.83 227.62 316.38 231.82 316.85 235.97 C 318.15 243.63 317.27 251.44 318.29 259.13 C 318.04 270.17 316.45 281.13 314.82 292.05 C 314.59 297.34 313.19 302.45 311.96 307.57 C 310.64 314.02 310.04 320.61 308.26 326.97 C 305.38 337.75 303.95 348.92 300.14 359.44 C 295.84 369.60 294.27 380.60 290.88 391.04 C 288.79 396.65 286.79 402.30 285.00 408.02 C 281.68 417.65 277.07 426.94 275.70 437.14 C 273.72 444.85 273.43 453.23 269.10 460.14 C 265.80 465.39 265.33 471.69 264.13 477.62 C 262.96 483.20 260.99 488.58 260.04 494.21 C 257.94 508.56 253.46 522.48 251.99 536.94 C 250.87 550.55 248.47 564.05 248.18 577.71 C 245.99 589.36 247.16 601.27 245.86 613.00 C 245.92 624.64 247.27 636.23 247.54 647.86 C 250.03 665.19 252.55 682.57 257.23 699.48 C 258.86 709.72 262.48 719.47 265.22 729.43 C 266.29 734.44 267.66 739.40 269.61 744.15 C 272.16 750.43 272.53 757.43 275.72 763.47 C 276.19 763.52 277.14 763.60 277.61 763.65 C 281.73 754.63 284.46 745.04 287.30 735.56 C 291.84 717.71 296.93 700.01 302.26 682.38 C 307.66 662.53 312.53 642.47 319.91 623.22 C 323.20 615.28 325.20 606.86 328.85 599.06 C 332.22 590.36 336.50 582.07 341.06 573.95 C 344.54 565.78 348.56 557.81 353.47 550.41 C 356.57 545.73 361.26 542.48 364.87 538.25 C 359.38 537.42 353.79 537.99 348.29 537.34 C 346.17 537.05 344.81 534.69 345.71 532.72 C 347.61 529.94 350.79 528.44 353.74 527.00 C 362.22 523.35 371.57 522.86 380.59 521.57 C 385.81 519.94 391.34 521.00 396.64 519.94 C 403.35 518.54 410.24 519.49 417.02 518.87 C 424.36 518.59 431.64 517.31 439.01 517.46 C 444.88 517.46 451.30 516.98 456.41 520.46 C 458.87 522.07 461.41 525.29 459.36 528.21 C 456.22 532.80 449.94 532.47 445.05 533.36 C 446.52 537.11 448.86 540.50 451.51 543.52 C 460.72 552.14 465.38 564.21 470.68 575.36 C 480.14 591.27 485.95 608.92 492.71 626.06 C 493.97 629.48 494.78 633.05 495.75 636.57 C 496.87 640.72 499.00 644.53 500.00 648.74 C 505.58 673.42 514.45 697.20 520.27 721.83 C 523.71 736.00 527.47 750.26 533.41 763.61 C 533.89 763.59 534.86 763.56 535.34 763.54 C 537.98 757.81 538.56 751.41 540.88 745.57 C 542.75 740.88 544.41 736.10 545.41 731.15 C 547.91 719.90 552.62 709.24 554.10 697.75 C 559.11 681.22 560.86 664.00 563.47 646.99 C 563.82 643.36 563.45 639.71 563.75 636.08 C 565.55 621.45 564.30 606.69 564.30 592.01 C 564.39 587.27 563.42 582.62 562.77 577.96 C 562.17 556.32 558.61 534.92 555.13 513.59 C 554.03 507.69 552.12 501.97 551.29 496.02 C 550.10 488.00 547.00 480.41 545.97 472.36 C 545.53 468.40 543.81 464.79 541.40 461.67 C 537.43 456.32 536.04 449.69 535.08 443.24 C 533.06 434.87 532.29 426.20 529.18 418.12 C 526.23 410.21 524.19 401.99 521.20 394.10 C 518.00 385.90 516.65 377.16 514.09 368.76 C 511.83 360.02 507.98 351.74 506.37 342.82 C 504.61 333.31 501.60 324.06 500.28 314.46 C 499.30 306.90 496.23 299.72 496.23 292.02 C 494.46 281.17 493.02 270.24 492.74 259.25 C 493.83 251.83 492.82 244.29 494.08 236.89 C 494.70 232.45 494.14 227.93 494.84 223.50 C 497.08 210.98 494.20 198.24 495.93 185.67 C 496.66 181.83 496.05 177.54 498.19 174.10 C 499.17 172.19 502.11 171.91 503.48 173.51 C 505.98 175.82 505.84 179.56 505.36 182.66 C 503.26 192.33 504.67 202.26 504.37 212.05 C 503.96 215.45 506.12 218.24 507.02 221.35 C 508.41 229.19 508.58 237.21 510.42 244.98 C 512.78 254.51 511.06 264.57 513.90 274.02 C 514.85 291.80 517.63 309.41 520.42 326.98 C 520.98 333.39 523.22 339.54 523.40 345.99 C 524.03 355.11 527.24 363.79 528.45 372.83 C 530.66 383.94 533.67 394.89 535.70 406.06 C 537.77 414.72 541.08 423.11 542.14 432.01 C 542.76 436.78 542.86 442.04 546.10 445.94 C 550.65 451.66 555.36 457.70 561.92 461.20 C 565.77 463.24 569.55 459.67 572.14 457.15 C 579.54 449.08 580.73 437.41 580.60 426.94 C 580.76 424.06 579.25 421.53 577.93 419.10 C 563.86 394.98 555.79 368.08 546.46 341.94 C 544.73 335.51 542.73 329.16 540.46 322.90 C 534.84 302.67 529.41 282.38 524.77 261.91 C 523.79 250.51 520.08 239.47 520.16 227.97 C 520.04 222.60 518.24 217.42 518.46 212.03 C 518.56 205.14 516.92 198.40 515.63 191.68 C 514.79 185.84 515.95 179.92 515.11 174.08 C 513.77 166.98 510.16 160.61 506.64 154.40 C 502.94 147.68 497.52 142.16 492.75 136.21 C 489.45 131.59 483.35 131.13 478.81 128.27 C 472.27 124.40 465.06 121.92 458.16 118.79 C 453.31 116.35 447.63 118.59 442.65 116.59 C 430.18 112.82 421.28 101.41 417.98 89.14 C 415.60 81.29 416.66 73.02 416.46 64.96 C 416.37 60.87 413.24 56.66 408.94 56.46 C 404.83 56.26 400.63 55.98 396.58 56.80 M 116.23 94.19 C 110.19 98.03 104.12 101.97 98.97 106.97 C 93.45 113.29 88.35 120.15 85.13 127.95 C 84.75 128.89 84.37 129.89 84.62 130.92 C 88.67 127.90 92.26 124.30 95.67 120.59 C 99.42 116.36 104.79 114.24 109.59 111.49 C 119.04 106.32 130.48 106.72 140.59 109.57 C 151.28 113.01 160.20 120.19 168.50 127.52 C 182.16 142.43 190.66 161.38 195.51 180.87 C 200.43 194.76 200.48 209.67 202.96 224.05 C 203.73 231.56 202.94 239.15 203.88 246.65 C 204.70 252.33 204.89 258.13 204.22 263.84 C 202.84 273.18 203.45 282.65 203.29 292.05 C 203.29 296.75 201.50 301.24 201.58 305.94 C 201.54 309.57 201.71 313.22 201.15 316.82 C 199.90 323.48 200.95 330.29 200.15 337.00 C 198.90 345.96 200.04 355.01 199.46 364.01 C 199.68 370.97 197.77 377.89 198.94 384.82 C 200.47 396.83 199.25 409.06 201.40 420.99 C 201.49 427.35 203.34 433.48 203.82 439.80 C 205.63 449.27 206.56 458.94 209.37 468.20 C 210.95 473.51 211.49 479.17 213.96 484.19 C 217.08 489.82 222.19 493.97 225.68 499.35 C 228.70 503.91 231.40 508.92 235.86 512.27 C 236.88 501.17 240.67 490.65 243.35 479.91 C 243.56 478.39 244.33 476.72 243.67 475.24 C 240.35 473.82 236.62 473.45 233.52 471.50 C 226.11 466.97 221.02 459.07 218.92 450.75 C 217.40 438.92 221.49 427.39 223.49 415.87 C 223.84 413.20 223.61 410.49 223.00 407.88 C 221.54 402.01 222.68 395.87 221.32 389.98 C 220.19 385.06 220.53 380.00 220.50 375.00 C 220.60 366.32 219.90 357.54 221.93 349.02 C 222.25 337.96 223.32 326.92 225.23 316.02 C 225.65 308.74 227.60 301.47 226.29 294.16 C 224.65 285.40 226.18 276.41 224.54 267.66 C 222.65 256.83 223.39 245.67 220.79 234.95 C 220.59 222.17 217.75 209.67 216.30 197.01 C 215.32 187.88 212.14 179.19 210.88 170.12 C 209.64 164.00 208.27 157.90 206.38 151.94 C 204.42 145.19 203.43 137.78 198.79 132.19 C 194.09 126.59 190.43 120.08 184.93 115.18 C 176.02 107.14 165.23 101.56 154.36 96.67 C 144.93 92.17 134.34 90.17 123.93 90.81 C 121.02 90.96 118.62 92.75 116.23 94.19 Z" />
<path fill="#000000" opacity="1.00" d=" M 390.23 112.97 C 393.28 111.81 396.46 113.54 399.38 114.41 C 403.54 116.13 408.13 114.59 412.42 115.73 C 413.75 121.43 407.86 125.83 402.87 126.69 C 397.68 127.24 393.10 123.71 389.77 120.13 C 387.83 118.26 387.23 114.13 390.23 112.97 Z" />
<path fill="#000000" opacity="1.00" d=" M 390.78 167.64 C 397.93 164.13 404.52 158.06 412.80 157.79 C 418.01 161.70 421.36 167.62 426.09 172.08 C 431.45 169.82 435.42 164.91 441.16 163.43 C 442.79 163.04 444.74 163.84 445.12 165.59 C 445.61 169.17 445.21 172.79 445.56 176.38 C 449.90 175.46 453.74 171.84 458.36 172.69 C 465.10 178.47 464.42 188.02 465.27 196.02 C 470.28 195.11 474.62 190.85 479.99 192.49 C 482.95 194.62 482.53 198.66 481.96 201.80 C 480.45 209.68 479.22 217.72 476.09 225.15 C 475.48 226.82 474.66 228.46 474.54 230.26 C 478.40 232.70 482.78 235.99 482.79 241.05 C 482.34 250.51 480.28 259.92 476.44 268.60 C 474.70 273.92 471.22 278.51 469.76 283.93 C 472.58 284.87 476.49 284.91 477.69 288.21 C 479.43 291.22 478.27 294.76 476.10 297.18 C 470.35 303.86 468.62 312.78 463.99 320.14 C 461.53 323.78 460.66 329.07 456.32 331.03 C 456.15 326.18 458.22 321.70 459.30 317.07 C 461.39 308.53 466.24 301.10 469.85 293.20 C 466.86 293.60 463.96 294.60 460.95 294.74 C 459.19 295.04 458.25 293.28 457.49 292.03 C 458.82 287.29 461.62 283.14 463.22 278.49 C 467.59 265.54 473.50 253.00 475.66 239.39 C 471.69 239.64 465.91 242.57 463.50 237.93 C 464.90 226.25 471.53 215.74 472.78 203.97 C 468.17 205.13 464.10 209.75 459.11 208.22 C 453.45 200.39 455.85 190.28 455.56 181.31 C 450.99 182.98 446.16 185.96 441.18 184.16 C 437.91 182.44 437.94 178.41 437.16 175.29 C 432.78 176.78 429.03 180.90 424.14 180.27 C 418.27 177.89 416.02 171.46 412.70 166.60 C 408.50 168.65 404.54 171.16 400.31 173.16 C 396.59 174.89 393.43 178.37 389.12 178.42 C 384.33 178.11 382.28 172.70 378.16 171.24 C 373.90 174.49 370.31 178.92 364.98 180.52 C 362.07 179.12 359.63 176.94 356.84 175.34 C 355.08 179.16 353.56 183.08 351.87 186.93 C 350.48 189.87 353.40 194.35 349.76 196.09 C 346.39 197.51 342.79 195.76 339.36 195.40 C 339.43 199.62 340.54 203.75 340.57 207.97 C 340.79 212.31 340.07 216.75 341.28 221.00 C 341.75 222.86 342.49 225.31 340.50 226.59 C 338.10 226.95 335.68 226.41 333.29 226.27 C 338.46 236.37 344.28 246.11 350.34 255.69 C 351.29 257.72 353.84 260.41 351.69 262.49 C 349.43 264.40 346.23 264.53 343.57 265.67 C 343.79 271.18 344.69 276.83 347.41 281.71 C 351.36 289.10 353.36 297.34 357.44 304.66 C 358.61 306.08 357.49 307.94 355.98 308.51 C 352.94 308.82 350.01 307.77 347.05 307.35 C 349.65 314.29 354.78 320.03 356.80 327.23 C 358.07 331.85 359.73 336.39 360.50 341.13 C 360.15 341.59 359.46 342.50 359.11 342.96 C 355.34 339.08 353.41 333.91 350.40 329.48 C 346.63 323.85 343.66 317.74 340.06 312.00 C 338.32 309.07 336.48 305.33 338.05 301.96 C 339.88 298.69 343.92 298.55 347.19 298.00 C 344.59 291.19 340.72 284.89 338.92 277.77 C 337.88 273.10 334.39 269.00 334.80 264.05 C 335.65 260.43 339.58 259.51 342.45 258.05 C 343.14 256.19 341.88 254.50 340.88 253.06 C 336.02 246.67 332.52 239.40 328.78 232.34 C 326.46 228.17 326.01 223.22 326.87 218.59 C 327.76 215.56 331.41 215.66 333.83 214.67 C 334.51 211.83 332.80 208.81 332.59 205.89 C 331.91 199.26 330.06 192.69 330.49 185.98 C 330.47 184.37 331.89 183.27 333.03 182.36 C 336.85 183.24 340.34 185.46 344.33 185.56 C 346.00 178.63 348.45 171.73 353.57 166.55 C 357.74 165.12 361.61 167.41 365.12 169.37 C 369.50 168.20 372.00 162.41 377.05 162.43 C 382.19 162.33 386.15 166.08 390.78 167.64 Z" />
</g>
<g id="#ffffffff">
<path fill="#ffffff" opacity="1.00" d=" M 396.58 56.80 C 400.63 55.98 404.83 56.26 408.94 56.46 C 413.24 56.66 416.37 60.87 416.46 64.96 C 416.66 73.02 415.60 81.29 417.98 89.14 C 421.28 101.41 430.18 112.82 442.65 116.59 C 447.63 118.59 453.31 116.35 458.16 118.79 C 465.06 121.92 472.27 124.40 478.81 128.27 C 483.35 131.13 489.45 131.59 492.75 136.21 C 497.52 142.16 502.94 147.68 506.64 154.40 C 510.16 160.61 513.77 166.98 515.11 174.08 C 515.95 179.92 514.79 185.84 515.63 191.68 C 516.92 198.40 518.56 205.14 518.46 212.03 C 518.24 217.42 520.04 222.60 520.16 227.97 C 520.08 239.47 523.79 250.51 524.77 261.91 C 529.41 282.38 534.84 302.67 540.46 322.90 C 542.73 329.16 544.73 335.51 546.46 341.94 C 555.79 368.08 563.86 394.98 577.93 419.10 C 579.25 421.53 580.76 424.06 580.60 426.94 C 580.73 437.41 579.54 449.08 572.14 457.15 C 569.55 459.67 565.77 463.24 561.92 461.20 C 555.36 457.70 550.65 451.66 546.10 445.94 C 542.86 442.04 542.76 436.78 542.14 432.01 C 541.08 423.11 537.77 414.72 535.70 406.06 C 533.67 394.89 530.66 383.94 528.45 372.83 C 527.24 363.79 524.03 355.11 523.40 345.99 C 523.22 339.54 520.98 333.39 520.42 326.98 C 517.63 309.41 514.85 291.80 513.90 274.02 C 511.06 264.57 512.78 254.51 510.42 244.98 C 508.58 237.21 508.41 229.19 507.02 221.35 C 506.12 218.24 503.96 215.45 504.37 212.05 C 504.67 202.26 503.26 192.33 505.36 182.66 C 505.84 179.56 505.98 175.82 503.48 173.51 C 502.11 171.91 499.17 172.19 498.19 174.10 C 496.05 177.54 496.66 181.83 495.93 185.67 C 494.20 198.24 497.08 210.98 494.84 223.50 C 494.14 227.93 494.70 232.45 494.08 236.89 C 492.82 244.29 493.83 251.83 492.74 259.25 C 493.02 270.24 494.46 281.17 496.23 292.02 C 496.23 299.72 499.30 306.90 500.28 314.46 C 501.60 324.06 504.61 333.31 506.37 342.82 C 507.98 351.74 511.83 360.02 514.09 368.76 C 516.65 377.16 518.00 385.90 521.20 394.10 C 524.19 401.99 526.23 410.21 529.18 418.12 C 532.29 426.20 533.06 434.87 535.08 443.24 C 536.04 449.69 537.43 456.32 541.40 461.67 C 543.81 464.79 545.53 468.40 545.97 472.36 C 547.00 480.41 550.10 488.00 551.29 496.02 C 552.12 501.97 554.03 507.69 555.13 513.59 C 558.61 534.92 562.17 556.32 562.77 577.96 C 563.42 582.62 564.39 587.27 564.30 592.01 C 564.30 606.69 565.55 621.45 563.75 636.08 C 563.45 639.71 563.82 643.36 563.47 646.99 C 560.86 664.00 559.11 681.22 554.10 697.75 C 552.62 709.24 547.91 719.90 545.41 731.15 C 544.41 736.10 542.75 740.88 540.88 745.57 C 538.56 751.41 537.98 757.81 535.34 763.54 C 534.86 763.56 533.89 763.59 533.41 763.61 C 527.47 750.26 523.71 736.00 520.27 721.83 C 514.45 697.20 505.58 673.42 500.00 648.74 C 499.00 644.53 496.87 640.72 495.75 636.57 C 494.78 633.05 493.97 629.48 492.71 626.06 C 485.95 608.92 480.14 591.27 470.68 575.36 C 465.38 564.21 460.72 552.14 451.51 543.52 C 448.86 540.50 446.52 537.11 445.05 533.36 C 449.94 532.47 456.22 532.80 459.36 528.21 C 461.41 525.29 458.87 522.07 456.41 520.46 C 451.30 516.98 444.88 517.46 439.01 517.46 C 431.64 517.31 424.36 518.59 417.02 518.87 C 410.24 519.49 403.35 518.54 396.64 519.94 C 391.34 521.00 385.81 519.94 380.59 521.57 C 371.57 522.86 362.22 523.35 353.74 527.00 C 350.79 528.44 347.61 529.94 345.71 532.72 C 344.81 534.69 346.17 537.05 348.29 537.34 C 353.79 537.99 359.38 537.42 364.87 538.25 C 361.26 542.48 356.57 545.73 353.47 550.41 C 348.56 557.81 344.54 565.78 341.06 573.95 C 336.50 582.07 332.22 590.36 328.85 599.06 C 325.20 606.86 323.20 615.28 319.91 623.22 C 312.53 642.47 307.66 662.53 302.26 682.38 C 296.93 700.01 291.84 717.71 287.30 735.56 C 284.46 745.04 281.73 754.63 277.61 763.65 C 277.14 763.60 276.19 763.52 275.72 763.47 C 272.53 757.43 272.16 750.43 269.61 744.15 C 267.66 739.40 266.29 734.44 265.22 729.43 C 262.48 719.47 258.86 709.72 257.23 699.48 C 252.55 682.57 250.03 665.19 247.54 647.86 C 247.27 636.23 245.92 624.64 245.86 613.00 C 247.16 601.27 245.99 589.36 248.18 577.71 C 248.47 564.05 250.87 550.55 251.99 536.94 C 253.46 522.48 257.94 508.56 260.04 494.21 C 260.99 488.58 262.96 483.20 264.13 477.62 C 265.33 471.69 265.80 465.39 269.10 460.14 C 273.43 453.23 273.72 444.85 275.70 437.14 C 277.07 426.94 281.68 417.65 285.00 408.02 C 286.79 402.30 288.79 396.65 290.88 391.04 C 294.27 380.60 295.84 369.60 300.14 359.44 C 303.95 348.92 305.38 337.75 308.26 326.97 C 310.04 320.61 310.64 314.02 311.96 307.57 C 313.19 302.45 314.59 297.34 314.82 292.05 C 316.45 281.13 318.04 270.17 318.29 259.13 C 317.27 251.44 318.15 243.63 316.85 235.97 C 316.38 231.82 316.83 227.62 316.18 223.49 C 314.69 215.41 315.55 207.16 315.82 199.01 C 316.70 192.31 316.22 185.35 313.75 179.04 C 312.74 176.07 307.83 175.25 306.73 178.52 C 306.27 182.67 306.82 186.85 306.67 191.02 C 306.80 196.06 304.97 200.92 305.34 205.98 C 305.57 210.40 305.19 214.87 303.34 218.95 C 301.17 227.61 300.91 236.65 298.54 245.28 C 296.65 252.05 297.90 259.14 297.23 266.04 C 296.64 269.74 294.59 273.13 294.72 276.96 C 294.82 283.97 293.72 290.92 293.15 297.89 C 291.00 310.27 290.36 322.89 287.41 335.13 C 286.16 339.80 286.56 344.69 285.55 349.41 C 281.94 366.13 279.47 383.09 275.39 399.72 C 274.42 404.22 273.64 408.78 272.02 413.12 C 269.07 421.14 267.38 429.56 266.34 438.03 C 265.91 443.24 262.07 447.13 259.07 451.08 C 255.22 455.57 250.84 460.34 245.08 462.14 C 238.55 460.00 233.94 454.10 231.98 447.68 C 229.14 441.16 229.30 433.92 229.33 426.95 C 229.35 422.50 232.15 418.78 234.04 414.95 C 238.47 407.75 241.32 399.76 244.85 392.11 C 251.78 373.91 259.00 355.77 264.33 337.02 C 269.15 323.59 272.96 309.81 276.29 295.94 C 279.50 284.73 282.08 273.34 284.59 261.96 C 286.16 245.44 292.54 229.65 292.67 212.95 C 292.81 209.95 293.48 207.02 293.83 204.04 C 294.44 199.49 294.03 194.83 295.05 190.33 C 296.53 183.96 294.51 177.22 296.78 170.98 C 300.04 161.93 304.61 153.26 310.79 145.85 C 313.78 142.21 316.20 137.78 320.59 135.61 C 325.73 132.94 330.93 130.39 336.25 128.10 C 340.31 126.34 344.96 126.78 348.97 124.84 C 352.88 123.00 356.87 121.06 359.97 117.97 C 364.32 113.60 369.88 110.58 373.79 105.73 C 378.44 100.61 380.95 94.06 383.40 87.71 C 385.83 81.42 385.49 74.44 388.07 68.19 C 389.83 63.78 392.24 59.15 396.58 56.80 M 390.23 112.97 C 387.23 114.13 387.83 118.26 389.77 120.13 C 393.10 123.71 397.68 127.24 402.87 126.69 C 407.86 125.83 413.75 121.43 412.42 115.73 C 408.13 114.59 403.54 116.13 399.38 114.41 C 396.46 113.54 393.28 111.81 390.23 112.97 M 390.78 167.64 C 386.15 166.08 382.19 162.33 377.05 162.43 C 372.00 162.41 369.50 168.20 365.12 169.37 C 361.61 167.41 357.74 165.12 353.57 166.55 C 348.45 171.73 346.00 178.63 344.33 185.56 C 340.34 185.46 336.85 183.24 333.03 182.36 C 331.89 183.27 330.47 184.37 330.49 185.98 C 330.06 192.69 331.91 199.26 332.59 205.89 C 332.80 208.81 334.51 211.83 333.83 214.67 C 331.41 215.66 327.76 215.56 326.87 218.59 C 326.01 223.22 326.46 228.17 328.78 232.34 C 332.52 239.40 336.02 246.67 340.88 253.06 C 341.88 254.50 343.14 256.19 342.45 258.05 C 339.58 259.51 335.65 260.43 334.80 264.05 C 334.39 269.00 337.88 273.10 338.92 277.77 C 340.72 284.89 344.59 291.19 347.19 298.00 C 343.92 298.55 339.88 298.69 338.05 301.96 C 336.48 305.33 338.32 309.07 340.06 312.00 C 343.66 317.74 346.63 323.85 350.40 329.48 C 353.41 333.91 355.34 339.08 359.11 342.96 C 359.46 342.50 360.15 341.59 360.50 341.13 C 359.73 336.39 358.07 331.85 356.80 327.23 C 354.78 320.03 349.65 314.29 347.05 307.35 C 350.01 307.77 352.94 308.82 355.98 308.51 C 357.49 307.94 358.61 306.08 357.44 304.66 C 353.36 297.34 351.36 289.10 347.41 281.71 C 344.69 276.83 343.79 271.18 343.57 265.67 C 346.23 264.53 349.43 264.40 351.69 262.49 C 353.84 260.41 351.29 257.72 350.34 255.69 C 344.28 246.11 338.46 236.37 333.29 226.27 C 335.68 226.41 338.10 226.95 340.50 226.59 C 342.49 225.31 341.75 222.86 341.28 221.00 C 340.07 216.75 340.79 212.31 340.57 207.97 C 340.54 203.75 339.43 199.62 339.36 195.40 C 342.79 195.76 346.39 197.51 349.76 196.09 C 353.40 194.35 350.48 189.87 351.87 186.93 C 353.56 183.08 355.08 179.16 356.84 175.34 C 359.63 176.94 362.07 179.12 364.98 180.52 C 370.31 178.92 373.90 174.49 378.16 171.24 C 382.28 172.70 384.33 178.11 389.12 178.42 C 393.43 178.37 396.59 174.89 400.31 173.16 C 404.54 171.16 408.50 168.65 412.70 166.60 C 416.02 171.46 418.27 177.89 424.14 180.27 C 429.03 180.90 432.78 176.78 437.16 175.29 C 437.94 178.41 437.91 182.44 441.18 184.16 C 446.16 185.96 450.99 182.98 455.56 181.31 C 455.85 190.28 453.45 200.39 459.11 208.22 C 464.10 209.75 468.17 205.13 472.78 203.97 C 471.53 215.74 464.90 226.25 463.50 237.93 C 465.91 242.57 471.69 239.64 475.66 239.39 C 473.50 253.00 467.59 265.54 463.22 278.49 C 461.62 283.14 458.82 287.29 457.49 292.03 C 458.25 293.28 459.19 295.04 460.95 294.74 C 463.96 294.60 466.86 293.60 469.85 293.20 C 466.24 301.10 461.39 308.53 459.30 317.07 C 458.22 321.70 456.15 326.18 456.32 331.03 C 460.66 329.07 461.53 323.78 463.99 320.14 C 468.62 312.78 470.35 303.86 476.10 297.18 C 478.27 294.76 479.43 291.22 477.69 288.21 C 476.49 284.91 472.58 284.87 469.76 283.93 C 471.22 278.51 474.70 273.92 476.44 268.60 C 480.28 259.92 482.34 250.51 482.79 241.05 C 482.78 235.99 478.40 232.70 474.54 230.26 C 474.66 228.46 475.48 226.82 476.09 225.15 C 479.22 217.72 480.45 209.68 481.96 201.80 C 482.53 198.66 482.95 194.62 479.99 192.49 C 474.62 190.85 470.28 195.11 465.27 196.02 C 464.42 188.02 465.10 178.47 458.36 172.69 C 453.74 171.84 449.90 175.46 445.56 176.38 C 445.21 172.79 445.61 169.17 445.12 165.59 C 444.74 163.84 442.79 163.04 441.16 163.43 C 435.42 164.91 431.45 169.82 426.09 172.08 C 421.36 167.62 418.01 161.70 412.80 157.79 C 404.52 158.06 397.93 164.13 390.78 167.64 Z" />
<path fill="#ffffff" opacity="1.00" d=" M 116.23 94.19 C 118.62 92.75 121.02 90.96 123.93 90.81 C 134.34 90.17 144.93 92.17 154.36 96.67 C 165.23 101.56 176.02 107.14 184.93 115.18 C 190.43 120.08 194.09 126.59 198.79 132.19 C 203.43 137.78 204.42 145.19 206.38 151.94 C 208.27 157.90 209.64 164.00 210.88 170.12 C 212.14 179.19 215.32 187.88 216.30 197.01 C 217.75 209.67 220.59 222.17 220.79 234.95 C 223.39 245.67 222.65 256.83 224.54 267.66 C 226.18 276.41 224.65 285.40 226.29 294.16 C 227.60 301.47 225.65 308.74 225.23 316.02 C 223.32 326.92 222.25 337.96 221.93 349.02 C 219.90 357.54 220.60 366.32 220.50 375.00 C 220.53 380.00 220.19 385.06 221.32 389.98 C 222.68 395.87 221.54 402.01 223.00 407.88 C 223.61 410.49 223.84 413.20 223.49 415.87 C 221.49 427.39 217.40 438.92 218.92 450.75 C 221.02 459.07 226.11 466.97 233.52 471.50 C 236.62 473.45 240.35 473.82 243.67 475.24 C 244.33 476.72 243.56 478.39 243.35 479.91 C 240.67 490.65 236.88 501.17 235.86 512.27 C 231.40 508.92 228.70 503.91 225.68 499.35 C 222.19 493.97 217.08 489.82 213.96 484.19 C 211.49 479.17 210.95 473.51 209.37 468.20 C 206.56 458.94 205.63 449.27 203.82 439.80 C 203.34 433.48 201.49 427.35 201.40 420.99 C 199.25 409.06 200.47 396.83 198.94 384.82 C 197.77 377.89 199.68 370.97 199.46 364.01 C 200.04 355.01 198.90 345.96 200.15 337.00 C 200.95 330.29 199.90 323.48 201.15 316.82 C 201.71 313.22 201.54 309.57 201.58 305.94 C 201.50 301.24 203.29 296.75 203.29 292.05 C 203.45 282.65 202.84 273.18 204.22 263.84 C 204.89 258.13 204.70 252.33 203.88 246.65 C 202.94 239.15 203.73 231.56 202.96 224.05 C 200.48 209.67 200.43 194.76 195.51 180.87 C 190.66 161.38 182.16 142.43 168.50 127.52 C 160.20 120.19 151.28 113.01 140.59 109.57 C 130.48 106.72 119.04 106.32 109.59 111.49 C 104.79 114.24 99.42 116.36 95.67 120.59 C 92.26 124.30 88.67 127.90 84.62 130.92 C 84.37 129.89 84.75 128.89 85.13 127.95 C 88.35 120.15 93.45 113.29 98.97 106.97 C 104.12 101.97 110.19 98.03 116.23 94.19 Z" />
</g>
</svg>
