<?xml version="1.0" encoding="UTF-8" ?>
<!DOCTYPE svg PUBLIC "-//W3C//DTD SVG 1.1//EN" "http://www.w3.org/Graphics/SVG/1.1/DTD/svg11.dtd">
<svg width="400pt" height="400pt" viewBox="0 0 400 400" version="1.1" xmlns="http://www.w3.org/2000/svg">
<g id="#000000ff">
<path fill="#000000" opacity="1.00" d=" M 237.36 15.39 C 248.69 9.88 262.22 10.51 273.68 15.32 C 282.79 19.77 289.32 27.94 294.78 36.24 C 294.67 45.32 295.64 54.73 292.56 63.47 C 289.18 75.32 281.97 85.59 273.92 94.75 C 278.53 95.62 283.06 96.99 287.78 97.13 C 304.22 97.93 320.34 102.61 334.95 110.12 C 348.32 117.35 358.35 129.54 365.11 142.96 C 369.86 150.89 372.63 159.78 375.55 168.50 C 381.17 184.86 383.78 202.00 386.35 219.04 C 387.96 235.12 388.17 251.58 384.39 267.40 C 382.44 275.18 381.49 283.21 378.89 290.83 C 374.91 302.77 367.84 313.36 360.42 323.41 C 354.50 332.63 345.71 339.38 338.06 347.06 C 332.36 352.93 325.43 357.46 318.18 361.17 C 310.13 365.37 302.96 371.28 294.25 374.16 C 275.67 380.27 256.23 383.22 236.88 385.77 C 230.58 386.18 224.33 387.36 217.99 387.01 C 208.58 386.72 199.11 387.63 189.75 386.35 C 170.96 384.62 152.31 381.12 134.22 375.72 C 120.20 370.63 105.88 365.85 93.17 357.87 C 86.50 353.54 79.39 349.88 73.39 344.61 C 61.60 337.29 53.03 326.16 44.58 315.41 C 30.40 293.17 24.64 266.68 22.57 240.69 C 21.80 227.40 21.32 213.93 23.89 200.79 C 26.08 192.24 27.96 183.55 31.55 175.45 C 38.39 160.42 48.90 147.16 61.63 136.68 C 73.31 125.67 86.55 116.49 100.28 108.21 C 118.92 96.33 139.80 88.11 161.40 83.49 C 169.55 82.25 177.73 80.68 186.01 80.99 C 197.47 80.79 209.22 81.04 220.15 84.88 C 222.34 85.48 224.44 86.60 226.74 86.71 C 230.07 86.00 231.53 82.48 232.67 79.65 C 234.53 73.62 236.15 67.37 236.08 61.01 C 236.22 53.23 236.47 45.09 233.20 37.82 C 231.55 33.77 228.61 30.28 227.47 26.04 C 229.10 21.28 233.01 17.69 237.36 15.39 M 247.58 20.51 C 249.85 24.31 250.98 28.62 252.10 32.86 C 253.90 39.75 252.58 46.88 252.42 53.87 C 250.18 48.54 246.95 43.65 244.91 38.22 C 242.94 33.00 240.63 27.90 239.03 22.55 C 236.40 23.51 233.77 24.63 231.86 26.76 C 240.97 34.07 244.29 45.90 245.83 56.99 C 246.42 68.35 246.00 80.54 239.51 90.35 C 247.35 90.73 255.10 91.95 262.91 92.72 C 270.72 83.97 278.35 74.68 282.62 63.63 C 286.42 55.51 287.00 46.54 288.34 37.83 C 284.80 34.84 281.48 31.62 277.88 28.71 C 279.20 35.05 280.14 41.79 278.03 48.08 C 275.57 57.38 273.44 67.53 266.52 74.70 C 265.61 57.60 274.26 40.75 269.46 23.72 C 262.67 20.41 254.99 20.21 247.58 20.51 M 168.37 94.30 C 158.38 98.38 148.30 102.84 140.29 110.26 C 141.46 111.70 143.31 112.97 143.34 115.00 C 143.79 117.63 140.90 118.88 139.91 120.98 C 134.90 130.71 131.98 141.37 129.97 152.08 C 128.34 160.02 126.79 168.03 126.15 176.10 C 126.88 182.14 125.54 188.22 126.62 194.23 C 127.27 207.91 129.00 221.65 133.37 234.68 C 136.11 242.27 138.32 250.09 142.16 257.22 C 143.72 259.40 141.73 261.56 139.86 262.62 C 135.87 257.80 130.70 254.06 127.15 248.86 C 121.34 241.38 114.27 235.05 107.29 228.70 C 98.96 222.37 89.99 216.81 80.25 212.92 C 79.69 214.90 78.97 216.87 79.01 218.96 C 78.98 225.66 78.49 232.36 78.12 239.04 C 79.17 245.23 79.18 251.71 77.12 257.70 C 72.70 256.99 71.40 252.32 70.22 248.69 C 68.67 244.96 69.35 240.82 68.20 237.01 C 66.12 227.70 67.76 218.21 67.55 208.82 C 60.05 206.71 52.50 204.65 44.82 203.28 C 44.35 200.91 43.38 198.49 44.10 196.06 C 47.07 181.51 54.22 168.01 63.55 156.53 C 71.13 146.18 81.37 138.31 90.85 129.84 C 101.25 121.78 112.36 114.27 124.87 109.91 C 127.53 108.31 129.43 105.69 131.93 103.83 C 125.11 107.06 117.96 109.64 111.45 113.50 C 107.85 115.64 103.92 117.16 100.34 119.34 C 79.12 132.32 58.16 147.30 44.48 168.54 C 40.48 174.12 38.45 180.73 35.95 187.05 C 32.42 194.13 31.42 202.07 29.92 209.75 C 28.60 221.44 27.62 233.38 29.54 245.05 C 29.07 260.08 32.65 274.84 37.01 289.11 C 40.24 298.30 43.87 307.46 49.51 315.49 C 53.17 321.94 58.98 326.72 64.50 331.52 C 67.54 333.86 70.94 335.71 74.27 337.61 C 73.76 334.83 73.25 332.06 72.75 329.29 C 70.68 326.38 68.01 323.93 65.92 321.02 C 61.80 315.20 58.87 308.65 55.76 302.26 C 51.58 292.54 47.61 282.62 45.62 272.19 C 44.43 263.51 43.77 254.77 43.65 246.01 C 44.05 242.07 43.67 237.10 47.44 234.63 C 51.28 240.01 53.49 246.33 57.15 251.83 C 59.44 256.38 62.62 260.34 65.72 264.35 C 70.72 273.72 76.79 282.78 85.05 289.60 C 85.96 284.83 86.37 279.89 88.51 275.45 C 91.00 269.54 95.55 263.42 102.29 262.40 C 105.34 261.75 108.51 263.28 110.49 265.55 C 114.55 272.49 115.97 280.53 117.88 288.24 C 118.54 293.41 120.49 298.35 120.72 303.59 C 127.40 294.94 134.32 286.01 143.95 280.45 C 143.57 273.24 145.18 266.18 145.33 259.00 C 145.77 253.99 146.97 249.07 147.10 244.04 C 147.22 238.65 148.97 233.47 149.12 228.09 C 149.25 225.36 149.56 222.42 152.02 220.74 C 155.18 225.28 154.09 230.92 154.75 236.08 C 155.45 250.10 154.16 264.07 153.83 278.06 C 153.66 280.61 152.76 283.14 153.08 285.72 C 157.68 294.17 162.79 302.34 166.83 311.08 C 171.77 303.49 176.96 295.82 184.10 290.11 C 187.64 287.69 191.45 284.77 195.98 285.06 C 204.20 285.32 211.89 289.65 217.39 295.61 C 225.97 303.74 231.53 314.83 233.19 326.52 C 238.29 323.49 243.20 320.05 248.74 317.84 C 261.07 313.14 273.36 308.38 285.68 303.66 C 291.89 300.41 298.33 297.66 304.61 294.56 C 309.95 291.80 315.99 291.08 321.74 289.64 C 325.27 298.00 319.28 305.85 316.39 313.36 C 312.77 323.14 305.99 331.44 298.01 338.02 C 294.39 340.69 291.66 344.38 287.87 346.85 C 282.14 350.86 276.81 355.60 270.27 358.27 C 262.19 361.56 254.79 367.26 245.80 367.71 C 237.27 367.81 228.72 367.98 220.25 369.14 C 217.86 370.82 216.39 373.46 214.48 375.63 C 218.64 375.13 222.83 374.97 227.02 374.96 C 248.47 372.67 269.74 368.85 290.92 364.81 C 306.22 358.71 320.04 349.24 332.26 338.28 C 340.12 329.75 347.34 320.63 354.58 311.58 C 359.48 303.21 361.37 293.53 364.44 284.42 C 366.75 278.27 367.28 271.67 369.17 265.40 C 372.16 252.36 373.12 238.84 372.27 225.50 C 371.32 219.51 371.72 213.39 370.41 207.45 C 368.67 196.01 366.65 184.58 363.44 173.45 C 358.69 154.04 350.98 133.89 334.61 121.31 C 318.63 110.92 299.68 106.65 281.06 104.00 C 284.65 107.08 288.61 109.71 291.81 113.23 C 299.70 119.73 304.78 128.77 309.06 137.89 C 310.99 137.31 313.10 136.92 314.95 137.99 C 321.40 141.18 326.88 146.06 331.68 151.35 C 344.90 166.46 351.97 186.12 353.99 205.91 C 354.03 209.71 353.87 213.53 354.43 217.31 C 355.15 222.20 353.91 227.06 353.97 231.96 C 353.58 248.29 348.66 264.05 343.31 279.33 C 342.69 282.35 339.67 284.92 336.55 283.57 C 327.63 278.76 321.29 270.18 312.04 265.87 C 307.03 263.37 302.42 260.15 297.41 257.66 C 292.36 266.73 287.59 276.68 278.92 282.89 C 277.17 284.58 274.85 283.71 272.83 283.16 C 272.59 281.59 271.75 279.96 272.35 278.38 C 275.62 269.38 280.71 261.18 284.10 252.23 C 276.96 249.53 269.37 248.42 261.87 247.25 C 254.37 246.66 246.88 245.31 239.33 246.21 C 234.19 246.92 228.88 246.45 223.87 247.99 C 215.37 250.22 206.48 251.01 198.22 254.14 C 192.40 256.59 186.73 259.36 180.97 261.94 C 175.11 264.51 168.65 267.22 162.16 265.52 C 161.34 263.93 160.85 261.88 162.53 260.63 C 167.94 256.09 174.37 253.01 180.42 249.42 C 186.81 245.42 193.89 242.55 199.87 237.89 C 204.53 234.23 209.29 230.68 213.73 226.76 C 220.97 218.97 228.60 211.59 235.62 203.61 C 253.23 181.86 271.09 159.62 294.49 143.77 C 291.24 134.94 286.41 126.76 280.71 119.30 C 275.73 112.96 269.07 108.24 263.63 102.34 C 261.97 102.23 260.32 102.04 258.68 101.83 C 261.94 113.39 262.80 125.56 261.69 137.50 C 261.10 141.55 260.38 146.64 255.93 148.24 C 253.18 148.07 252.04 145.07 251.42 142.81 C 250.81 137.87 250.42 132.90 249.97 127.94 C 248.23 118.25 245.48 108.81 242.61 99.41 C 240.19 98.44 237.66 97.84 235.07 97.64 C 229.57 102.16 223.10 105.25 217.21 109.20 C 209.42 114.22 202.38 120.35 196.31 127.34 C 188.99 137.47 181.42 147.52 175.77 158.72 C 171.62 167.31 167.46 175.91 163.82 184.74 C 161.77 189.53 161.07 194.86 158.35 199.36 C 157.37 201.59 153.58 201.43 152.87 199.09 C 149.59 192.61 151.98 185.25 153.75 178.70 C 154.97 172.44 157.32 166.50 159.55 160.56 C 165.62 142.92 176.38 127.40 187.95 112.94 C 193.02 107.87 198.54 103.27 204.30 99.00 C 193.59 100.74 182.69 103.35 173.68 109.69 C 170.27 111.64 167.03 114.33 163.06 114.95 C 160.02 115.55 157.35 112.31 158.48 109.45 C 161.48 101.94 168.82 97.73 174.85 92.91 C 172.68 93.30 170.49 93.66 168.37 94.30 M 86.98 339.91 C 87.46 341.72 87.92 343.54 88.34 345.37 C 102.19 353.20 116.91 359.42 132.04 364.32 C 132.44 362.04 132.85 359.76 133.15 357.47 C 124.13 354.45 116.18 348.31 110.73 340.56 C 106.92 341.79 102.98 342.69 99.00 343.14 C 94.71 343.65 90.86 341.33 86.98 339.91 M 142.29 358.24 C 142.03 361.12 141.91 364.02 141.56 366.90 C 156.21 370.22 170.99 373.00 185.97 374.24 C 191.15 375.10 196.46 375.32 201.68 375.08 C 203.60 372.81 205.11 370.25 206.89 367.88 C 199.52 366.50 192.20 364.22 185.88 360.10 C 180.53 356.20 174.94 352.48 170.63 347.39 C 162.05 352.79 152.63 357.80 142.29 358.24 Z" />
</g>
<g id="#ffffffff">
<path fill="#ffffff" opacity="1.00" d=" M 247.58 20.51 C 254.99 20.21 262.67 20.41 269.46 23.72 C 274.26 40.75 265.61 57.60 266.52 74.70 C 273.44 67.53 275.57 57.38 278.03 48.08 C 280.14 41.79 279.20 35.05 277.88 28.71 C 281.48 31.62 284.80 34.84 288.34 37.83 C 287.00 46.54 286.42 55.51 282.62 63.63 C 278.35 74.68 270.72 83.97 262.91 92.72 C 255.10 91.95 247.35 90.73 239.51 90.35 C 246.00 80.54 246.42 68.35 245.83 56.99 C 244.29 45.90 240.97 34.07 231.86 26.76 C 233.77 24.63 236.40 23.51 239.03 22.55 C 240.63 27.90 242.94 33.00 244.91 38.22 C 246.95 43.65 250.18 48.54 252.42 53.87 C 252.58 46.88 253.90 39.75 252.10 32.86 C 250.98 28.62 249.85 24.31 247.58 20.51 Z" />
<path fill="#ffffff" opacity="1.00" d=" M 168.37 94.30 C 170.49 93.66 172.68 93.30 174.85 92.91 C 168.82 97.73 161.48 101.94 158.48 109.45 C 157.35 112.31 160.02 115.55 163.06 114.95 C 167.03 114.33 170.27 111.64 173.68 109.69 C 182.69 103.35 193.59 100.74 204.30 99.00 C 198.54 103.27 193.02 107.87 187.95 112.94 C 176.38 127.40 165.62 142.92 159.55 160.56 C 157.32 166.50 154.97 172.44 153.75 178.70 C 151.98 185.25 149.59 192.61 152.87 199.09 C 153.58 201.43 157.37 201.59 158.35 199.36 C 161.07 194.86 161.77 189.53 163.82 184.74 C 167.46 175.91 171.62 167.31 175.77 158.72 C 181.42 147.52 188.99 137.47 196.31 127.34 C 202.38 120.35 209.42 114.22 217.21 109.20 C 223.10 105.25 229.57 102.16 235.07 97.64 C 237.66 97.84 240.19 98.44 242.61 99.41 C 245.48 108.81 248.23 118.25 249.97 127.94 C 250.42 132.90 250.81 137.87 251.42 142.81 C 252.04 145.07 253.18 148.07 255.93 148.24 C 260.38 146.64 261.10 141.55 261.69 137.50 C 262.80 125.56 261.94 113.39 258.68 101.83 C 260.32 102.04 261.97 102.23 263.63 102.34 C 269.07 108.24 275.73 112.96 280.71 119.30 C 286.41 126.76 291.24 134.94 294.49 143.77 C 271.09 159.62 253.23 181.86 235.62 203.61 C 228.60 211.59 220.97 218.97 213.73 226.76 C 209.29 230.68 204.53 234.23 199.87 237.89 C 193.89 242.55 186.81 245.42 180.42 249.42 C 174.37 253.01 167.94 256.09 162.53 260.63 C 160.85 261.88 161.34 263.93 162.16 265.52 C 168.65 267.22 175.11 264.51 180.97 261.94 C 186.73 259.36 192.40 256.59 198.22 254.14 C 206.48 251.01 215.37 250.22 223.87 247.99 C 228.88 246.45 234.19 246.92 239.33 246.21 C 246.88 245.31 254.37 246.66 261.87 247.25 C 269.37 248.42 276.96 249.53 284.10 252.23 C 280.71 261.18 275.62 269.38 272.35 278.38 C 271.75 279.96 272.59 281.59 272.83 283.16 C 274.85 283.71 277.17 284.58 278.92 282.89 C 287.59 276.68 292.36 266.73 297.41 257.66 C 302.42 260.15 307.03 263.37 312.04 265.87 C 321.29 270.18 327.63 278.76 336.55 283.57 C 339.67 284.92 342.69 282.35 343.31 279.33 C 348.66 264.05 353.58 248.29 353.97 231.96 C 353.91 227.06 355.15 222.20 354.43 217.31 C 353.87 213.53 354.03 209.71 353.99 205.91 C 351.97 186.12 344.90 166.46 331.68 151.35 C 326.88 146.06 321.40 141.18 314.95 137.99 C 313.10 136.92 310.99 137.31 309.06 137.89 C 304.78 128.77 299.70 119.73 291.81 113.23 C 288.61 109.71 284.65 107.08 281.06 104.00 C 299.68 106.65 318.63 110.92 334.61 121.31 C 350.98 133.89 358.69 154.04 363.44 173.45 C 366.65 184.58 368.67 196.01 370.41 207.45 C 371.72 213.39 371.32 219.51 372.27 225.50 C 373.12 238.84 372.16 252.36 369.17 265.40 C 367.28 271.67 366.75 278.27 364.44 284.42 C 361.37 293.53 359.48 303.21 354.58 311.58 C 347.34 320.63 340.12 329.75 332.26 338.28 C 320.04 349.24 306.22 358.71 290.92 364.81 C 269.74 368.85 248.47 372.67 227.02 374.96 C 222.83 374.97 218.64 375.13 214.48 375.63 C 216.39 373.46 217.86 370.82 220.25 369.14 C 228.72 367.98 237.27 367.81 245.80 367.71 C 254.79 367.26 262.19 361.56 270.27 358.27 C 276.81 355.60 282.14 350.86 287.87 346.85 C 291.66 344.38 294.39 340.69 298.01 338.02 C 305.99 331.44 312.77 323.14 316.39 313.36 C 319.28 305.85 325.27 298.00 321.74 289.64 C 315.99 291.08 309.95 291.80 304.61 294.56 C 298.33 297.66 291.89 300.41 285.68 303.66 C 273.36 308.38 261.07 313.14 248.74 317.84 C 243.20 320.05 238.29 323.49 233.19 326.52 C 231.53 314.83 225.97 303.74 217.39 295.61 C 211.89 289.65 204.20 285.32 195.98 285.06 C 191.45 284.77 187.64 287.69 184.10 290.11 C 176.96 295.82 171.77 303.49 166.83 311.08 C 162.79 302.34 157.68 294.17 153.08 285.72 C 152.76 283.14 153.66 280.61 153.83 278.06 C 154.16 264.07 155.45 250.10 154.75 236.08 C 154.09 230.92 155.18 225.28 152.02 220.74 C 149.56 222.42 149.25 225.36 149.12 228.09 C 148.97 233.47 147.22 238.65 147.10 244.04 C 146.97 249.07 145.77 253.99 145.33 259.00 C 145.18 266.18 143.57 273.24 143.95 280.45 C 134.32 286.01 127.40 294.94 120.72 303.59 C 120.49 298.35 118.54 293.41 117.88 288.24 C 115.97 280.53 114.55 272.49 110.49 265.55 C 108.51 263.28 105.34 261.75 102.29 262.40 C 95.55 263.42 91.00 269.54 88.51 275.45 C 86.37 279.89 85.96 284.83 85.05 289.60 C 76.79 282.78 70.72 273.72 65.72 264.35 C 62.62 260.34 59.44 256.38 57.15 251.83 C 53.49 246.33 51.28 240.01 47.44 234.63 C 43.67 237.10 44.05 242.07 43.65 246.01 C 43.77 254.77 44.43 263.51 45.62 272.19 C 47.61 282.62 51.58 292.54 55.76 302.26 C 58.87 308.65 61.80 315.20 65.92 321.02 C 68.01 323.93 70.68 326.38 72.75 329.29 C 73.25 332.06 73.76 334.83 74.27 337.61 C 70.94 335.71 67.54 333.86 64.50 331.52 C 58.98 326.72 53.17 321.94 49.51 315.49 C 43.87 307.46 40.24 298.30 37.01 289.11 C 32.65 274.84 29.07 260.08 29.54 245.05 C 27.62 233.38 28.60 221.44 29.92 209.75 C 31.42 202.07 32.42 194.13 35.95 187.05 C 38.45 180.73 40.48 174.12 44.48 168.54 C 58.16 147.30 79.12 132.32 100.34 119.34 C 103.92 117.16 107.85 115.64 111.45 113.50 C 117.96 109.64 125.11 107.06 131.93 103.83 C 129.43 105.69 127.53 108.31 124.87 109.91 C 112.36 114.27 101.25 121.78 90.85 129.84 C 81.37 138.31 71.13 146.18 63.55 156.53 C 54.22 168.01 47.07 181.51 44.10 196.06 C 43.38 198.49 44.35 200.91 44.82 203.28 C 52.50 204.65 60.05 206.71 67.55 208.82 C 67.76 218.21 66.12 227.70 68.20 237.01 C 69.35 240.82 68.67 244.96 70.22 248.69 C 71.40 252.32 72.70 256.99 77.12 257.70 C 79.18 251.71 79.17 245.23 78.12 239.04 C 78.49 232.36 78.98 225.66 79.01 218.96 C 78.97 216.87 79.69 214.90 80.25 212.92 C 89.99 216.81 98.96 222.37 107.29 228.70 C 114.27 235.05 121.34 241.38 127.15 248.86 C 130.70 254.06 135.87 257.80 139.86 262.62 C 141.73 261.56 143.72 259.40 142.16 257.22 C 138.32 250.09 136.11 242.27 133.37 234.68 C 129.00 221.65 127.27 207.91 126.62 194.23 C 125.54 188.22 126.88 182.14 126.15 176.10 C 126.79 168.03 128.34 160.02 129.97 152.08 C 131.98 141.37 134.90 130.71 139.91 120.98 C 140.90 118.88 143.79 117.63 143.34 115.00 C 143.31 112.97 141.46 111.70 140.29 110.26 C 148.30 102.84 158.38 98.38 168.37 94.30 Z" />
<path fill="#ffffff" opacity="1.00" d=" M 86.98 339.91 C 90.86 341.33 94.71 343.65 99.00 343.14 C 102.98 342.69 106.92 341.79 110.73 340.56 C 116.18 348.31 124.13 354.45 133.15 357.47 C 132.85 359.76 132.44 362.04 132.04 364.32 C 116.91 359.42 102.19 353.20 88.34 345.37 C 87.92 343.54 87.46 341.72 86.98 339.91 Z" />
<path fill="#ffffff" opacity="1.00" d=" M 142.29 358.24 C 152.63 357.80 162.05 352.79 170.63 347.39 C 174.94 352.48 180.53 356.20 185.88 360.10 C 192.20 364.22 199.52 366.50 206.89 367.88 C 205.11 370.25 203.60 372.81 201.68 375.08 C 196.46 375.32 191.15 375.10 185.97 374.24 C 170.99 373.00 156.21 370.22 141.56 366.90 C 141.91 364.02 142.03 361.12 142.29 358.24 Z" />
</g>
</svg>
