<?xml version="1.0" encoding="UTF-8" ?>
<!DOCTYPE svg PUBLIC "-//W3C//DTD SVG 1.1//EN" "http://www.w3.org/Graphics/SVG/1.1/DTD/svg11.dtd">
<svg width="400pt" height="400pt" viewBox="0 0 400 400" version="1.1" xmlns="http://www.w3.org/2000/svg">
<g id="#000000ff">
<path fill="#000000" opacity="1.00" d=" M 118.20 42.22 C 141.84 27.90 169.18 18.80 197.01 19.06 C 225.78 19.29 254.95 28.26 277.44 46.54 C 283.14 50.86 287.47 56.65 292.99 61.18 C 296.78 57.19 300.28 52.52 305.62 50.51 C 316.02 46.28 329.65 53.47 330.91 64.96 C 325.88 63.41 321.42 60.07 316.02 59.79 C 309.34 58.83 302.80 62.09 298.47 67.04 C 301.85 72.42 306.29 77.05 309.52 82.54 C 312.73 87.96 315.98 93.36 319.11 98.84 C 323.63 106.79 326.60 115.47 330.08 123.89 C 334.49 136.18 337.24 149.03 338.84 161.98 C 339.17 169.33 339.03 176.71 338.94 184.07 C 337.73 201.33 333.23 218.55 324.69 233.68 C 319.58 243.48 313.32 252.70 305.79 260.80 C 295.95 273.22 283.59 283.25 271.83 293.75 C 278.55 292.98 285.27 291.49 292.07 292.07 C 300.36 292.77 309.14 293.85 316.04 298.93 C 320.38 301.82 323.34 306.73 323.46 311.99 C 324.11 320.26 318.37 327.42 312.00 331.99 C 304.93 337.22 296.07 338.65 287.75 340.74 C 281.72 342.23 275.52 342.64 269.38 343.42 C 252.59 345.94 235.35 348.29 220.00 355.99 C 214.66 358.64 209.36 361.56 205.05 365.74 C 211.32 367.61 217.78 366.09 224.08 365.34 C 233.46 364.44 242.60 361.97 251.98 361.08 C 261.00 360.22 269.91 358.12 279.00 358.27 C 284.82 358.36 290.78 357.78 296.44 359.45 C 302.76 361.26 308.97 363.45 315.06 365.92 C 317.88 367.20 321.23 368.48 322.53 371.57 C 324.50 375.81 320.27 381.90 315.49 380.48 C 295.65 377.04 275.41 377.24 255.38 378.43 C 247.64 379.31 239.89 380.17 232.09 380.40 C 222.33 381.39 212.36 381.52 202.78 379.18 C 198.26 378.03 194.46 374.79 192.22 370.76 C 190.07 366.66 191.18 361.48 193.84 357.89 C 196.63 354.32 200.22 351.46 203.98 348.98 C 217.88 339.97 234.02 335.05 250.25 332.37 C 264.97 330.13 279.72 327.84 294.16 324.14 C 299.81 322.72 305.89 320.09 308.57 314.55 C 310.12 311.57 306.43 309.83 304.29 308.74 C 294.83 304.63 284.16 305.77 274.24 307.29 C 266.25 308.66 258.08 309.05 250.25 311.29 C 245.06 312.81 239.66 313.63 234.63 315.65 C 217.48 323.82 198.86 328.98 179.94 330.72 C 156.89 332.43 133.68 327.04 112.98 317.00 C 107.34 314.72 102.56 310.74 96.97 308.42 C 90.30 310.07 84.65 314.50 80.63 319.99 C 79.90 317.92 78.84 315.71 79.61 313.50 C 81.30 308.94 85.26 305.82 88.85 302.77 C 69.43 287.05 50.85 269.05 39.75 246.31 C 35.90 239.11 33.87 231.16 31.66 223.36 C 28.77 213.55 28.70 203.20 28.66 193.06 C 29.96 181.02 29.91 168.77 32.95 156.98 C 36.18 144.49 40.65 132.25 46.98 120.99 C 49.57 116.06 53.17 111.77 55.89 106.93 C 63.50 92.83 73.71 80.28 84.90 68.89 C 88.57 65.22 92.67 61.97 96.10 58.05 C 91.47 54.81 85.68 52.57 80.06 54.50 C 81.13 51.97 82.09 48.97 84.87 47.85 C 88.40 46.51 92.29 47.30 95.98 47.18 C 96.62 42.10 97.39 34.78 103.72 33.90 C 103.85 39.69 103.35 45.50 104.21 51.25 C 109.25 48.86 113.40 45.03 118.20 42.22 M 186.65 28.90 C 190.37 32.81 194.42 36.37 198.38 40.04 C 198.75 36.14 197.93 32.29 197.02 28.53 C 193.56 28.38 190.09 28.48 186.65 28.90 M 201.28 28.83 C 202.86 33.98 203.31 39.35 203.32 44.71 C 205.60 48.13 208.51 51.10 211.35 54.08 C 212.76 46.06 215.43 38.26 216.09 30.12 C 211.25 28.88 206.25 28.53 201.28 28.83 M 171.03 30.97 C 177.17 40.07 181.99 49.95 187.71 59.31 C 197.26 77.08 203.98 96.17 212.59 114.38 C 216.48 123.55 219.49 133.09 223.87 142.05 C 226.48 147.98 228.26 154.23 230.89 160.15 C 239.10 179.48 247.62 198.71 254.38 218.62 C 258.65 229.93 262.54 241.38 265.86 253.01 C 268.31 260.04 271.46 266.82 273.16 274.10 C 276.47 271.66 279.55 268.92 282.41 265.98 C 278.39 257.69 275.58 248.91 272.72 240.17 C 263.91 212.24 255.67 184.10 245.34 156.69 C 238.94 140.63 232.11 124.75 224.87 109.07 C 219.01 97.05 212.77 85.23 206.69 73.33 C 201.47 62.88 195.06 53.08 188.58 43.38 C 185.30 38.37 181.02 34.14 176.85 29.89 C 174.90 30.23 172.96 30.58 171.03 30.97 M 220.14 30.97 C 219.68 40.77 216.95 50.27 215.64 59.92 C 220.39 67.54 225.40 75.04 229.69 82.95 C 229.37 76.97 230.14 70.91 232.31 65.31 C 235.90 56.10 237.97 46.40 241.27 37.08 C 234.57 34.07 227.40 32.09 220.14 30.97 M 147.03 38.03 C 149.23 43.74 152.02 49.20 154.17 54.93 C 157.62 63.89 161.06 72.88 165.65 81.33 C 171.21 93.36 176.83 105.41 180.99 118.01 C 183.68 126.80 188.49 134.73 191.40 143.44 C 193.05 148.59 195.48 153.43 197.47 158.45 C 200.30 166.53 203.48 174.48 206.54 182.47 C 212.50 196.62 218.05 210.99 225.43 224.48 C 228.62 230.77 231.48 237.23 234.36 243.67 C 236.56 248.63 239.60 253.15 241.89 258.06 C 246.57 268.05 250.05 278.53 253.54 288.97 C 255.07 288.51 256.53 287.82 257.75 286.76 C 261.39 283.71 265.32 281.04 268.86 277.88 C 267.31 273.49 265.84 269.07 264.21 264.72 C 258.26 251.84 252.76 238.74 247.38 225.60 C 240.71 205.86 232.17 186.79 226.18 166.81 C 223.53 158.62 222.30 149.83 217.66 142.42 C 207.13 121.74 197.97 100.39 188.97 79.01 C 182.41 62.97 173.51 48.04 166.57 32.17 C 159.90 33.47 153.29 35.34 147.03 38.03 M 246.05 39.22 C 244.20 52.75 238.89 65.45 235.96 78.75 C 242.58 74.00 249.89 70.46 257.43 67.45 C 258.81 61.34 261.34 55.63 264.18 50.08 C 258.73 45.54 252.32 42.43 246.05 39.22 M 135.17 43.26 C 138.28 61.70 139.62 80.40 143.20 98.76 C 145.50 110.15 148.59 121.35 151.33 132.63 C 153.09 139.65 153.32 147.04 156.15 153.78 C 161.30 169.54 167.42 184.96 173.82 200.25 C 178.69 211.84 182.31 223.96 187.71 235.31 C 196.95 249.08 204.94 263.70 215.21 276.75 C 218.93 281.78 222.76 286.78 225.60 292.38 C 227.34 295.84 229.55 299.05 232.15 301.92 C 237.94 299.15 243.59 296.08 249.08 292.77 C 245.99 282.92 240.54 274.12 236.19 264.82 C 230.65 254.62 225.94 243.98 221.96 233.09 C 218.95 224.84 215.08 216.91 210.64 209.34 C 202.59 195.38 195.78 180.57 191.82 164.90 C 188.57 156.01 186.77 146.47 181.75 138.31 C 176.22 129.47 172.62 119.62 169.10 109.86 C 164.19 97.32 157.91 85.36 153.17 72.76 C 149.88 65.19 148.39 57.05 145.75 49.27 C 144.75 46.25 143.91 43.19 143.21 40.09 C 140.37 40.69 137.70 41.86 135.17 43.26 M 119.73 52.03 C 119.76 58.04 119.67 64.05 119.20 70.04 C 119.31 80.04 119.53 90.04 119.48 100.05 C 119.40 112.19 121.14 124.25 122.94 136.23 C 124.80 144.13 125.98 152.17 127.70 160.11 C 131.29 176.36 135.88 192.44 142.15 207.87 C 146.66 219.82 151.24 231.91 158.48 242.53 C 163.31 249.27 169.25 255.11 174.28 261.69 C 180.49 269.76 188.15 276.51 195.38 283.63 C 201.22 289.78 206.42 296.55 212.62 302.36 C 214.62 304.03 216.57 305.96 219.06 306.87 C 221.91 307.05 224.50 305.52 227.11 304.59 C 223.56 299.37 218.13 295.74 214.40 290.61 C 207.94 281.70 200.37 273.53 195.24 263.72 C 189.49 254.04 185.01 243.64 178.67 234.33 C 172.19 224.30 168.59 212.84 164.05 201.89 C 158.98 189.33 154.68 176.48 150.23 163.69 C 142.45 134.43 132.49 105.41 130.48 74.98 C 130.41 65.50 129.55 56.06 128.97 46.61 C 125.70 48.07 122.61 49.90 119.73 52.03 M 263.81 65.21 C 269.14 64.11 274.57 63.71 279.99 63.65 C 276.63 60.02 272.94 56.69 269.00 53.71 C 266.88 57.36 265.19 61.23 263.81 65.21 M 106.54 63.74 C 105.20 69.47 103.53 75.14 102.81 80.99 C 102.12 89.31 101.99 97.68 102.05 106.03 C 103.03 118.31 102.05 130.74 104.21 142.91 C 106.45 165.43 112.79 187.33 120.54 208.52 C 124.17 218.13 128.73 227.35 133.74 236.30 C 139.99 248.24 147.29 259.66 155.80 270.11 C 162.18 277.11 168.03 284.65 175.48 290.57 C 183.87 298.41 193.02 305.53 203.38 310.59 C 207.09 312.68 211.93 310.92 215.03 308.49 C 209.09 305.13 203.56 301.09 198.60 296.40 C 187.75 287.32 177.19 277.72 168.49 266.51 C 161.96 257.37 155.00 248.53 148.96 239.05 C 142.32 228.18 136.34 216.89 131.96 204.91 C 120.04 176.69 114.88 146.22 111.54 115.93 C 110.07 103.33 110.43 90.63 110.81 77.97 C 111.95 70.78 112.15 63.51 112.77 56.26 C 110.34 58.41 107.11 60.25 106.54 63.74 M 85.16 81.17 C 81.83 84.61 82.04 89.68 81.03 94.04 C 79.58 101.00 78.93 108.31 80.87 115.24 C 82.77 118.05 86.11 119.40 88.91 121.16 C 89.36 109.46 90.80 97.78 93.39 86.36 C 94.95 80.18 97.57 74.31 98.93 68.07 C 93.82 71.84 89.45 76.52 85.16 81.17 M 254.13 81.15 C 247.26 83.78 240.38 86.50 234.04 90.27 C 235.40 93.73 237.17 96.99 239.16 100.12 C 256.31 91.57 273.99 83.05 293.22 80.63 C 292.25 78.38 290.73 76.46 288.98 74.77 C 277.47 77.46 265.38 77.17 254.13 81.15 M 283.23 93.29 C 269.51 97.04 256.33 102.40 243.01 107.30 C 244.11 111.03 245.85 114.51 247.44 118.04 C 252.03 116.76 256.16 114.30 260.63 112.70 C 274.97 107.35 288.89 99.49 304.56 99.07 C 303.19 95.33 301.00 92.00 298.75 88.75 C 293.44 89.82 288.42 91.84 283.23 93.29 M 66.59 106.02 C 69.23 108.14 72.09 109.99 75.20 111.36 C 74.98 104.91 74.82 98.45 75.86 92.06 C 72.45 96.49 69.21 101.07 66.59 106.02 M 250.11 123.53 C 252.34 130.22 255.56 136.52 258.19 143.05 C 265.52 138.34 272.82 133.58 280.55 129.54 C 290.38 123.41 300.73 118.15 311.54 113.99 C 310.42 110.64 308.97 107.40 307.42 104.23 C 288.20 110.31 269.61 118.32 250.11 123.53 M 62.27 112.91 C 60.16 116.57 58.26 120.34 56.54 124.20 C 61.32 126.95 66.58 128.78 71.22 131.77 C 77.28 135.70 83.32 139.69 89.71 143.07 C 89.39 138.90 91.25 132.65 86.37 130.58 C 77.64 125.68 70.04 119.14 62.27 112.91 M 260.31 147.39 C 261.56 153.15 264.05 158.64 266.15 164.16 C 272.20 160.86 278.18 157.44 284.37 154.40 C 295.82 148.00 308.15 143.43 320.44 138.98 C 319.23 133.04 317.29 127.27 315.00 121.67 C 296.52 129.73 279.08 140.04 260.31 147.39 M 54.37 129.07 C 52.79 133.94 50.90 138.73 49.96 143.78 C 57.08 145.35 64.25 146.74 71.24 148.84 C 78.57 151.14 84.89 155.65 91.76 158.95 C 91.41 155.89 91.53 152.58 90.12 149.78 C 87.71 148.13 84.92 147.13 82.51 145.47 C 73.66 139.18 64.55 133.00 54.37 129.07 M 309.64 152.56 C 301.68 155.87 293.66 159.04 285.95 162.91 C 280.33 165.85 274.19 167.49 268.21 169.48 C 269.64 175.15 271.14 180.81 273.12 186.31 C 280.31 184.03 287.37 181.30 294.31 178.33 C 304.56 173.18 313.66 165.61 324.84 162.38 C 324.44 156.75 323.57 151.14 322.01 145.70 C 317.82 147.88 314.02 150.75 309.64 152.56 M 48.36 148.13 C 46.55 153.51 43.77 158.48 41.94 163.85 C 50.40 164.32 58.59 166.52 66.86 168.19 C 72.63 169.47 77.94 172.14 83.62 173.69 C 86.53 171.46 89.50 169.29 92.38 167.01 C 87.05 164.76 81.91 162.07 77.08 158.89 C 68.45 153.10 57.92 151.74 48.36 148.13 M 40.37 168.21 C 39.65 171.20 39.25 174.26 39.20 177.34 C 46.57 178.66 53.78 180.90 61.29 181.36 C 65.46 181.58 69.55 182.67 73.22 184.67 C 75.12 182.90 76.84 180.91 77.90 178.51 C 65.69 174.02 53.05 171.02 40.37 168.21 M 317.94 178.33 C 319.59 182.83 321.70 187.15 324.01 191.35 C 325.91 184.87 324.86 177.99 325.72 171.35 C 323.27 173.84 320.58 176.06 317.94 178.33 M 69.16 212.11 C 62.21 222.95 58.03 235.29 55.13 247.77 C 56.36 249.26 57.58 250.76 58.84 252.22 C 63.16 242.06 67.60 231.90 73.53 222.55 C 80.70 211.58 89.02 201.29 98.98 192.73 C 98.75 187.73 96.43 182.96 95.52 178.01 C 85.19 188.05 75.97 199.36 69.16 212.11 M 303.86 186.32 C 308.48 195.79 311.85 205.94 318.08 214.55 C 319.66 210.63 321.77 206.54 321.55 202.23 C 319.06 195.17 315.98 188.31 313.76 181.14 C 310.40 182.74 307.14 184.56 303.86 186.32 M 38.36 182.07 C 37.91 186.51 37.20 191.03 38.13 195.46 C 46.31 197.51 55.10 197.53 62.71 201.49 C 65.23 197.16 67.99 192.94 70.00 188.33 C 59.04 189.45 48.33 186.35 38.36 182.07 M 285.67 193.08 C 294.48 207.07 299.00 223.06 305.32 238.21 C 309.83 233.22 312.49 226.90 315.42 220.93 C 312.43 214.92 308.48 209.43 305.71 203.31 C 303.39 198.43 301.75 193.27 300.13 188.13 C 295.38 189.97 290.54 191.57 285.67 193.08 M 275.10 193.73 C 277.54 204.64 280.57 215.41 282.74 226.38 C 283.31 229.09 283.72 232.14 286.11 233.92 C 291.17 238.21 293.72 244.44 296.89 250.09 C 299.10 247.53 301.18 244.86 303.00 242.00 C 300.08 238.09 297.23 234.03 295.61 229.38 C 291.22 217.39 286.81 205.37 280.82 194.06 C 278.91 193.95 277.01 193.84 275.10 193.73 M 38.10 200.09 C 38.32 214.25 43.61 227.74 50.28 240.03 C 50.59 237.10 51.30 234.11 50.77 231.16 C 49.60 228.77 47.83 226.73 46.76 224.28 C 43.66 217.40 43.24 209.67 43.68 202.24 C 41.83 201.50 39.97 200.77 38.10 200.09 M 83.74 222.77 C 76.47 233.87 69.82 245.43 64.47 257.59 C 63.06 260.39 66.20 262.63 67.49 264.83 C 71.89 254.88 76.52 244.86 83.23 236.20 C 90.00 227.33 97.25 218.60 106.44 212.12 C 104.82 208.11 103.30 204.07 101.65 200.07 C 95.41 207.41 89.30 214.89 83.74 222.77 M 47.80 203.63 C 48.31 210.96 48.93 218.48 52.14 225.22 C 54.92 218.69 57.62 212.07 60.19 205.44 C 56.03 205.02 51.90 204.39 47.80 203.63 M 77.89 259.95 C 76.04 263.28 73.97 266.49 72.06 269.80 C 73.99 271.94 76.00 274.01 78.09 276.01 C 82.83 263.47 91.57 253.15 100.05 243.01 C 104.31 238.17 109.11 233.87 113.99 229.69 C 112.60 225.93 110.92 222.28 109.04 218.74 C 97.06 231.13 85.72 244.49 77.89 259.95 M 83.17 280.70 C 85.15 282.69 87.24 284.58 89.62 286.08 C 97.75 270.84 108.96 256.93 123.61 247.56 C 121.84 244.00 119.91 240.52 117.85 237.12 C 103.92 249.54 92.18 264.36 83.17 280.70 M 285.28 241.04 C 286.71 247.38 287.02 253.89 288.04 260.30 C 289.78 258.73 291.25 256.90 292.52 254.93 C 290.59 250.06 288.12 245.43 285.28 241.04 M 105.15 278.14 C 102.06 282.40 98.81 286.55 95.94 290.97 C 98.35 292.98 100.95 294.75 103.76 296.16 C 108.14 288.10 114.11 281.01 120.90 274.89 C 125.17 270.90 130.55 268.53 135.19 265.09 C 132.96 261.66 130.69 258.25 128.14 255.05 C 119.86 262.09 111.63 269.35 105.15 278.14 M 140.35 271.19 C 137.79 275.64 134.05 279.13 129.88 282.05 C 136.55 282.14 143.21 281.81 149.88 281.82 C 146.65 278.33 143.62 274.65 140.35 271.19 M 125.43 286.24 C 120.69 289.89 116.80 294.51 112.93 299.04 C 118.32 300.05 123.72 301.19 129.19 301.71 C 136.46 301.91 143.73 301.32 151.00 301.40 C 156.83 301.42 162.87 301.04 168.20 298.46 C 163.52 295.24 159.54 291.03 154.91 287.86 C 145.08 287.58 135.23 286.99 125.43 286.24 M 163.29 309.17 C 156.34 311.39 148.96 310.53 141.79 310.47 C 137.58 310.48 133.40 309.96 129.26 309.29 C 139.09 313.21 149.51 315.51 159.98 316.88 C 170.99 317.41 182.07 317.30 192.97 315.50 C 186.62 311.50 179.92 308.02 174.07 303.26 C 170.76 305.69 167.27 308.01 163.29 309.17 Z" />
</g>
<g id="#ffffffff">
<path fill="#ffffff" opacity="1.00" d=" M 186.65 28.90 C 190.09 28.48 193.56 28.38 197.02 28.53 C 197.93 32.29 198.75 36.14 198.38 40.04 C 194.42 36.37 190.37 32.81 186.65 28.90 Z" />
<path fill="#ffffff" opacity="1.00" d=" M 201.28 28.83 C 206.25 28.53 211.25 28.88 216.09 30.12 C 215.43 38.26 212.76 46.06 211.35 54.08 C 208.51 51.10 205.60 48.13 203.32 44.71 C 203.31 39.35 202.86 33.98 201.28 28.83 Z" />
<path fill="#ffffff" opacity="1.00" d=" M 171.03 30.97 C 172.96 30.58 174.90 30.23 176.85 29.89 C 181.02 34.14 185.30 38.37 188.58 43.38 C 195.06 53.08 201.47 62.88 206.69 73.33 C 212.77 85.23 219.01 97.05 224.87 109.07 C 232.11 124.75 238.94 140.63 245.34 156.69 C 255.67 184.10 263.91 212.24 272.72 240.17 C 275.58 248.91 278.39 257.69 282.41 265.98 C 279.55 268.92 276.47 271.66 273.16 274.10 C 271.46 266.82 268.31 260.04 265.86 253.01 C 262.54 241.38 258.65 229.93 254.38 218.62 C 247.62 198.71 239.10 179.48 230.89 160.15 C 228.26 154.23 226.48 147.98 223.87 142.05 C 219.49 133.09 216.48 123.55 212.59 114.38 C 203.98 96.17 197.26 77.08 187.71 59.31 C 181.99 49.95 177.17 40.07 171.03 30.97 Z" />
<path fill="#ffffff" opacity="1.00" d=" M 220.14 30.97 C 227.40 32.09 234.57 34.07 241.27 37.08 C 237.97 46.40 235.90 56.10 232.31 65.31 C 230.14 70.91 229.37 76.97 229.69 82.95 C 225.40 75.04 220.39 67.54 215.64 59.92 C 216.95 50.27 219.68 40.77 220.14 30.97 Z" />
<path fill="#ffffff" opacity="1.00" d=" M 147.03 38.03 C 153.29 35.34 159.90 33.47 166.57 32.17 C 173.51 48.04 182.41 62.97 188.97 79.01 C 197.97 100.39 207.13 121.74 217.66 142.42 C 222.30 149.83 223.53 158.62 226.18 166.81 C 232.17 186.79 240.71 205.86 247.38 225.60 C 252.76 238.74 258.26 251.84 264.21 264.72 C 265.84 269.07 267.31 273.49 268.86 277.88 C 265.32 281.04 261.39 283.71 257.75 286.76 C 256.53 287.82 255.07 288.51 253.54 288.97 C 250.05 278.53 246.57 268.05 241.89 258.06 C 239.60 253.15 236.56 248.63 234.36 243.67 C 231.48 237.23 228.62 230.77 225.43 224.48 C 218.05 210.99 212.50 196.62 206.54 182.47 C 203.48 174.48 200.30 166.53 197.47 158.45 C 195.48 153.43 193.05 148.59 191.40 143.44 C 188.49 134.73 183.68 126.80 180.99 118.01 C 176.83 105.41 171.21 93.36 165.65 81.33 C 161.06 72.88 157.62 63.89 154.17 54.93 C 152.02 49.20 149.23 43.74 147.03 38.03 Z" />
<path fill="#ffffff" opacity="1.00" d=" M 246.05 39.22 C 252.32 42.43 258.73 45.54 264.18 50.08 C 261.34 55.63 258.81 61.34 257.43 67.45 C 249.89 70.46 242.58 74.00 235.96 78.75 C 238.89 65.45 244.20 52.75 246.05 39.22 Z" />
<path fill="#ffffff" opacity="1.00" d=" M 135.17 43.26 C 137.70 41.86 140.37 40.69 143.21 40.09 C 143.91 43.19 144.75 46.25 145.75 49.27 C 148.39 57.05 149.88 65.19 153.17 72.76 C 157.91 85.36 164.19 97.32 169.10 109.86 C 172.62 119.62 176.22 129.47 181.75 138.31 C 186.77 146.47 188.57 156.01 191.82 164.90 C 195.78 180.57 202.59 195.38 210.64 209.34 C 215.08 216.91 218.95 224.84 221.96 233.09 C 225.94 243.98 230.65 254.62 236.19 264.82 C 240.54 274.12 245.99 282.92 249.08 292.77 C 243.59 296.08 237.94 299.15 232.15 301.92 C 229.55 299.05 227.34 295.84 225.60 292.38 C 222.76 286.78 218.93 281.78 215.21 276.75 C 204.94 263.70 196.95 249.08 187.71 235.31 C 182.31 223.96 178.69 211.84 173.82 200.25 C 167.42 184.96 161.30 169.54 156.15 153.78 C 153.32 147.04 153.09 139.65 151.33 132.63 C 148.59 121.35 145.50 110.15 143.20 98.76 C 139.62 80.40 138.28 61.70 135.17 43.26 Z" />
<path fill="#ffffff" opacity="1.00" d=" M 119.73 52.03 C 122.61 49.90 125.70 48.07 128.97 46.61 C 129.55 56.06 130.41 65.50 130.48 74.98 C 132.49 105.41 142.45 134.43 150.23 163.69 C 154.68 176.48 158.98 189.33 164.05 201.89 C 168.59 212.84 172.19 224.30 178.67 234.33 C 185.01 243.64 189.49 254.04 195.24 263.72 C 200.37 273.53 207.94 281.70 214.40 290.61 C 218.13 295.74 223.56 299.37 227.11 304.59 C 224.50 305.52 221.91 307.05 219.06 306.87 C 216.57 305.96 214.62 304.03 212.62 302.36 C 206.42 296.55 201.22 289.78 195.38 283.63 C 188.15 276.51 180.49 269.76 174.28 261.69 C 169.25 255.11 163.31 249.27 158.48 242.53 C 151.24 231.91 146.66 219.82 142.15 207.87 C 135.88 192.44 131.29 176.36 127.70 160.11 C 125.98 152.17 124.80 144.13 122.94 136.23 C 121.14 124.25 119.40 112.19 119.48 100.05 C 119.53 90.04 119.31 80.04 119.20 70.04 C 119.67 64.05 119.76 58.04 119.73 52.03 Z" />
<path fill="#ffffff" opacity="1.00" d=" M 263.81 65.21 C 265.19 61.23 266.88 57.36 269.00 53.71 C 272.94 56.69 276.63 60.02 279.99 63.65 C 274.57 63.71 269.14 64.11 263.81 65.21 Z" />
<path fill="#ffffff" opacity="1.00" d=" M 106.54 63.74 C 107.11 60.25 110.34 58.41 112.77 56.26 C 112.15 63.51 111.95 70.78 110.81 77.97 C 110.43 90.63 110.07 103.33 111.54 115.93 C 114.88 146.22 120.04 176.69 131.96 204.91 C 136.34 216.89 142.32 228.18 148.96 239.05 C 155.00 248.53 161.96 257.37 168.49 266.51 C 177.19 277.72 187.75 287.32 198.60 296.40 C 203.56 301.09 209.09 305.13 215.03 308.49 C 211.93 310.92 207.09 312.68 203.38 310.59 C 193.02 305.53 183.87 298.41 175.48 290.57 C 168.03 284.65 162.18 277.11 155.80 270.11 C 147.29 259.66 139.99 248.24 133.74 236.30 C 128.73 227.35 124.17 218.13 120.54 208.52 C 112.79 187.33 106.45 165.43 104.21 142.91 C 102.05 130.74 103.03 118.31 102.05 106.03 C 101.99 97.68 102.12 89.31 102.81 80.99 C 103.53 75.14 105.20 69.47 106.54 63.74 Z" />
<path fill="#ffffff" opacity="1.00" d=" M 85.16 81.17 C 89.45 76.52 93.82 71.84 98.93 68.07 C 97.57 74.31 94.95 80.18 93.39 86.36 C 90.80 97.78 89.36 109.46 88.91 121.16 C 86.11 119.40 82.77 118.05 80.87 115.24 C 78.93 108.31 79.58 101.00 81.03 94.04 C 82.04 89.68 81.83 84.61 85.16 81.17 Z" />
<path fill="#ffffff" opacity="1.00" d=" M 254.13 81.15 C 265.38 77.17 277.47 77.46 288.98 74.77 C 290.73 76.46 292.25 78.38 293.22 80.63 C 273.99 83.05 256.31 91.57 239.16 100.12 C 237.17 96.99 235.40 93.73 234.04 90.27 C 240.38 86.50 247.26 83.78 254.13 81.15 Z" />
<path fill="#ffffff" opacity="1.00" d=" M 283.23 93.29 C 288.42 91.84 293.44 89.82 298.75 88.75 C 301.00 92.00 303.19 95.33 304.56 99.07 C 288.89 99.49 274.97 107.35 260.63 112.70 C 256.16 114.30 252.03 116.76 247.44 118.04 C 245.85 114.51 244.11 111.03 243.01 107.30 C 256.33 102.40 269.51 97.04 283.23 93.29 Z" />
<path fill="#ffffff" opacity="1.00" d=" M 66.59 106.02 C 69.21 101.07 72.45 96.49 75.86 92.06 C 74.82 98.45 74.98 104.91 75.20 111.36 C 72.09 109.99 69.23 108.14 66.59 106.02 Z" />
<path fill="#ffffff" opacity="1.00" d=" M 250.11 123.53 C 269.61 118.32 288.20 110.31 307.42 104.23 C 308.97 107.40 310.42 110.64 311.54 113.99 C 300.73 118.15 290.38 123.41 280.55 129.54 C 272.82 133.58 265.52 138.34 258.19 143.05 C 255.56 136.52 252.34 130.22 250.11 123.53 Z" />
<path fill="#ffffff" opacity="1.00" d=" M 62.27 112.91 C 70.04 119.14 77.64 125.68 86.37 130.58 C 91.25 132.65 89.39 138.90 89.71 143.07 C 83.32 139.69 77.28 135.70 71.22 131.77 C 66.58 128.78 61.32 126.95 56.54 124.20 C 58.26 120.34 60.16 116.57 62.27 112.91 Z" />
<path fill="#ffffff" opacity="1.00" d=" M 260.31 147.39 C 279.08 140.04 296.52 129.73 315.00 121.67 C 317.29 127.27 319.23 133.04 320.44 138.98 C 308.15 143.43 295.82 148.00 284.37 154.40 C 278.18 157.44 272.20 160.86 266.15 164.16 C 264.05 158.64 261.56 153.15 260.31 147.39 Z" />
<path fill="#ffffff" opacity="1.00" d=" M 54.37 129.07 C 64.55 133.00 73.66 139.18 82.51 145.47 C 84.92 147.13 87.71 148.13 90.12 149.78 C 91.53 152.58 91.41 155.89 91.76 158.95 C 84.89 155.65 78.57 151.14 71.24 148.84 C 64.25 146.74 57.08 145.35 49.96 143.78 C 50.90 138.73 52.79 133.94 54.37 129.07 Z" />
<path fill="#ffffff" opacity="1.00" d=" M 309.64 152.56 C 314.02 150.75 317.82 147.88 322.01 145.70 C 323.57 151.14 324.44 156.75 324.84 162.38 C 313.66 165.61 304.56 173.18 294.31 178.33 C 287.37 181.30 280.31 184.03 273.12 186.31 C 271.14 180.81 269.64 175.15 268.21 169.48 C 274.19 167.49 280.33 165.85 285.95 162.91 C 293.66 159.04 301.68 155.87 309.64 152.56 Z" />
<path fill="#ffffff" opacity="1.00" d=" M 48.36 148.13 C 57.92 151.74 68.45 153.10 77.08 158.89 C 81.91 162.07 87.05 164.76 92.38 167.01 C 89.50 169.29 86.53 171.46 83.62 173.69 C 77.94 172.14 72.63 169.47 66.86 168.19 C 58.59 166.52 50.40 164.32 41.94 163.85 C 43.77 158.48 46.55 153.51 48.36 148.13 Z" />
<path fill="#ffffff" opacity="1.00" d=" M 40.37 168.21 C 53.05 171.02 65.69 174.02 77.90 178.51 C 76.84 180.91 75.12 182.90 73.22 184.67 C 69.55 182.67 65.46 181.58 61.29 181.36 C 53.78 180.90 46.57 178.66 39.20 177.34 C 39.25 174.26 39.65 171.20 40.37 168.21 Z" />
<path fill="#ffffff" opacity="1.00" d=" M 317.94 178.33 C 320.58 176.06 323.27 173.84 325.72 171.35 C 324.86 177.99 325.91 184.87 324.01 191.35 C 321.70 187.15 319.59 182.83 317.94 178.33 Z" />
<path fill="#ffffff" opacity="1.00" d=" M 69.16 212.11 C 75.97 199.36 85.19 188.05 95.52 178.01 C 96.43 182.96 98.75 187.73 98.98 192.73 C 89.02 201.29 80.70 211.58 73.53 222.55 C 67.60 231.90 63.16 242.06 58.84 252.22 C 57.58 250.76 56.36 249.26 55.13 247.77 C 58.03 235.29 62.21 222.95 69.16 212.11 Z" />
<path fill="#ffffff" opacity="1.00" d=" M 303.86 186.32 C 307.14 184.56 310.40 182.74 313.76 181.14 C 315.98 188.31 319.06 195.17 321.55 202.23 C 321.77 206.54 319.66 210.63 318.08 214.55 C 311.85 205.94 308.48 195.79 303.86 186.32 Z" />
<path fill="#ffffff" opacity="1.00" d=" M 38.36 182.07 C 48.33 186.35 59.04 189.45 70.00 188.33 C 67.99 192.94 65.23 197.16 62.71 201.49 C 55.10 197.53 46.31 197.51 38.13 195.46 C 37.20 191.03 37.91 186.51 38.36 182.07 Z" />
<path fill="#ffffff" opacity="1.00" d=" M 285.67 193.08 C 290.54 191.57 295.38 189.97 300.13 188.13 C 301.75 193.27 303.39 198.43 305.71 203.31 C 308.48 209.43 312.43 214.92 315.42 220.93 C 312.49 226.90 309.83 233.22 305.32 238.21 C 299.00 223.06 294.48 207.07 285.67 193.08 Z" />
<path fill="#ffffff" opacity="1.00" d=" M 275.10 193.73 C 277.01 193.84 278.91 193.95 280.82 194.06 C 286.81 205.37 291.22 217.39 295.61 229.38 C 297.23 234.03 300.08 238.09 303.00 242.00 C 301.18 244.86 299.10 247.53 296.89 250.09 C 293.72 244.44 291.17 238.21 286.11 233.92 C 283.72 232.14 283.31 229.09 282.74 226.38 C 280.57 215.41 277.54 204.64 275.10 193.73 Z" />
<path fill="#ffffff" opacity="1.00" d=" M 38.10 200.09 C 39.97 200.77 41.83 201.50 43.68 202.24 C 43.24 209.67 43.66 217.40 46.76 224.28 C 47.83 226.73 49.60 228.77 50.77 231.16 C 51.30 234.11 50.59 237.10 50.28 240.03 C 43.61 227.74 38.32 214.25 38.10 200.09 Z" />
<path fill="#ffffff" opacity="1.00" d=" M 83.74 222.77 C 89.30 214.89 95.41 207.41 101.65 200.07 C 103.30 204.07 104.82 208.11 106.44 212.12 C 97.25 218.60 90.00 227.33 83.23 236.20 C 76.52 244.86 71.89 254.88 67.49 264.83 C 66.20 262.63 63.06 260.39 64.47 257.59 C 69.82 245.43 76.47 233.87 83.74 222.77 Z" />
<path fill="#ffffff" opacity="1.00" d=" M 47.80 203.63 C 51.90 204.39 56.03 205.02 60.19 205.44 C 57.62 212.07 54.92 218.69 52.14 225.22 C 48.93 218.48 48.31 210.96 47.80 203.63 Z" />
<path fill="#ffffff" opacity="1.00" d=" M 77.89 259.95 C 85.72 244.49 97.06 231.13 109.04 218.74 C 110.92 222.28 112.60 225.93 113.99 229.69 C 109.11 233.87 104.31 238.17 100.05 243.01 C 91.57 253.15 82.83 263.47 78.09 276.01 C 76.00 274.01 73.99 271.94 72.06 269.80 C 73.97 266.49 76.04 263.28 77.89 259.95 Z" />
<path fill="#ffffff" opacity="1.00" d=" M 83.17 280.70 C 92.18 264.36 103.92 249.54 117.85 237.12 C 119.91 240.52 121.84 244.00 123.61 247.56 C 108.96 256.93 97.75 270.84 89.62 286.08 C 87.24 284.58 85.15 282.69 83.17 280.70 Z" />
<path fill="#ffffff" opacity="1.00" d=" M 285.28 241.04 C 288.12 245.43 290.59 250.06 292.52 254.93 C 291.25 256.90 289.78 258.73 288.04 260.30 C 287.02 253.89 286.71 247.38 285.28 241.04 Z" />
<path fill="#ffffff" opacity="1.00" d=" M 105.15 278.14 C 111.63 269.35 119.86 262.09 128.14 255.05 C 130.69 258.25 132.96 261.66 135.19 265.09 C 130.55 268.53 125.17 270.90 120.90 274.89 C 114.11 281.01 108.14 288.10 103.76 296.16 C 100.95 294.75 98.35 292.98 95.94 290.97 C 98.81 286.55 102.06 282.40 105.15 278.14 Z" />
<path fill="#ffffff" opacity="1.00" d=" M 140.35 271.19 C 143.62 274.65 146.65 278.33 149.88 281.82 C 143.21 281.81 136.55 282.14 129.88 282.05 C 134.05 279.13 137.79 275.64 140.35 271.19 Z" />
<path fill="#ffffff" opacity="1.00" d=" M 125.43 286.24 C 135.23 286.99 145.08 287.58 154.91 287.86 C 159.54 291.03 163.52 295.24 168.20 298.46 C 162.87 301.04 156.83 301.42 151.00 301.40 C 143.73 301.32 136.46 301.91 129.19 301.71 C 123.72 301.19 118.32 300.05 112.93 299.04 C 116.80 294.51 120.69 289.89 125.43 286.24 Z" />
<path fill="#ffffff" opacity="1.00" d=" M 163.29 309.17 C 167.27 308.01 170.76 305.69 174.07 303.26 C 179.92 308.02 186.62 311.50 192.97 315.50 C 182.07 317.30 170.99 317.41 159.98 316.88 C 149.51 315.51 139.09 313.21 129.26 309.29 C 133.40 309.96 137.58 310.48 141.79 310.47 C 148.96 310.53 156.34 311.39 163.29 309.17 Z" />
</g>
</svg>
