<?xml version="1.0" encoding="UTF-8" ?>
<!DOCTYPE svg PUBLIC "-//W3C//DTD SVG 1.1//EN" "http://www.w3.org/Graphics/SVG/1.1/DTD/svg11.dtd">
<svg width="400pt" height="400pt" viewBox="0 0 400 400" version="1.1" xmlns="http://www.w3.org/2000/svg">
<g id="#000000ff">
<path fill="#000000" opacity="1.00" d=" M 264.15 21.18 C 269.81 17.70 276.23 15.19 282.93 14.99 C 292.09 14.60 301.61 14.36 310.30 17.73 C 315.92 19.80 321.21 23.45 324.15 28.79 C 326.12 32.40 325.21 36.64 324.43 40.44 C 320.38 58.19 316.21 75.91 312.91 93.82 C 312.10 98.17 312.38 102.60 312.38 106.99 C 311.52 132.26 308.43 157.38 306.42 182.56 C 305.34 191.00 305.80 199.54 304.91 207.99 C 303.33 230.66 304.79 253.38 306.15 276.02 C 306.60 289.59 308.65 303.03 309.53 316.57 C 310.45 324.31 309.96 332.25 312.08 339.82 C 314.73 350.01 316.24 360.55 316.04 371.09 C 316.04 378.98 311.05 386.95 303.33 389.33 C 296.94 391.25 290.17 390.83 283.60 391.65 C 275.98 392.57 267.85 393.26 260.55 390.40 C 253.00 385.46 249.32 376.58 246.42 368.38 C 232.89 368.62 219.60 365.94 206.17 364.81 C 200.50 364.40 194.87 362.44 189.16 363.27 C 184.04 364.68 179.18 367.02 173.91 367.92 C 156.16 371.30 138.09 373.74 119.98 372.86 C 110.69 372.60 100.24 372.67 92.82 366.18 C 88.42 362.93 87.62 357.12 87.33 352.04 C 87.07 345.04 86.95 337.97 87.99 331.02 C 88.74 326.79 89.69 322.07 93.43 319.42 C 102.86 312.07 113.99 306.69 125.85 304.75 C 133.11 303.18 140.56 302.83 147.92 301.96 C 147.87 298.28 147.90 294.60 147.64 290.93 C 147.52 285.99 142.75 282.79 142.25 277.94 C 141.17 263.96 142.87 249.97 142.87 235.98 C 143.76 224.60 144.13 213.16 145.75 201.84 C 146.74 194.59 147.32 187.29 147.47 179.98 C 147.64 172.76 149.64 165.41 147.67 158.28 C 145.21 149.17 146.00 139.63 144.87 130.33 C 144.01 107.83 140.25 85.56 139.15 63.08 C 138.88 55.85 138.20 48.51 139.52 41.35 C 140.28 37.15 144.27 34.86 147.14 32.14 C 156.06 24.27 168.13 20.18 179.99 20.86 C 184.63 21.46 189.38 22.91 193.02 25.95 C 195.74 28.36 195.00 32.39 195.38 35.63 C 195.68 49.45 196.75 63.23 197.15 77.04 C 198.58 94.84 201.11 112.62 200.32 130.51 C 199.83 135.40 199.85 140.33 200.25 145.23 C 210.84 143.50 221.18 139.68 232.03 139.99 C 234.67 140.01 237.31 140.18 239.95 140.38 C 241.21 128.96 242.72 117.58 244.20 106.19 C 245.74 95.36 248.24 84.71 249.94 73.92 C 251.58 65.12 252.60 56.22 254.30 47.44 C 255.59 40.55 256.35 33.48 258.94 26.92 C 259.90 24.43 261.91 22.54 264.15 21.18 M 267.57 28.38 C 267.23 42.71 266.52 57.05 264.31 71.22 C 262.84 91.07 257.35 110.31 254.93 130.02 C 254.10 134.77 256.68 139.11 258.12 143.47 C 260.68 140.76 263.44 137.78 267.52 137.91 C 266.66 142.73 263.46 146.57 261.75 151.05 C 262.33 154.17 264.62 156.64 266.18 159.32 C 268.51 155.76 270.94 151.88 275.37 150.74 C 277.70 156.23 272.72 160.62 270.45 165.14 C 272.73 167.89 275.18 170.50 277.67 173.07 C 278.71 169.22 278.97 164.86 281.61 161.67 C 282.99 161.28 284.42 161.14 285.85 160.94 C 287.50 166.75 284.99 172.42 283.48 177.94 C 285.96 179.95 288.45 181.95 290.93 183.97 C 292.69 158.26 295.55 132.62 299.41 107.15 C 302.02 97.90 302.10 88.25 303.75 78.83 C 305.51 64.86 308.36 51.07 311.35 37.32 C 301.78 33.77 292.37 28.84 281.95 28.53 C 277.17 28.22 272.36 28.08 267.57 28.38 M 167.69 33.63 C 160.82 34.46 154.58 37.59 148.01 39.54 C 149.64 51.22 150.34 63.02 151.23 74.78 C 153.43 93.46 155.91 112.18 155.85 131.02 C 155.64 140.56 154.21 150.10 155.15 159.65 C 155.80 166.08 155.35 172.55 155.94 178.99 C 156.90 188.34 154.91 197.66 155.16 207.02 C 155.37 212.68 154.48 218.30 154.40 223.95 C 153.99 235.68 151.81 247.24 151.56 258.98 C 150.91 264.81 150.32 270.64 150.33 276.52 C 154.70 278.13 159.22 279.50 163.93 279.46 C 163.77 270.63 164.74 261.84 164.60 253.01 C 165.07 244.62 165.69 235.61 171.03 228.69 C 172.46 231.23 174.31 233.84 173.92 236.91 C 173.49 243.93 173.25 250.96 173.12 257.99 C 173.53 266.72 175.47 275.88 172.32 284.33 C 169.87 289.59 163.29 289.37 158.41 290.30 C 158.37 294.32 158.11 298.33 158.04 302.34 C 160.60 303.23 163.39 303.83 165.54 305.58 C 166.30 307.53 166.43 310.15 164.56 311.54 C 159.92 315.19 153.79 315.93 148.07 315.97 C 141.75 315.95 135.44 316.36 129.13 316.28 C 117.90 316.92 107.16 320.47 96.40 323.43 C 96.42 336.59 96.11 349.75 97.08 362.89 C 107.17 363.93 117.29 362.77 127.26 361.27 C 139.05 360.55 150.57 357.75 162.30 356.53 C 168.65 355.97 175.04 355.99 181.41 356.27 C 179.95 353.11 178.27 350.03 177.14 346.73 C 175.89 343.04 176.10 339.09 176.29 335.26 C 177.42 335.29 178.56 335.32 179.70 335.36 C 183.54 340.66 185.82 346.96 190.02 352.01 C 191.46 353.45 192.83 355.55 195.10 355.57 C 206.08 355.87 217.07 356.08 228.06 356.27 C 233.89 356.33 239.48 358.14 245.09 359.53 C 244.39 352.78 243.14 346.03 243.26 339.24 C 244.57 333.05 248.92 327.61 254.18 324.22 C 257.43 322.20 261.20 323.78 264.01 325.79 C 258.47 331.24 251.57 336.77 250.44 344.95 C 251.00 354.82 254.68 364.20 256.04 373.96 C 256.25 377.05 258.97 378.98 260.80 381.19 C 263.55 384.00 266.94 387.98 271.36 386.44 C 281.61 383.50 292.16 382.05 302.81 381.87 C 304.31 379.18 305.77 376.40 306.33 373.33 C 307.53 368.59 306.10 363.76 306.02 358.97 C 305.76 355.91 306.00 351.75 302.35 350.65 C 292.43 344.89 280.83 349.19 270.17 347.21 C 270.30 345.10 270.55 342.75 272.72 341.75 C 281.70 336.28 293.09 334.43 303.21 337.62 C 301.93 331.77 300.88 325.88 300.08 319.96 C 295.81 293.79 291.29 267.51 290.97 240.94 C 289.50 223.25 290.31 205.46 290.64 187.74 C 287.89 186.61 285.33 184.89 282.39 184.34 C 280.69 185.10 279.11 186.12 277.48 187.02 C 276.80 184.41 276.69 181.63 275.66 179.12 C 273.31 175.83 270.04 173.33 267.24 170.43 C 266.01 172.17 264.78 173.91 263.55 175.66 C 262.38 175.64 261.20 175.63 260.03 175.62 C 260.30 171.93 261.73 168.51 262.63 164.97 C 261.70 162.35 259.92 160.15 258.44 157.83 C 256.53 158.96 254.51 159.89 252.50 160.82 C 252.24 157.53 253.04 154.33 254.06 151.23 C 255.14 148.10 253.49 144.94 252.85 141.89 C 250.82 149.48 249.45 157.51 245.34 164.32 C 244.22 166.58 241.48 166.03 239.43 166.03 C 238.69 162.54 238.29 158.99 238.22 155.42 C 230.52 155.91 222.80 155.90 215.10 156.23 C 206.74 156.98 198.34 157.58 189.94 157.27 C 187.12 157.22 184.23 156.57 181.87 154.97 C 181.03 153.84 180.97 152.17 181.90 151.07 C 184.74 149.31 188.05 148.58 191.21 147.63 C 189.43 133.86 187.24 120.10 186.71 106.21 C 185.43 88.84 184.38 71.38 185.40 53.97 C 186.26 47.43 185.37 40.85 185.86 34.29 C 179.84 33.64 173.72 32.31 167.69 33.63 Z" />
<path fill="#000000" opacity="1.00" d=" M 175.36 184.16 C 181.24 182.14 186.20 188.41 185.15 193.91 C 184.87 201.26 173.33 203.26 169.79 197.21 C 167.06 192.25 170.30 186.02 175.36 184.16 Z" />
<path fill="#000000" opacity="1.00" d=" M 238.40 186.34 C 246.87 183.78 252.08 197.62 245.17 202.26 C 241.64 205.15 236.92 202.60 234.58 199.45 C 231.02 195.27 233.58 188.32 238.40 186.34 Z" />
<path fill="#000000" opacity="1.00" d=" M 178.06 208.50 C 186.37 208.48 194.67 207.35 202.99 207.97 C 212.16 208.22 221.30 209.16 230.48 209.33 C 236.89 209.82 243.45 208.84 249.75 210.52 C 249.73 212.87 249.67 216.12 246.61 216.38 C 231.11 218.35 215.53 215.64 200.02 214.90 C 188.62 214.01 176.95 215.26 165.78 212.39 C 165.60 211.72 165.25 210.38 165.07 209.71 C 169.34 208.79 173.70 208.49 178.06 208.50 Z" />
<path fill="#000000" opacity="1.00" d=" M 277.58 230.63 C 279.16 228.21 282.99 227.93 284.94 230.05 C 286.54 231.54 286.56 233.90 286.56 235.93 C 286.42 242.29 285.34 248.61 285.66 254.98 C 286.12 264.01 288.24 272.96 287.49 282.04 C 287.19 286.95 283.83 291.17 279.91 293.88 C 275.21 296.54 269.52 297.06 264.23 296.51 C 259.10 295.78 255.56 290.93 254.79 286.06 C 253.28 277.46 253.44 268.68 253.86 260.00 C 253.54 251.53 252.90 242.93 254.80 234.59 C 255.26 232.64 256.81 231.25 258.00 229.75 C 259.40 231.43 261.09 233.10 261.38 235.38 C 262.90 243.80 262.80 252.39 263.20 260.90 C 264.63 269.30 264.42 277.85 265.65 286.29 C 269.11 285.95 272.98 286.10 275.90 283.93 C 277.91 279.34 276.57 274.09 276.40 269.25 C 274.87 258.99 275.12 248.59 275.63 238.26 C 275.87 235.65 276.14 232.89 277.58 230.63 Z" />
</g>
<g id="#ffffffff">
<path fill="#ffffff" opacity="1.00" d=" M 267.57 28.38 C 272.36 28.08 277.17 28.22 281.95 28.53 C 292.37 28.84 301.78 33.77 311.35 37.32 C 308.36 51.07 305.51 64.86 303.75 78.83 C 302.10 88.25 302.02 97.90 299.41 107.15 C 295.55 132.62 292.69 158.26 290.93 183.97 C 288.45 181.95 285.96 179.95 283.48 177.94 C 284.99 172.42 287.50 166.75 285.85 160.94 C 284.42 161.14 282.99 161.28 281.61 161.67 C 278.97 164.86 278.71 169.22 277.67 173.07 C 275.18 170.50 272.73 167.89 270.45 165.14 C 272.72 160.62 277.70 156.23 275.37 150.74 C 270.94 151.88 268.51 155.76 266.18 159.32 C 264.62 156.64 262.33 154.17 261.75 151.05 C 263.46 146.57 266.66 142.73 267.52 137.91 C 263.44 137.78 260.68 140.76 258.12 143.47 C 256.68 139.11 254.10 134.77 254.93 130.02 C 257.35 110.31 262.84 91.07 264.31 71.22 C 266.52 57.05 267.23 42.71 267.57 28.38 Z" />
<path fill="#ffffff" opacity="1.00" d=" M 167.69 33.63 C 173.72 32.31 179.84 33.64 185.86 34.29 C 185.37 40.85 186.26 47.43 185.40 53.97 C 184.38 71.38 185.43 88.84 186.71 106.21 C 187.24 120.10 189.43 133.86 191.21 147.63 C 188.05 148.58 184.74 149.31 181.90 151.07 C 180.97 152.17 181.03 153.84 181.87 154.97 C 184.23 156.57 187.12 157.22 189.94 157.27 C 198.34 157.58 206.74 156.98 215.10 156.23 C 222.80 155.90 230.52 155.91 238.22 155.42 C 238.29 158.99 238.69 162.54 239.43 166.03 C 241.48 166.03 244.22 166.58 245.34 164.32 C 249.45 157.51 250.82 149.48 252.85 141.89 C 253.49 144.94 255.14 148.10 254.06 151.23 C 253.04 154.33 252.24 157.53 252.50 160.82 C 254.51 159.89 256.53 158.96 258.44 157.83 C 259.92 160.15 261.70 162.35 262.63 164.97 C 261.73 168.51 260.30 171.93 260.03 175.62 C 261.20 175.63 262.38 175.64 263.55 175.66 C 264.78 173.91 266.01 172.17 267.24 170.43 C 270.04 173.33 273.31 175.83 275.66 179.12 C 276.69 181.63 276.80 184.41 277.48 187.02 C 279.11 186.12 280.69 185.10 282.39 184.34 C 285.33 184.89 287.89 186.61 290.64 187.74 C 290.31 205.46 289.50 223.25 290.97 240.94 C 291.29 267.51 295.81 293.79 300.08 319.96 C 300.88 325.88 301.93 331.77 303.21 337.62 C 293.09 334.43 281.70 336.28 272.72 341.75 C 270.55 342.75 270.30 345.10 270.17 347.21 C 280.83 349.19 292.43 344.89 302.35 350.65 C 306.00 351.75 305.76 355.91 306.02 358.97 C 306.10 363.76 307.53 368.59 306.33 373.33 C 305.77 376.40 304.31 379.18 302.81 381.87 C 292.16 382.05 281.61 383.50 271.36 386.44 C 266.94 387.98 263.55 384.00 260.80 381.19 C 258.97 378.98 256.25 377.05 256.04 373.96 C 254.68 364.20 251.00 354.82 250.44 344.95 C 251.57 336.77 258.47 331.24 264.01 325.79 C 261.20 323.78 257.43 322.20 254.18 324.22 C 248.92 327.61 244.57 333.05 243.26 339.24 C 243.14 346.03 244.39 352.78 245.09 359.53 C 239.48 358.14 233.89 356.33 228.06 356.27 C 217.07 356.08 206.08 355.87 195.10 355.57 C 192.83 355.55 191.46 353.45 190.02 352.01 C 185.82 346.96 183.54 340.66 179.70 335.36 C 178.56 335.32 177.42 335.29 176.29 335.26 C 176.10 339.09 175.89 343.04 177.14 346.73 C 178.27 350.03 179.95 353.11 181.41 356.27 C 175.04 355.99 168.65 355.97 162.30 356.53 C 150.57 357.75 139.05 360.55 127.26 361.27 C 117.29 362.77 107.17 363.93 97.08 362.89 C 96.11 349.75 96.42 336.59 96.40 323.43 C 107.16 320.47 117.90 316.92 129.13 316.28 C 135.44 316.36 141.75 315.95 148.07 315.97 C 153.79 315.93 159.92 315.19 164.56 311.54 C 166.43 310.15 166.30 307.53 165.54 305.58 C 163.39 303.83 160.60 303.23 158.04 302.34 C 158.11 298.33 158.37 294.32 158.41 290.30 C 163.29 289.37 169.87 289.59 172.32 284.33 C 175.47 275.88 173.53 266.72 173.12 257.99 C 173.25 250.96 173.49 243.93 173.92 236.91 C 174.31 233.84 172.46 231.23 171.03 228.69 C 165.69 235.61 165.07 244.62 164.60 253.01 C 164.74 261.84 163.77 270.63 163.93 279.46 C 159.22 279.50 154.70 278.13 150.33 276.52 C 150.32 270.64 150.91 264.81 151.56 258.98 C 151.81 247.24 153.99 235.68 154.40 223.95 C 154.48 218.30 155.37 212.68 155.16 207.02 C 154.91 197.66 156.90 188.34 155.94 178.99 C 155.35 172.55 155.80 166.08 155.15 159.65 C 154.21 150.10 155.64 140.56 155.85 131.02 C 155.91 112.18 153.43 93.46 151.23 74.78 C 150.34 63.02 149.64 51.22 148.01 39.54 C 154.58 37.59 160.82 34.46 167.69 33.63 M 175.36 184.16 C 170.30 186.02 167.06 192.25 169.79 197.21 C 173.33 203.26 184.87 201.26 185.15 193.91 C 186.20 188.41 181.24 182.14 175.36 184.16 M 238.40 186.34 C 233.58 188.32 231.02 195.27 234.58 199.45 C 236.92 202.60 241.64 205.15 245.17 202.26 C 252.08 197.62 246.87 183.78 238.40 186.34 M 178.06 208.50 C 173.70 208.49 169.34 208.79 165.07 209.71 C 165.25 210.38 165.60 211.72 165.78 212.39 C 176.95 215.26 188.62 214.01 200.02 214.90 C 215.53 215.64 231.11 218.35 246.61 216.38 C 249.67 216.12 249.73 212.87 249.75 210.52 C 243.45 208.84 236.89 209.82 230.48 209.33 C 221.30 209.16 212.16 208.22 202.99 207.97 C 194.67 207.35 186.37 208.48 178.06 208.50 M 277.58 230.63 C 276.14 232.89 275.87 235.65 275.63 238.26 C 275.12 248.59 274.87 258.99 276.40 269.25 C 276.57 274.09 277.91 279.34 275.90 283.93 C 272.98 286.10 269.11 285.95 265.65 286.29 C 264.42 277.85 264.63 269.30 263.20 260.90 C 262.80 252.39 262.90 243.80 261.38 235.38 C 261.09 233.10 259.40 231.43 258.00 229.75 C 256.81 231.25 255.26 232.64 254.80 234.59 C 252.90 242.93 253.54 251.53 253.86 260.00 C 253.44 268.68 253.28 277.46 254.79 286.06 C 255.56 290.93 259.10 295.78 264.23 296.51 C 269.52 297.06 275.21 296.54 279.91 293.88 C 283.83 291.17 287.19 286.95 287.49 282.04 C 288.24 272.96 286.12 264.01 285.66 254.98 C 285.34 248.61 286.42 242.29 286.56 235.93 C 286.56 233.90 286.54 231.54 284.94 230.05 C 282.99 227.93 279.16 228.21 277.58 230.63 Z" />
</g>
</svg>
